<?xml version="1.0" encoding="UTF-8"?>
<svg id="_레이어_1" data-name="레이어 1" xmlns="http://www.w3.org/2000/svg" viewBox="0 0 90.5 90.5">
  <defs>
    <style>
      .cls-1 {
        fill: #00cdde;
      }

      .cls-2 {
        fill: #fff;
      }

      .cls-3 {
        fill: #ff0;
      }
    </style>
  </defs>
  <g>
    <circle class="cls-1" cx="45.25" cy="45.25" r="42.02"/>
    <path class="cls-3" d="M45.25,90.5c-6.11,0-12.03-1.2-17.61-3.56-5.39-2.28-10.23-5.54-14.38-9.7s-7.42-8.99-9.7-14.38c-2.36-5.58-3.56-11.51-3.56-17.61s1.2-12.03,3.56-17.61c2.28-5.39,5.54-10.23,9.7-14.38,4.15-4.15,8.99-7.42,14.38-9.7,5.58-2.36,11.51-3.56,17.61-3.56s12.03,1.2,17.61,3.56c5.39,2.28,10.23,5.54,14.38,9.7,4.15,4.15,7.42,8.99,9.7,14.38,2.36,5.58,3.56,11.51,3.56,17.61s-1.2,12.03-3.56,17.61c-2.28,5.39-5.54,10.23-9.7,14.38-4.15,4.15-8.99,7.42-14.38,9.7-5.58,2.36-11.51,3.56-17.61,3.56ZM45.25,6.47c-5.24,0-10.32,1.02-15.1,3.05-4.62,1.95-8.77,4.75-12.33,8.31s-6.36,7.71-8.31,12.33c-2.02,4.78-3.05,9.86-3.05,15.1s1.02,10.32,3.05,15.1c1.95,4.62,4.75,8.77,8.31,12.33,3.56,3.56,7.71,6.36,12.33,8.31,4.78,2.02,9.86,3.05,15.1,3.05s10.32-1.02,15.1-3.05c4.62-1.95,8.77-4.75,12.33-8.31,3.56-3.56,6.36-7.71,8.31-12.33,2.02-4.78,3.05-9.86,3.05-15.1s-1.02-10.32-3.05-15.1c-1.95-4.62-4.75-8.77-8.31-12.33-3.56-3.56-7.71-6.36-12.33-8.31-4.78-2.02-9.86-3.05-15.1-3.05Z"/>
  </g>
  <rect class="cls-2" x="22.82" y="22.82" width="44.87" height="44.87"/>
  <g>
    <polygon points="52.33 52.24 59.17 52.23 59.16 47.93 47.78 47.94 47.79 61.35 59.18 61.34 59.17 56.98 52.33 56.99 52.33 52.24"/>
    <rect x="32.81" y="30.18" width="7.49" height="2.73" transform="translate(-.04 .05) rotate(-.07)"/>
    <path d="M53.6,43.65c3.71,0,6.73-2.98,6.72-6.63,0-3.65-3.03-6.62-6.74-6.62-3.71,0-6.73,2.98-6.72,6.63,0,3.65,3.03,6.62,6.74,6.62M50.9,37.03c0-1.46,1.21-2.65,2.69-2.65,1.48,0,2.69,1.18,2.69,2.65,0,1.46-1.2,2.65-2.69,2.65-1.48,0-2.69-1.19-2.69-2.65"/>
    <path d="M36.69,41.03c-1.07,0-1.94-.85-1.94-1.9s.87-1.91,1.93-1.91c1.07,0,1.94.85,1.94,1.9s-.87,1.91-1.93,1.91M42.88,33.24h-12.64s0,3.57,0,3.57h.96c-.31.71-.48,1.49-.48,2.32,0,3.24,2.69,5.87,5.98,5.87,3.29,0,5.97-2.64,5.96-5.88,0-.82-.18-1.61-.49-2.32h.71s0-3.56,0-3.56Z"/>
    <polygon points="29.74 60.27 33.92 61.89 36.74 55.78 39.58 61.89 43.75 60.25 36.7 47.4 29.74 60.27"/>
  </g>
</svg>