<?xml version="1.0" encoding="UTF-8"?>
<svg id="_레이어_1" data-name="레이어 1" xmlns="http://www.w3.org/2000/svg" viewBox="0 0 450 70.02">
  <polygon points="273.7 69.89 289.89 69.89 289.89 2.1 273.7 2.1 273.7 29.32 243.16 29.32 243.16 2.1 226.96 2.1 226.96 69.89 243.16 69.89 243.16 42.47 273.7 42.47 273.7 69.89"/>
  <polygon points="47.82 69.89 64.01 69.89 64.01 2.1 47.82 2.1 47.82 29.32 16.2 29.32 16.2 2.1 0 2.1 0 69.89 16.2 69.89 16.2 42.47 47.82 42.47 47.82 69.89"/>
  <path d="M178.33,42.96s7.74.19,14.52-.14c6.78-.33,12.88-2.49,16.33-6.01,3.96-4.05,5.99-8.99,5.99-14.62s-2.02-10.14-6.06-14.13c-4.05-3.98-9.49-5.97-16.35-5.97h-31.31v67.79h16.89v-26.92ZM178.33,14.52h7.38c4.53,0,13.5.35,13.5,7.86,0,5.24-4.59,7.86-11.61,7.86h-9.27v-15.72Z"/>
  <polygon points="450 1.96 434.75 2.03 434.91 43.47 398.56 2.17 384.97 2.23 384.97 70.02 400.22 69.95 400.05 26.52 437.64 69.81 450 69.75 450 1.96"/>
  <rect x="307.76" y="29.24" width="60.22" height="13.5"/>
  <rect x="307.76" y="2.1" width="60.22" height="13.5"/>
  <rect x="307.76" y="56.39" width="60.22" height="13.5"/>
  <g>
    <rect x="104.04" y="33.64" width="18.58" height="36.25"/>
    <rect x="114.86" y="8.61" width="35.51" height="16.42" transform="translate(13.78 78.04) rotate(-34.48)"/>
    <rect x="85.85" y="-.94" width="16.41" height="35.51" transform="translate(26.94 84.82) rotate(-55.52)"/>
  </g>
</svg>