<?xml version="1.0" encoding="UTF-8"?>
<svg id="_레이어_1" data-name="레이어 1" xmlns="http://www.w3.org/2000/svg" viewBox="0 0 450 317.12">
  <path d="M437.15,153.66C404.75,84.25,318.16,0,225.21,0S45.15,85.08,12.75,154.49c-32.39,69.4,1.12,127.45,53.3,127.55,22.67.04,30.15-36.34.38-56.59-18.3-12.45-21.48-62.24,28.79-62.4,21.55-.07,12.05,36.28,37.32,48.54,16.12,7.81,92.45,7.64,92.45,7.64,0,0,68.44-.3,85.95-7.64,34.31-14.37,22.7-48.61,44.23-48.54,50.28.15,47.11,49.95,28.81,62.4-29.77,20.25-22.29,56.63.37,56.59,52.19-.1,85.18-58.97,52.78-128.39ZM141.28,112.03c-6.11,0-11.07-4.95-11.07-11.06s4.96-11.07,11.07-11.07,11.07,4.96,11.07,11.07-4.96,11.06-11.07,11.06ZM265.54,101.73c-3.78,5.99-7.56,11.96-11.34,17.95-1.87,2.95-6.03,2.95-7.9,0-2.44-3.87-4.89-7.75-7.34-11.62-2.38,3.87-4.76,7.74-7.15,11.62-1.92,3.12-5.91,2.76-7.89,0-2.99-4.16-5.97-8.31-8.96-12.46-2.99,4.15-5.98,8.31-8.97,12.46-2.01,2.79-5.94,3.08-7.89,0-3.79-5.99-7.57-11.96-11.35-17.95-3.16-5.01,4.76-9.58,7.9-4.62,2.55,4.04,5.1,8.08,7.65,12.11,2.9-4.04,5.81-8.07,8.71-12.11,2.1-2.92,5.79-2.92,7.89,0,2.88,4.01,5.77,8.03,8.65,12.04,2.47-4.01,4.93-8.02,7.4-12.04,1.83-2.98,6.05-2.92,7.89,0,2.46,3.9,4.93,7.8,7.4,11.7,2.47-3.9,4.93-7.8,7.4-11.7,3.14-4.96,11.05-.38,7.89,4.62ZM312.52,112.03c-6.11,0-11.07-4.95-11.07-11.06s4.96-11.07,11.07-11.07,11.07,4.96,11.07,11.07-4.96,11.06-11.07,11.06Z"/>
  <path d="M125.03,242.71c0-1.1.36-2.06,1.1-2.85.73-.79,1.6-1.19,2.59-1.19s1.86.39,2.59,1.19c.74.79,1.1,1.75,1.1,2.85s-.36,2.13-1.1,2.92c-.73.79-1.59,1.19-2.59,1.19s-1.86-.4-2.59-1.19c-.74-.79-1.1-1.77-1.1-2.92M125.03,253.03c0-1.1.36-2.06,1.1-2.85.73-.79,1.6-1.19,2.59-1.19s1.86.39,2.59,1.19c.74.79,1.1,1.75,1.1,2.85s-.36,2.13-1.1,2.93c-.73.79-1.59,1.19-2.59,1.19s-1.86-.4-2.59-1.19c-.74-.8-1.1-1.77-1.1-2.93M134.29,263.35c0-1.11.36-2.05,1.1-2.85.73-.79,1.59-1.19,2.59-1.19s1.86.4,2.59,1.19c.73.79,1.1,1.74,1.1,2.85s-.37,2.14-1.1,2.93c-.73.79-1.6,1.19-2.59,1.19s-1.86-.4-2.59-1.19c-.74-.79-1.1-1.77-1.1-2.93M143.55,263.35c0-1.11.36-2.05,1.1-2.85.73-.79,1.59-1.19,2.58-1.19s1.86.4,2.59,1.19c.73.79,1.1,1.74,1.1,2.85s-.36,2.14-1.1,2.93c-.73.79-1.6,1.19-2.59,1.19s-1.86-.4-2.58-1.19c-.74-.79-1.1-1.77-1.1-2.93M143.55,273.67c0-1.1.36-2.05,1.1-2.85.73-.8,1.59-1.19,2.58-1.19s1.86.39,2.59,1.19c.73.79,1.1,1.74,1.1,2.85,0,1.16-.36,2.13-1.1,2.92-.73.8-1.6,1.19-2.59,1.19s-1.86-.39-2.58-1.19c-.74-.79-1.1-1.76-1.1-2.92M143.55,283.99c0-1.11.36-2.06,1.1-2.85.73-.79,1.59-1.19,2.58-1.19s1.86.4,2.59,1.19c.73.79,1.1,1.74,1.1,2.85s-.36,2.13-1.1,2.93c-.73.79-1.6,1.19-2.59,1.19s-1.86-.4-2.58-1.19c-.74-.8-1.1-1.77-1.1-2.93M152.81,263.35c0-1.11.36-2.05,1.1-2.85.73-.79,1.59-1.19,2.59-1.19s1.86.4,2.59,1.19c.73.79,1.1,1.74,1.1,2.85s-.37,2.14-1.1,2.93c-.73.79-1.59,1.19-2.59,1.19s-1.86-.4-2.59-1.19c-.73-.79-1.1-1.77-1.1-2.93M162.07,242.71c0-1.1.36-2.06,1.1-2.85.73-.79,1.6-1.19,2.59-1.19s1.86.39,2.59,1.19c.73.79,1.1,1.75,1.1,2.85s-.37,2.13-1.1,2.92c-.73.79-1.59,1.19-2.59,1.19s-1.86-.4-2.59-1.19c-.74-.79-1.1-1.77-1.1-2.92M162.07,253.03c0-1.1.36-2.06,1.1-2.85.73-.79,1.6-1.19,2.59-1.19s1.86.39,2.59,1.19c.73.79,1.1,1.75,1.1,2.85s-.37,2.13-1.1,2.93c-.73.79-1.59,1.19-2.59,1.19s-1.86-.4-2.59-1.19c-.74-.8-1.1-1.77-1.1-2.93"/>
  <path d="M177.94,242.71c0-1.1.36-2.06,1.1-2.85.73-.79,1.59-1.19,2.59-1.19s1.86.39,2.59,1.19c.73.79,1.1,1.75,1.1,2.85s-.37,2.13-1.1,2.92c-.74.79-1.6,1.19-2.59,1.19s-1.86-.4-2.59-1.19c-.74-.79-1.1-1.77-1.1-2.92M177.94,273.67c0-1.1.36-2.05,1.1-2.85.73-.8,1.59-1.19,2.59-1.19s1.86.39,2.59,1.19c.73.79,1.1,1.74,1.1,2.85,0,1.16-.37,2.13-1.1,2.93-.74.79-1.6,1.19-2.59,1.19s-1.86-.39-2.59-1.19c-.74-.79-1.1-1.77-1.1-2.93M187.2,242.71c0-1.1.37-2.06,1.1-2.85s1.59-1.19,2.59-1.19,1.86.39,2.59,1.19c.73.79,1.1,1.75,1.1,2.85s-.37,2.13-1.1,2.92c-.73.79-1.6,1.19-2.59,1.19s-1.86-.4-2.59-1.19c-.73-.79-1.1-1.77-1.1-2.92M187.2,263.35c0-1.11.37-2.06,1.1-2.85s1.59-1.19,2.59-1.19,1.86.4,2.59,1.19c.73.79,1.1,1.74,1.1,2.85s-.37,2.13-1.1,2.92c-.73.79-1.6,1.19-2.59,1.19s-1.86-.4-2.59-1.19-1.1-1.77-1.1-2.92M187.2,283.99c0-1.11.37-2.06,1.1-2.85.73-.79,1.59-1.19,2.59-1.19s1.86.4,2.59,1.19c.73.79,1.1,1.74,1.1,2.85s-.37,2.13-1.1,2.93c-.73.79-1.6,1.19-2.59,1.19s-1.86-.4-2.59-1.19c-.73-.79-1.1-1.77-1.1-2.93M196.47,242.71c0-1.1.36-2.06,1.1-2.85.74-.79,1.6-1.19,2.59-1.19s1.86.39,2.59,1.19c.73.79,1.1,1.75,1.1,2.85s-.37,2.13-1.1,2.92c-.73.79-1.6,1.19-2.59,1.19s-1.86-.4-2.59-1.19c-.73-.79-1.1-1.77-1.1-2.92M196.47,263.35c0-1.11.36-2.06,1.1-2.85.74-.79,1.6-1.19,2.59-1.19s1.86.4,2.59,1.19c.73.79,1.1,1.74,1.1,2.85s-.37,2.13-1.1,2.92c-.73.79-1.6,1.19-2.59,1.19s-1.86-.4-2.59-1.19c-.73-.79-1.1-1.77-1.1-2.92M196.47,283.99c0-1.11.36-2.06,1.1-2.85.74-.79,1.6-1.19,2.59-1.19s1.86.4,2.59,1.19c.73.79,1.1,1.74,1.1,2.85s-.37,2.13-1.1,2.93c-.73.79-1.6,1.19-2.59,1.19s-1.86-.4-2.59-1.19c-.73-.79-1.1-1.77-1.1-2.93M205.73,242.71c0-1.1.37-2.06,1.1-2.85.73-.79,1.6-1.19,2.59-1.19s1.85.39,2.58,1.19c.73.79,1.1,1.75,1.1,2.85s-.37,2.13-1.1,2.92c-.73.79-1.59,1.19-2.58,1.19s-1.86-.4-2.59-1.19c-.73-.79-1.1-1.77-1.1-2.92M205.73,263.35c0-1.11.37-2.06,1.1-2.85.73-.79,1.6-1.19,2.59-1.19s1.85.4,2.58,1.19c.73.79,1.1,1.74,1.1,2.85s-.37,2.13-1.1,2.92c-.73.79-1.59,1.19-2.58,1.19s-1.86-.4-2.59-1.19c-.73-.79-1.1-1.77-1.1-2.92M205.73,283.99c0-1.11.37-2.06,1.1-2.85.73-.79,1.6-1.19,2.59-1.19s1.85.4,2.58,1.19c.73.79,1.1,1.74,1.1,2.85s-.37,2.13-1.1,2.93c-.73.79-1.59,1.19-2.58,1.19s-1.86-.4-2.59-1.19c-.73-.79-1.1-1.77-1.1-2.93M214.99,253.03c0-1.1.36-2.06,1.1-2.85.73-.79,1.6-1.19,2.59-1.19s1.85.39,2.58,1.19,1.1,1.75,1.1,2.85-.37,2.13-1.1,2.93c-.73.79-1.59,1.19-2.58,1.19s-1.86-.4-2.59-1.19c-.74-.8-1.1-1.77-1.1-2.93M214.99,263.35c0-1.11.36-2.06,1.1-2.85.73-.79,1.6-1.19,2.59-1.19s1.85.4,2.58,1.19c.73.79,1.1,1.74,1.1,2.85s-.37,2.13-1.1,2.92c-.73.79-1.59,1.19-2.58,1.19s-1.86-.4-2.59-1.19c-.74-.79-1.1-1.77-1.1-2.92M214.99,273.67c0-1.1.36-2.05,1.1-2.85.73-.8,1.6-1.19,2.59-1.19s1.85.39,2.58,1.19c.73.79,1.1,1.74,1.1,2.85,0,1.16-.37,2.13-1.1,2.93-.73.79-1.59,1.19-2.58,1.19s-1.86-.39-2.59-1.19c-.74-.79-1.1-1.77-1.1-2.93M214.99,283.99c0-1.11.36-2.06,1.1-2.85.73-.79,1.6-1.19,2.59-1.19s1.85.4,2.58,1.19c.73.79,1.1,1.74,1.1,2.85s-.37,2.13-1.1,2.93c-.73.79-1.59,1.19-2.58,1.19s-1.86-.4-2.59-1.19c-.74-.79-1.1-1.77-1.1-2.93"/>
  <path d="M230.86,263.35c0-1.11.37-2.06,1.1-2.85.73-.79,1.59-1.19,2.59-1.19s1.86.4,2.59,1.19c.73.79,1.1,1.74,1.1,2.85s-.37,2.13-1.1,2.92c-.74.79-1.6,1.19-2.59,1.19s-1.86-.4-2.59-1.19c-.73-.79-1.1-1.77-1.1-2.92M230.86,273.67c0-1.1.37-2.05,1.1-2.85.73-.8,1.59-1.19,2.59-1.19s1.86.39,2.59,1.19c.73.79,1.1,1.74,1.1,2.85,0,1.16-.37,2.13-1.1,2.93-.74.79-1.6,1.19-2.59,1.19s-1.86-.39-2.59-1.19c-.73-.79-1.1-1.77-1.1-2.93M240.12,253.03c0-1.1.37-2.06,1.1-2.85.73-.79,1.6-1.19,2.59-1.19s1.86.39,2.59,1.19c.73.79,1.1,1.75,1.1,2.85s-.37,2.13-1.1,2.93c-.74.79-1.6,1.19-2.59,1.19s-1.86-.4-2.59-1.19c-.73-.8-1.1-1.77-1.1-2.93M240.12,283.99c0-1.11.37-2.06,1.1-2.85.73-.79,1.6-1.19,2.59-1.19s1.86.4,2.59,1.19c.73.79,1.1,1.74,1.1,2.85s-.37,2.13-1.1,2.93c-.74.79-1.6,1.19-2.59,1.19s-1.86-.4-2.59-1.19c-.73-.79-1.1-1.77-1.1-2.93M249.38,253.03c0-1.1.37-2.06,1.1-2.85.73-.79,1.6-1.19,2.59-1.19s1.85.39,2.59,1.19c.73.79,1.1,1.75,1.1,2.85s-.36,2.13-1.1,2.93c-.74.79-1.6,1.19-2.59,1.19s-1.86-.4-2.59-1.19c-.73-.8-1.1-1.77-1.1-2.93M249.38,283.99c0-1.11.37-2.06,1.1-2.85.73-.79,1.6-1.19,2.59-1.19s1.85.4,2.59,1.19c.73.79,1.1,1.74,1.1,2.85s-.36,2.13-1.1,2.93c-.74.79-1.6,1.19-2.59,1.19s-1.86-.4-2.59-1.19c-.73-.79-1.1-1.77-1.1-2.93M258.65,253.03c0-1.1.36-2.06,1.1-2.85.73-.79,1.6-1.19,2.59-1.19s1.85.39,2.59,1.19c.73.79,1.1,1.75,1.1,2.85s-.36,2.13-1.1,2.93c-.74.79-1.6,1.19-2.59,1.19s-1.86-.4-2.59-1.19c-.73-.8-1.1-1.77-1.1-2.93M258.65,283.99c0-1.11.36-2.06,1.1-2.85.73-.79,1.6-1.19,2.59-1.19s1.85.4,2.59,1.19c.73.79,1.1,1.74,1.1,2.85s-.36,2.13-1.1,2.93c-.74.79-1.6,1.19-2.59,1.19s-1.86-.4-2.59-1.19c-.73-.79-1.1-1.77-1.1-2.93M267.9,242.71c0-1.1.37-2.06,1.1-2.85.73-.79,1.6-1.19,2.59-1.19s1.86.39,2.59,1.19c.73.79,1.1,1.75,1.1,2.85s-.36,2.13-1.1,2.92c-.74.79-1.6,1.19-2.59,1.19s-1.86-.4-2.59-1.19c-.73-.79-1.1-1.77-1.1-2.92M267.9,253.03c0-1.1.37-2.06,1.1-2.85.73-.79,1.6-1.19,2.59-1.19s1.86.39,2.59,1.19c.73.79,1.1,1.75,1.1,2.85s-.36,2.13-1.1,2.93c-.74.79-1.6,1.19-2.59,1.19s-1.86-.4-2.59-1.19c-.73-.8-1.1-1.77-1.1-2.93M267.9,263.35c0-1.11.37-2.06,1.1-2.85.73-.79,1.6-1.19,2.59-1.19s1.86.4,2.59,1.19c.73.79,1.1,1.74,1.1,2.85s-.36,2.13-1.1,2.92c-.74.79-1.6,1.19-2.59,1.19s-1.86-.4-2.59-1.19c-.73-.79-1.1-1.77-1.1-2.92M267.9,273.67c0-1.1.37-2.05,1.1-2.85.73-.8,1.6-1.19,2.59-1.19s1.86.39,2.59,1.19c.73.79,1.1,1.74,1.1,2.85,0,1.16-.36,2.13-1.1,2.93-.74.79-1.6,1.19-2.59,1.19s-1.86-.39-2.59-1.19c-.73-.79-1.1-1.77-1.1-2.93M267.9,283.99c0-1.11.37-2.06,1.1-2.85.73-.79,1.6-1.19,2.59-1.19s1.86.4,2.59,1.19c.73.79,1.1,1.74,1.1,2.85s-.36,2.13-1.1,2.93c-.74.79-1.6,1.19-2.59,1.19s-1.86-.4-2.59-1.19c-.73-.79-1.1-1.77-1.1-2.93"/>
  <path d="M283.77,242.71c0-1.1.37-2.06,1.1-2.85.73-.79,1.59-1.19,2.59-1.19s1.86.39,2.59,1.19c.73.79,1.1,1.75,1.1,2.85s-.36,2.13-1.1,2.92c-.73.79-1.6,1.19-2.59,1.19s-1.86-.4-2.59-1.19c-.73-.79-1.1-1.77-1.1-2.92M283.77,283.99c0-1.11.37-2.06,1.1-2.85.73-.79,1.59-1.19,2.59-1.19s1.86.4,2.59,1.19c.73.79,1.1,1.74,1.1,2.85s-.36,2.13-1.1,2.93c-.73.79-1.6,1.19-2.59,1.19s-1.86-.4-2.59-1.19c-.73-.79-1.1-1.77-1.1-2.93M293.03,242.71c0-1.1.37-2.06,1.1-2.85.73-.79,1.59-1.19,2.59-1.19s1.86.39,2.59,1.19c.73.79,1.1,1.75,1.1,2.85s-.37,2.13-1.1,2.92c-.73.79-1.59,1.19-2.59,1.19s-1.86-.4-2.59-1.19c-.73-.79-1.1-1.77-1.1-2.92M293.03,273.67c0-1.1.37-2.05,1.1-2.85.73-.8,1.59-1.19,2.59-1.19s1.86.39,2.59,1.19c.73.79,1.1,1.74,1.1,2.85,0,1.16-.37,2.13-1.1,2.93-.73.79-1.59,1.19-2.59,1.19s-1.86-.39-2.59-1.19c-.73-.79-1.1-1.77-1.1-2.93M293.03,283.99c0-1.11.37-2.06,1.1-2.85.73-.79,1.59-1.19,2.59-1.19s1.86.4,2.59,1.19c.73.79,1.1,1.74,1.1,2.85s-.37,2.13-1.1,2.93c-.73.79-1.59,1.19-2.59,1.19s-1.86-.4-2.59-1.19c-.73-.79-1.1-1.77-1.1-2.93M302.3,242.71c0-1.1.36-2.06,1.1-2.85s1.6-1.19,2.59-1.19,1.86.39,2.59,1.19c.74.79,1.1,1.75,1.1,2.85s-.36,2.13-1.1,2.92c-.73.79-1.6,1.19-2.59,1.19s-1.86-.4-2.59-1.19c-.73-.79-1.1-1.77-1.1-2.92M302.3,263.35c0-1.11.36-2.06,1.1-2.85s1.6-1.19,2.59-1.19,1.86.4,2.59,1.19c.74.79,1.1,1.74,1.1,2.85s-.36,2.13-1.1,2.92c-.73.79-1.6,1.19-2.59,1.19s-1.86-.4-2.59-1.19-1.1-1.77-1.1-2.92M302.3,283.99c0-1.11.36-2.06,1.1-2.85.73-.79,1.6-1.19,2.59-1.19s1.86.4,2.59,1.19c.74.79,1.1,1.74,1.1,2.85s-.36,2.13-1.1,2.93c-.73.79-1.6,1.19-2.59,1.19s-1.86-.4-2.59-1.19c-.73-.79-1.1-1.77-1.1-2.93M311.56,242.71c0-1.1.36-2.06,1.1-2.85s1.6-1.19,2.59-1.19,1.86.39,2.59,1.19c.73.79,1.1,1.75,1.1,2.85s-.36,2.13-1.1,2.92c-.74.79-1.6,1.19-2.59,1.19s-1.86-.4-2.59-1.19c-.73-.79-1.1-1.77-1.1-2.92M311.56,253.03c0-1.1.36-2.06,1.1-2.85s1.6-1.19,2.59-1.19,1.86.39,2.59,1.19c.73.79,1.1,1.75,1.1,2.85s-.36,2.13-1.1,2.93c-.74.79-1.6,1.19-2.59,1.19s-1.86-.4-2.59-1.19c-.73-.8-1.1-1.77-1.1-2.93M311.56,283.99c0-1.11.36-2.06,1.1-2.85.73-.79,1.6-1.19,2.59-1.19s1.86.4,2.59,1.19c.73.79,1.1,1.74,1.1,2.85s-.36,2.13-1.1,2.93c-.74.79-1.6,1.19-2.59,1.19s-1.86-.4-2.59-1.19c-.73-.79-1.1-1.77-1.1-2.93M320.82,242.71c0-1.1.36-2.06,1.1-2.85.73-.79,1.59-1.19,2.59-1.19s1.86.39,2.6,1.19c.73.79,1.09,1.75,1.09,2.85s-.36,2.13-1.09,2.92c-.74.79-1.61,1.19-2.6,1.19s-1.86-.4-2.59-1.19c-.74-.79-1.1-1.77-1.1-2.92M320.82,283.99c0-1.11.36-2.06,1.1-2.85.73-.79,1.59-1.19,2.59-1.19s1.86.4,2.6,1.19c.73.79,1.09,1.74,1.09,2.85s-.36,2.13-1.09,2.93c-.74.79-1.61,1.19-2.6,1.19s-1.86-.4-2.59-1.19c-.74-.79-1.1-1.77-1.1-2.93"/>
  <polygon points="135.85 301.7 136.94 301.7 136.94 306.69 144.59 306.69 144.59 301.7 145.69 301.7 145.69 313.49 144.59 313.49 144.59 307.81 136.94 307.81 136.94 313.49 135.85 313.49 135.85 301.7"/>
  <rect x="148.13" y="301.7" width="1.1" height="11.79"/>
  <polygon points="159.89 301.7 161.07 301.7 156.39 313.49 155.2 313.49 150.47 301.7 151.75 301.7 155.84 312.1 159.89 301.7"/>
  <path d="M172.69,309c-.06.66-.22,1.28-.49,1.86-.27.58-.63,1.1-1.08,1.53-.45.43-.99.78-1.61,1.02-.62.24-1.3.36-2.05.36-.85,0-1.62-.14-2.32-.43-.7-.29-1.29-.7-1.79-1.24-.5-.55-.87-1.2-1.14-1.96-.26-.77-.39-1.62-.39-2.56,0-.72.11-1.43.31-2.15.21-.72.54-1.38,1-2.01.45-.61,1.04-1.11,1.77-1.48.73-.37,1.58-.56,2.56-.56.6,0,1.19.08,1.77.24.57.16,1.1.41,1.58.75.48.34.88.79,1.2,1.33.32.56.51,1.21.59,1.95h-1.09c-.08-.54-.25-1.01-.49-1.42-.24-.41-.55-.74-.92-.99-.37-.25-.77-.44-1.22-.57-.45-.12-.93-.18-1.42-.18-1.36,0-2.44.43-3.24,1.29-.8.86-1.2,2.12-1.2,3.78,0,.69.08,1.33.25,1.93.17.6.43,1.14.79,1.62.36.47.82.84,1.39,1.12.57.27,1.24.4,2.02.4,1.22,0,2.16-.31,2.83-.95.67-.64,1.11-1.54,1.3-2.71h1.09Z"/>
  <path d="M174.65,301.7h5.14c1.52,0,2.68.52,3.49,1.54.8,1.03,1.2,2.48,1.2,4.35,0,.84-.09,1.62-.29,2.33-.19.72-.48,1.34-.87,1.87-.38.54-.86.95-1.43,1.25-.57.29-1.22.44-1.93.44h-5.3v-11.79ZM175.74,312.37h4c.51,0,.97-.08,1.39-.25s.79-.43,1.12-.81c.33-.37.58-.87.76-1.49.18-.61.27-1.36.27-2.23,0-1.58-.28-2.77-.86-3.57-.58-.8-1.47-1.2-2.68-1.2h-4v9.54Z"/>
  <rect x="191.15" y="301.7" width="1.1" height="11.79"/>
  <rect x="194.54" y="301.61" width="1.09" height="11.88"/>
  <rect x="197.63" y="301.61" width="1.1" height="11.88"/>
  <path d="M207.31,311.8h-.02c-.18.5-.56.96-1.14,1.36-.58.39-1.27.59-2.06.59-.62,0-1.15-.09-1.58-.25-.43-.18-.78-.42-1.03-.73-.25-.31-.43-.68-.55-1.1-.11-.42-.17-.9-.17-1.44v-5.32h1.1v5.53c0,.81.2,1.4.61,1.76.4.36.97.54,1.72.54,1.05,0,1.83-.28,2.35-.84.52-.56.78-1.33.78-2.33v-4.66h1.1v8.59h-1.1v-1.68Z"/>
  <path d="M216.2,307.45c-.14-.67-.41-1.14-.81-1.4-.4-.26-1.01-.39-1.85-.39-.3,0-.59.02-.85.07s-.49.12-.71.23c-.21.11-.37.26-.49.45-.12.19-.18.43-.18.72,0,.23.04.43.12.57.08.14.22.26.43.36.2.09.48.18.85.25.36.07.85.16,1.47.25,1.24.19,2.11.45,2.6.78.49.33.73.9.73,1.7,0,.86-.3,1.53-.93,2.01-.62.48-1.53.72-2.72.72-1.26,0-2.22-.24-2.89-.73-.67-.49-1.01-1.22-1.01-2.22h1.01c.1.72.36,1.22.78,1.5.42.29,1.12.43,2.11.43.83,0,1.46-.13,1.9-.36.44-.24.66-.67.66-1.28,0-.23-.04-.43-.12-.58-.08-.15-.24-.29-.45-.4-.22-.11-.52-.21-.9-.3-.38-.08-.86-.15-1.47-.22-1.19-.13-2.03-.38-2.52-.73-.48-.36-.72-.92-.72-1.68s.28-1.39.85-1.85c.57-.46,1.39-.69,2.47-.69,1.22,0,2.11.23,2.69.7.58.47.9,1.17.97,2.11h-1.01Z"/>
  <path d="M219.81,302.2h1.1v2.71h2.18v.93h-2.18v5.68c0,.38.08.66.23.83.15.17.44.26.87.26s.8-.03,1.08-.1v1.02c-.41.07-.81.1-1.2.1-.81,0-1.36-.17-1.65-.51-.28-.34-.43-.88-.43-1.62v-5.66h-1.67v-.93h1.67v-2.71Z"/>
  <path d="M224.66,304.9h1.1v1.97h.03c.12-.3.25-.57.4-.82.15-.25.34-.49.57-.7.23-.21.5-.39.84-.51.33-.13.72-.19,1.15-.19.22,0,.43.02.65.07v1.25c-.34-.07-.67-.1-1.01-.1-.32,0-.63.06-.93.17-.31.11-.59.3-.85.55-.26.25-.46.59-.62,1.01-.15.43-.23.93-.23,1.51v4.37h-1.1v-8.59Z"/>
  <path d="M230.45,307.55c.09-.96.41-1.68.96-2.17.55-.49,1.46-.73,2.72-.73s2.15.21,2.7.62c.55.42.82,1.06.82,1.92v4.49c0,.35.05.61.14.75.09.14.25.22.47.22.13,0,.32-.01.57-.03v.82s-.02,0-.04.02c-.36.08-.65.11-.87.11-.26,0-.47-.04-.63-.13-.17-.08-.29-.2-.36-.35-.08-.14-.13-.3-.16-.47-.02-.18-.03-.36-.03-.57h-.03c-.13.21-.26.4-.41.57-.14.17-.35.34-.62.52-.28.18-.62.33-1.05.44-.43.12-.93.18-1.52.18-.36,0-.71-.05-1.06-.14-.35-.09-.67-.24-.96-.44-.29-.21-.53-.47-.71-.8-.18-.34-.27-.73-.27-1.19,0-.55.11-1,.34-1.36.23-.35.53-.62.9-.8.37-.18.76-.31,1.18-.38.42-.07.89-.12,1.42-.15.65-.04,1.14-.09,1.48-.13.34-.05.6-.11.78-.19.18-.07.29-.17.36-.29.06-.12.09-.29.09-.52,0-.62-.2-1.05-.59-1.3-.39-.25-1.05-.38-1.95-.38s-1.53.15-1.95.43c-.42.29-.65.78-.69,1.45h-1.01ZM236.65,308.87c-.22.15-.52.27-.91.34-.39.07-1.15.16-2.27.27l-.25.04c-.66.07-1.16.22-1.5.47-.34.25-.51.62-.51,1.11,0,.63.21,1.07.62,1.34.41.27.94.4,1.6.4.37,0,.75-.06,1.14-.17.38-.12.73-.28,1.05-.51.31-.22.56-.5.75-.84.19-.34.28-.72.28-1.13v-1.3Z"/>
  <path d="M240.68,302.2h1.1v2.71h2.18v.93h-2.18v5.68c0,.38.07.66.23.83.15.17.44.26.87.26s.81-.03,1.08-.1v1.02c-.41.07-.81.1-1.2.1-.81,0-1.36-.17-1.65-.51-.29-.34-.43-.88-.43-1.62v-5.66h-1.67v-.93h1.67v-2.71Z"/>
  <path d="M245.49,301.61h1.1v1.81h-1.1v-1.81ZM245.49,304.9h1.1v8.59h-1.1v-8.59Z"/>
  <path d="M248.63,307.46c.18-.55.46-1.03.82-1.46.36-.43.82-.75,1.37-1,.55-.24,1.18-.36,1.9-.36s1.36.12,1.91.36c.56.24,1.01.57,1.38,1,.36.43.64.92.82,1.46.18.55.27,1.13.27,1.73s-.09,1.18-.27,1.73c-.18.56-.45,1.05-.82,1.47-.36.42-.82.75-1.38,1-.55.24-1.19.36-1.91.36s-1.36-.12-1.9-.36c-.55-.24-1.01-.58-1.37-1-.36-.42-.64-.91-.82-1.47-.18-.55-.28-1.13-.28-1.73s.09-1.18.28-1.73M250.33,311.76c.58.65,1.38.98,2.4.98s1.82-.33,2.4-.98c.58-.65.88-1.5.88-2.56s-.29-1.91-.88-2.56c-.58-.65-1.38-.97-2.4-.97s-1.81.32-2.4.97c-.58.65-.87,1.5-.87,2.56s.29,1.91.87,2.56"/>
  <path d="M265.44,307.96c0-.81-.21-1.4-.61-1.75-.41-.36-.98-.54-1.72-.54-1.05,0-1.82.28-2.35.84-.51.55-.78,1.33-.78,2.33v4.65h-1.09v-8.59h1.09v1.69h.03c.18-.5.56-.96,1.14-1.36.57-.39,1.25-.59,2.05-.59.62,0,1.15.08,1.58.26.43.16.78.41,1.03.72.26.31.44.68.55,1.1.11.43.17.91.17,1.44v5.31h-1.09v-5.53Z"/>
  <path d="M280.21,304.9h1.09v8.26c0,.76-.12,1.4-.37,1.92-.24.52-.57.93-1,1.22-.41.3-.87.5-1.37.64-.5.13-1.04.19-1.58.19-.82,0-1.5-.09-2.02-.28-.53-.18-.93-.43-1.2-.72-.27-.3-.44-.58-.54-.88-.09-.29-.15-.59-.18-.91h1.01c.06.31.13.56.2.75.07.19.21.37.4.55.2.17.48.31.87.41.39.1.89.15,1.5.15,1.02,0,1.81-.27,2.36-.79.55-.53.83-1.3.83-2.33v-1.54h-.03c-.11.23-.26.47-.45.7-.19.23-.42.44-.7.63-.28.18-.6.34-.98.45-.38.12-.81.17-1.29.17-.52,0-1.03-.08-1.5-.24-.48-.16-.92-.42-1.3-.77-.4-.35-.7-.82-.93-1.39-.23-.57-.35-1.27-.35-2.08,0-.58.08-1.13.25-1.66.17-.52.43-.99.78-1.41.35-.41.79-.73,1.32-.96.54-.23,1.15-.34,1.85-.34.77,0,1.45.16,2.04.49.59.32,1.01.8,1.25,1.44h.03v-1.67ZM279.39,306.62c-.57-.64-1.39-.96-2.44-.96-.97,0-1.74.3-2.31.89-.58.59-.86,1.41-.86,2.46,0,.6.08,1.14.25,1.58.16.44.39.8.68,1.07.29.28.64.48,1.03.61.4.13.83.19,1.31.19.92,0,1.69-.31,2.29-.93.6-.62.9-1.46.9-2.52,0-.95-.29-1.75-.86-2.39"/>
  <path d="M283.34,304.9h1.1v1.97h.03c.12-.3.25-.57.4-.82.15-.25.33-.49.56-.7.22-.21.5-.39.84-.51.33-.13.72-.19,1.15-.19.21,0,.43.02.65.07v1.25c-.34-.07-.67-.1-1.01-.1-.31,0-.62.06-.93.17-.3.11-.58.3-.85.55-.26.25-.46.59-.62,1.01-.15.43-.22.93-.22,1.51v4.37h-1.1v-8.59Z"/>
  <path d="M289.2,307.46c.18-.55.46-1.03.82-1.46.37-.43.82-.75,1.37-1,.55-.24,1.18-.36,1.91-.36s1.36.12,1.91.36c.55.24,1.01.57,1.37,1,.37.43.64.92.82,1.46.18.55.27,1.13.27,1.73s-.09,1.18-.27,1.73c-.18.56-.45,1.05-.82,1.47-.36.42-.82.75-1.37,1-.55.24-1.19.36-1.91.36s-1.36-.12-1.91-.36c-.55-.24-1-.58-1.37-1-.36-.42-.64-.91-.82-1.47-.18-.55-.27-1.13-.27-1.73s.09-1.18.27-1.73M290.9,311.76c.58.65,1.38.98,2.4.98s1.82-.33,2.4-.98c.58-.65.87-1.5.87-2.56s-.29-1.91-.87-2.56c-.58-.65-1.38-.97-2.4-.97s-1.82.32-2.4.97c-.58.65-.87,1.5-.87,2.56s.29,1.91.87,2.56"/>
  <path d="M306.01,311.8h-.03c-.18.5-.56.96-1.14,1.36-.57.39-1.26.59-2.05.59-.62,0-1.15-.09-1.58-.25-.43-.18-.78-.42-1.03-.73-.25-.31-.43-.68-.55-1.1-.12-.42-.18-.9-.18-1.44v-5.32h1.1v5.53c0,.81.21,1.4.61,1.76.4.36.98.54,1.72.54,1.05,0,1.84-.28,2.35-.84.52-.56.78-1.33.78-2.33v-4.66h1.1v8.59h-1.1v-1.68Z"/>
  <path d="M309.17,304.9h1.09v1.72h.03c.1-.23.21-.45.36-.67.14-.21.33-.42.56-.62.24-.21.54-.37.91-.5.37-.13.81-.18,1.31-.18.75,0,1.4.13,1.94.39.54.27.98.62,1.31,1.06.33.44.57.93.72,1.46.15.53.23,1.08.23,1.64,0,.6-.09,1.18-.26,1.73-.17.56-.43,1.05-.78,1.47-.35.42-.79.75-1.31,1-.54.24-1.15.36-1.84.36s-1.33-.18-1.9-.56c-.56-.37-.98-.85-1.24-1.42h-.03v5.05h-1.09v-11.92ZM310.4,310.51c.13.42.32.8.59,1.13.27.34.61.6,1.01.79.41.2.88.29,1.43.29.89,0,1.63-.33,2.22-.97.59-.65.88-1.5.88-2.57,0-.45-.06-.89-.18-1.3-.12-.42-.3-.79-.55-1.13-.24-.33-.57-.6-.97-.8-.4-.2-.86-.3-1.4-.3-.94,0-1.72.32-2.32.95-.6.64-.91,1.5-.91,2.58,0,.45.07.89.19,1.32"/>
</svg>