<?xml version="1.0" encoding="UTF-8"?>
<svg id="_레이어_1" data-name="레이어 1" xmlns="http://www.w3.org/2000/svg" viewBox="0 0 450 90.55">
  <path d="M25.69,8.21v79.2H0V8.21h25.69ZM0,8.21L79.35,2.5v22.26L0,33.32V8.21ZM48.52,66l-15.41-20.84,46.24-30.83v27.4l-30.83,24.26Z"/>
  <path d="M90.45,8.21v25.26l77.92-9.13V2.5l-77.92,5.71ZM149.53,44.88l-27.11.43,34.25,45.24,19.84-14.56-26.97-31.11ZM116.14,8.21h-25.69v79.2h25.69V8.21ZM135.26,62.44l33.11-23.98V10.77l-45.95,34.54,12.84,17.13Z"/>
  <path d="M224.07,65.08c-11.99,0-20.41-8.28-20.41-20.55,0-11.56,8.42-19.98,20.41-19.98s19.98,8.42,19.98,19.98c0,12.27-8.28,20.55-19.98,20.55ZM223.93,89.76c25.97,0,44.81-18.98,44.81-44.95S249.9,0,223.93,0s-44.95,18.84-44.95,44.81,18.84,44.95,44.95,44.95Z"/>
  <path d="M405.33,65.08c-11.99,0-20.41-8.28-20.41-20.55,0-11.56,8.42-19.98,20.41-19.98s19.98,8.42,19.98,19.98c0,12.27-8.28,20.55-19.98,20.55ZM405.19,89.76c25.97,0,44.81-18.98,44.81-44.95S431.16,0,405.19,0s-44.95,18.84-44.95,44.81,18.84,44.95,44.95,44.95Z"/>
  <path d="M354.93,29.4V2.71l-79.63,5.14v26.4l79.63-4.85ZM328.81,8.42h-27.54v78.49h27.54V8.42Z"/>
</svg>