<?xml version="1.0" encoding="UTF-8"?>
<svg id="_레이어_1" data-name="레이어 1" xmlns="http://www.w3.org/2000/svg" viewBox="0 0 1724.01 1665.05">
  <defs>
    <style>
      .cls-1 {
        fill: #f8c197;
      }

      .cls-2 {
        fill: #f0e93f;
      }

      .cls-3 {
        fill: #80bb41;
      }

      .cls-4 {
        fill: #ec1e8d;
      }

      .cls-5 {
        fill: #f49dbc;
      }

      .cls-6 {
        fill: #27bece;
      }

      .cls-7 {
        fill: #a3d5e0;
      }

      .cls-8 {
        fill: #bdd637;
      }
    </style>
  </defs>
  <g>
    <path class="cls-3" d="M860.43,1361.12c74.77,0,132.77,67.95,132.77,151.82s-51.74,152.11-132.77,152.11h150.68c81.03,0,132.77-67.95,132.77-152.11s-58-151.82-132.77-151.82h-150.68Z"/>
    <path class="cls-8" d="M860.32,1665.05c-80.74,0-129.08-77.62-129.08-152.11s48.33-151.82,129.08-151.82c74.77,0,132.77,67.95,132.77,151.82s-51.74,152.11-132.77,152.11Z"/>
    <path class="cls-2" d="M860.75,1646c-70.79,0-113.16-67.95-113.16-133.06s42.36-132.77,113.16-132.77c65.11,0,116,59.42,116,132.77,0,73.64-45.21,133.06-116,133.06Z"/>
  </g>
  <g>
    <polygon class="cls-6" points="6.52 1154.01 312.25 1354.56 1724.01 1465.6 1418.28 1265.04 6.52 1154.01"/>
    <polygon class="cls-7" points="312.25 1354.56 305.66 1364.46 1717.42 1475.63 1723.99 1465.64 312.25 1354.56"/>
    <rect class="cls-6" x="150.18" y="1076.44" width="11.89" height="365.64" transform="translate(-982.44 699.09) rotate(-56.74)"/>
  </g>
  <g>
    <path class="cls-1" d="M577.65,13.64l27.55,43.67c-104.06,96.1-292.27,326.67-292.27,619.23,0,503.59,355.11,519.33,465.29,519.33,178.12,0,367.42-137.56,426.02-195.5l24.19,12.62,28.69,44.81c-102.64,96.38-273.79,211.53-477.64,211.53-283.17,0-542.02-203.91-542.02-609.34,0-319.05,204.62-567.94,314.17-659.99l26.02,13.64Z"/>
    <path class="cls-4" d="M577.65,13.64l28.15,43.78c-104.06,96.1-290.38,323.26-290.38,615.82,0,348,188.91,534.94,461.21,534.94,165.47,0,337.48-88.64,451.81-195.19l29.28,44.92c-102.64,96.38-273.79,211.53-477.64,211.53-283.17,0-527.68-191.91-520-597.34,5.12-270.1,156.94-518.58,317.58-658.46Z"/>
    <path class="cls-5" d="M1227.92,1030.33l15.35,23.88c-118.84,113.16-289.35,202.73-456.16,202.73-239.11,0-513.97-143.05-513.97-573.5,0-260.06,151.32-517.32,302.21-650.47l14.5,23.31c-138.46,131.07-286.91,366.75-286.91,612.39,0,445.15,273.71,554.7,469.6,554.7,190.89,0,342.04-93.54,455.38-193.06Z"/>
  </g>
</svg>