<?xml version="1.0" encoding="UTF-8"?>
<svg id="_레이어_1" data-name=" 레이어 1" xmlns="http://www.w3.org/2000/svg" viewBox="0 0 1738.17 1433.92">
  <defs>
    <style>
      .cls-1 {
        fill: #009698;
      }

      .cls-2 {
        fill: #dae24a;
      }

      .cls-3 {
        fill: #fff;
      }

      .cls-4 {
        fill: #e5e972;
      }

      .cls-5 {
        fill: #fff100;
      }

      .cls-6 {
        fill: #ea5550;
      }

      .cls-7 {
        fill: #00b3cd;
      }
    </style>
  </defs>
  <g>
    <path class="cls-2" d="M979.4,1191.15l-61.48-6.83c-8.43,0-17.99,2.5-23,7.97-40.53,40.53-79.24,80.61-114.77,117.5-20.04,20.72-21.4,26.41-21.4,42.81,0,15.26,14.57,25.28,36.21,37.34,25.28,14.12,56.02,20.95,123.42,37.8-34.38-16.4-31.42-9.79-63.08-25.73-22.09-11.16-35.07-27.33-35.07-42.58,0-16.4,1.37-22.09,21.4-42.81,35.52-36.89,74.23-76.97,114.77-117.5,5.01-5.47,14.57-7.97,23-7.97h0Z"/>
    <path class="cls-2" d="M979.22,1191.18c-8.43,0-17.99,2.5-23,7.97-40.53,40.53-79.24,80.61-114.77,117.5-20.04,20.72-21.4,26.41-21.4,42.81,0,15.26,12.98,31.42,35.07,42.58,31.65,15.94,59.2,31.88,125.01,31.88,44.63,0,87.67-17.08,117.73-35.52,20.49-12.52,33.25-24.14,33.25-45.09,0-4.55-1.37-18.44-11.61-29.37-28.69-30.51-73.32-77.65-111.81-117.73-7.29-7.06-16.17-15.03-28.46-15.03h-.01Z"/>
    <path class="cls-5" d="M979.67,1211.68c-7.08,0-15.19,2.29-19.56,6.66-34.13,34.13-66.39,68.26-96.36,99.07-18.31,18.73-21.64,22.27-21.64,36,0,14.57,10.61,25.81,34.96,37.67,25.39,12.49,54.53,24.97,104.27,24.97,37.67,0,72.01-13.32,101.15-29.97,18.31-10.61,29.14-21.23,29.14-36.84,0-3.75-.83-11.86-9.16-21.02-24.56-26.43-69.93-74.09-102.4-107.6-5.83-5.83-9.99-8.95-20.4-8.95h0Z"/>
  </g>
  <g>
    <polygon class="cls-6" points="3.38 1275.26 353.73 1379.87 1738.17 1081.99 1387.82 977.38 3.38 1275.26"/>
    <polygon class="cls-5" points="353.73 1379.87 350.26 1391.24 1734.74 1093.49 1738.16 1082.04 353.73 1379.87"/>
    <rect class="cls-6" x="170.94" y="1150.32" width="11.89" height="365.64" transform="translate(-1151.16 1121.33) rotate(-73.38)"/>
  </g>
  <g>
    <path class="cls-7" d="M662.92,1184.1c-5.51.18-12.96-4.44-17.53-9.93-3.81-4.33-8.9-11.08-10.43-14.86-5.32-13.12,4.03-37.17,28.94-38.75,71.91-4.47,133.09-12.22,235.76-53.83,197.03-79.84,372.49-270.18,410.08-477.49,21.61-119.19,12.11-241.92-65.27-352.43-26.56-37.99-61.48-72.01-121.29-107.98-65.64-39.49-159.87-64.74-249.44-65.45-6.22-.12-8.81-2.89-13.28-8.13-3.46-4.18-9.35-11.48-11.29-16.28-8.89-21.95,14.63-40,34.45-38.92,210.43,10.48,381.62,98.83,469.64,316.04,124.82,308.03-102.53,676.23-431.99,809.73-102.43,41.5-171.92,55.56-258.34,58.28h-.01Z"/>
    <path class="cls-4" d="M872.28,45.67c-2.76-6.81-.52-15.06,10.83-19.66,2.27-.92,11.52-.56,21.99-.1,77.15,3.39,328.58,28.1,437.04,295.77,68.39,168.77,12.14,385.12-90.25,525.29-124.69,170.65-264,240.02-332.11,267.62-119.33,48.35-210.42,57.66-251.77,57.08-6.47-.02-9.48-5.27-10.29-7.28-2.96-7.32,4.63-15.39,8.92-17.12,3.53-1.43,8.94-1.86,17.63-2.15,50.44-1.64,129.79-13.82,227.68-53.49,76.69-31.08,219.48-112.14,322.98-263.33,113.44-165.8,136.29-358.03,80.47-495.78-75.44-186.18-243.75-272.47-417.01-280.39-12.54-.5-23.56-.15-26.11-6.45h0Z"/>
    <path class="cls-1" d="M1223.78,210.19c21.59,29.14,47.67,67.56,70.15,130.14,93.51,260.35-87.44,602.09-394.27,726.42-102.68,41.61-163.86,49.36-235.76,53.83-24.91,1.58-34.26,25.63-28.94,38.75,1.53,3.78,6.62,10.53,10.43,14.86-8.82-16.69,3.39-33.68,18.02-39.61,8.58-3.48,23.64-2.53,35.32-3.44,48.16-3.65,113.61-18.9,207.21-56.82,331.64-134.38,491.64-499.67,395.47-737.01-35.17-86.8-77.62-127.11-77.62-127.11h-.01Z"/>
    <path class="cls-1" d="M860.53,55.42c-3.46-4.18-9.35-11.48-11.29-16.28-8.89-21.95,14.63-40,34.45-38.92,210.43,10.48,381.62,98.83,469.64,316.04-30.36-74.93-65.29-121.27-79.77-137.43-51.97-68.81-172.48-137.17-277.5-155.71-48.06-8.43-104.5-14.34-118.12-8.82-18.67,7.56-26.72,27.57-17.41,41.12h0Z"/>
  </g>
  <rect class="cls-3" x="525" y="862.88" width="562.68" height="163.96" transform="translate(-241.12 277.19) rotate(-17.01)"/>
  <g>
    <path d="M642.28,1039.96l-6.29-10.72-21.47,6.57.78,12.41-17.51,5.36-1-83.99,16.85-5.15,46.15,70.18-17.51,5.36ZM613.56,1021.65l15.31-4.68-17.68-30.24,2.37,34.92Z"/>
    <path d="M666.83,1032.45l-23.58-77.08,24.45-7.48c20.48-6.27,37.4,4.94,44.61,28.5s-.76,42.38-21.8,48.82l-23.68,7.24ZM679.38,1012.84l6.72-2.05c10.13-3.1,13.75-12.52,8.7-29.03-5.05-16.52-13.32-22.3-23.45-19.2l-6.72,2.05,14.75,48.23Z"/>
    <path d="M731.58,1012.65l-16.14-52.75,14.87-4.55,3.77,12.33c-1.31-8.99,2.34-15.17,8.84-17.16,1.32-.4,2.02-.5,3.04-.69l4.85,15.86c-1.39.18-1.72.28-3.15.72-7.93,2.43-9.98,8.71-6.44,20.28l6.43,21.03-16.08,4.92Z"/>
    <path d="M806.85,965.42l-32.49,9.94c2.41,7.09,6.95,10.52,13.23,8.6,4.62-1.41,6.48-4.03,6.28-7.82l14.54-4.45c1.94,11.45-3.89,20.34-17,24.35-16.41,5.02-28.61-2.21-34.04-19.94s.63-31.02,16.48-35.87,26.63,2.81,31.11,17.46c.57,1.87,1.41,4.99,1.88,7.73ZM788.88,959.83c-2.32-7.6-6.44-10.43-11.84-8.78-5.84,1.79-7.93,6.76-5.78,14.17l17.62-5.39Z"/>
    <path d="M821.44,985.16l-16.14-52.75,16.08-4.92,2.29,7.49c1.04-6.82,5.31-11.38,12.25-13.5,10.35-3.17,18.21,1.66,22.22,14.76l10.54,34.47-16.3,4.99-9.2-30.06c-2.22-7.27-5.22-9.96-10.17-8.45-5.62,1.72-6.68,6.5-4.22,14.54l8.72,28.52-16.08,4.92Z"/>
    <path d="M867.42,942.19c-5.09-16.63-.23-30.28,12.54-34.19,6.94-2.12,12.95-.59,17.59,4.74l-2.39-7.82,16.08-4.92,16.14,52.75-16.08,4.92-2.39-7.82c-.9,6.9-4.99,11.64-11.93,13.76-12.77,3.91-24.44-4.69-29.56-21.43ZM903.65,931.11c-2.8-9.14-8.09-13.06-14.37-11.14s-8.4,7.99-5.57,17.24,7.9,13.24,14.29,11.28c6.28-1.92,8.47-8.13,5.64-17.38Z"/>
    <path d="M938.38,949.39l-23.58-77.08,16.08-4.92,23.58,77.08-16.08,4.92Z"/>
    <path d="M941.85,874.14c-1.79-5.84,1.23-11.33,6.96-13.09s11.41,1.09,13.2,6.92-1.26,11.22-7.1,13.01-11.3-1.12-13.05-6.85ZM965.36,941.14l-16.14-52.75,15.97-4.88,16.14,52.75-15.97,4.88Z"/>
    <path d="M991.9,933.02l-16.14-52.75,16.08-4.92,2.29,7.49c1.04-6.82,5.31-11.38,12.25-13.5,10.35-3.17,18.21,1.66,22.22,14.76l10.54,34.47-16.3,4.99-9.2-30.06c-2.22-7.27-5.22-9.96-10.17-8.45-5.62,1.72-6.68,6.5-4.22,14.54l8.72,28.52-16.08,4.92Z"/>
  </g>
  <rect class="cls-3" x="40.06" y="1051" width="414.28" height="93.13" transform="translate(759.22 95.77) rotate(39.76)"/>
  <rect class="cls-3" x="207.58" y="997.53" width="165.29" height="95.57" transform="translate(735.76 56.17) rotate(39.76)"/>
  <g>
    <path d="M263.33,1027.49c-4.95-3.81-10.71-8.38-13-10.28l3.42-5.2c2.74,2.28,5.16,4.29,7.66,6.3l6.12-7.35,5.61,4.66-6.01,7.22c3.43,2.63,10.4,7.75,12.76,9.1l-3.45,4.79c-2.7-1.87-8.62-5.88-13.11-9.24ZM278.84,1027.27l-5.1-5.46c1.71-1.23,5.25-4.66,7.6-7.49l-14.93-12.43,3.84-4.62,20.81,17.31c-4.22,5.07-8.61,9.98-12.22,12.68ZM255.25,1049.15c-9.15-7.61-11.87-14.74-8.07-19.31s11.26-3.23,20.5,4.46c9.15,7.61,12.08,14.76,8.2,19.42s-11.49,3.04-20.63-4.57ZM253.28,1034.91c-1.38,1.66.5,5.42,5.7,9.75s9.29,5.53,10.67,3.87-.54-5.46-5.74-9.79-9.28-5.45-10.62-3.83ZM293.53,1031.23l4.93,4.1-4.07,4.89-4.93-4.1-7.43,8.92-5.87-4.89,20-24.03,5.87,4.89-8.51,10.22Z"/>
    <path d="M279.9,1061.47l3.88-4.66,12.69,10.56,11.16-13.41,5.96,4.96-11.16,13.41,17.44,14.51-3.88,4.66-36.1-30.04ZM317.81,1077.83c-1.7-1.79-3.47-3.49-5.12-5.25,4.04-2.94,10.08-8.84,12.77-12.06.93-1.12,2.01-2.5,2.94-3.62l-22.47-18.69,3.92-4.71,28.38,23.62c-6.08,7.77-14.55,16.2-20.43,20.72Z"/>
    <path d="M116.7,1019.46l2.8-5.64-8.74-7.28-5.04,3.78-7.13-5.93,35.31-23.74,6.86,5.71-16.93,39.04-7.13-5.93ZM116.49,1002.2l6.23,5.19,7.91-15.89-14.14,10.7Z"/>
    <path d="M165.37,1006.83l6.55,5.45-26.12,31.39-6.55-5.45,2.65-3.18c-3.17,1.53-6.32,1.12-9.14-1.23-5.2-4.33-4.8-11.66.88-18.47s12.77-8.5,17.97-4.17c2.83,2.35,3.84,5.32,2.87,8.77l10.9-13.09ZM148.39,1027.61c3.1-3.72,3.29-7.05.73-9.18s-5.71-1.34-8.85,2.43-3.42,7.02-.81,9.19,5.8,1.33,8.93-2.43Z"/>
    <path d="M155.71,1051.91l10.12-27.93,6.86,5.71-7.2,16.4,14.82-10.06,6.91,5.75-25.67,14.99-5.83-4.85Z"/>
    <path d="M196.61,1070.7l-13.23-11.01c-2.34,2.99-2.53,5.87.03,7.99,1.88,1.57,3.5,1.63,5.06.49l5.92,4.93c-4.31,4-9.7,3.99-15.03-.45-6.68-5.56-7.01-12.74-1-19.96,6.01-7.22,13.32-8.35,19.78-2.97,6.23,5.19,6.2,12.07,1.24,18.03-.63.76-1.72,1.98-2.75,2.94ZM193.99,1061.53c2.57-3.09,2.63-5.63.44-7.45-2.38-1.98-5.07-1.48-7.61,1.48l7.17,5.97Z"/>
    <path d="M192.29,1082.36l17.87-21.48,6.05,5.04-4.18,5.02c3.45-3.05,7.08-3.22,9.72-1.02.54.45.77.72,1.14,1.1l-5.37,6.46c-.46-.54-.6-.65-1.18-1.13-3.23-2.69-6.46-1.81-10.38,2.9l-7.13,8.56-6.55-5.45Z"/>
    <path d="M224.43,1099.91l-4.51,5.43c-1.31-.71-2.5-1.47-3.75-2.51-3.95-3.28-4.87-7.92-1.02-12.54l8.21-9.87-2.74-2.28,4.22-5.07,2.74,2.28,5.34-6.41,6.55,5.45-5.34,6.41,3.5,2.91-4.22,5.07-3.5-2.91-6.75,8.12c-1.72,2.06-1.75,3.56-.13,4.9.36.3.76.55,1.42,1.03Z"/>
    <path d="M244.87,1079.36c1.98-2.38,5.14-2.63,7.48-.69s2.71,5.14.73,7.51-5.11,2.58-7.48.6-2.66-5.1-.72-7.43ZM223,1107.91l17.87-21.48,6.5,5.41-17.87,21.48-6.5-5.41Z"/>
    <path d="M237.92,1109.32l6.46,5.37c-1.34,1.61-1.25,3.51.5,4.97,1.35,1.12,2.91,1.06,4-.24.82-.99.79-2.23-.03-3.52l-2.97-4.37c-2.59-3.9-2.65-7.67,0-10.85,3.4-4.08,8.89-3.84,13.86.3,5.25,4.37,6.41,9.81,2.98,13.94l-6.23-5.19c1.34-1.61,1.19-3.26-.33-4.53-1.3-1.08-2.79-1.11-3.73.01-.82.99-.79,2.23.13,3.68l3.04,4.65c2.47,3.87,2.58,7.39-.07,10.57-3.58,4.3-9.13,4.32-14.42-.09s-6.75-10.4-3.17-14.7Z"/>
    <path d="M279.15,1139.38l-13.23-11.01c-2.34,2.99-2.53,5.87.03,7.99,1.88,1.57,3.5,1.63,5.06.49l5.92,4.93c-4.31,4-9.7,3.99-15.03-.45-6.68-5.56-7.01-12.74-1-19.96s13.32-8.35,19.78-2.97c6.23,5.19,6.2,12.07,1.24,18.03-.63.76-1.72,1.98-2.75,2.94ZM276.53,1130.22c2.57-3.09,2.63-5.63.44-7.45-2.38-1.98-5.07-1.48-7.61,1.48l7.17,5.97Z"/>
    <path d="M274.83,1151.04l17.87-21.48,6.55,5.45-2.54,3.05c2.92-1.59,5.94-1.21,8.67,1.07,2.96,2.46,3.72,5.38,2.41,8.68,2.96-1.56,6.33-1.41,9.29,1.05,4.39,3.66,4.36,8.71-.15,14.14l-11.34,13.63-6.59-5.48,10.71-12.87c2.01-2.42,2.25-4.35.5-5.8-2.02-1.68-4.3-.85-6.62,1.93l-10.11,12.15-6.59-5.48,10.71-12.87c2.01-2.42,2.25-4.35.5-5.8-2.02-1.68-4.3-.85-6.62,1.93l-10.11,12.15-6.55-5.45Z"/>
    <path d="M335.51,1186.28l-13.23-11.01c-2.34,2.99-2.53,5.87.03,7.99,1.88,1.57,3.5,1.63,5.06.49l5.92,4.93c-4.31,4-9.7,3.99-15.03-.45-6.68-5.56-7.01-12.74-1-19.96,6.01-7.22,13.32-8.35,19.78-2.97s6.2,12.07,1.24,18.03c-.63.76-1.72,1.98-2.75,2.94ZM332.89,1177.11c2.57-3.09,2.63-5.63.44-7.45-2.38-1.98-5.07-1.48-7.61,1.48l7.17,5.97Z"/>
    <path d="M331.19,1197.94l17.87-21.48,6.55,5.45-2.54,3.05c3.18-1.45,6.3-.91,9.12,1.44,4.21,3.51,4.35,8.18-.09,13.51l-11.68,14.04-6.64-5.52,10.19-12.24c2.46-2.96,2.78-4.98.76-6.66-2.29-1.9-4.61-1.03-7.33,2.25l-9.66,11.61-6.55-5.45Z"/>
    <path d="M370.36,1221.35l-4.51,5.43c-1.31-.71-2.5-1.47-3.75-2.51-3.95-3.28-4.87-7.92-1.02-12.54l8.21-9.87-2.74-2.28,4.22-5.07,2.74,2.28,5.34-6.41,6.55,5.45-5.34,6.41,3.5,2.91-4.22,5.07-3.5-2.91-6.75,8.12c-1.72,2.06-1.75,3.56-.13,4.9.36.3.76.55,1.42,1.03Z"/>
  </g>
</svg>