<?xml version="1.0" encoding="UTF-8"?>
<svg id="_레이어_1" data-name=" 레이어 1" xmlns="http://www.w3.org/2000/svg" viewBox="0 0 1579.9 1386.56">
  <defs>
    <style>
      .cls-1 {
        fill: #009698;
      }

      .cls-2 {
        fill: #dae24a;
      }

      .cls-3 {
        fill: #fff;
      }

      .cls-4 {
        fill: #0081cc;
      }

      .cls-5 {
        fill: #e5e972;
      }

      .cls-6 {
        fill: #fff100;
      }

      .cls-7 {
        fill: #e63082;
      }

      .cls-8 {
        fill: #00b3cd;
      }
    </style>
  </defs>
  <path class="cls-2" d="M845.86,1143.79l-61.48-6.83c-8.43,0-17.99,2.5-23,7.97-40.53,40.53-79.24,80.61-114.77,117.5-20.04,20.72-21.4,26.41-21.4,42.81,0,15.26,14.57,25.28,36.21,37.34,25.28,14.12,56.02,20.95,123.42,37.8-34.38-16.4-31.42-9.79-63.08-25.73-22.09-11.16-35.07-27.33-35.07-42.58,0-16.4,1.37-22.09,21.4-42.81,35.52-36.89,74.23-76.97,114.77-117.5,5.01-5.47,14.57-7.97,23-7.97h0Z"/>
  <path class="cls-2" d="M845.67,1143.82c-8.43,0-17.99,2.5-23,7.97-40.53,40.53-79.24,80.61-114.77,117.5-20.04,20.72-21.4,26.41-21.4,42.81,0,15.26,12.98,31.42,35.07,42.58,31.65,15.94,59.2,31.88,125.01,31.88,44.63,0,87.67-17.08,117.73-35.52,20.49-12.52,33.25-24.14,33.25-45.09,0-4.55-1.37-18.44-11.61-29.37-28.69-30.51-73.32-77.65-111.81-117.73-7.29-7.06-16.17-15.03-28.46-15.03h0Z"/>
  <path class="cls-6" d="M846.13,1164.33c-7.08,0-15.19,2.29-19.56,6.66-34.13,34.13-66.39,68.26-96.36,99.07-18.31,18.73-21.64,22.27-21.64,36,0,14.57,10.61,25.81,34.96,37.67,25.39,12.49,54.53,24.97,104.27,24.97,37.67,0,72.01-13.32,101.15-29.97,18.31-10.61,29.14-21.23,29.14-36.84,0-3.75-.83-11.86-9.16-21.02-24.56-26.43-69.93-74.09-102.4-107.6-5.83-5.83-9.99-8.95-20.4-8.95h0Z"/>
  <path class="cls-4" d="M9.46,1360.82c.76,2.76,2.84,4.32,7.89,3.27l1465.53-343.48c3.81-.82,6.53-2.45,9.25-5.44l85.03-101.19c1.63-1.91,2.72-3.81,2.72-5.44l-7.7-27.02c0,1.63-.82,3.54-2.72,5.72l-89.83,100.44c-2.72,2.99-5.44,4.63-9.25,5.44L7.85,1336.09c-3.08.84-6.25-1.23-7.65-2.35l9.26,27.09h0Z"/>
  <path class="cls-8" d="M1484.84,1020.09c2.84-.92,5.07-2.47,7.31-4.92l85.03-101.19c1.63-1.91,2.72-3.81,2.72-5.44l-7.7-27.02c0,1.63-.82,3.54-2.72,5.72l-89.83,100.44c-1.33,1.47-2.66,2.61-4.13,3.48"/>
  <path class="cls-7" d="M92.56,1226.69L1.46,1328.56s-1.46,1.58-1.46,3.81,1.72,4.12,3.67,4.12c1.02,0,2.85-.02,4.24-.37l1462.55-342.98c3.81-.82,6.53-2.45,9.25-5.44l89.83-100.44c5.17-5.99,2.45-10.89-5.17-8.98L101.81,1221.25c-3.81.82-6.53,2.45-9.25,5.44h0Z"/>
  <g>
    <polygon class="cls-8" points="1341.72 898.8 1360.58 961.66 1389.71 954.91 1368.37 891.91 1341.72 898.8"/>
    <path class="cls-8" d="M1348.83,879.71l-35.48,39.11,26.2-5.48,36.05-39.25-26.77,5.62ZM1313.35,918.82l24.59,71.04,24.69-5.72-23.08-70.81-26.2,5.48h0Z"/>
    <polygon class="cls-1" points="1375.6 874.1 1339.55 913.35 1362.63 984.16 1373.11 972.69 1355.38 915.68 1370.6 898.25 1389.71 954.91 1399.15 944.13 1375.6 874.1"/>
  </g>
  <g>
    <polygon class="cls-8" points="204.74 1164.76 223.6 1227.62 252.73 1220.87 231.39 1157.87 204.74 1164.76"/>
    <path class="cls-8" d="M211.85,1145.67l-35.48,39.11,26.2-5.48,36.05-39.25-26.77,5.62ZM176.37,1184.78l24.59,71.04,24.69-5.72-23.08-70.81-26.2,5.48h0Z"/>
    <polygon class="cls-1" points="238.62 1140.06 202.57 1179.31 225.65 1250.12 236.13 1238.65 218.4 1181.64 233.62 1164.22 252.73 1220.87 262.17 1210.09 238.62 1140.06"/>
  </g>
  <path class="cls-8" d="M1124.4,1017.79c5.17-1.91,10.34-8.98,12.52-15.79,1.91-5.44,4.08-13.61,4.08-17.69,0-14.15-17.69-32.94-41.37-25.04-68.32,22.87-127.94,38.65-238.72,38.65-212.59,0-446.69-110.51-559.38-288.54-64.78-102.35-102.08-219.67-71.86-351.14,10.34-45.19,29.94-89.83,71.86-145.63,46-61.25,123.85-120.04,206.6-154.34,5.72-2.45,7.08-5.99,9.25-12.52,1.63-5.17,4.36-14.15,4.36-19.33,0-23.68-28.58-31.58-46.55-23.14C284.11,92.03,158.62,238.2,158.62,472.57c0,332.36,348.98,588.23,704.46,588.23,110.51,0,180.2-13.07,261.32-43.01Z"/>
  <path class="cls-5" d="M502.83,41.32c0-7.35-5.17-14.15-17.42-14.15-2.45,0-10.89,3.81-20.42,8.17-70.23,32.12-293.98,149.44-293.98,438.25,0,182.1,133.38,361.49,280.91,452.95,179.65,111.33,334.81,123.31,408.31,123.31,128.75,0,216.67-25.59,254.78-41.65,5.99-2.45,6.81-8.44,6.81-10.62,0-7.89-10.07-12.52-14.7-12.52-3.81,0-8.98,1.63-17.15,4.63-47.36,17.42-125.49,35.93-231.1,35.93-82.75,0-245.53-21.5-398.23-122.76-167.41-111.06-260.77-280.64-260.77-429.26,0-200.89,123.58-344.07,281.19-416.47,11.43-5.17,21.78-8.98,21.78-15.79v-.02Z"/>
  <path class="cls-1" d="M238.84,325.81c-9.06,35.11-18.81,80.52-16.14,146.95,11.11,276.41,307.15,525.18,638.21,525.18,110.79,0,170.4-15.79,238.72-38.65,23.68-7.89,41.37,10.89,41.37,25.04,0,4.08-2.18,12.25-4.08,17.69,1.91-18.78-15.79-29.94-31.58-29.94-9.25,0-22.87,6.53-34.03,10.07-46,14.7-112.4,25.15-213.38,25.15-357.83,0-643.31-278.46-643.31-534.55,0-93.66,24.21-146.95,24.21-146.95h0Z"/>
  <path class="cls-1" d="M517.39,45.95c1.63-5.17,4.36-14.15,4.36-19.33,0-23.68-28.58-31.58-46.55-23.14C284.11,92.22,158.62,238.39,158.62,472.76c0-80.84,14.97-136.92,22.32-157.33,22.32-83.29,108.34-191.9,198.71-248.52,41.37-25.86,91.46-52.54,106.16-52.54,20.14,0,35.11,15.52,31.58,31.58h0Z"/>
  <rect class="cls-3" x="725.27" y="695.87" width="559.8" height="163.96" transform="translate(-259.34 649.65) rotate(-31.95)"/>
  <g>
    <path d="M837.01,933.32l-42.65-68.4,21.69-13.53c18.18-11.33,37.41-4.87,50.45,16.04,12.8,20.52,10.19,41.15-8.48,52.79l-21.01,13.1ZM844.08,911.13l5.96-3.72c8.99-5.61,10.06-15.64.92-30.3-9.14-14.66-18.62-18.11-27.61-12.5l-5.96,3.72,26.69,42.8Z"/>
    <path d="M894.46,897.49l-29.19-46.81,13.19-8.23,6.82,10.95c-3.58-8.35-1.64-15.26,4.12-18.86,1.17-.73,1.82-1,2.76-1.45l8.77,14.07c-1.29.54-1.59.72-2.86,1.51-7.04,4.39-7.4,10.99-1,21.25l11.64,18.66-14.27,8.9Z"/>
    <path d="M909.84,855.33c-9.44-15.15-6.68-30.3,7.49-39.14s29-4.65,38.44,10.5c9.44,15.15,6.68,30.3-7.49,39.14s-29,4.64-38.44-10.5ZM941.6,835.53c-5.18-8.31-11.15-10.69-16.72-7.22s-6.05,9.88-.87,18.19,11.15,10.69,16.72,7.22,6.05-9.88.87-18.19Z"/>
    <path d="M976.93,846.07l-29.19-46.81,14.27-8.9,4.14,6.65c-1.18-6.46,1.42-11.88,7.38-15.59,6.45-4.02,12.38-3.65,17.77.86-1.08-6.52,1.28-12.74,7.73-16.76,9.58-5.97,19.03-2.78,26.41,9.05l18.52,29.71-14.36,8.96-17.49-28.05c-3.29-5.28-6.75-6.92-10.57-4.54-4.4,2.74-4.26,7.54-.48,13.6l16.51,26.48-14.36,8.96-17.49-28.05c-3.29-5.28-6.75-6.92-10.57-4.54-4.4,2.74-4.26,7.54-.48,13.6l16.51,26.48-14.27,8.9Z"/>
    <path d="M1035.4,777.04c-9.2-14.76-8.03-29.2,3.31-36.26,6.16-3.84,12.36-3.91,18.21.04l-4.33-6.94,14.27-8.9,29.19,46.81-14.27,8.9-4.33-6.94c.91,6.9-1.82,12.53-7.98,16.37-11.34,7.07-24.82,1.77-34.08-13.08ZM1067.55,757c-5.06-8.11-11.18-10.53-16.75-7.06s-6.05,9.88-.93,18.09c5.12,8.21,11.05,10.75,16.72,7.22,5.57-3.47,6.09-10.04.97-18.25Z"/>
    <path d="M1137.12,713.61c9.26,14.85,8.09,29.29-3.25,36.36-6.16,3.84-12.36,3.91-18.21-.04l16.63,26.68-14.17,8.83-41.49-66.55,14.17-8.83,4.33,6.94c-.97-7,1.82-12.53,7.98-16.37,11.34-7.07,24.82-1.77,34.02,12.99ZM1122.66,722.63c-5.12-8.21-10.99-10.66-16.56-7.18-5.67,3.53-6.19,10.1-1.13,18.21s11.24,10.63,16.91,7.1c5.57-3.47,5.96-9.82.78-18.13Z"/>
    <path d="M1118.31,674.31c-3.23-5.18-1.73-11.27,3.35-14.44s11.31-1.89,14.53,3.29,1.67,11.17-3.51,14.4-11.21,1.83-14.38-3.25ZM1158.29,732.99l-29.19-46.81,14.17-8.83,29.19,46.81-14.17,8.83Z"/>
    <path d="M1164.38,696.62c-9.44-15.15-6.88-30.18,6.61-38.59,13.29-8.29,25.18-6.2,32.89,5.95l-13.88,8.65c-3.22-4.51-7.02-5.39-11.32-2.71-5.08,3.17-5.19,9.75-.13,17.86s10.82,11.03,16.29,7.62c4.01-2.5,4.95-6.21,2.6-10.85l13.88-8.65c6.93,12.64,3.43,23.78-9.37,31.76-13.78,8.59-27.99,4.29-37.56-11.05Z"/>
  </g>
  <rect class="cls-3" x="379" y="716.42" width="201.27" height="93.13" transform="translate(171.32 -83.85) rotate(12.15)"/>
  <rect class="cls-3" x="412.52" y="649.32" width="165.32" height="95.57" transform="translate(157.8 -88.6) rotate(12.15)"/>
  <g>
    <path d="M459.88,691.41c-7.59-1.63-12.29-7.78-10.75-14.91s8.31-10.62,15.9-8.99,12.38,7.62,10.85,14.75-8.41,10.78-15.99,9.15ZM465.97,716.89c-11.18-2.41-17.06-7.79-15.72-14.01s8.98-8.99,20.15-6.58c11.23,2.42,17.1,7.86,15.72,14.3s-8.91,8.7-20.15,6.28ZM463.71,673.62c-3.42-.74-6.52.92-7.3,4.52s1.37,6.38,4.79,7.12,6.59-.97,7.35-4.5-1.49-6.41-4.85-7.13ZM469.1,702.35c-6.44-1.39-10.63-.5-11.21,2.18-.54,2.51,2.91,5.04,9.36,6.43s10.69.51,11.23-2c.58-2.68-2.76-5.19-9.38-6.61ZM476.9,684.69l6.22,1.34,1.09-5.08-6.22-1.34,1.2-6.42,6.39,1.37,1.31-6.1,7.64,1.65-6.52,30.28-7.64-1.65,1.36-6.33-6.39-1.37,1.55-6.35Z"/>
    <path d="M521.48,705.15c-3.61-2.09-8.03-7.34-8.93-12.01-2.51,4.47-9.36,8.01-14.55,8.56l-2.54-6.75c8.21-.98,13.86-5.91,15.47-13.38l.98-4.56,7.7,1.66-.91,4.22c-1.76,8.15,2.25,13.67,8.16,17.27l-5.37,4.99ZM513.18,727.05c-11.18-2.41-17.06-7.79-15.71-14.06s8.96-8.93,20.14-6.52c11.23,2.42,17.16,7.87,15.79,14.26s-8.98,8.75-20.22,6.33ZM505.11,714.63c-.56,2.62,2.9,5.1,9.34,6.49s10.68.57,11.24-2.05-2.72-5.12-9.39-6.56c-6.44-1.39-10.63-.5-11.2,2.12ZM537.63,698.6l-2.44,11.35-7.53-1.62,6.4-29.71,7.53,1.62-2.63,12.2,7.07,1.52-1.33,6.16-7.07-1.52Z"/>
    <path d="M420.4,774.2l-2.93-42.4,9.35,2.01.45,29.22,12.44-26.44,9.3,2-20.11,37.44-8.5-1.83Z"/>
    <path d="M449.11,743.63c.65-3.02,3.34-4.71,6.31-4.07s4.78,3.3,4.13,6.32-3.33,4.65-6.35,4-4.72-3.28-4.08-6.25ZM442.98,779.06l5.88-27.32,8.27,1.78-5.88,27.32-8.27-1.78Z"/>
    <path d="M482.19,745.73l8.33,1.79-8.59,39.92-8.33-1.79.87-4.05c-2.1,2.83-5.08,3.92-8.67,3.15-6.62-1.42-9.65-8.11-7.79-16.77,1.85-8.61,7.37-13.45,13.99-12.03,3.59.77,5.87,2.93,6.61,6.43l3.58-16.65ZM476.77,772.02c1.02-4.73-.36-7.77-3.61-8.47s-5.68,1.46-6.72,6.25.23,7.81,3.54,8.52,5.75-1.51,6.79-6.3Z"/>
    <path d="M513.36,782.22l-16.82-3.62c-.68,3.73.48,6.37,3.73,7.07,2.4.52,3.86-.18,4.71-1.91l7.53,1.62c-1.97,5.54-6.74,8.04-13.53,6.57-8.5-1.83-12.11-8.04-10.14-17.22s7.93-13.57,16.15-11.8,11.09,7.82,9.45,15.4c-.21.97-.61,2.55-1.08,3.89ZM506.79,775.31c.85-3.94-.28-6.21-3.07-6.81-3.02-.65-5.18,1.03-6.05,4.84l9.12,1.96Z"/>
    <path d="M516.68,780.61c1.9-8.84,8.25-13.38,16.52-11.6,8.27,1.78,12.19,8.53,10.28,17.37s-8.25,13.38-16.52,11.6-12.19-8.53-10.28-17.37ZM535.22,784.6c1.04-4.85-.29-7.82-3.54-8.52s-5.68,1.46-6.73,6.31.29,7.82,3.54,8.52,5.68-1.46,6.73-6.31Z"/>
  </g>
</svg>