<?xml version="1.0" encoding="UTF-8"?>
<svg id="_레이어_1" data-name="레이어 1" xmlns="http://www.w3.org/2000/svg" viewBox="0 0 1668.65 1235.25">
  <defs>
    <style>
      .cls-1, .cls-2 {
        fill: #009698;
      }

      .cls-3 {
        fill: #abd0ef;
      }

      .cls-4 {
        fill: #0054a4;
      }

      .cls-5 {
        fill: #e5e972;
      }

      .cls-6 {
        fill: #9cc12d;
      }

      .cls-2 {
        stroke: #009698;
        stroke-miterlimit: 10;
      }

      .cls-7 {
        fill: #fff100;
      }

      .cls-8 {
        fill: #00b3cd;
      }
    </style>
  </defs>
  <g>
    <path class="cls-8" d="M898.26,1044.13h-76.28c-96.13,0-162.5,84.97-162.5,163.64l97.38-21.09c0-55.22,41.27-142.55,141.4-142.55Z"/>
    <polygon class="cls-1" points="756.86 1186.68 659.48 1207.77 988.2 1207.77 988.2 1186.64 756.86 1186.68"/>
    <path class="cls-6" d="M1110.18,1214.15c0-121.3-79.25-213.23-190.82-213.23l-139.04,18.88h.29c12.87-2.57,26.89-3.72,41.48-3.72,111.57,0,190.82,97.86,190.82,219.16l97.27-21.09Z"/>
    <path class="cls-5" d="M659.48,1207.77c0-78.67,66.37-163.64,162.5-163.64,82.39,0,161.93,84.4,161.93,163.64h-324.43ZM631.16,1235.25h381.64c0-121.3-79.25-219.16-190.82-219.16s-190.82,90.7-190.82,219.16Z"/>
  </g>
  <g>
    <path class="cls-4" d="M168.21,872.38l-2.81,13.07,1500.55,317.83,2.7-11.22L168.21,872.38ZM168.21,872.38l1500.44,319.69"/>
    <polygon class="cls-7" points="1.72 787.8 168.4 872.28 1668.65 1192.07 1504.2 1108.06 1.72 787.8"/>
    <polygon class="cls-3" points="1.72 787.8 0 798.03 165.63 885.63 168.44 872.56 1.72 787.8"/>
  </g>
  <g>
    <g>
      <path class="cls-8" d="M1083.33,1032.07c-2.49,0-4.95-.18-7.31-.53-38.54-5.78-89.06-44.13-150.15-113.97-72.67-83.29-156.11-209.8-228.93-347.09-72.87-137.39-129.26-274.55-154.69-376.33-13.68-54.8-18.55-106.1-13.36-140.74C533.82,20.54,555.47.12,585.4.12c3.23,0,6.55.25,9.87.75,25.26,3.79,58.08,24.84,100.35,64.34,82.61,77.08,205.89,261.3,269.21,385,9.54,18.64,18.72,36.2,26.82,51.69,15.42,29.5,27.6,52.8,34.36,68.27l.05.11-34.4,17.2-.05-.12c-13.26-30.24-35.11-72.53-60.21-120.66-37.33-71.41-84.61-148.51-133.13-217.1-49.12-69.44-97.67-127.46-136.7-163.38-27.37-25.05-57.2-44.73-70.94-46.79-1.62-.24-3.18-.37-4.62-.37-10.86,0-16.69,6.63-18.92,21.49-2.85,19.03-4.92,60.9,13.32,127.54,26.64,97.24,81.83,229.32,151.42,362.37,73.44,140.4,151.85,261.11,220.79,339.88,50.59,57.48,101.71,98.67,127.22,102.5,1.24.19,2.44.28,3.57.28,10.13,0,16.19-7.54,18.52-23.04,4.87-32.45-1-69.21-11.31-114.42l-.03-.12,37.39-10.44.67,2.74c5.14,20.99,18.79,76.73,10.57,131.54-2.62,17.48-10.18,31.62-21.87,40.89-9.59,7.61-21.67,11.8-34.03,11.8Z"/>
      <path class="cls-1" d="M585.4.25c3.23,0,6.52.25,9.85.75,24.79,3.72,57.82,24.62,100.28,64.31,86.19,80.42,209.5,268.37,269.18,384.97,27.31,53.36,50.79,96.19,61.18,119.96l-34.17,17.09c-13.37-30.48-35.89-74.02-60.21-120.67-76.56-146.47-188.53-305.66-269.85-380.51-26.79-24.52-56.8-44.69-71.01-46.82-1.65-.25-3.2-.37-4.64-.37-12.38,0-17.14,8.87-19.05,21.59-3.18,21.17-4.15,63.74,13.33,127.59,54.1,197.5,225.64,534.78,372.23,702.3,47.93,54.46,100.56,98.53,127.3,102.54,1.25.19,2.45.28,3.59.28,10.74,0,16.41-8.29,18.64-23.15,4.68-31.19-.49-67-11.31-114.47l37.15-10.37c4.22,17.44,19.82,76.73,11.21,134.11-5.81,38.72-33.78,52.59-55.77,52.59-2.52,0-4.97-.18-7.29-.53-41.78-6.27-94.17-50.01-150.08-113.93-152.36-174.64-330.21-509.74-383.6-723.37-13.52-54.14-18.53-106.16-13.35-140.69,5.17-34.47,28.36-53.18,56.39-53.18M585.4,0c-14.22,0-26.99,4.75-36.94,13.73-10.41,9.4-17.22,23.12-19.7,39.66-5.2,34.66-.33,85.98,13.36,140.79,13.03,52.12,33.56,112.21,61.05,178.62,26.43,63.87,57.94,130.4,93.66,197.73,35.7,67.3,73.45,131.36,112.22,190.42,40.27,61.35,79.54,114.07,116.73,156.69,61.11,69.87,111.66,108.22,150.23,114.01,2.36.35,4.83.53,7.33.53,12.38,0,24.49-4.2,34.1-11.82,11.71-9.29,19.28-23.46,21.91-40.97,8.22-54.83-5.43-110.59-10.57-131.58-.23-.96-.45-1.83-.64-2.62l-.06-.25-.25.07-37.15,10.37-.23.06.05.23c10.3,45.2,16.17,81.95,11.3,114.38-2.32,15.43-8.33,22.93-18.39,22.93-1.12,0-2.32-.09-3.55-.28-25.48-3.82-76.58-45-127.14-102.45-35.35-40.39-73.16-91.73-112.38-152.6-36.82-57.15-73.29-120.15-108.39-187.25-69.59-133.04-124.78-265.11-151.41-362.34-18.23-66.62-16.17-108.47-13.32-127.49,2.22-14.79,8.02-21.38,18.8-21.38,1.44,0,2.99.12,4.6.37,13.72,2.06,43.52,21.72,70.88,46.76,39.02,35.91,87.56,93.93,136.68,163.36,48.52,68.59,95.8,145.68,133.12,217.08,25.1,48.13,46.95,90.42,60.21,120.65l.11.24.24-.12,34.17-17.09.21-.11-.1-.22c-6.76-15.48-18.94-38.78-34.36-68.27-8.1-15.5-17.28-33.06-26.82-51.7-30.55-59.69-77.16-136.73-124.67-206.08-53.96-78.77-105.3-142.32-144.57-178.96C653.42,25.6,620.58,4.54,595.29.75c-3.32-.5-6.65-.75-9.89-.75h0Z"/>
    </g>
    <path class="cls-2" d="M1128.09,845.91c-1.35-6.18-7.42-9.37-14.39-10.42-8.36-1.25-21.46,4.47-23.01,14.78-.29,1.95-.31,3.94.24,6.02,1.89,8.26,10.75,11.86,21,9.98,10.25-1.88,18.35-10.35,16.15-20.36Z"/>
    <path class="cls-1" d="M1025.85,569.82c.25-1.67-8.76-.46-18.27,4.09-9.51,4.55-15.28,8.81-15.9,12.99-.75,5.01,32.75-7.62,34.17-17.09Z"/>
  </g>
</svg>