<?xml version="1.0" encoding="UTF-8"?>
<svg id="_레이어_1" data-name=" 레이어 1" xmlns="http://www.w3.org/2000/svg" viewBox="0 0 1723.98 1665.05">
  <defs>
    <style>
      .cls-1 {
        fill: #f8c197;
      }

      .cls-2 {
        fill: #f0e93f;
      }

      .cls-3 {
        fill: #80bb41;
      }

      .cls-4 {
        fill: #ec1e8d;
      }

      .cls-5 {
        fill: #f49dbc;
      }

      .cls-6 {
        fill: #fff;
      }

      .cls-7 {
        fill: #27bece;
      }

      .cls-8 {
        fill: #a3d5e0;
      }

      .cls-9 {
        fill: #bdd637;
      }
    </style>
  </defs>
  <g>
    <path class="cls-3" d="M860.4,1361.12c74.77,0,132.77,67.95,132.77,151.82s-51.74,152.11-132.77,152.11h150.68c81.03,0,132.77-67.95,132.77-152.11s-58-151.82-132.77-151.82h-150.68Z"/>
    <path class="cls-9" d="M860.29,1665.05c-80.74,0-129.08-77.62-129.08-152.11s48.33-151.82,129.08-151.82c74.77,0,132.77,67.95,132.77,151.82s-51.74,152.11-132.77,152.11h0Z"/>
    <path class="cls-2" d="M860.72,1646c-70.79,0-113.16-67.95-113.16-133.06s42.36-132.77,113.16-132.77c65.11,0,116,59.42,116,132.77s-45.21,133.06-116,133.06Z"/>
  </g>
  <g>
    <polygon class="cls-7" points="6.49 1154.01 312.22 1354.56 1723.98 1465.6 1418.25 1265.04 6.49 1154.01"/>
    <polygon class="cls-8" points="312.22 1354.56 305.63 1364.46 1717.39 1475.63 1723.96 1465.64 312.22 1354.56"/>
    <rect class="cls-7" x="150.19" y="1076.35" width="11.89" height="365.64" transform="translate(-982.4 699.15) rotate(-56.74)"/>
  </g>
  <g>
    <path class="cls-1" d="M577.62,13.64l27.55,43.67c-104.06,96.1-292.27,326.67-292.27,619.23,0,503.59,355.11,519.33,465.29,519.33,178.12,0,367.42-137.56,426.02-195.5l24.19,12.62,28.69,44.81c-102.64,96.38-273.79,211.53-477.64,211.53-283.17,0-542.02-203.91-542.02-609.34C237.43,340.94,442.05,92.05,551.6,0l26.02,13.64h0Z"/>
    <path class="cls-4" d="M577.62,13.64l28.15,43.78c-104.06,96.1-290.38,323.26-290.38,615.82,0,348,188.91,534.94,461.21,534.94,165.47,0,337.48-88.64,451.81-195.19l29.28,44.92c-102.64,96.38-273.79,211.53-477.64,211.53-283.17,0-527.68-191.91-520-597.34,5.12-270.1,156.94-518.58,317.58-658.46h0Z"/>
    <path class="cls-5" d="M1227.89,1030.33l15.35,23.88c-118.84,113.16-289.35,202.73-456.16,202.73-239.11,0-513.97-143.05-513.97-573.5,0-260.06,151.32-517.32,302.21-650.47l14.5,23.31c-138.46,131.07-286.91,366.75-286.91,612.39,0,445.15,273.71,554.7,469.6,554.7s342.04-93.54,455.38-193.06v.02Z"/>
  </g>
  <rect class="cls-6" x="493.82" y="972.13" width="310.84" height="163.96" transform="translate(524.11 -177.55) rotate(25.83)"/>
  <g>
    <path d="M536.57,1047.3l35.12-72.56,15.96,7.73-14.35,29.64,18.66,9.03,14.35-29.64,15.96,7.73-35.12,72.56-15.96-7.73,14.1-29.13-18.66-9.03-14.1,29.13-15.96-7.73Z"/>
    <path d="M598.13,1077.1l35.12-72.56,15.96,7.73-35.12,72.56-15.96-7.73Z"/>
    <path d="M682.28,1028.27c17.41,8.43,22.34,23.35,14.57,39.42s-22.69,21.51-40,13.13l-6.12-2.96-9.68,20.01-15.96-7.73,35.12-72.56,22.08,10.69ZM662.14,1068.03c7.67,3.71,14.17.33,18.33-8.27s2.78-15.8-4.89-19.51l-5.39-2.61-13.45,27.78,5.39,2.61Z"/>
    <path d="M687.32,1092.12l15.96,7.73c-3.76,7.77-2.35,13.32,3.25,16.03,4.66,2.26,9.02.66,11.28-4.01s1.02-8.46-2.96-13.71l-7.01-8.77c-7.44-9.48-9.3-18.06-4.38-28.22,5.97-12.34,18.96-15.9,32.84-9.18,15.24,7.38,19.15,19.12,11.97,33.94l-15.65-7.58c3.36-6.95,2.06-11.67-2.7-13.97-4.46-2.16-8.35-.72-10.41,3.53-2.26,4.66-.36,8.14,3.63,13.65l7.39,9.59c7.08,9.69,8.21,17.66,3.59,27.2-6.47,13.37-19.92,17.36-33.91,10.58-15.76-7.63-20.76-20.54-12.89-36.82Z"/>
  </g>
  <rect class="cls-6" x="1014.96" y="904.36" width="375.21" height="93.13" transform="translate(-252.76 468.79) rotate(-20.01)"/>
  <rect class="cls-6" x="1046.19" y="839.54" width="266.42" height="95.57" transform="translate(-232.4 457.03) rotate(-20.01)"/>
  <g>
    <path d="M1116.04,924.43c-4.93-.75-12.42-4.11-15.62-8.28.63,5.48-2.78,13.86-6.31,17.63l-6.47-3.79c6.61-8.12,7.44-16.55,3.71-26.8l-2.31-6.36,7.51-2.73,2.22,6.08c3.71,10.2,10.11,15.5,19.34,16.98l-2.07,7.27ZM1121.98,900.85l6.8-2.47,2.16,5.92-6.8,2.47,9.02,24.78-7.13,2.59-17.78-48.84,7.13-2.59,6.61,18.14Z"/>
    <path d="M1127.97,882.03l25.71-9.36,2.06,5.65-8.77,3.19c3.01,7.41,9.62,10.9,15.55,10.66l-1.87,7.14c-3.78.01-9.65-2.13-13.6-5.98.24,5.44-2.83,12.02-6.77,15l-6.56-4.19c6.3-5.21,8.26-12.26,5.62-19.86l-9.32,3.39-2.06-5.65ZM1148.94,924.43l-5.43-14.91,7.29-2.65,3.35,9.21,27.3-9.94,2.08,5.7-34.59,12.59ZM1170.67,902.8l-12.93-35.52,7.35-2.67,12.93,35.52-7.35,2.67Z"/>
    <path d="M1203.65,886.32c-.03,5.04-1.78,9.28-6.38,10.95-7.84,2.85-14.05-5.5-17.2-14.16s-3.63-18.67,4.21-21.52c4.44-1.62,8.35.25,11.49,3.76l5.1-1.86-3.49-9.59,6.74-2.45,16.64,45.72-6.74,2.45-5.49-15.07-4.88,1.78ZM1186.79,868.31c-2.91,1.06-1.87,6.64.23,12.39s4.87,10.64,7.77,9.59c3.07-1.12,2.13-6.61,0-12.42s-4.94-10.68-8.01-9.56ZM1202.87,880.09l3.56-1.3-3.47-9.54-3.62,1.32c.87,1.54,1.6,3.2,2.2,4.85.54,1.48.99,3.05,1.33,4.67ZM1224.46,898.3l-17.78-48.84,6.91-2.51,17.78,48.84-6.91,2.51Z"/>
    <path d="M1242.4,891.64l-4.73-12.99,25.65-9.34-.76-2.08-25.76,9.38-2.08-5.7,13.26-4.83-.94-2.58-18.47,6.73-2.08-5.7,44.13-16.07,2.08,5.7-18.47,6.73.94,2.58,12.61-4.59,4.65,12.77-25.76,9.38.78,2.14,27.52-10.02,2.14,5.87-34.7,12.63ZM1230.77,861.42l-4.82-4.7c8.34-4.03,14.56-10.83,12.12-17.51l-.18-.49,7.35-2.67.18.49c2.43,6.69,11.23,7.83,20.55,5.62l-.69,6.64c-7.04,1.63-15.76,1.21-20.68-3.09-1,6.45-7.52,12.42-13.83,15.71Z"/>
    <path d="M1063.26,983.12c9.21-3.35,16.37.12,19.47,8.62s-.19,15.84-9.35,19.17l-3.23,1.18,3.85,10.58-8.44,3.07-13.97-38.37,11.68-4.25ZM1070.6,1004.47c4.06-1.48,5.12-5.03,3.47-9.58-1.62-4.44-4.76-6.59-8.81-5.11l-2.85,1.04,5.35,14.69,2.85-1.04Z"/>
    <path d="M1112.25,989.31l6.25,17.16-8.11,2.95-5.45-14.96c-1.32-3.62-2.96-4.88-5.42-3.99-2.74,1-3.15,3.44-1.7,7.45l5.17,14.2-8,2.91-13.97-38.37,8-2.91,5.77,15.84c.35-3.48,2.38-5.9,5.84-7.15,5.15-1.88,9.25.36,11.63,6.88Z"/>
    <path d="M1117.05,992.09c-3.09-8.5-.14-15.72,7.81-18.61s14.86.74,17.95,9.23.14,15.72-7.81,18.61c-7.95,2.89-14.86-.74-17.95-9.23ZM1134.87,985.6c-1.7-4.66-4.4-6.47-7.53-5.33s-4.04,4.26-2.34,8.92,4.4,6.47,7.53,5.33,4.04-4.26,2.34-8.92Z"/>
    <path d="M1162.62,982.89l2.41,6.63c-1.27.77-2.53,1.42-4.06,1.98-4.82,1.76-9.3.22-11.35-5.43l-4.39-12.06-3.34,1.22-2.26-6.19,3.34-1.22-2.85-7.84,8-2.91,2.85,7.84,4.28-1.56,2.26,6.19-4.28,1.56,3.61,9.92c.92,2.52,2.19,3.3,4.17,2.58.44-.16.86-.37,1.6-.71Z"/>
    <path d="M1162.38,975.59c-3.09-8.5-.14-15.72,7.81-18.61s14.86.74,17.95,9.23.14,15.72-7.81,18.61c-7.95,2.89-14.86-.74-17.95-9.23ZM1180.19,969.1c-1.7-4.66-4.4-6.47-7.53-5.33s-4.04,4.26-2.34,8.92,4.4,6.47,7.53,5.33,4.04-4.26,2.34-8.92Z"/>
    <path d="M1203.54,945.76l8-2.91,9.56,26.26c1.72,4.71,1.25,8.55-1.01,11.54-1.66,2.09-4,3.69-7.23,4.87s-6.14,1.37-8.75.7c-2.99-.71-5.39-2.69-6.63-5.41l8.06-2.93c.88,1.73,2.73,2.73,5.42,1.75,2.96-1.08,3.67-3.39,2.47-6.67l-1.9-5.21c-.24,3.44-2.26,5.91-5.71,7.17-6.3,2.3-12.37-1.58-15.36-9.8-2.99-8.22-.84-15.09,5.47-17.39,3.51-1.28,6.61-.61,9.02,1.93l-1.42-3.89ZM1208.58,958.77c-1.66-4.55-4.44-6.39-7.56-5.26s-4.04,4.26-2.36,8.87,4.35,6.49,7.53,5.33,4.07-4.34,2.39-8.94Z"/>
    <path d="M1226.36,967.19l-9.56-26.26,7.4-2.69,2.24,6.14c-.9-4.51.78-7.74,4.02-8.91.66-.24,1.01-.3,1.52-.43l2.87,7.89c-.7.13-.86.19-1.57.45-3.95,1.44-4.82,4.67-2.72,10.43l3.81,10.47-8,2.91Z"/>
    <path d="M1238.34,947.93c-3.01-8.28-.92-15.31,5.44-17.62,3.45-1.26,6.53-.64,9.02,1.93l-1.42-3.89,8-2.91,9.56,26.26-8,2.91-1.42-3.89c-.27,3.51-2.22,6.02-5.67,7.28-6.36,2.31-12.49-1.73-15.52-10.06ZM1256.37,941.37c-1.66-4.55-4.44-6.39-7.56-5.26s-4.04,4.26-2.36,8.87,4.35,6.49,7.53,5.33,4.07-4.34,2.39-8.94Z"/>
    <path d="M1295.4,927.16c3.03,8.33.94,15.36-5.42,17.68-3.45,1.26-6.53.64-9.02-1.93l5.45,14.96-7.95,2.89-13.59-37.33,7.95-2.89,1.42,3.89c.25-3.57,2.22-6.02,5.67-7.28,6.36-2.32,12.49,1.72,15.5,10ZM1287.29,930.11c-1.68-4.6-4.33-6.43-7.45-5.3s-4.13,4.36-2.47,8.91,4.46,6.45,7.64,5.29,3.98-4.24,2.28-8.9Z"/>
    <path d="M1321.35,913.18l6.25,17.16-8.11,2.95-5.45-14.96c-1.32-3.62-2.96-4.88-5.42-3.99-2.74,1-3.15,3.44-1.7,7.45l5.17,14.2-8,2.91-13.97-38.37,8-2.91,5.77,15.84c.35-3.48,2.38-5.9,5.84-7.15,5.15-1.88,9.25.36,11.63,6.88Z"/>
    <path d="M1338.04,896.8l8-2.91,9.46,25.98c1.74,4.77,1.58,8.43-.28,11.34-1.4,2.12-3.75,3.85-7.1,5.07-3.4,1.24-6.1,1.48-8.48.92-2.81-.72-5.09-2.55-6.34-5.82l7.62-2.77c.88,1.91,2.62,2.77,5.03,1.89,2.63-.96,3.22-3.1,1.78-7.04l-1.7-4.66c-.2,3.36-1.87,5.77-5.76,7.19-5.43,1.98-9.5-1.38-11.68-7.36l-5.91-16.23,8.06-2.93,5.51,15.13c1.18,3.23,2.89,4.35,5.24,3.49s3.08-3.3,1.83-6.75l-5.29-14.53Z"/>
  </g>
</svg>