<?xml version="1.0" encoding="UTF-8"?>
<svg id="_레이어_1" data-name="레이어 1" xmlns="http://www.w3.org/2000/svg" viewBox="0 0 1738.19 1433.92">
  <defs>
    <style>
      .cls-1 {
        fill: #dae24a;
      }

      .cls-2 {
        fill: #009698;
      }

      .cls-3 {
        fill: #e5e972;
      }

      .cls-4 {
        fill: #fff100;
      }

      .cls-5 {
        fill: #ea5550;
      }

      .cls-6 {
        fill: #00b3cd;
      }
    </style>
  </defs>
  <g>
    <path class="cls-1" d="M979.42,1191.15l-61.48-6.83c-8.43,0-17.99,2.5-23,7.97-40.53,40.53-79.24,80.61-114.77,117.5-20.04,20.72-21.4,26.41-21.4,42.81,0,15.26,14.57,25.28,36.21,37.34,25.28,14.12,56.02,20.95,123.42,37.8-34.38-16.4-31.42-9.79-63.08-25.73-22.09-11.16-35.07-27.33-35.07-42.58,0-16.4,1.37-22.09,21.4-42.81,35.52-36.89,74.23-76.97,114.77-117.5,5.01-5.47,14.57-7.97,23-7.97Z"/>
    <path class="cls-1" d="M979.24,1191.18c-8.43,0-17.99,2.5-23,7.97-40.53,40.53-79.24,80.61-114.77,117.5-20.04,20.72-21.4,26.41-21.4,42.81,0,15.26,12.98,31.42,35.07,42.58,31.65,15.94,59.2,31.88,125.01,31.88,44.63,0,87.67-17.08,117.73-35.52,20.49-12.52,33.25-24.14,33.25-45.09,0-4.55-1.37-18.44-11.61-29.37-28.69-30.51-73.32-77.65-111.81-117.73-7.29-7.06-16.17-15.03-28.46-15.03Z"/>
    <path class="cls-4" d="M979.69,1211.68c-7.08,0-15.19,2.29-19.56,6.66-34.13,34.13-66.39,68.26-96.36,99.07-18.31,18.73-21.64,22.27-21.64,36,0,14.57,10.61,25.81,34.96,37.67,25.39,12.49,54.53,24.97,104.27,24.97,37.67,0,72.01-13.32,101.15-29.97,18.31-10.61,29.14-21.23,29.14-36.84,0-3.75-.83-11.86-9.16-21.02-24.56-26.43-69.93-74.09-102.4-107.6-5.83-5.83-9.99-8.95-20.4-8.95Z"/>
  </g>
  <g>
    <polygon class="cls-5" points="3.4 1275.26 353.75 1379.87 1738.19 1081.99 1387.84 977.38 3.4 1275.26"/>
    <polygon class="cls-4" points="353.75 1379.87 350.28 1391.24 1734.76 1093.49 1738.18 1082.04 353.75 1379.87"/>
    <rect class="cls-5" x="170.93" y="1150.44" width="11.89" height="365.64" transform="translate(-1151.25 1121.29) rotate(-73.38)"/>
  </g>
  <g>
    <path class="cls-6" d="M662.94,1184.1c-5.51.18-12.96-4.44-17.53-9.93-3.81-4.33-8.9-11.08-10.43-14.86-5.32-13.12,4.03-37.17,28.94-38.75,71.91-4.47,133.09-12.22,235.76-53.83,197.03-79.84,372.49-270.18,410.08-477.49,21.61-119.19,12.11-241.92-65.27-352.43-26.56-37.99-61.48-72.01-121.29-107.98-65.64-39.49-159.87-64.74-249.44-65.45-6.22-.12-8.81-2.89-13.28-8.13-3.46-4.18-9.35-11.48-11.29-16.28-8.89-21.95,14.63-40,34.45-38.92,210.43,10.48,381.62,98.83,469.64,316.04,124.82,308.03-102.53,676.23-431.99,809.73-102.43,41.5-171.92,55.56-258.34,58.28Z"/>
    <path class="cls-3" d="M872.3,45.67c-2.76-6.81-.52-15.06,10.83-19.66,2.27-.92,11.52-.56,21.99-.1,77.15,3.39,328.58,28.1,437.04,295.77,68.39,168.77,12.14,385.12-90.25,525.29-124.69,170.65-264,240.02-332.11,267.62-119.33,48.35-210.42,57.66-251.77,57.08-6.47-.02-9.48-5.27-10.29-7.28-2.96-7.32,4.63-15.39,8.92-17.12,3.53-1.43,8.94-1.86,17.63-2.15,50.44-1.64,129.79-13.82,227.68-53.49,76.69-31.08,219.48-112.14,322.98-263.33,113.44-165.8,136.29-358.03,80.47-495.78-75.44-186.18-243.75-272.47-417.01-280.39-12.54-.5-23.56-.15-26.11-6.45Z"/>
    <path class="cls-2" d="M1223.8,210.19c21.59,29.14,47.67,67.56,70.15,130.14,93.51,260.35-87.44,602.09-394.27,726.42-102.68,41.61-163.86,49.36-235.76,53.83-24.91,1.58-34.26,25.63-28.94,38.75,1.53,3.78,6.62,10.53,10.43,14.86-8.82-16.69,3.39-33.68,18.02-39.61,8.58-3.48,23.64-2.53,35.32-3.44,48.16-3.65,113.61-18.9,207.21-56.82,331.64-134.38,491.64-499.67,395.47-737.01-35.17-86.8-77.62-127.11-77.62-127.11Z"/>
    <path class="cls-2" d="M860.55,55.42c-3.46-4.18-9.35-11.48-11.29-16.28-8.89-21.95,14.63-40,34.45-38.92,210.43,10.48,381.62,98.83,469.64,316.04-30.36-74.93-65.29-121.27-79.77-137.43-51.97-68.81-172.48-137.17-277.5-155.71-48.06-8.43-104.5-14.34-118.12-8.82-18.67,7.56-26.72,27.57-17.41,41.12Z"/>
  </g>
</svg>