<?xml version="1.0" encoding="UTF-8"?>
<svg id="_레이어_1" data-name=" 레이어 1" xmlns="http://www.w3.org/2000/svg" viewBox="0 0 1668.65 1398.35">
  <defs>
    <style>
      .cls-1, .cls-2 {
        fill: #009698;
      }

      .cls-2 {
        stroke: #009698;
        stroke-miterlimit: 10;
      }

      .cls-3 {
        fill: #abd0ef;
      }

      .cls-4 {
        fill: #9cc12d;
      }

      .cls-5 {
        fill: #0054a4;
      }

      .cls-6 {
        fill: #fff;
      }

      .cls-7 {
        fill: #e5e972;
      }

      .cls-8 {
        fill: #fff100;
      }

      .cls-9 {
        fill: #00b3cd;
      }
    </style>
  </defs>
  <g>
    <path class="cls-9" d="M898.26,1207.23h-76.28c-96.13,0-162.5,84.97-162.5,163.64l97.38-21.09c0-55.22,41.27-142.55,141.4-142.55Z"/>
    <polygon class="cls-1" points="756.86 1349.78 659.48 1370.87 988.2 1370.87 988.2 1349.74 756.86 1349.78"/>
    <path class="cls-4" d="M1110.18,1377.25c0-121.3-79.25-213.23-190.82-213.23l-139.04,18.88h.29c12.87-2.57,26.89-3.72,41.48-3.72,111.57,0,190.82,97.86,190.82,219.16l97.27-21.09h0Z"/>
    <path class="cls-7" d="M659.48,1370.87c0-78.67,66.37-163.64,162.5-163.64,82.39,0,161.93,84.4,161.93,163.64h-324.43ZM631.16,1398.35h381.64c0-121.3-79.25-219.16-190.82-219.16s-190.82,90.7-190.82,219.16Z"/>
  </g>
  <g>
    <path class="cls-5" d="M168.21,1035.48l-2.81,13.07,1500.55,317.83,2.7-11.22L168.21,1035.48ZM168.21,1035.48l1500.44,319.69"/>
    <polygon class="cls-8" points="1.72 950.9 168.4 1035.38 1668.65 1355.17 1504.2 1271.16 1.72 950.9"/>
    <polygon class="cls-3" points="1.72 950.9 0 961.13 165.63 1048.73 168.44 1035.66 1.72 950.9"/>
  </g>
  <g>
    <g>
      <path class="cls-9" d="M1083.33,1195.17c-2.49,0-4.95-.18-7.31-.53-38.54-5.78-89.06-44.13-150.15-113.97-72.67-83.29-156.11-209.8-228.93-347.09-72.87-137.39-129.26-274.55-154.69-376.33-13.68-54.8-18.55-106.1-13.36-140.74,4.93-32.87,26.58-53.29,56.51-53.29,3.23,0,6.55.25,9.87.75,25.26,3.79,58.08,24.84,100.35,64.34,82.61,77.08,205.89,261.3,269.21,385,9.54,18.64,18.72,36.2,26.82,51.69,15.42,29.5,27.6,52.8,34.36,68.27l.05.11-34.4,17.2-.05-.12c-13.26-30.24-35.11-72.53-60.21-120.66-37.33-71.41-84.61-148.51-133.13-217.1-49.12-69.44-97.67-127.46-136.7-163.38-27.37-25.05-57.2-44.73-70.94-46.79-1.62-.24-3.18-.37-4.62-.37-10.86,0-16.69,6.63-18.92,21.49-2.85,19.03-4.92,60.9,13.32,127.54,26.64,97.24,81.83,229.32,151.42,362.37,73.44,140.4,151.85,261.11,220.79,339.88,50.59,57.48,101.71,98.67,127.22,102.5,1.24.19,2.44.28,3.57.28,10.13,0,16.19-7.54,18.52-23.04,4.87-32.45-1-69.21-11.31-114.42l-.03-.12,37.39-10.44.67,2.74c5.14,20.99,18.79,76.73,10.57,131.54-2.62,17.48-10.18,31.62-21.87,40.89-9.59,7.61-21.67,11.8-34.03,11.8h.01Z"/>
      <path class="cls-1" d="M585.4,163.35c3.23,0,6.52.25,9.85.75,24.79,3.72,57.82,24.62,100.28,64.31,86.19,80.42,209.5,268.37,269.18,384.97,27.31,53.36,50.79,96.19,61.18,119.96l-34.17,17.09c-13.37-30.48-35.89-74.02-60.21-120.67-76.56-146.47-188.53-305.66-269.85-380.51-26.79-24.52-56.8-44.69-71.01-46.82-1.65-.25-3.2-.37-4.64-.37-12.38,0-17.14,8.87-19.05,21.59-3.18,21.17-4.15,63.74,13.33,127.59,54.1,197.5,225.64,534.78,372.23,702.3,47.93,54.46,100.56,98.53,127.3,102.54,1.25.19,2.45.28,3.59.28,10.74,0,16.41-8.29,18.64-23.15,4.68-31.19-.49-67-11.31-114.47l37.15-10.37c4.22,17.44,19.82,76.73,11.21,134.11-5.81,38.72-33.78,52.59-55.77,52.59-2.52,0-4.97-.18-7.29-.53-41.78-6.27-94.17-50.01-150.08-113.93-152.36-174.64-330.21-509.74-383.6-723.37-13.52-54.14-18.53-106.16-13.35-140.69,5.17-34.47,28.36-53.18,56.39-53.18M585.4,163.1c-14.22,0-26.99,4.75-36.94,13.73-10.41,9.4-17.22,23.12-19.7,39.66-5.2,34.66-.33,85.98,13.36,140.79,13.03,52.12,33.56,112.21,61.05,178.62,26.43,63.87,57.94,130.4,93.66,197.73,35.7,67.3,73.45,131.36,112.22,190.42,40.27,61.35,79.54,114.07,116.73,156.69,61.11,69.87,111.66,108.22,150.23,114.01,2.36.35,4.83.53,7.33.53,12.38,0,24.49-4.2,34.1-11.82,11.71-9.29,19.28-23.46,21.91-40.97,8.22-54.83-5.43-110.59-10.57-131.58-.23-.96-.45-1.83-.64-2.62l-.06-.25-.25.07-37.15,10.37-.23.06.05.23c10.3,45.2,16.17,81.95,11.3,114.38-2.32,15.43-8.33,22.93-18.39,22.93-1.12,0-2.32-.09-3.55-.28-25.48-3.82-76.58-45-127.14-102.45-35.35-40.39-73.16-91.73-112.38-152.6-36.82-57.15-73.29-120.15-108.39-187.25-69.59-133.04-124.78-265.11-151.41-362.34-18.23-66.62-16.17-108.47-13.32-127.49,2.22-14.79,8.02-21.38,18.8-21.38,1.44,0,2.99.12,4.6.37,13.72,2.06,43.52,21.72,70.88,46.76,39.02,35.91,87.56,93.93,136.68,163.36,48.52,68.59,95.8,145.68,133.12,217.08,25.1,48.13,46.95,90.42,60.21,120.65l.11.24.24-.12,34.17-17.09.21-.11-.1-.22c-6.76-15.48-18.94-38.78-34.36-68.27-8.1-15.5-17.28-33.06-26.82-51.7-30.55-59.69-77.16-136.73-124.67-206.08-53.96-78.77-105.3-142.32-144.57-178.96-42.3-39.5-75.14-60.56-100.43-64.35-3.32-.5-6.65-.75-9.89-.75h0Z"/>
    </g>
    <path class="cls-2" d="M1128.09,1009.01c-1.35-6.18-7.42-9.37-14.39-10.42-8.36-1.25-21.46,4.47-23.01,14.78-.29,1.95-.31,3.94.24,6.02,1.89,8.26,10.75,11.86,21,9.98s18.35-10.35,16.15-20.36h.01Z"/>
    <path class="cls-1" d="M1025.85,732.92c.25-1.67-8.76-.46-18.27,4.09-9.51,4.55-15.28,8.81-15.9,12.99-.75,5.01,32.75-7.62,34.17-17.09h0Z"/>
  </g>
  <rect class="cls-6" x="756.01" y="87.77" width="641.21" height="163.96" transform="translate(-3.83 313.11) rotate(-16.52)"/>
  <g>
    <path d="M830.38,287.57l-22.92-77.28,17-5.04,9.36,31.58,19.87-5.89-9.36-31.58,17-5.04,22.92,77.28-17,5.04-9.2-31.02-19.87,5.89,9.2,31.02-17,5.04Z"/>
    <path d="M884.35,242.74c-4.94-16.67.03-30.28,12.84-34.08,6.96-2.06,12.95-.48,17.54,4.89l-2.32-7.84,16.12-4.78,15.68,52.88-16.12,4.78-2.32-7.84c-.96,6.89-5.09,11.6-12.04,13.66-12.81,3.8-24.39-4.9-29.37-21.68ZM920.67,231.97c-2.72-9.16-7.98-13.13-14.27-11.26s-8.46,7.91-5.71,17.19c2.75,9.27,7.79,13.31,14.19,11.41s8.54-8.06,5.79-17.33Z"/>
    <path d="M954.8,250.68l-15.68-52.88,16.12-4.78,2.23,7.51c1.1-6.81,5.41-11.33,12.36-13.4,10.38-3.08,18.19,1.81,22.09,14.95l10.25,34.56-16.34,4.85-8.94-30.14c-2.16-7.29-5.13-10.01-10.1-8.54-5.63,1.67-6.74,6.44-4.35,14.5l8.48,28.6-16.12,4.78Z"/>
    <path d="M1029.1,171.11l16.12-4.78,15.68,52.88c2.82,9.49,1.44,16.99-3.38,22.62-3.52,3.93-8.32,6.79-14.83,8.72s-12.27,1.96-17.32.33c-5.81-1.76-10.29-5.96-12.41-11.46l16.23-4.81c1.52,3.51,5.06,5.71,10.47,4.1,5.96-1.77,7.64-6.23,5.68-12.85l-3.11-10.49c-.88,6.75-5.15,11.38-12.11,13.44-12.7,3.77-24.19-4.6-29.1-21.16-4.91-16.56.16-29.84,12.86-33.6,7.07-2.1,13.09-.4,17.54,4.89l-2.32-7.84ZM1037.48,197.33c-2.72-9.16-7.98-13.13-14.27-11.26s-8.46,7.91-5.71,17.19c2.75,9.27,7.79,13.31,14.19,11.41s8.54-8.06,5.79-17.33Z"/>
    <path d="M1065.21,196.91l-9.95-33.56,16.23-4.81,9.27,31.24c1.87,6.29,5.13,8.81,9.88,7.4s6.47-6.12,4.38-13.19l-8.84-29.81,16.12-4.78,15.68,52.88-16.12,4.78-2.26-7.62c-.8,6.6-4.38,11.15-12.22,13.47-10.16,3.01-18.24-2.76-22.16-16.01Z"/>
    <path d="M1129.01,199.01l-22.92-77.28,16.12-4.78,22.92,77.28-16.12,4.78Z"/>
    <path d="M1172.95,128.45l16.12-4.78,15.68,52.88c2.82,9.49,1.44,16.99-3.38,22.62-3.52,3.93-8.32,6.79-14.83,8.72s-12.27,1.96-17.32.33c-5.81-1.76-10.29-5.96-12.41-11.46l16.23-4.81c1.52,3.51,5.06,5.71,10.47,4.1,5.96-1.77,7.64-6.23,5.68-12.85l-3.11-10.49c-.88,6.75-5.15,11.38-12.11,13.44-12.7,3.77-24.19-4.6-29.1-21.16-4.91-16.56.16-29.84,12.86-33.6,7.07-2.1,13.09-.4,17.54,4.89l-2.32-7.84ZM1181.33,154.67c-2.72-9.16-7.98-13.13-14.27-11.26s-8.46,7.91-5.71,17.19,7.79,13.31,14.19,11.41,8.54-8.06,5.79-17.33Z"/>
    <path d="M1232.23,110.86l16.12-4.78,15.68,52.88c2.82,9.49,1.44,16.99-3.38,22.62-3.52,3.93-8.32,6.79-14.83,8.72-6.29,1.87-12.27,1.96-17.32.33-5.81-1.76-10.29-5.96-12.41-11.46l16.23-4.81c1.52,3.51,5.06,5.71,10.47,4.1,5.96-1.77,7.64-6.23,5.68-12.85l-3.11-10.49c-.88,6.75-5.15,11.38-12.11,13.44-12.7,3.77-24.19-4.6-29.1-21.16-4.91-16.56.16-29.84,12.86-33.6,7.07-2.1,13.09-.4,17.54,4.89l-2.32-7.84ZM1240.61,137.09c-2.72-9.16-7.98-13.13-14.27-11.26s-8.46,7.91-5.71,17.19c2.75,9.27,7.79,13.31,14.19,11.41s8.54-8.06,5.79-17.33Z"/>
    <path d="M1263.57,130.28c-5.08-17.11,1.62-30.99,17.63-35.74,16.01-4.75,29.19,3.24,34.26,20.35s-1.62,30.99-17.63,35.74c-16.01,4.75-29.19-3.24-34.26-20.35ZM1299.45,119.64c-2.78-9.39-7.9-13.27-14.19-11.41s-8.46,7.91-5.68,17.3c2.78,9.38,7.9,13.27,14.19,11.41s8.46-7.92,5.68-17.3Z"/>
    <path d="M1331.16,139.06l-22.92-77.28,16.12-4.78,22.92,77.28-16.12,4.78Z"/>
  </g>
  <rect class="cls-6" x="885.17" y="403.52" width="353.74" height="93.13" transform="translate(87.83 -167.51) rotate(9.41)"/>
  <rect class="cls-6" x="892.97" y="335.53" width="360.26" height="95.57" transform="translate(77.07 -170.21) rotate(9.41)"/>
  <g>
    <path d="M937.26,368.02c5.47.91,13.32,1.67,17.71,1.57-.15,1.99-.12,3.94-.27,5.93-6.41.12-13.7-.49-21.29-1.75-2.42-.4-4.87-.92-7.29-1.33l5.71-34.47,23.6,3.91-.98,5.93-16.06-2.66-1.27,7.65,15.31,2.54-1.01,6.1-15.31-2.54-1.43,8.63c.74.18,1.6.32,2.58.49ZM967.82,358.78l6.79,1.12-1.04,6.27-6.79-1.12-4.31,26.01-7.54-1.25,8.49-51.28,7.54,1.25-3.15,18.99Z"/>
    <path d="M994.76,347.1c8.52,1.41,12.24,10.01,10.45,20.77-1.74,10.53-8.05,17.53-16.57,16.12s-12.12-9.99-10.37-20.58,8.08-17.7,16.48-16.31ZM993.65,353.83c-3.45-.57-6.82,2.95-8.11,10.78-1.28,7.71.76,12.19,4.21,12.76,3.68.61,7.06-2.97,8.33-10.68,1.3-7.83-.75-12.25-4.43-12.86ZM1007.01,398.44l8.49-51.28,7.6,1.26-8.49,51.28-7.6-1.26Z"/>
    <path d="M1022.86,394.5l.98-5.93,19.39,3.21,1.53-9.21-15.25-2.53.99-5.99,7.25,1.2.22-11.32,7.66.5-.92,11.97,9.67,1.6,3.1-11.55,7.41,2.06-3.77,10.61,7.14,1.18-.99,5.99-14.96-2.48-1.53,9.21,19.39,3.21-.98,5.93-46.33-7.67ZM1032.72,360.3l1-6.04,37.93,6.28-1,6.04-37.93-6.28Z"/>
    <path d="M1072.75,402l.99-5.98,46.33,7.67-.99,5.98-46.33-7.67ZM1112.35,399.98l-7.18-1.96c1.79-5.08,4.9-16.75,5.76-23.7l-27.85-4.61,1.01-6.1,35.39,5.86c-1.9,12.52-5,24.48-7.12,30.51Z"/>
    <path d="M1132.78,407.27c-2.53-.42-4.87-.92-7.4-1.34l3.62-21.87,16,2.65,1.23-7.42-16.06-2.66.98-5.93,23.71,3.93-3.2,19.34-15.94-2.64-1.6,9.67,1.38.23c4.89.81,12.13,1.71,18.31,1.55-.11,2.11-.22,4.16-.21,6.29-4.8.09-13.22-.53-20.81-1.79ZM1166.87,392.1l7.08,1.17-1.04,6.27-7.08-1.17-4.25,25.67-7.54-1.25,8.49-51.28,7.54,1.25-3.2,19.34Z"/>
    <path d="M1205.37,417.34c-7.02-.1-21.31-1.28-31.5-2.97l.14-6.54c2,.39,4.19.75,6.55,1.14.46-6.72.96-13.62,1.49-20.39,2.51.18,5.04.3,7.59.61l-2.54,20.69c1.79.24,3.54.41,5.28.58,1.53-6.72,3.16-13.37,4.63-20.11,2.44.64,4.87,1.28,7.24,1.97-1.75,6.27-3.55,12.48-5.24,18.76,2.51.18,4.75.25,6.63.33l-.27,5.93ZM1179.09,385.02l.98-5.93,28.2,4.67-.98,5.93-28.2-4.67ZM1206.06,431.41l8.49-51.28,7.65,1.27-8.49,51.28-7.65-1.27Z"/>
    <path d="M924.39,451.03l5.36-32.34-8.11-1.34,1.32-7.94,25.09,4.16-1.32,7.94-8.11-1.34-5.36,32.34-8.86-1.47Z"/>
    <path d="M962.57,429.03l8.4,1.39-4.52,27.28c-.83,5.01-2.76,8.12-5.81,9.74-2.26,1.16-5.16,1.51-8.67.93s-6.04-1.71-7.84-3.37c-2.09-2-3.18-4.72-2.66-8.19l8,1.33c-.17,2.1.92,3.7,3.46,4.12,2.76.46,4.32-1.12,5.01-5.26l.81-4.89c-1.83,2.83-4.46,4.11-8.55,3.43-5.7-.94-7.6-5.87-6.56-12.14l2.82-17.04,8.46,1.4-2.63,15.88c-.56,3.4.38,5.21,2.85,5.62s4.3-1.36,4.91-4.98l2.53-15.25Z"/>
    <path d="M1001.49,449.61c-1.45,8.75-6.73,13.85-13.4,12.74-3.63-.6-6.01-2.65-6.91-6.11l-2.6,15.71-8.34-1.38,6.49-39.19,8.34,1.38-.68,4.09c1.97-2.98,4.89-4.16,8.51-3.56,6.68,1.11,10.03,7.63,8.59,16.32ZM992.98,448.2c.8-4.83-.61-7.73-3.89-8.27s-5.73,1.77-6.52,6.55c-.8,4.83.72,7.81,4.06,8.36s5.55-1.74,6.36-6.63Z"/>
    <path d="M1004.02,450.03c1.48-8.92,7.6-13.76,15.95-12.38s12.58,7.94,11.1,16.86c-1.48,8.92-7.6,13.76-15.95,12.38s-12.58-7.94-11.1-16.86ZM1022.72,453.13c.81-4.89-.66-7.8-3.94-8.34s-5.61,1.73-6.42,6.62.66,7.8,3.94,8.34,5.61-1.73,6.42-6.62Z"/>
    <path d="M1054.52,444.26l8.4,1.39-4.57,27.57c-.82,4.95-3.11,8.06-6.55,9.56-2.47,1.01-5.29,1.25-8.69.69s-6.02-1.83-7.96-3.68c-2.26-2.09-3.37-4.99-3.12-7.97l8.46,1.4c-.08,1.94,1.04,3.72,3.86,4.19,3.11.51,4.86-1.15,5.43-4.6l.91-5.47c-1.9,2.88-4.87,4.04-8.49,3.44-6.62-1.1-10-7.45-8.57-16.08s6.68-13.56,13.3-12.46c3.68.61,6.05,2.72,6.91,6.11l.68-4.09ZM1052.53,458.07c.79-4.78-.73-7.75-4.01-8.29s-5.61,1.73-6.41,6.57.6,7.79,3.94,8.34,5.68-1.78,6.48-6.61Z"/>
    <path d="M1063.88,474.14l4.57-27.57,7.77,1.29-1.07,6.45c1.43-4.37,4.48-6.35,7.88-5.79.69.11,1.03.23,1.53.37l-1.37,8.29c-.67-.23-.84-.26-1.59-.38-4.14-.69-6.49,1.7-7.49,7.75l-1.82,10.99-8.4-1.39Z"/>
    <path d="M1083.78,463.24c1.44-8.69,6.72-13.79,13.39-12.68,3.63.6,6.01,2.65,6.91,6.11l.68-4.09,8.4,1.39-4.57,27.57-8.4-1.39.68-4.09c-1.96,2.93-4.89,4.16-8.51,3.56-6.68-1.11-10.03-7.63-8.58-16.38ZM1102.71,466.38c.79-4.78-.73-7.75-4.01-8.29s-5.61,1.73-6.41,6.57.6,7.79,3.94,8.34,5.68-1.78,6.48-6.61Z"/>
    <path d="M1143.68,473.17c-1.45,8.75-6.73,13.85-13.4,12.74-3.63-.6-6.01-2.65-6.91-6.11l-2.6,15.71-8.34-1.38,6.49-39.19,8.34,1.38-.68,4.09c1.97-2.98,4.89-4.16,8.51-3.56,6.68,1.11,10.03,7.63,8.59,16.32ZM1135.16,471.75c.8-4.83-.61-7.73-3.89-8.27s-5.73,1.77-6.52,6.55.72,7.81,4.06,8.36,5.55-1.74,6.36-6.63Z"/>
    <path d="M1173.15,473.73l-2.98,18.01-8.52-1.41,2.6-15.71c.63-3.8-.18-5.71-2.77-6.14-2.88-.48-4.44,1.45-5.13,5.65l-2.47,14.91-8.4-1.39,6.67-40.29,8.4,1.39-2.75,16.63c2.01-2.86,4.97-3.97,8.6-3.36,5.41.9,7.89,4.85,6.75,11.7Z"/>
    <path d="M1195.73,467.65l8.4,1.39-4.52,27.28c-.83,5.01-2.76,8.12-5.81,9.74-2.26,1.16-5.16,1.51-8.67.93s-6.04-1.71-7.84-3.37c-2.09-2-3.18-4.72-2.66-8.19l8,1.33c-.17,2.1.92,3.7,3.46,4.12,2.76.46,4.32-1.12,5.01-5.26l.81-4.89c-1.83,2.83-4.46,4.11-8.55,3.43-5.7-.94-7.6-5.87-6.56-12.14l2.82-17.04,8.46,1.4-2.63,15.88c-.56,3.4.38,5.21,2.85,5.62s4.3-1.36,4.91-4.98l2.53-15.25Z"/>
  </g>
</svg>