<?xml version="1.0" encoding="UTF-8"?>
<svg id="_레이어_1" data-name="레이어 1" xmlns="http://www.w3.org/2000/svg" viewBox="0 0 1579.89 1386.55">
  <defs>
    <style>
      .cls-1 {
        fill: #dae24a;
      }

      .cls-2 {
        fill: #009698;
      }

      .cls-3 {
        fill: #e5e972;
      }

      .cls-4 {
        fill: #0081cc;
      }

      .cls-5 {
        fill: #fff100;
      }

      .cls-6 {
        fill: #e63082;
      }

      .cls-7 {
        fill: #00b3cd;
      }
    </style>
  </defs>
  <path class="cls-1" d="M845.86,1143.78l-61.48-6.83c-8.43,0-17.99,2.5-23,7.97-40.53,40.53-79.24,80.61-114.77,117.5-20.04,20.72-21.4,26.41-21.4,42.81,0,15.26,14.57,25.28,36.21,37.34,25.28,14.12,56.02,20.95,123.42,37.8-34.38-16.4-31.42-9.79-63.08-25.73-22.09-11.16-35.07-27.33-35.07-42.58,0-16.4,1.37-22.09,21.4-42.81,35.52-36.89,74.23-76.97,114.77-117.5,5.01-5.47,14.57-7.97,23-7.97Z"/>
  <path class="cls-1" d="M845.67,1143.81c-8.43,0-17.99,2.5-23,7.97-40.53,40.53-79.24,80.61-114.77,117.5-20.04,20.72-21.4,26.41-21.4,42.81,0,15.26,12.98,31.42,35.07,42.58,31.65,15.94,59.2,31.88,125.01,31.88,44.63,0,87.67-17.08,117.73-35.52,20.49-12.52,33.25-24.14,33.25-45.09,0-4.55-1.37-18.44-11.61-29.37-28.69-30.51-73.32-77.65-111.81-117.73-7.29-7.06-16.17-15.03-28.46-15.03Z"/>
  <path class="cls-5" d="M846.13,1164.32c-7.08,0-15.19,2.29-19.56,6.66-34.13,34.13-66.39,68.26-96.36,99.07-18.31,18.73-21.64,22.27-21.64,36,0,14.57,10.61,25.81,34.96,37.67,25.39,12.49,54.53,24.97,104.27,24.97,37.67,0,72.01-13.32,101.15-29.97,18.31-10.61,29.14-21.23,29.14-36.84,0-3.75-.83-11.86-9.16-21.02-24.56-26.43-69.93-74.09-102.4-107.6-5.83-5.83-9.99-8.95-20.4-8.95Z"/>
  <path class="cls-4" d="M9.46,1360.81c.76,2.76,2.84,4.32,7.89,3.27l1465.53-343.48c3.81-.82,6.53-2.45,9.25-5.44l85.03-101.19c1.63-1.91,2.72-3.81,2.72-5.44l-7.7-27.02c0,1.63-.82,3.54-2.72,5.72l-89.83,100.44c-2.72,2.99-5.44,4.63-9.25,5.44L7.85,1336.08c-3.08.84-6.25-1.23-7.65-2.35l9.26,27.09Z"/>
  <path class="cls-7" d="M1484.84,1020.08c2.84-.92,5.07-2.47,7.31-4.92l85.03-101.19c1.63-1.91,2.72-3.81,2.72-5.44l-7.7-27.02c0,1.63-.82,3.54-2.72,5.72l-89.83,100.44c-1.33,1.47-2.66,2.61-4.13,3.48"/>
  <path class="cls-6" d="M92.56,1226.68L1.46,1328.55s-1.46,1.58-1.46,3.81,1.72,4.12,3.67,4.12c1.02,0,2.85-.02,4.24-.37l1462.55-342.98c3.81-.82,6.53-2.45,9.25-5.44l89.83-100.44c5.17-5.99,2.45-10.89-5.17-8.98L101.81,1221.24c-3.81.82-6.53,2.45-9.25,5.44Z"/>
  <g>
    <polygon class="cls-7" points="1341.72 898.79 1360.58 961.65 1389.71 954.9 1368.37 891.9 1341.72 898.79"/>
    <path class="cls-7" d="M1348.83,879.7l-35.48,39.11,26.2-5.48,36.05-39.25-26.77,5.62ZM1313.35,918.81l24.59,71.04,24.69-5.72-23.08-70.81-26.2,5.48Z"/>
    <polygon class="cls-2" points="1375.6 874.09 1339.55 913.34 1362.63 984.15 1373.11 972.68 1355.38 915.67 1370.6 898.24 1389.71 954.9 1399.15 944.12 1375.6 874.09"/>
  </g>
  <g>
    <polygon class="cls-7" points="204.74 1164.75 223.6 1227.61 252.73 1220.86 231.39 1157.86 204.74 1164.75"/>
    <path class="cls-7" d="M211.85,1145.66l-35.48,39.11,26.2-5.48,36.05-39.25-26.77,5.62ZM176.37,1184.77l24.59,71.04,24.69-5.72-23.08-70.81-26.2,5.48Z"/>
    <polygon class="cls-2" points="238.62 1140.05 202.57 1179.3 225.65 1250.11 236.13 1238.64 218.4 1181.63 233.62 1164.21 252.73 1220.86 262.17 1210.08 238.62 1140.05"/>
  </g>
  <path class="cls-7" d="M1124.4,1017.78c5.17-1.91,10.34-8.98,12.52-15.79,1.91-5.44,4.08-13.61,4.08-17.69,0-14.15-17.69-32.94-41.37-25.04-68.32,22.87-127.94,38.65-238.72,38.65-212.59,0-446.69-110.51-559.38-288.54-64.78-102.35-102.08-219.67-71.86-351.14,10.34-45.19,29.94-89.83,71.86-145.63,46-61.25,123.85-120.04,206.6-154.34,5.72-2.45,7.08-5.99,9.25-12.52,1.63-5.17,4.36-14.15,4.36-19.33,0-23.68-28.58-31.58-46.55-23.14C284.11,92.02,158.62,238.19,158.62,472.56c0,332.36,348.98,588.23,704.46,588.23,110.51,0,180.2-13.07,261.32-43.01Z"/>
  <path class="cls-3" d="M502.83,41.31c0-7.35-5.17-14.15-17.42-14.15-2.45,0-10.89,3.81-20.42,8.17-70.23,32.12-293.98,149.44-293.98,438.25,0,182.1,133.38,361.49,280.91,452.95,179.65,111.33,334.81,123.31,408.31,123.31,128.75,0,216.67-25.59,254.78-41.65,5.99-2.45,6.81-8.44,6.81-10.62,0-7.89-10.07-12.52-14.7-12.52-3.81,0-8.98,1.63-17.15,4.63-47.36,17.42-125.49,35.93-231.1,35.93-82.75,0-245.53-21.5-398.23-122.76-167.41-111.06-260.77-280.64-260.77-429.26,0-200.89,123.58-344.07,281.19-416.47,11.43-5.17,21.78-8.98,21.78-15.79Z"/>
  <path class="cls-2" d="M238.84,325.8c-9.06,35.11-18.81,80.52-16.14,146.95,11.11,276.41,307.15,525.18,638.21,525.18,110.79,0,170.4-15.79,238.72-38.65,23.68-7.89,41.37,10.89,41.37,25.04,0,4.08-2.18,12.25-4.08,17.69,1.91-18.78-15.79-29.94-31.58-29.94-9.25,0-22.87,6.53-34.03,10.07-46,14.7-112.4,25.15-213.38,25.15-357.83,0-643.31-278.46-643.31-534.55,0-93.66,24.21-146.95,24.21-146.95Z"/>
  <path class="cls-2" d="M517.39,45.94c1.63-5.17,4.36-14.15,4.36-19.33,0-23.68-28.58-31.58-46.55-23.14C284.11,92.21,158.62,238.38,158.62,472.75c0-80.84,14.97-136.92,22.32-157.33,22.32-83.29,108.34-191.9,198.71-248.52,41.37-25.86,91.46-52.54,106.16-52.54,20.14,0,35.11,15.52,31.58,31.58Z"/>
</svg>