<?xml version="1.0" encoding="UTF-8"?>
<svg id="_레이어_1" data-name="레이어 1" xmlns="http://www.w3.org/2000/svg" viewBox="0 0 1540.23 1129.66">
  <defs>
    <style>
      .cls-1 {
        fill: #dae24a;
      }

      .cls-2 {
        fill: #009698;
      }

      .cls-3 {
        fill: #e5e972;
      }

      .cls-4 {
        fill: #0081cc;
      }

      .cls-5 {
        fill: #ea5550;
      }

      .cls-6 {
        fill: #d11719;
      }

      .cls-7 {
        fill: #00b3cd;
      }
    </style>
  </defs>
  <g>
    <path class="cls-6" d="M892.77,899.37s2.3-26.88-56.3-21.36c-74.6,7.03-123.98,40.94-120.73,72.21,2.73,21.34-8.45,19.6-14.32,20.45-7.61,1.1-14.13,1.92-15.99-17.8-3.57-37.84,29.63-92.69,147.78-103.83,49.62-4.68,86.63,13.33,88.88,37.16"/>
    <path class="cls-6" d="M900.25,978.81s2.3-26.88-56.3-21.36c-74.6,7.03-123.98,40.94-120.73,72.21,2.73,21.34-8.45,19.6-14.32,20.45-7.61,1.1-14.13,1.92-15.99-17.8-3.57-37.84,29.63-92.69,147.78-103.83,49.62-4.68,86.63,13.33,88.88,37.16"/>
    <path class="cls-6" d="M907.74,1058.25s2.3-26.88-56.3-21.36c-74.6,7.03-123.98,40.94-120.73,72.21,1.47,15.58-6.92,19.83-13.85,20.48-7.98.75-15.13-3.68-16.46-17.84-3.57-37.84,29.63-92.69,147.78-103.83,49.62-4.68,86.63,13.33,88.88,37.16"/>
    <path class="cls-6" d="M885.28,819.93s2.3-26.88-56.3-21.36c-74.6,7.03-123.98,40.94-120.73,72.21,2.73,21.34-8.45,19.6-14.32,20.45-7.61,1.1-14.13,1.92-15.99-17.8-3.57-37.84,29.63-92.69,147.78-103.83,49.62-4.68,86.63,13.33,88.88,37.16"/>
    <path class="cls-5" d="M684.48,779.14c5.97-.56,15.21,1.94,16.35,14.06,1.88,19.95,34.68,51.86,122.31,43.6,38.16-3.6,61.36-21.58,60.76-27.95-1-10.6,6.38-16.77,14.23-17.51,8.86-.84,15.63,4.5,17.07,19.81,1.11,11.74-7.57,54.47-93.99,62.61-86.42,8.15-145.08-19.43-150.22-74-1.49-15.84,6.16-19.92,13.49-20.61Z"/>
    <path class="cls-5" d="M691.96,858.57c5.97-.56,15.21,1.94,16.35,14.06,1.88,19.95,34.68,51.86,122.31,43.6,38.16-3.6,61.36-21.58,60.76-27.95-1-10.6,6.38-16.77,14.23-17.51,8.86-.84,15.63,4.5,17.07,19.81,1.11,11.74-7.57,54.47-93.99,62.61-86.42,8.15-145.08-19.43-150.22-74-1.49-15.84,6.16-19.92,13.49-20.61Z"/>
    <path class="cls-5" d="M699.45,938.01c5.97-.56,15.21,1.94,16.35,14.06,1.88,19.95,34.68,51.86,122.31,43.6,38.16-3.6,61.36-21.58,60.76-27.95-1-10.6,6.38-16.77,14.23-17.51,8.86-.84,15.63,4.5,17.07,19.81,1.11,11.74-7.57,54.47-93.99,62.61-86.42,8.15-145.08-19.43-150.22-74-1.49-15.84,6.16-19.92,13.49-20.61Z"/>
    <path class="cls-5" d="M706.94,1017.45c5.97-.56,15.21,1.94,16.35,14.06,1.88,19.95,34.68,51.86,122.31,43.6,38.16-3.6,61.36-21.58,60.76-27.95-1-10.6,6.38-16.77,14.23-17.51,8.86-.84,15.63,4.5,17.07,19.81,1.11,11.74-7.57,54.47-93.99,62.61-86.42,8.15-145.08-19.43-150.22-74-1.49-15.84,6.16-19.92,13.49-20.61Z"/>
    <circle class="cls-5" cx="716.07" cy="1115.3" r="10.74"/>
  </g>
  <g>
    <path class="cls-4" d="M1539.8,528.38h.01s-.07-.2-.07-.2c-.05-.16-.11-.33-.17-.49l-4.72-13.39c-.12-.48-.29-.94-.49-1.38l-.04-.11h0c-8.51-18.76-81.92-14.24-179.46,14.17L268.15,845.61C95.54,898.18-4.27,955.93.14,989.69h0c.21,1.59.72,3.04,1.48,4.39l3.85,11.43c6.03,24.19,83.53,17.8,157.59-2.72l1079.6-319.45c162.18-47.53,301.73-120.83,297.47-153.5-.07-.51-.18-.99-.33-1.47Z"/>
    <path class="cls-1" d="M268.15,845.61C95.54,898.18-4.27,955.93.14,989.69c3.37,25.82,82.41,19.58,157.87-1.32l1079.6-319.45c162.18-47.53,301.73-120.83,297.47-153.5-2.84-21.74-78.38-18.11-180.22,11.55L268.15,845.61Z"/>
  </g>
  <g>
    <path class="cls-7" d="M12.45,282.47c-2.31-5-.97-13.67,2.3-20.02,2.5-5.2,6.73-12.51,9.62-15.4,10.01-10.01,35.8-10.79,46.97,11.54,32.16,64.47,63.16,117.78,141.52,196.1,150.36,150.29,394.06,237.61,599.61,191.37,118.17-26.59,227.49-83.2,299.06-197.55,24.63-39.27,42.32-84.7,52.12-153.8,10.76-75.84-2.74-172.46-37.02-255.22-2.31-5.77-.77-9.24,2.31-15.4,2.5-4.81,6.93-13.09,10.58-16.75,16.74-16.75,42.54-2.13,49.28,16.54,72.42,197.85,57.84,389.94-107.85,555.71-234.96,235.07-662.67,169.34-914.09-81.97C88.7,419.5,48.65,361,12.45,282.47Z"/>
    <path class="cls-3" d="M1142.37,31.25c5.2-5.2,13.66-6.36,22.33,2.3,1.73,1.73,5.01,10.39,8.67,20.21,26.96,72.36,102.28,313.52-101.89,517.79-128.74,128.8-349.88,161.38-518.89,121.77-205.77-48.26-323.97-149.48-375.96-201.43C85.57,400.87,41.47,320.61,25.87,282.32c-2.5-5.97,1.15-10.78,2.69-12.32,5.58-5.58,15.98-1.74,19.25,1.54,2.7,2.69,5.2,7.51,8.86,15.4,21.18,45.8,63.35,114.12,138.05,188.79,58.53,58.5,188.86,158.36,368.45,194.7,196.91,39.8,382.83-14.14,487.9-119.26,142.01-142.08,155.83-330.71,95.54-493.34-4.43-11.74-9.05-21.75-4.24-26.56Z"/>
    <path class="cls-2" d="M1127.97,419.09c-18.41,31.24-43.62,70.25-92.47,115.35-203.26,187.65-588.51,154.31-822.66-79.73-78.36-78.32-109.36-131.63-141.52-196.1-11.17-22.32-36.96-21.55-46.97-11.54-2.89,2.89-7.12,10.2-9.62,15.4,11.93-14.63,32.33-10.02,43.5,1.14,6.55,6.54,11.55,20.78,16.95,31.18,22.15,42.92,61.71,97.25,133.14,168.64,253.09,252.96,651.85,257.83,832.89,76.7,66.21-66.24,86.77-121.05,86.77-121.05Z"/>
    <path class="cls-2" d="M1128.81,24.23c2.5-4.81,6.93-13.09,10.58-16.75,16.74-16.75,42.54-2.13,49.28,16.54,72.42,197.85,57.84,389.94-107.85,555.71,57.15-57.18,86.2-107.42,95.44-127.06,43.1-74.69,59.04-212.32,35.15-316.25-10.98-47.54-27.55-101.81-37.94-112.2-14.25-14.24-35.8-13.85-44.65.01Z"/>
  </g>
</svg>