<?xml version="1.0" encoding="UTF-8"?>
<svg id="_레이어_1" data-name="레이어 1" xmlns="http://www.w3.org/2000/svg" viewBox="0 0 1590.8 1551.96">
  <defs>
    <style>
      .cls-1 {
        fill: #dae24a;
      }

      .cls-2 {
        fill: #fced1a;
      }

      .cls-3 {
        fill: #e3d322;
      }

      .cls-4 {
        fill: #9cc12d;
      }

      .cls-5 {
        fill: #fff100;
      }

      .cls-6 {
        fill: #e63082;
      }

      .cls-7 {
        fill: #ea5550;
      }
    </style>
  </defs>
  <g>
    <path class="cls-3" d="M946.56,1248.03c-74.02,0-131.44,67.95-131.44,151.82s51.22,152.11,131.44,152.11h-149.17c-80.21,0-131.44-67.95-131.44-152.11s57.42-151.82,131.44-151.82h149.17Z"/>
    <path class="cls-5" d="M946.66,1551.96c79.93,0,127.78-77.62,127.78-152.11s-47.85-151.82-127.78-151.82c-74.02,0-131.44,67.95-131.44,151.82s51.22,152.11,131.44,152.11Z"/>
    <path class="cls-6" d="M946.24,1532.91c70.08,0,112.02-67.95,112.02-133.06s-41.94-132.77-112.02-132.77c-64.45,0-114.83,59.42-114.83,132.77s44.75,133.06,114.83,133.06Z"/>
  </g>
  <polygon class="cls-7" points="0 1536.5 361.95 1536.5 1590.8 854.98 1228.85 854.98 0 1536.5"/>
  <polygon class="cls-5" points="361.95 1536.5 361.88 1548.38 1590.8 866.98 1590.8 855.02 361.95 1536.5"/>
  <rect class="cls-7" y="1536.5" width="361.95" height="11.89"/>
  <g>
    <path class="cls-1" d="M689.24,13.64l-27.27,43.67c103.01,96.1,289.33,326.67,289.33,619.23,0,503.59-351.54,519.33-460.61,519.33-176.32,0-363.72-137.56-421.73-195.5l-23.95,12.62-28.4,44.81c101.6,96.38,271.03,211.53,472.83,211.53,280.32,0,536.57-203.91,536.57-609.34,0-319.05-202.56-567.94-311.01-659.99l-25.76,13.64Z"/>
    <path class="cls-4" d="M689.24,13.64l-27.86,43.78c103.01,96.1,287.46,323.26,287.46,615.82,0,348-187.01,534.94-456.57,534.94-163.8,0-334.08-88.64-447.26-195.19l-28.99,44.92c101.6,96.38,271.03,211.53,472.83,211.53,280.32,0,522.37-191.91,514.77-597.34-5.07-270.1-155.36-518.58-314.38-658.46Z"/>
    <path class="cls-2" d="M45.52,1030.33l-15.2,23.88c117.65,113.16,286.44,202.73,451.57,202.73,236.7,0,508.79-143.05,508.79-573.5,0-260.06-149.8-517.32-299.17-650.47l-14.35,23.31c137.07,131.07,284.02,366.75,284.02,612.39,0,445.15-270.95,554.7-464.87,554.7s-338.6-93.54-450.79-193.06Z"/>
  </g>
</svg>