<?xml version="1.0" encoding="UTF-8"?>
<svg id="_레이어_1" data-name="레이어 1" xmlns="http://www.w3.org/2000/svg" viewBox="0 0 1600.31 1202.24">
  <defs>
    <style>
      .cls-1, .cls-2 {
        fill: #009698;
      }

      .cls-3 {
        fill: #abd0ef;
      }

      .cls-4 {
        fill: #0054a4;
      }

      .cls-2 {
        stroke: #009698;
        stroke-miterlimit: 10;
      }

      .cls-5 {
        fill: #fff100;
      }

      .cls-6 {
        fill: #ea5550;
      }

      .cls-7 {
        fill: #d11719;
      }

      .cls-8 {
        fill: #00b3cd;
      }
    </style>
  </defs>
  <path class="cls-7" d="M870.89,971.95s2.3-26.88-56.3-21.36c-74.6,7.03-123.98,40.94-120.73,72.21,2.73,21.34-8.45,19.6-14.32,20.45-7.61,1.1-14.13,1.92-15.99-17.8-3.57-37.84,29.63-92.69,147.78-103.83,49.62-4.68,86.63,13.33,88.88,37.16"/>
  <path class="cls-7" d="M878.38,1051.39s2.3-26.88-56.3-21.36c-74.6,7.03-123.98,40.94-120.73,72.21,2.73,21.34-8.45,19.6-14.32,20.45-7.61,1.1-14.13,1.92-15.99-17.8-3.57-37.84,29.63-92.69,147.78-103.83,49.62-4.68,86.63,13.33,88.88,37.16"/>
  <path class="cls-7" d="M885.87,1130.83s2.3-26.88-56.3-21.36c-74.6,7.03-123.98,40.94-120.73,72.21,1.47,15.58-6.92,19.83-13.85,20.48-7.98.75-15.13-3.68-16.46-17.84-3.57-37.84,29.63-92.69,147.78-103.83,49.62-4.68,86.63,13.33,88.88,37.16"/>
  <path class="cls-7" d="M863.4,892.51s2.3-26.88-56.3-21.36c-74.6,7.03-123.98,40.94-120.73,72.21,2.73,21.34-8.45,19.6-14.32,20.45-7.61,1.1-14.13,1.92-15.99-17.8-3.57-37.84,29.63-92.69,147.78-103.83,49.62-4.68,86.63,13.33,88.88,37.16"/>
  <path class="cls-6" d="M662.6,851.72c5.97-.56,15.21,1.94,16.35,14.06,1.88,19.95,34.68,51.86,122.31,43.6,38.16-3.6,61.36-21.58,60.76-27.95-1-10.6,6.38-16.77,14.23-17.51,8.86-.84,15.63,4.5,17.07,19.81,1.11,11.74-7.57,54.47-93.99,62.61-86.42,8.15-145.08-19.43-150.22-74-1.49-15.84,6.16-19.92,13.49-20.61Z"/>
  <path class="cls-6" d="M670.09,931.16c5.97-.56,15.21,1.94,16.35,14.06,1.88,19.95,34.68,51.86,122.31,43.6,38.16-3.6,61.36-21.58,60.76-27.95-1-10.6,6.38-16.77,14.23-17.51,8.86-.84,15.63,4.5,17.07,19.81,1.11,11.74-7.57,54.47-93.99,62.61-86.42,8.15-145.08-19.43-150.22-74-1.49-15.84,6.16-19.92,13.49-20.61Z"/>
  <path class="cls-6" d="M677.58,1010.6c5.97-.56,15.21,1.94,16.35,14.06,1.88,19.95,34.68,51.86,122.31,43.6,38.16-3.6,61.36-21.58,60.76-27.95-1-10.6,6.38-16.77,14.23-17.51,8.86-.84,15.63,4.5,17.07,19.81,1.11,11.74-7.57,54.47-93.99,62.61-86.42,8.15-145.08-19.43-150.22-74-1.49-15.84,6.16-19.92,13.49-20.61Z"/>
  <path class="cls-6" d="M685.06,1090.04c5.97-.56,15.21,1.94,16.35,14.06,1.88,19.95,34.68,51.86,122.31,43.6,38.16-3.6,61.36-21.58,60.76-27.95-1-10.6,6.38-16.77,14.23-17.51,8.86-.84,15.63,4.5,17.07,19.81,1.11,11.74-7.57,54.47-93.99,62.61s-145.08-19.43-150.22-74c-1.49-15.84,6.16-19.92,13.49-20.61Z"/>
  <circle class="cls-6" cx="694.19" cy="1187.88" r="10.74"/>
  <path class="cls-4" d="M156.65,618.5l-4.54,12.57,1444.02,517.18,4.18-10.75L156.65,618.5ZM156.65,618.5l1443.66,519"/>
  <polygon class="cls-5" points="3.09 512.25 156.86 618.43 1600.31 1137.51 1448.69 1032.1 3.09 512.25"/>
  <polygon class="cls-3" points="3.09 512.25 0 522.15 152.31 631.29 156.86 618.71 3.09 512.25"/>
  <g>
    <path class="cls-8" d="M660,741.07c-44.72,0-60.96-32.75-60.96-54.76,0-38.97,30.43-94.62,90.43-165.4,71.59-84.22,184.32-185.5,309.29-277.89,125.06-92.45,252.34-168.56,349.22-208.81C1400.14,12.55,1450.15.13,1485.18.13c36.97,0,61.8,23.25,61.8,57.86,0,25.54-15.94,61.12-48.74,108.78-63.97,93.13-227.87,242.38-340.81,323.34-17.02,12.2-33.03,23.88-47.15,34.19-26.88,19.62-48.12,35.12-62.41,44.11l-.1.06-22.11-31.47.11-.07c27.94-17.6,66.52-45.49,110.39-77.44,65.08-47.51,134.31-105.7,194.95-163.86,61.38-58.88,111.56-115.5,141.29-159.42,20.71-30.78,35.75-63.21,35.75-77.1s-7.52-20.15-24.38-20.15c-19.24,0-60.95,4.17-124.15,32.1-92.21,40.77-214.64,114.94-335.89,203.5-127.95,93.46-235.69,188.9-303.37,268.76-49.34,58.55-82.49,115.22-82.49,141.02,0,12.6,8.19,18.46,25.79,18.46,32.81,0,68.29-11.26,111.48-28.15l.11-.04,15.87,35.43-2.61,1.07c-19.99,8.2-73.1,29.97-128.51,29.97Z"/>
    <path class="cls-1" d="M1485.18.25c38.87,0,61.68,25.07,61.68,57.73,0,25.07-15.77,60.83-48.72,108.71-66.75,97.16-234.32,246.99-340.78,323.31-48.72,34.92-87.59,64.49-109.55,78.29l-21.97-31.26c28.16-17.74,67.87-46.47,110.4-77.45,133.49-97.44,274.31-231.78,336.27-323.31,20.28-30.13,35.77-62.8,35.77-77.17,0-16.05-10.14-20.28-24.5-20.28-21.4,0-63.65,5.35-124.2,32.11-187.29,82.8-495.39,302.47-639.31,472.3-46.75,55.48-82.52,114.06-82.52,141.1,0,13.24,9.29,18.59,25.91,18.59,31.54,0,66.18-10.42,111.53-28.16l15.77,35.2c-16.62,6.76-72.94,30.98-130.96,30.98-43.65,0-60.83-31.82-60.83-54.64,0-42.24,35.49-100.54,90.4-165.32,150.11-176.58,455.12-402.17,658.46-486.66C1399.57,12.92,1450.26.25,1485.18.25M1485.18,0c-35.05,0-85.07,12.43-137.25,34.1-49.61,20.61-105.99,49.84-167.59,86.87-59.25,35.62-120.36,76.65-181.65,121.96-61.26,45.28-119.01,92.13-171.67,139.22-54.7,48.93-101.01,95.58-137.64,138.68-60.03,70.8-90.46,126.48-90.46,165.48,0,12.77,5.28,26.25,14.11,36.04,11.12,12.33,27.37,18.85,46.97,18.85,55.44,0,108.56-21.78,128.56-29.98.91-.37,1.74-.71,2.49-1.02l.24-.1-.11-.24-15.77-35.2-.1-.22-.22.09c-43.17,16.89-78.65,28.15-111.44,28.15-17.51,0-25.66-5.83-25.66-18.34,0-25.77,33.14-82.4,82.46-140.94,34.7-40.95,79.87-85.95,134.24-133.77,51.05-44.89,107.95-90.31,169.1-134.97,121.24-88.55,243.66-162.72,335.87-203.49,63.18-27.92,104.87-32.08,124.1-32.08,16.77,0,24.25,6.18,24.25,20.03s-15.02,46.26-35.72,77.03c-29.73,43.91-79.9,100.52-141.27,159.4-60.63,58.16-129.86,116.35-194.93,163.85-43.87,31.96-82.46,59.84-110.39,77.44l-.22.14.15.22,21.97,31.26.14.19.2-.13c14.3-8.98,35.54-24.49,62.42-44.11,14.12-10.31,30.13-21.99,47.15-34.19,54.5-39.07,123.77-96.59,185.3-153.86,69.89-65.05,125.13-125.25,155.53-169.51,32.81-47.68,48.77-83.29,48.77-108.85,0-34.68-24.89-57.98-61.93-57.98h0Z"/>
  </g>
  <path class="cls-2" d="M790.34,710.27c5.91-2.25,8.17-8.73,8.17-15.77,0-8.45-7.6-20.56-18.02-20.56-1.97,0-3.94.28-5.91,1.13-7.89,3.1-10.14,12.39-6.76,22.25,3.38,9.86,12.96,16.62,22.53,12.96Z"/>
  <path class="cls-1" d="M1048.21,568.2c1.69,0-.84-8.73-6.76-17.46-5.91-8.73-10.98-13.8-15.21-13.8-5.07,0,12.39,31.26,21.97,31.26Z"/>
</svg>