<?xml version="1.0" encoding="UTF-8"?>
<svg id="_레이어_1" data-name="레이어 1" xmlns="http://www.w3.org/2000/svg" viewBox="0 0 1586.58 1135.09">
  <defs>
    <style>
      .cls-1 {
        fill: #dae24a;
      }

      .cls-2 {
        fill: #009698;
      }

      .cls-3 {
        fill: #e5e972;
      }

      .cls-4 {
        fill: #9cc12d;
      }

      .cls-5, .cls-6 {
        fill: #0081cc;
      }

      .cls-6 {
        stroke: #0054a4;
        stroke-miterlimit: 10;
      }

      .cls-7 {
        fill: #00b3cd;
      }
    </style>
  </defs>
  <path class="cls-7" d="M791.61,943.97h-76.28c-96.13,0-162.5,84.97-162.5,163.64l97.38-21.09c0-55.22,41.27-142.55,141.4-142.55Z"/>
  <polygon class="cls-2" points="650.21 1086.52 552.83 1107.61 881.55 1107.61 881.54 1086.48 650.21 1086.52"/>
  <path class="cls-4" d="M1003.53,1114c0-121.3-79.25-213.23-190.82-213.23l-139.04,18.88h.29c12.87-2.57,26.89-3.72,41.48-3.72,111.57,0,190.82,97.86,190.82,219.16l97.27-21.09Z"/>
  <path class="cls-3" d="M552.83,1107.61c0-78.67,66.37-163.64,162.5-163.64,82.39,0,161.93,84.4,161.93,163.64h-324.43ZM524.51,1135.09h381.64c0-121.3-79.25-219.16-190.82-219.16s-190.82,90.7-190.82,219.16Z"/>
  <g>
    <path class="cls-5" d="M1586.44,720.12h.01s-.04-.2-.04-.2c-.03-.17-.07-.34-.11-.51l-2.94-13.89c-.06-.49-.17-.96-.3-1.44l-.02-.11h0c-6.01-19.71-79.38-24.73-179.79-9.2l-1118.83,175.21C106.44,899.76,0,944.1,0,978.15H0c0,1.6.32,3.11.9,4.54l2.33,11.83c2.84,24.76,80.53,28.46,156.62,17.72l1111.88-176.94c166.97-26.12,314.84-80.74,314.84-113.68,0-.51-.05-1.01-.14-1.5Z"/>
    <path class="cls-1" d="M284.41,869.99C106.44,899.76,0,944.1,0,978.15c0,26.04,79.18,30.08,156.71,19.13l1111.88-176.94c166.97-26.12,314.84-80.74,314.84-113.68,0-21.93-75.37-28.11-180.2-11.89l-1118.83,175.21Z"/>
  </g>
  <path class="cls-6" d="M671.21,352.66c4.58-8.58,4.29-14.59-1.43-17.17-6.01-2.57-11.44-.29-16.31,7.44-56.65,87.26-154.77,144.76-266.64,144.76-177.38,0-319.56-143.04-319.56-319.56,0-54.07,13.45-104.71,36.91-149.34,4.58-8.3,4.29-14.02-1.43-17.17-5.72-2.86-11.44-.29-15.73,8.01-25.18,47.2-39.48,100.99-39.48,158.49,0,187.1,151.63,339.02,339.02,339.02,84.97,0,162.78-31.47,222.58-83.54,10.01-8.87,15.45-5.44,12.87,7.44-5.15,22.89-7.72,46.92-7.72,71.24,0,187.1,151.63,339.02,339.02,339.02,119.01,0,223.44-61.8,284.09-154.49,5.15-8.3,4.58-14.59-.86-17.17-6.01-2.57-11.44-.29-16.31,7.44-56.65,87.26-154.77,144.76-266.64,144.76-177.38,0-319.56-143.04-319.56-319.56,0-56.36,14.59-107.28,37.19-149.62Z"/>
</svg>