<?xml version="1.0" encoding="UTF-8"?>
<svg id="_레이어_1" data-name=" 레이어 1" xmlns="http://www.w3.org/2000/svg" viewBox="0 0 1586.57 1197.74">
  <defs>
    <style>
      .cls-1 {
        fill: #009698;
      }

      .cls-2 {
        fill: #dae24a;
      }

      .cls-3 {
        stroke: #0054a4;
        stroke-miterlimit: 10;
      }

      .cls-3, .cls-4 {
        fill: #0081cc;
      }

      .cls-5 {
        fill: #9cc12d;
      }

      .cls-6 {
        fill: #fff;
      }

      .cls-7 {
        fill: #e5e972;
      }

      .cls-8 {
        fill: #00b3cd;
      }
    </style>
  </defs>
  <path class="cls-8" d="M791.61,1006.62h-76.28c-96.13,0-162.5,84.97-162.5,163.64l97.38-21.09c0-55.22,41.27-142.55,141.4-142.55h0Z"/>
  <polygon class="cls-1" points="650.21 1149.17 552.83 1170.26 881.55 1170.26 881.54 1149.13 650.21 1149.17"/>
  <path class="cls-5" d="M1003.53,1176.65c0-121.3-79.25-213.23-190.82-213.23l-139.04,18.88h.29c12.87-2.57,26.89-3.72,41.48-3.72,111.57,0,190.82,97.86,190.82,219.16l97.27-21.09h0Z"/>
  <path class="cls-7" d="M552.83,1170.26c0-78.67,66.37-163.64,162.5-163.64,82.39,0,161.93,84.4,161.93,163.64h-324.43ZM524.51,1197.74h381.64c0-121.3-79.25-219.16-190.82-219.16s-190.82,90.7-190.82,219.16Z"/>
  <g>
    <path class="cls-4" d="M1586.44,782.77h.01l-.04-.2c-.03-.17-.07-.34-.11-.51l-2.94-13.89c-.06-.49-.17-.96-.3-1.44l-.02-.11h0c-6.01-19.71-79.38-24.73-179.79-9.2l-1118.83,175.21C106.44,962.41,0,1006.75,0,1040.8h0c0,1.6.32,3.11.9,4.54l2.33,11.83c2.84,24.76,80.53,28.46,156.62,17.72l1111.88-176.94c166.97-26.12,314.84-80.74,314.84-113.68,0-.51-.05-1.01-.14-1.5h.01Z"/>
    <path class="cls-2" d="M284.41,932.64C106.44,962.41,0,1006.75,0,1040.8c0,26.04,79.18,30.08,156.71,19.13l1111.88-176.94c166.97-26.12,314.84-80.74,314.84-113.68,0-21.93-75.37-28.11-180.2-11.89l-1118.83,175.21h0Z"/>
  </g>
  <path class="cls-3" d="M671.21,415.31c4.58-8.58,4.29-14.59-1.43-17.17-6.01-2.57-11.44-.29-16.31,7.44-56.65,87.26-154.77,144.76-266.64,144.76-177.38,0-319.56-143.04-319.56-319.56,0-54.07,13.45-104.71,36.91-149.34,4.58-8.3,4.29-14.02-1.43-17.17-5.72-2.86-11.44-.29-15.73,8.01-25.18,47.2-39.48,100.99-39.48,158.49,0,187.1,151.63,339.02,339.02,339.02,84.97,0,162.78-31.47,222.58-83.54,10.01-8.87,15.45-5.44,12.87,7.44-5.15,22.89-7.72,46.92-7.72,71.24,0,187.1,151.63,339.02,339.02,339.02,119.01,0,223.44-61.8,284.09-154.49,5.15-8.3,4.58-14.59-.86-17.17-6.01-2.57-11.44-.29-16.31,7.44-56.65,87.26-154.77,144.76-266.64,144.76-177.38,0-319.56-143.04-319.56-319.56,0-56.36,14.59-107.28,37.19-149.62h0Z"/>
  <rect class="cls-6" x="323.53" y="234.46" width="326.39" height="163.96" transform="translate(64.73 -82.25) rotate(10.34)"/>
  <g>
    <path d="M372.52,339.25l14.47-79.3,17.45,3.18-14.47,79.3-17.45-3.18Z"/>
    <path d="M404.57,320.17l2.46-13.48,32.4,5.91-2.46,13.48-32.4-5.91Z"/>
    <path d="M442.19,351.97l9.9-54.26,15.29,2.79-2.32,12.69c2.97-8.59,9.05-12.4,15.74-11.18,1.36.25,2.02.49,3.02.79l-2.98,16.31c-1.32-.47-1.66-.54-3.13-.81-8.16-1.49-12.87,3.15-15.04,15.05l-3.95,21.64-16.54-3.02Z"/>
    <path d="M481.82,331.11c3.12-17.11,13.71-27,26.85-24.6,7.14,1.3,11.77,5.43,13.44,12.29l1.47-8.04,16.54,3.02-9.9,54.26-16.54-3.02,1.47-8.04c-3.97,5.71-9.78,8.05-16.92,6.75-13.14-2.4-19.55-15.39-16.41-32.61ZM519.09,337.91c1.72-9.4-1.18-15.32-7.64-16.5s-11.13,3.24-12.86,12.75.94,15.39,7.51,16.59,11.26-3.33,13-12.85Z"/>
    <path d="M582.14,321.44l16.54,3.02-9.8,53.7c-1.8,9.86-5.72,15.93-11.79,19.04-4.5,2.22-10.23,2.82-17.14,1.55s-11.87-3.57-15.36-6.9c-4.06-4.02-6.12-9.43-4.99-16.25l15.75,2.87c-.4,4.14,1.7,7.33,6.69,8.24,5.44.99,8.57-2.06,10.06-10.22l1.76-9.63c-3.7,5.53-8.95,7.97-16.99,6.5-11.22-2.05-14.81-11.83-12.56-24.18l6.12-33.53,16.65,3.04-5.71,31.27c-1.22,6.68.58,10.29,5.45,11.18s8.54-2.54,9.84-9.67l5.48-30.02Z"/>
  </g>
  <rect class="cls-6" x="191.58" y="106.05" width="331.17" height="93.13" transform="translate(-29.11 112.01) rotate(-17.14)"/>
  <rect class="cls-6" x="189.38" y="40.81" width="291.41" height="95.57" transform="translate(-11.23 102.66) rotate(-17.14)"/>
  <g>
    <path d="M230.19,129.61l8.31-2.56c1.25,4.07,3.64,5.65,7.04,4.61,2.51-.77,3.61-3.13,2.63-6.31s-3.46-4.49-7.47-3.25l-2.9.89-2.06-6.69,3.07-.95c3.4-1.05,4.54-3.29,3.54-6.53-.82-2.68-2.7-3.99-5.26-3.2s-3.56,3.3-2.55,6.59l-8.31,2.56c-2.18-7.08,1.06-13.21,9.19-15.72s13.27.49,15.08,6.34c1.5,4.85.06,8.9-4.35,11.23,5.27-.71,9.19,2.29,10.6,6.87,1.96,6.35-1.47,12.66-9.55,15.15-8.7,2.68-14.43-.68-17.01-9.04Z"/>
    <path d="M264.63,132.42l-12.03-39.02,12.38-3.82c10.37-3.2,18.95,2.46,22.63,14.39s-.34,21.47-10.99,24.75l-11.99,3.7ZM270.96,122.47l3.4-1.05c5.13-1.58,6.95-6.36,4.37-14.72s-6.77-11.28-11.9-9.7l-3.4,1.05,7.53,24.42Z"/>
    <path d="M310.29,115.59l-1.79-5.8,44.87-13.84,1.79,5.8-44.87,13.84ZM344.81,96.1l-7.3,1.46c-.67-5.35-3.1-17.17-5.44-23.78l-26.98,8.32-1.82-5.91,34.28-10.57c3.9,12.04,6.46,24.13,7.26,30.48Z"/>
    <path d="M363.97,94.52c-1.67.52-4.07,1.25-5.03,1.49l-6.5-21.07,11.21-3.45-2.03-6.58-11.26,3.47-1.89-6.13,18.56-5.72,5.84,18.95-11.26,3.47,2.7,8.75c2.84-.88,9.99-3.44,13.13-5.33.84,1.94,1.54,3.8,2.38,5.74-3.16,2.01-10.44,4.75-15.85,6.41ZM395.97,96.74l-7.67-24.86-3.46,1.07,6.96,22.58-6.91,2.13-14.35-46.55,6.91-2.13,5.57,18.06,3.46-1.07-5.83-18.9,7.02-2.17,15.31,49.67-7.02,2.17Z"/>
    <path d="M433.2,61.09c-6.27,3.03-19.43,8.07-29.24,11.09l-2.83-6.02c1.87-.46,4.05-1.13,6.22-1.8-1.56-3.49-3.12-7.16-4.56-10.62l6.89-2.8c1.28,3.76,2.65,7.61,3.99,11.35l4.54-1.52c-.91-3.75-2-7.87-2.84-11.58,2.38-.61,4.82-1,7.21-1.55l2.03,10.73c2.44-1,4.56-1.83,6.26-2.66l2.33,5.39ZM398.82,52.34l-1.79-5.8,26.53-8.18,1.79,5.8-26.53,8.18ZM444.82,62.94l5.29,17.17-7.47,2.3-3.49-11.32-26.42,8.15-1.8-5.85,33.89-10.45ZM436.76,63.35l-9.4-30.49,7.47-2.3,9.4,30.49-7.47,2.3Z"/>
    <path d="M233.87,201.72l8.31-2.56c1.25,4.07,3.64,5.66,7.04,4.61,2.51-.77,3.61-3.13,2.63-6.31s-3.46-4.49-7.47-3.25l-2.9.89-2.06-6.69,3.07-.95c3.4-1.05,4.54-3.29,3.54-6.53-.83-2.68-2.7-3.99-5.26-3.2s-3.56,3.3-2.55,6.58l-8.31,2.56c-2.18-7.08,1.06-13.21,9.2-15.71s13.27.48,15.08,6.34c1.5,4.85.06,8.89-4.35,11.23,5.27-.71,9.19,2.29,10.6,6.86,1.96,6.36-1.47,12.66-9.55,15.15-8.7,2.68-14.43-.68-17.01-9.04Z"/>
    <path d="M268.31,204.53l-12.03-39.02,12.38-3.82c10.37-3.2,18.95,2.46,22.63,14.39s-.34,21.47-10.99,24.75l-11.99,3.7ZM274.64,194.58l3.4-1.05c5.13-1.58,6.95-6.36,4.37-14.72s-6.77-11.28-11.9-9.7l-3.4,1.05,7.53,24.42Z"/>
    <path d="M336.5,161.22l2.05,6.63-2.01.62c2.53,9.78-1.13,16.53-9.83,19.21-10.31,3.18-18.46-2.67-22.52-15.83s-.36-22.17,9.89-25.33c9.2-2.84,15.4.44,18.42,8.67l-8.7,2.68c-1.48-3.82-3.85-5.16-7.47-4.04-4.9,1.51-5.89,6.45-3.22,15.09,2.92,9.48,6.48,12.9,11.66,11.3,3.68-1.13,5.08-4.31,3.62-9.24l-6.47,1.99-2.05-6.63,16.61-5.12Z"/>
    <path d="M346.12,180.54l-8.23-26.7,7.53-2.32,1.92,6.24c-.67-4.55,1.17-7.69,4.46-8.7.67-.21,1.02-.25,1.54-.35l2.48,8.03c-.7.09-.87.15-1.6.37-4.01,1.24-5.05,4.43-3.24,10.28l3.28,10.65-8.14,2.51Z"/>
    <path d="M359.05,161.9c-2.6-8.42-.15-15.34,6.32-17.33,3.51-1.08,6.56-.31,8.91,2.38l-1.22-3.96,8.14-2.51,8.23,26.7-8.14,2.51-1.22-3.96c-.45,3.5-2.51,5.9-6.03,6.99-6.47,1.99-12.38-2.35-15-10.82ZM377.39,156.25c-1.43-4.63-4.11-6.61-7.29-5.63s-4.24,4.06-2.8,8.74,4.02,6.7,7.25,5.7,4.28-4.13,2.84-8.81Z"/>
    <path d="M417.08,144.01c2.61,8.47.17,15.39-6.3,17.39-3.51,1.08-6.56.31-8.91-2.38l4.69,15.22-8.08,2.49-11.7-37.96,8.08-2.49,1.22,3.96c.43-3.55,2.51-5.9,6.03-6.98,6.47-1.99,12.38,2.35,14.98,10.76ZM408.83,146.55c-1.44-4.68-4-6.64-7.18-5.66s-4.34,4.15-2.91,8.77,4.13,6.66,7.36,5.67,4.19-4.04,2.73-8.78Z"/>
    <path d="M443.69,131.35l5.38,17.45-8.25,2.54-4.69-15.22c-1.13-3.68-2.71-5.03-5.22-4.25-2.79.86-3.32,3.28-2.07,7.35l4.45,14.44-8.14,2.51-12.03-39.02,8.14-2.51,4.97,16.11c.52-3.46,2.68-5.77,6.19-6.85,5.24-1.62,9.22.82,11.27,7.45Z"/>
    <path d="M442.1,113.34c-.91-2.95.61-5.74,3.51-6.64s5.78.54,6.69,3.49-.63,5.69-3.58,6.6-5.73-.55-6.62-3.45ZM454.08,147.25l-8.23-26.7,8.08-2.49,8.23,26.7-8.08,2.49Z"/>
    <path d="M461.78,130.23c-2.66-8.64.54-15.67,8.23-18.04s13.13.22,15.34,7.17l-7.92,2.44c-.99-2.62-2.74-3.55-5.19-2.79-2.9.89-3.8,4.1-2.38,8.73s3.87,6.8,6.99,5.84c2.29-.7,3.23-2.4,2.68-4.98l7.92-2.44c1.76,7.09-1.4,12.09-8.7,14.34-7.86,2.42-14.27-1.52-16.96-10.27Z"/>
  </g>
</svg>