<?xml version="1.0" encoding="UTF-8"?>
<svg id="_레이어_1" data-name=" 레이어 1" xmlns="http://www.w3.org/2000/svg" viewBox="0 0 1600.31 1202.24">
  <defs>
    <style>
      .cls-1, .cls-2 {
        fill: #009698;
      }

      .cls-2 {
        stroke: #009698;
        stroke-miterlimit: 10;
      }

      .cls-3 {
        fill: #abd0ef;
      }

      .cls-4 {
        fill: #0054a4;
      }

      .cls-5 {
        fill: #fff;
      }

      .cls-6 {
        fill: #fff100;
      }

      .cls-7 {
        fill: #ea5550;
      }

      .cls-8 {
        fill: #00b3cd;
      }

      .cls-9 {
        fill: #d11719;
      }
    </style>
  </defs>
  <path class="cls-9" d="M870.89,971.95s2.3-26.88-56.3-21.36c-74.6,7.03-123.98,40.94-120.73,72.21,2.73,21.34-8.45,19.6-14.32,20.45-7.61,1.1-14.13,1.92-15.99-17.8-3.57-37.84,29.63-92.69,147.78-103.83,49.62-4.68,86.63,13.33,88.88,37.16"/>
  <path class="cls-9" d="M878.38,1051.39s2.3-26.88-56.3-21.36c-74.6,7.03-123.98,40.94-120.73,72.21,2.73,21.34-8.45,19.6-14.32,20.45-7.61,1.1-14.13,1.92-15.99-17.8-3.57-37.84,29.63-92.69,147.78-103.83,49.62-4.68,86.63,13.33,88.88,37.16"/>
  <path class="cls-9" d="M885.87,1130.83s2.3-26.88-56.3-21.36c-74.6,7.03-123.98,40.94-120.73,72.21,1.47,15.58-6.92,19.83-13.85,20.48-7.98.75-15.13-3.68-16.46-17.84-3.57-37.84,29.63-92.69,147.78-103.83,49.62-4.68,86.63,13.33,88.88,37.16"/>
  <path class="cls-9" d="M863.4,892.51s2.3-26.88-56.3-21.36c-74.6,7.03-123.98,40.94-120.73,72.21,2.73,21.34-8.45,19.6-14.32,20.45-7.61,1.1-14.13,1.92-15.99-17.8-3.57-37.84,29.63-92.69,147.78-103.83,49.62-4.68,86.63,13.33,88.88,37.16"/>
  <path class="cls-7" d="M662.6,851.72c5.97-.56,15.21,1.94,16.35,14.06,1.88,19.95,34.68,51.86,122.31,43.6,38.16-3.6,61.36-21.58,60.76-27.95-1-10.6,6.38-16.77,14.23-17.51,8.86-.84,15.63,4.5,17.07,19.81,1.11,11.74-7.57,54.47-93.99,62.61-86.42,8.15-145.08-19.43-150.22-74-1.49-15.84,6.16-19.92,13.49-20.61h0Z"/>
  <path class="cls-7" d="M670.09,931.16c5.97-.56,15.21,1.94,16.35,14.06,1.88,19.95,34.68,51.86,122.31,43.6,38.16-3.6,61.36-21.58,60.76-27.95-1-10.6,6.38-16.77,14.23-17.51,8.86-.84,15.63,4.5,17.07,19.81,1.11,11.74-7.57,54.47-93.99,62.61-86.42,8.15-145.08-19.43-150.22-74-1.49-15.84,6.16-19.92,13.49-20.61h0Z"/>
  <path class="cls-7" d="M677.58,1010.6c5.97-.56,15.21,1.94,16.35,14.06,1.88,19.95,34.68,51.86,122.31,43.6,38.16-3.6,61.36-21.58,60.76-27.95-1-10.6,6.38-16.77,14.23-17.51,8.86-.84,15.63,4.5,17.07,19.81,1.11,11.74-7.57,54.47-93.99,62.61-86.42,8.15-145.08-19.43-150.22-74-1.49-15.84,6.16-19.92,13.49-20.61h0Z"/>
  <path class="cls-7" d="M685.06,1090.04c5.97-.56,15.21,1.94,16.35,14.06,1.88,19.95,34.68,51.86,122.31,43.6,38.16-3.6,61.36-21.58,60.76-27.95-1-10.6,6.38-16.77,14.23-17.51,8.86-.84,15.63,4.5,17.07,19.81,1.11,11.74-7.57,54.47-93.99,62.61s-145.08-19.43-150.22-74c-1.49-15.84,6.16-19.92,13.49-20.61h0Z"/>
  <circle class="cls-7" cx="694.19" cy="1187.88" r="10.74"/>
  <path class="cls-4" d="M156.65,618.5l-4.54,12.57,1444.02,517.18,4.18-10.75L156.65,618.5ZM156.65,618.5l1443.66,519"/>
  <polygon class="cls-6" points="3.09 512.25 156.86 618.43 1600.31 1137.51 1448.69 1032.1 3.09 512.25"/>
  <polygon class="cls-3" points="3.09 512.25 0 522.15 152.31 631.29 156.86 618.71 3.09 512.25"/>
  <g>
    <path class="cls-8" d="M660,741.07c-44.72,0-60.96-32.75-60.96-54.76,0-38.97,30.43-94.62,90.43-165.4,71.59-84.22,184.32-185.5,309.29-277.89,125.06-92.45,252.34-168.56,349.22-208.81C1400.14,12.55,1450.15.13,1485.18.13c36.97,0,61.8,23.25,61.8,57.86,0,25.54-15.94,61.12-48.74,108.78-63.97,93.13-227.87,242.38-340.81,323.34-17.02,12.2-33.03,23.88-47.15,34.19-26.88,19.62-48.12,35.12-62.41,44.11l-.1.06-22.11-31.47.11-.07c27.94-17.6,66.52-45.49,110.39-77.44,65.08-47.51,134.31-105.7,194.95-163.86,61.38-58.88,111.56-115.5,141.29-159.42,20.71-30.78,35.75-63.21,35.75-77.1s-7.52-20.15-24.38-20.15c-19.24,0-60.95,4.17-124.15,32.1-92.21,40.77-214.64,114.94-335.89,203.5-127.95,93.46-235.69,188.9-303.37,268.76-49.34,58.55-82.49,115.22-82.49,141.02,0,12.6,8.19,18.46,25.79,18.46,32.81,0,68.29-11.26,111.48-28.15l.11-.04,15.87,35.43-2.61,1.07c-19.99,8.2-73.1,29.97-128.51,29.97h0Z"/>
    <path class="cls-1" d="M1485.18.25c38.87,0,61.68,25.07,61.68,57.73,0,25.07-15.77,60.83-48.72,108.71-66.75,97.16-234.32,246.99-340.78,323.31-48.72,34.92-87.59,64.49-109.55,78.29l-21.97-31.26c28.16-17.74,67.87-46.47,110.4-77.45,133.49-97.44,274.31-231.78,336.27-323.31,20.28-30.13,35.77-62.8,35.77-77.17,0-16.05-10.14-20.28-24.5-20.28-21.4,0-63.65,5.35-124.2,32.11-187.29,82.8-495.39,302.47-639.31,472.3-46.75,55.48-82.52,114.06-82.52,141.1,0,13.24,9.29,18.59,25.91,18.59,31.54,0,66.18-10.42,111.53-28.16l15.77,35.2c-16.62,6.76-72.94,30.98-130.96,30.98-43.65,0-60.83-31.82-60.83-54.64,0-42.24,35.49-100.54,90.4-165.32,150.11-176.58,455.12-402.17,658.46-486.66C1399.57,12.92,1450.26.25,1485.18.25M1485.18,0c-35.05,0-85.07,12.43-137.25,34.1-49.61,20.61-105.99,49.84-167.59,86.87-59.25,35.62-120.36,76.65-181.65,121.96-61.26,45.28-119.01,92.13-171.67,139.22-54.7,48.93-101.01,95.58-137.64,138.68-60.03,70.8-90.46,126.48-90.46,165.48,0,12.77,5.28,26.25,14.11,36.04,11.12,12.33,27.37,18.85,46.97,18.85,55.44,0,108.56-21.78,128.56-29.98.91-.37,1.74-.71,2.49-1.02l.24-.1-.11-.24-15.77-35.2-.1-.22-.22.09c-43.17,16.89-78.65,28.15-111.44,28.15-17.51,0-25.66-5.83-25.66-18.34,0-25.77,33.14-82.4,82.46-140.94,34.7-40.95,79.87-85.95,134.24-133.77,51.05-44.89,107.95-90.31,169.1-134.97,121.24-88.55,243.66-162.72,335.87-203.49,63.18-27.92,104.87-32.08,124.1-32.08,16.77,0,24.25,6.18,24.25,20.03s-15.02,46.26-35.72,77.03c-29.73,43.91-79.9,100.52-141.27,159.4-60.63,58.16-129.86,116.35-194.93,163.85-43.87,31.96-82.46,59.84-110.39,77.44l-.22.14.15.22,21.97,31.26.14.19.2-.13c14.3-8.98,35.54-24.49,62.42-44.11,14.12-10.31,30.13-21.99,47.15-34.19,54.5-39.07,123.77-96.59,185.3-153.86,69.89-65.05,125.13-125.25,155.53-169.51,32.81-47.68,48.77-83.29,48.77-108.85C1547.11,23.32,1522.22.02,1485.18.02h0v-.02Z"/>
  </g>
  <path class="cls-2" d="M790.34,710.27c5.91-2.25,8.17-8.73,8.17-15.77,0-8.45-7.6-20.56-18.02-20.56-1.97,0-3.94.28-5.91,1.13-7.89,3.1-10.14,12.39-6.76,22.25s12.96,16.62,22.53,12.96h-.01Z"/>
  <path class="cls-1" d="M1048.21,568.2c1.69,0-.84-8.73-6.76-17.46-5.91-8.73-10.98-13.8-15.21-13.8-5.07,0,12.39,31.26,21.97,31.26Z"/>
  <rect class="cls-5" x="1137.4" y="719.18" width="335.48" height="163.96" transform="translate(-188.92 464.98) rotate(-18.86)"/>
  <g>
    <path d="M1221.32,789.99l17.76-6.07-5.65,87.12-17.98,6.14,2.07-30.28-37.07-42.95,17.87-6.11,22.87,29.55.12-37.4Z"/>
    <path d="M1298.05,848.96l-6.63-10.51-21.25,7.26,1.18,12.37-17.33,5.92-3.72-83.91,16.67-5.7,48.4,68.65-17.33,5.92ZM1268.76,831.59l15.15-5.18-18.65-29.65,3.5,34.83Z"/>
    <path d="M1322.35,840.66l-26.06-76.28,24.19-8.27c20.27-6.92,37.54,3.73,45.5,27.05,7.82,22.88.61,42.39-20.21,49.5l-23.43,8ZM1334.26,820.65l6.65-2.27c10.03-3.43,13.34-12.95,7.76-29.3-5.58-16.35-14.04-21.85-24.06-18.43l-6.65,2.27,16.31,47.73Z"/>
    <path d="M1380.22,820.89l5.41-71.09-24.41,8.34-4.88-14.27,47.08-16.08-5.51,71.13,26.04-8.9,4.88,14.28-48.6,16.6Z"/>
  </g>
  <rect class="cls-5" x="132.8" y="467.93" width="321.76" height="93.13" transform="translate(181.17 -67.14) rotate(18.77)"/>
  <rect class="cls-5" x="108.85" y="402.42" width="412.01" height="95.57" transform="translate(161.61 -77.37) rotate(18.77)"/>
  <g>
    <path d="M172.51,376.02c7.57,2.57,11.9,9.22,9.59,16.01s-9.8,9.42-17.36,6.85-11.7-9.27-9.43-15.96,9.68-9.46,17.2-6.91ZM149.71,420.82l4.66-13.7,25.57,8.69.81-2.38-25.46-8.65,1.95-5.74,32.86,11.17-4.54,13.37-25.63-8.71-.92,2.71,27.01,9.18-1.95,5.74-34.35-11.68ZM166.71,393.08c3.53,1.2,7.03-.01,8.21-3.49s-.83-6.63-4.36-7.83-6.94.11-8.12,3.59.74,6.53,4.27,7.74ZM183.33,405.82l8.54-25.13,7.4,2.52-8.54,25.13-7.4-2.52Z"/>
    <path d="M221.29,431.35c-5.29-.57-13.6-2.96-21.72-5.72-1.6-.54-3.35-1.2-4.88-1.78l7.11-20.93,15.13,5.14,2.42-7.13-15.19-5.16,1.93-5.69,22.53,7.66-6.31,18.56-15.08-5.12-3.13,9.22c4.34,1.72,12.54,3.89,18.57,4.83l-1.4,6.12ZM222.92,446.13l8.69-25.57-6.74-2.29,2.08-6.13,6.74,2.29,5.95-17.51,7.35,2.5-16.72,49.21-7.35-2.5Z"/>
    <path d="M239.36,444.7l1.97-5.8,44.46,15.11-1.97,5.8-44.46-15.11ZM284.3,443.7c-5.66-3.28-13.05-11.09-13.37-19.21-5.15,6.26-15.41,8.01-22.14,7.14-.43-2.36-.93-4.69-1.31-7.04,8.4,1.75,19.52-1.25,22.58-10.25l.99-2.93,7.84,2.67-.99,2.93c-3.06,9,3.84,18.06,11.66,21.89l-5.27,4.8Z"/>
    <path d="M331.53,476.21l-44.46-15.11,1.93-5.69,44.46,15.11-1.93,5.69ZM307.84,442.59l-1.71,5.03,26.62,9.05-1.95,5.74-33.91-11.53,9.14-26.9,33.31,11.32-1.95,5.74-26.01-8.84-1.6,4.69,24.74,8.41-1.93,5.69-24.74-8.41Z"/>
    <path d="M343.41,474.58c-1.88-.64-3.63-1.29-5.39-1.89l6.96-20.49,10.22,3.47,2.29-6.74-10-3.4,2.05-6.02,17.23,5.86-6.42,18.89-10.22-3.47-2.85,8.39,1.16.39c3.15,1.07,8.62,2.56,11.79,2.84-.49,1.99-.96,3.92-1.38,5.88-3.71-.34-10.25-1.94-15.44-3.71ZM358.99,489.85l7.96-23.42-4.64-1.58,2.03-5.97,4.64,1.58,5.67-16.68,6.79,2.31-15.65,46.06-6.79-2.31ZM367.77,495.36l16.72-49.21,6.96,2.37-16.72,49.21-6.96-2.37Z"/>
    <path d="M410.37,458.46c8.17,2.78,10.45,11.87,6.94,22.2s-10.79,15.99-18.97,13.21-10.34-11.83-6.88-21.99,10.85-16.15,18.91-13.41ZM408.18,464.92c-3.31-1.13-7.21,1.8-9.76,9.31s-1.23,12.15,2.08,13.28c3.53,1.2,7.44-1.78,9.96-9.18s1.25-12.2-2.28-13.41ZM414.11,511.11l16.72-49.21,7.29,2.48-16.72,49.21-7.29-2.48Z"/>
    <path d="M460.08,505.79c-3.34-2.49-6.98-8.66-7.34-13.21-2.9,3.82-9.82,6.77-15.17,6.74l-1.67-7.22c8.23-.28,14.47-4.51,16.78-11.3l2.37-6.96,7.51,2.55-2.23,6.57c-2.42,7.13.23,13.82,5.69,18.08l-5.93,4.76ZM436.4,517.27l5.16-15.19,7.29,2.48-3.23,9.5,26.84,9.12-1.93,5.69-34.13-11.6ZM466.9,488.63l2.01-5.91,7.18,2.44,2.4-7.07,7.46,2.53-12.13,35.68-7.46-2.53,4.45-13.09-7.18-2.44,1.99-5.85,7.18,2.44,1.28-3.75-7.18-2.44Z"/>
    <path d="M165.15,495.56l13.14-38.66,8.51,2.89-13.14,38.66-8.51-2.89Z"/>
    <path d="M179.45,500.42l13.14-38.66,8.06,2.74-13.14,38.66-8.06-2.74Z"/>
    <path d="M193.2,505.09l13.14-38.66,8.06,2.74-13.14,38.66-8.06-2.74Z"/>
    <path d="M209.74,499.93l5.71-16.79,8.12,2.76-5.31,15.63c-1.07,3.15-.45,5.14,1.92,5.95s4.47-.64,5.67-4.17l5.07-14.91,8.06,2.74-8.99,26.46-8.06-2.74,1.3-3.81c-2.26,2.5-5.07,3.33-9,2-5.08-1.73-6.73-6.48-4.48-13.11Z"/>
    <path d="M236.4,510.84l7.95,2.7c-.68,1.99.09,3.73,2.24,4.46,1.66.56,3.1-.06,3.64-1.66.41-1.21-.06-2.36-1.29-3.27l-4.34-3.01c-3.82-2.72-5.22-6.21-3.89-10.13,1.71-5.03,6.92-6.77,13.05-4.68,6.46,2.2,9.5,6.86,7.77,11.94l-7.68-2.61c.68-1.99-.05-3.47-1.93-4.11-1.6-.54-3.01-.04-3.48,1.34-.41,1.21.06,2.36,1.44,3.38l4.5,3.25c3.69,2.73,5.06,5.97,3.72,9.89-1.8,5.3-6.98,7.3-13.5,5.09s-10.03-7.29-8.23-12.59Z"/>
    <path d="M275.17,525.49l-2.27,6.68c-1.47-.19-2.86-.48-4.4-1-4.86-1.65-7.38-5.65-5.45-11.34l4.13-12.15-3.37-1.14,2.12-6.24,3.37,1.14,2.68-7.9,8.06,2.74-2.68,7.9,4.31,1.46-2.12,6.24-4.31-1.46-3.4,10c-.86,2.54-.36,3.95,1.63,4.62.44.15.9.24,1.69.45Z"/>
    <path d="M276.7,533.47l8.99-26.46,7.46,2.53-2.1,6.19c2.13-4.08,5.46-5.54,8.71-4.43.66.23.98.39,1.45.62l-2.7,7.95c-.62-.34-.79-.39-1.51-.64-3.98-1.35-6.68.63-8.65,6.42l-3.59,10.55-8.06-2.74Z"/>
    <path d="M298.11,525.96c2.83-8.34,8.87-12.51,15.28-10.33,3.48,1.18,5.5,3.59,5.82,7.15l1.33-3.92,8.06,2.74-8.99,26.46-8.06-2.74,1.33-3.92c-2.41,2.57-5.5,3.31-8.98,2.12-6.41-2.18-8.65-9.16-5.8-17.56ZM316.28,532.13c1.56-4.58.54-7.76-2.6-8.83s-5.82.8-7.39,5.44-.67,7.78,2.53,8.87,5.89-.83,7.47-5.47Z"/>
    <path d="M341.16,547.92l-2.27,6.68c-1.47-.19-2.86-.48-4.4-1-4.86-1.65-7.38-5.65-5.45-11.34l4.13-12.15-3.37-1.14,2.12-6.24,3.37,1.14,2.68-7.9,8.06,2.74-2.68,7.9,4.31,1.46-2.12,6.24-4.31-1.46-3.4,10c-.86,2.54-.36,3.95,1.63,4.62.44.15.9.24,1.69.45Z"/>
    <path d="M352.88,521.41c.99-2.93,3.86-4.29,6.73-3.32s4.37,3.83,3.37,6.75-3.84,4.24-6.77,3.24-4.31-3.81-3.34-6.68ZM342.7,555.9l8.99-26.46,8.01,2.72-8.99,26.46-8.01-2.72Z"/>
    <path d="M358.91,546.62c2.91-8.56,9.74-12.34,17.75-9.62s11.12,9.88,8.21,18.44-9.74,12.34-17.75,9.62-11.12-9.88-8.21-18.44ZM376.86,552.72c1.6-4.7.62-7.8-2.53-8.87s-5.82.8-7.41,5.49-.62,7.8,2.53,8.87,5.82-.8,7.41-5.49Z"/>
    <path d="M384.06,569.95l8.99-26.46,8.06,2.74-1.28,3.76c2.45-2.49,5.55-3.1,9.03-1.92,5.19,1.76,6.99,6.07,4.76,12.65l-5.88,17.29-8.17-2.78,5.12-15.08c1.24-3.65.81-5.64-1.68-6.49-2.82-.96-4.67.69-6.04,4.72l-4.86,14.3-8.06-2.74Z"/>
  </g>
</svg>