<?xml version="1.0" encoding="UTF-8"?>
<svg id="_레이어_1" data-name="레이어 1" xmlns="http://www.w3.org/2000/svg" viewBox="0 0 1635.28 1406.81">
  <defs>
    <style>
      .cls-1 {
        fill: #009698;
      }

      .cls-2 {
        fill: #e3d322;
      }

      .cls-3, .cls-4 {
        fill: #0081cc;
      }

      .cls-5 {
        fill: #fff100;
      }

      .cls-4 {
        stroke: #0054a4;
        stroke-miterlimit: 10;
      }

      .cls-6 {
        fill: #e63082;
      }

      .cls-7 {
        fill: #00b3cd;
      }
    </style>
  </defs>
  <g>
    <path class="cls-2" d="M837.57,1102.88c-74.77,0-132.77,67.95-132.77,151.82s51.74,152.11,132.77,152.11h-150.68c-81.03,0-132.77-67.95-132.77-152.11s58-151.82,132.77-151.82h150.68Z"/>
    <path class="cls-5" d="M837.68,1406.81c80.74,0,129.08-77.62,129.08-152.11s-48.33-151.82-129.08-151.82c-74.77,0-132.77,67.95-132.77,151.82s51.74,152.11,132.77,152.11Z"/>
    <path class="cls-6" d="M837.25,1387.76c70.79,0,113.16-67.95,113.16-133.06s-42.36-132.77-113.16-132.77c-65.11,0-116,59.42-116,132.77s45.21,133.06,116,133.06Z"/>
  </g>
  <g>
    <path class="cls-3" d="M.62,1051.85c-.12,2.86,1.4,4.97,6.53,5.5l1500.71,116.7c3.88.38,6.97-.36,10.47-2.38l111.69-70.67c2.13-1.32,3.75-2.81,4.24-4.36l.85-28.08c-.49,1.56-1.85,3.12-4.33,4.62l-116.04,68.51c-3.5,2.03-6.59,2.76-10.47,2.38L6.57,1027.79c-3.19-.13-5.58-3.07-6.57-4.56l.62,28.62Z"/>
    <path class="cls-6" d="M120.45,949.2L2.77,1018.68s-1.87,1.07-2.55,3.19.4,4.45,2.25,5.04c.97.31,2.72.84,4.15.93l1497.72,116.28c3.88.38,6.97-.36,10.47-2.38l116.04-68.51c6.74-4.14,5.63-9.63-2.21-10.13l-1497.72-116.28c-3.88-.38-6.97.36-10.47,2.38Z"/>
    <g>
      <polygon class="cls-7" points="1410.24 1015.2 1409.17 1080.82 1438.98 1083.21 1437.73 1016.71 1410.24 1015.2"/>
      <path class="cls-7" d="M1422.8,999.16l-45.66,26.52,26.63,2.72,46.25-26.49-27.21-2.75ZM1377.14,1025.69l1.91,75.16,25.26,2.03-.54-74.47-26.63-2.72Z"/>
      <polygon class="cls-1" points="1450.01 1001.93 1403.77 1028.41 1404.31 1102.88 1417.77 1095.13 1418.14 1035.43 1437.93 1023.43 1438.98 1083.21 1451.24 1075.8 1450.01 1001.93"/>
    </g>
    <g>
      <polygon class="cls-7" points="246.12 924.17 245.05 989.79 274.86 992.18 273.61 925.68 246.12 924.17"/>
      <path class="cls-7" d="M258.68,908.13l-45.66,26.52,26.63,2.72,46.25-26.49-27.21-2.75ZM213.02,934.66l1.91,75.16,25.26,2.03-.54-74.47-26.63-2.72Z"/>
      <polygon class="cls-1" points="285.89 910.9 239.65 937.38 240.19 1011.85 253.65 1004.1 254.02 944.4 273.81 932.4 274.86 992.18 287.12 984.77 285.89 910.9"/>
    </g>
  </g>
  <path class="cls-4" d="M663.39,448.61c-6.02-7.64-6.81-13.6-1.63-17.15,5.46-3.6,11.21-2.31,17.37,4.44,71.19,75.86,177.95,115.09,288.04,95.3,174.58-31.38,289.21-197.33,257.98-371.06-9.57-53.22-31.76-100.68-62.75-140.45-5.97-7.36-6.7-13.04-1.63-17.15,5.13-3.83,11.21-2.31,16.9,5.1,33.13,42.01,56.73,92.41,66.9,149.01,33.11,184.15-89.25,360.5-273.68,393.65-83.63,15.03-165.78-2.17-233.85-42.84-11.42-6.96-16.17-2.62-11.35,9.6,9.12,21.61,15.9,44.81,20.21,68.75,33.11,184.15-89.25,360.5-273.68,393.65-117.14,21.06-230.84-21.29-306.94-101.78-6.54-7.25-7.09-13.55-2.19-17.05,5.46-3.6,11.21-2.31,17.37,4.44,71.19,75.86,177.95,115.09,288.04,95.3,174.58-31.38,289.21-197.33,257.98-371.06-9.97-55.47-33.34-103.01-63.08-140.68Z"/>
</svg>