<?xml version="1.0" encoding="UTF-8"?>
<svg id="_레이어_1" data-name=" 레이어 1" xmlns="http://www.w3.org/2000/svg" viewBox="0 0 1812.44 1551.96">
  <defs>
    <style>
      .cls-1 {
        fill: #fced1a;
      }

      .cls-2 {
        fill: #dae24a;
      }

      .cls-3 {
        fill: #9cc12d;
      }

      .cls-4 {
        fill: #e3d322;
      }

      .cls-5 {
        fill: #fff;
      }

      .cls-6 {
        fill: #fff100;
      }

      .cls-7 {
        fill: #e63082;
      }

      .cls-8 {
        fill: #ea5550;
      }
    </style>
  </defs>
  <g>
    <path class="cls-4" d="M1168.2,1248.03c-74.02,0-131.44,67.95-131.44,151.82s51.22,152.11,131.44,152.11h-149.17c-80.21,0-131.44-67.95-131.44-152.11s57.42-151.82,131.44-151.82h149.17Z"/>
    <path class="cls-6" d="M1168.3,1551.96c79.93,0,127.78-77.62,127.78-152.11s-47.85-151.82-127.78-151.82c-74.02,0-131.44,67.95-131.44,151.82s51.22,152.11,131.44,152.11h0Z"/>
    <path class="cls-7" d="M1167.88,1532.91c70.08,0,112.02-67.95,112.02-133.06s-41.94-132.77-112.02-132.77c-64.45,0-114.83,59.42-114.83,132.77s44.75,133.06,114.83,133.06h0Z"/>
  </g>
  <polygon class="cls-8" points="221.64 1536.5 583.59 1536.5 1812.44 854.98 1450.49 854.98 221.64 1536.5"/>
  <polygon class="cls-6" points="583.59 1536.5 583.52 1548.38 1812.44 866.98 1812.44 855.02 583.59 1536.5"/>
  <rect class="cls-8" x="221.64" y="1536.5" width="361.95" height="11.89"/>
  <g>
    <path class="cls-2" d="M910.88,13.64l-27.27,43.67c103.01,96.1,289.33,326.67,289.33,619.23,0,503.59-351.54,519.33-460.61,519.33-176.32,0-363.72-137.56-421.73-195.5l-23.95,12.62-28.4,44.81c101.6,96.38,271.03,211.53,472.83,211.53,280.32,0,536.57-203.91,536.57-609.34,0-319.05-202.56-567.94-311.01-659.99l-25.76,13.64h0Z"/>
    <path class="cls-3" d="M910.88,13.64l-27.86,43.78c103.01,96.1,287.46,323.26,287.46,615.82,0,348-187.01,534.94-456.57,534.94-163.8,0-334.08-88.64-447.26-195.19l-28.99,44.92c101.6,96.38,271.03,211.53,472.83,211.53,280.32,0,522.37-191.91,514.77-597.34-5.07-270.1-155.36-518.58-314.38-658.46h0Z"/>
    <path class="cls-1" d="M267.16,1030.33l-15.2,23.88c117.65,113.16,286.44,202.73,451.57,202.73,236.7,0,508.79-143.05,508.79-573.5,0-260.06-149.8-517.32-299.17-650.47l-14.35,23.31c137.07,131.07,284.02,366.75,284.02,612.39,0,445.15-270.95,554.7-464.87,554.7s-338.6-93.54-450.79-193.06v.02Z"/>
  </g>
  <g>
    <rect class="cls-5" x="11.85" y="834.14" width="552.89" height="163.96" transform="translate(254.09 -43.68) rotate(15.43)"/>
    <g>
      <path d="M135.48,874.9l-3.65,13.21-4-1.1c-6.19,18.96-19.44,26.29-36.76,21.51-20.54-5.67-27.88-24.06-20.66-50.26,6.95-25.2,22.95-37.27,43.37-31.63,18.32,5.05,25.15,17.09,21.44,33.99l-17.32-4.78c1.59-7.92-.92-12.68-8.14-14.67-9.77-2.7-16.65,4.48-21.4,21.69-5.21,18.87-2.92,28.34,7.4,31.19,7.33,2.02,13.03-1.78,15.84-11.52l-12.88-3.55,3.65-13.21,33.08,9.13Z"/>
      <path d="M130.95,917.25l14.67-53.17,14.99,4.14-3.43,12.43c3.72-8.29,10.11-11.54,16.66-9.74,1.33.37,1.97.66,2.94,1.05l-4.41,15.99c-1.27-.59-1.6-.68-3.05-1.08-7.99-2.21-13.1,2-16.31,13.66l-5.85,21.2-16.21-4.47Z"/>
      <path d="M219.81,917.76l-32.75-9.04c-1.77,7.28.22,12.61,6.55,14.35,4.66,1.29,7.63.07,9.49-3.23l14.65,4.04c-4.51,10.7-14.2,15.08-27.41,11.43-16.54-4.56-22.97-17.21-18.03-35.08s17.17-25.85,33.15-21.43,20.97,16.66,16.89,31.42c-.52,1.89-1.49,4.97-2.56,7.54ZM207.64,903.42c2.11-7.66.16-12.26-5.28-13.76-5.88-1.62-10.32,1.45-12.48,8.86l17.76,4.9Z"/>
      <path d="M273.98,932.71l-32.75-9.04c-1.77,7.28.22,12.61,6.55,14.35,4.66,1.29,7.63.07,9.49-3.23l14.65,4.04c-4.51,10.7-14.2,15.08-27.41,11.43-16.54-4.56-22.97-17.21-18.03-35.08s17.17-25.85,33.15-21.43c15.43,4.26,20.97,16.66,16.89,31.42-.52,1.89-1.49,4.97-2.56,7.54ZM261.81,918.36c2.11-7.66.16-12.26-5.28-13.76-5.88-1.62-10.32,1.45-12.48,8.86l17.76,4.9Z"/>
      <path d="M275.7,957.2l14.67-53.17,16.21,4.47-2.08,7.55c4.54-5.2,10.58-6.76,17.58-4.83,10.44,2.88,14.48,11.16,10.83,24.37l-9.59,34.75-16.43-4.53,8.36-30.31c2.02-7.33.94-11.21-4.05-12.59-5.66-1.56-9.13,1.9-11.36,10.01l-7.93,28.75-16.21-4.47Z"/>
      <path d="M393.39,961.01c-4.66,16.87-16.08,25.79-28.95,22.23-6.99-1.93-11.24-6.45-12.3-13.43l-2.17,7.88-16.1-4.44,21.44-77.71,16.1,4.44-8.94,32.41c4.49-5.45,10.46-7.15,17.45-5.22,12.88,3.55,18.11,17.06,13.48,33.83ZM376.97,956.47c2.57-9.33.4-15.3-5.93-17.05-6.44-1.78-11.62,2.29-14.16,11.5s-.21,15.47,6.23,17.25,11.26-2.27,13.86-11.7Z"/>
      <path d="M445.7,980.1l-32.75-9.04c-1.77,7.28.22,12.61,6.55,14.35,4.66,1.29,7.63.07,9.49-3.23l14.65,4.04c-4.51,10.7-14.2,15.08-27.41,11.43-16.54-4.56-22.97-17.21-18.03-35.08s17.17-25.85,33.15-21.43c15.43,4.26,20.97,16.66,16.89,31.42-.52,1.89-1.49,4.97-2.56,7.54ZM433.53,965.75c2.11-7.66.16-12.26-5.28-13.76-5.88-1.62-10.32,1.45-12.48,8.86l17.76,4.9Z"/>
      <path d="M499.87,995.05l-32.75-9.04c-1.77,7.28.22,12.61,6.55,14.35,4.66,1.29,7.63.07,9.49-3.23l14.65,4.04c-4.51,10.7-14.2,15.08-27.41,11.43-16.54-4.56-22.97-17.21-18.03-35.08s17.17-25.85,33.15-21.43,20.97,16.66,16.89,31.42c-.52,1.89-1.49,4.97-2.56,7.54ZM487.7,980.7c2.11-7.66.16-12.26-5.28-13.76-5.88-1.62-10.32,1.45-12.48,8.86l17.76,4.9Z"/>
    </g>
  </g>
  <g>
    <rect class="cls-5" x="279.43" y="704.29" width="255.17" height="93.13" transform="translate(-182.18 132.55) rotate(-15.16)"/>
    <rect class="cls-5" x="282.99" y="638.06" width="210.36" height="95.57" transform="translate(-165.83 125.36) rotate(-15.16)"/>
    <g>
      <path d="M322.82,722.7l-1.59-5.86,45.33-12.28,1.59,5.86-45.33,12.28ZM357.99,704.41l-7.35,1.21c-.49-5.37-2.5-17.27-4.62-23.95l-27.25,7.38-1.62-5.97,34.63-9.38c3.48,12.17,5.63,24.34,6.2,30.71Z"/>
      <path d="M377.2,703.5c-1.69.46-4.11,1.11-5.08,1.32l-5.77-21.28,11.32-3.07-1.8-6.64-11.37,3.08-1.68-6.19,18.75-5.08,5.19,19.14-11.37,3.08,2.4,8.84c2.87-.78,10.1-3.1,13.31-4.87.77,1.97,1.41,3.85,2.18,5.82-3.23,1.9-10.6,4.38-16.06,5.86ZM409.11,706.82l-6.8-25.11-3.49.95,6.18,22.8-6.98,1.89-12.74-47.02,6.98-1.89,4.94,18.24,3.49-.95-5.17-19.09,7.09-1.92,13.59,50.17-7.09,1.92Z"/>
      <path d="M447.54,672.48c-6.37,2.81-19.69,7.39-29.6,10.08l-2.62-6.12c1.89-.39,4.08-.99,6.28-1.58-1.44-3.54-2.87-7.26-4.19-10.77l6.98-2.56c1.15,3.8,2.39,7.69,3.59,11.48l4.59-1.36c-.78-3.78-1.73-7.93-2.44-11.67,2.4-.53,4.85-.83,7.26-1.3l1.66,10.79c2.47-.91,4.62-1.68,6.35-2.44l2.14,5.46ZM413.48,662.54l-1.59-5.86,26.8-7.26,1.59,5.86-26.8,7.26ZM459.09,674.73l4.7,17.34-7.54,2.04-3.1-11.43-26.69,7.23-1.6-5.91,34.23-9.27ZM451.03,674.86l-8.34-30.8,7.54-2.04,8.34,30.8-7.54,2.04Z"/>
      <path d="M349.39,768.68l1.82,6.7-2.03.55c2.19,9.86-1.7,16.48-10.48,18.86-10.42,2.82-18.36-3.31-21.96-16.59s.4-22.17,10.76-24.97c9.29-2.52,15.37.97,18.11,9.3l-8.78,2.38c-1.35-3.87-3.67-5.29-7.33-4.3-4.95,1.34-6.1,6.25-3.74,14.97,2.59,9.57,6.03,13.11,11.27,11.69,3.72-1.01,5.23-4.14,3.94-9.11l-6.53,1.77-1.82-6.7,16.78-4.55Z"/>
      <path d="M358.33,788.32l-7.31-26.97,7.6-2.06,1.71,6.31c-.51-4.57,1.44-7.64,4.76-8.54.68-.18,1.03-.22,1.55-.3l2.2,8.11c-.71.07-.88.12-1.61.31-4.05,1.1-5.19,4.25-3.59,10.16l2.91,10.75-8.22,2.23Z"/>
      <path d="M371.9,770.14c-2.3-8.5.38-15.33,6.91-17.1,3.55-.96,6.56-.09,8.83,2.68l-1.08-4,8.22-2.23,7.31,26.97-8.22,2.23-1.08-4c-.57,3.48-2.72,5.81-6.26,6.77-6.53,1.77-12.29-2.77-14.61-11.33ZM390.42,765.12c-1.27-4.67-3.88-6.74-7.09-5.88s-4.38,3.91-3.1,8.64,3.78,6.83,7.05,5.95c3.21-.87,4.42-3.98,3.14-8.71Z"/>
      <path d="M430.51,754.26c2.32,8.56-.36,15.39-6.9,17.16-3.55.96-6.56.09-8.83-2.69l4.16,15.37-8.16,2.21-10.39-38.34,8.16-2.21,1.08,4c.55-3.53,2.72-5.81,6.26-6.77,6.53-1.77,12.3,2.77,14.6,11.28ZM422.18,756.52c-1.28-4.73-3.77-6.78-6.98-5.91s-4.48,3.99-3.21,8.67,3.9,6.8,7.16,5.92,4.32-3.89,3.03-8.68Z"/>
      <path d="M457.54,742.52l4.77,17.62-8.33,2.26-4.16-15.37c-1.01-3.72-2.53-5.12-5.07-4.43-2.82.76-3.43,3.17-2.32,7.28l3.95,14.58-8.22,2.23-10.68-39.41,8.22-2.23,4.41,16.27c.64-3.44,2.87-5.67,6.42-6.63,5.29-1.43,9.19,1.14,11.01,7.84Z"/>
      <path d="M456.58,724.47c-.81-2.98.81-5.72,3.74-6.51s5.76.74,6.57,3.72-.82,5.66-3.81,6.47-5.7-.75-6.5-3.68ZM467.38,758.78l-7.31-26.97,8.16-2.21,7.31,26.97-8.16,2.21Z"/>
      <path d="M475.66,742.03c-2.36-8.73,1.08-15.64,8.85-17.75s13.12.68,15.08,7.7l-8,2.17c-.9-2.66-2.62-3.64-5.1-2.97-2.93.79-3.94,3.97-2.68,8.64s3.63,6.93,6.78,6.08c2.31-.63,3.31-2.29,2.85-4.88l8-2.17c1.51,7.15-1.82,12.04-9.19,14.03-7.94,2.15-14.2-2.01-16.6-10.85Z"/>
    </g>
  </g>
</svg>