<?xml version="1.0" encoding="UTF-8"?>
<svg id="_레이어_1" data-name=" 레이어 1" xmlns="http://www.w3.org/2000/svg" viewBox="0 0 1675.73 1406.8">
  <defs>
    <style>
      .cls-1 {
        fill: #009698;
      }

      .cls-2 {
        stroke: #0054a4;
        stroke-miterlimit: 10;
      }

      .cls-2, .cls-3 {
        fill: #0081cc;
      }

      .cls-4 {
        fill: #e3d322;
      }

      .cls-5 {
        fill: #fff;
      }

      .cls-6 {
        fill: #fff100;
      }

      .cls-7 {
        fill: #e63082;
      }

      .cls-8 {
        fill: #00b3cd;
      }
    </style>
  </defs>
  <g>
    <path class="cls-4" d="M878.02,1102.87c-74.77,0-132.77,67.95-132.77,151.82s51.74,152.11,132.77,152.11h-150.68c-81.03,0-132.77-67.95-132.77-152.11s58-151.82,132.77-151.82h150.68Z"/>
    <path class="cls-6" d="M878.13,1406.8c80.74,0,129.08-77.62,129.08-152.11s-48.33-151.82-129.08-151.82c-74.77,0-132.77,67.95-132.77,151.82s51.74,152.11,132.77,152.11h0Z"/>
    <path class="cls-7" d="M877.7,1387.75c70.79,0,113.16-67.95,113.16-133.06s-42.36-132.77-113.16-132.77c-65.11,0-116,59.42-116,132.77s45.21,133.06,116,133.06Z"/>
  </g>
  <g>
    <path class="cls-3" d="M41.07,1051.84c-.12,2.86,1.4,4.97,6.53,5.5l1500.71,116.7c3.88.38,6.97-.36,10.47-2.38l111.69-70.67c2.13-1.32,3.75-2.81,4.24-4.36l.85-28.08c-.49,1.56-1.85,3.12-4.33,4.62l-116.04,68.51c-3.5,2.03-6.59,2.76-10.47,2.38L47.02,1027.78c-3.19-.13-5.58-3.07-6.57-4.56l.62,28.62h0Z"/>
    <path class="cls-7" d="M160.9,949.19l-117.68,69.48s-1.87,1.07-2.55,3.19.4,4.45,2.25,5.04c.97.31,2.72.84,4.15.93l1497.72,116.28c3.88.38,6.97-.36,10.47-2.38l116.04-68.51c6.74-4.14,5.63-9.63-2.21-10.13l-1497.72-116.28c-3.88-.38-6.97.36-10.47,2.38h0Z"/>
    <g>
      <polygon class="cls-8" points="1450.69 1015.19 1449.62 1080.81 1479.43 1083.2 1478.18 1016.7 1450.69 1015.19"/>
      <path class="cls-8" d="M1463.25,999.15l-45.66,26.52,26.63,2.72,46.25-26.49-27.21-2.75h-.01ZM1417.59,1025.68l1.91,75.16,25.26,2.03-.54-74.47-26.63-2.72h0Z"/>
      <polygon class="cls-1" points="1490.46 1001.92 1444.22 1028.4 1444.76 1102.87 1458.22 1095.12 1458.59 1035.42 1478.38 1023.42 1479.43 1083.2 1491.69 1075.79 1490.46 1001.92"/>
    </g>
    <g>
      <polygon class="cls-8" points="286.57 924.16 285.5 989.78 315.31 992.17 314.06 925.67 286.57 924.16"/>
      <path class="cls-8" d="M299.13,908.12l-45.66,26.52,26.63,2.72,46.25-26.49-27.21-2.75h-.01ZM253.47,934.65l1.91,75.16,25.26,2.03-.54-74.47-26.63-2.72h0Z"/>
      <polygon class="cls-1" points="326.34 910.89 280.1 937.37 280.64 1011.84 294.1 1004.09 294.47 944.39 314.26 932.39 315.31 992.17 327.57 984.76 326.34 910.89"/>
    </g>
  </g>
  <path class="cls-2" d="M703.84,448.6c-6.02-7.64-6.81-13.6-1.63-17.15,5.46-3.6,11.21-2.31,17.37,4.44,71.19,75.86,177.95,115.09,288.04,95.3,174.58-31.38,289.21-197.33,257.98-371.06-9.57-53.22-31.76-100.68-62.75-140.45-5.97-7.36-6.7-13.04-1.63-17.15,5.13-3.83,11.21-2.31,16.9,5.1,33.13,42.01,56.73,92.41,66.9,149.01,33.11,184.15-89.25,360.5-273.68,393.65-83.63,15.03-165.78-2.17-233.85-42.84-11.42-6.96-16.17-2.62-11.35,9.6,9.12,21.61,15.9,44.81,20.21,68.75,33.11,184.15-89.25,360.5-273.68,393.65-117.14,21.06-230.84-21.29-306.94-101.78-6.54-7.25-7.09-13.55-2.19-17.05,5.46-3.6,11.21-2.31,17.37,4.44,71.19,75.86,177.95,115.09,288.04,95.3,174.58-31.38,289.21-197.33,257.98-371.06-9.97-55.47-33.34-103.01-63.08-140.68v-.02Z"/>
  <rect class="cls-5" x="10.91" y="694.24" width="415.06" height="163.96" transform="translate(134.96 -25.82) rotate(9.78)"/>
  <g>
    <path d="M98.64,717.37c19.07,3.28,27.93,16.26,24.9,33.85s-15.86,26.95-34.81,23.68l-6.7-1.15-3.77,21.9-17.48-3.01,13.69-79.44,24.17,4.16ZM90.28,761.15c8.4,1.45,13.71-3.6,15.33-13.02s-1.69-15.95-10.09-17.4l-5.9-1.02-5.24,30.41,5.9,1.02Z"/>
    <path d="M176.19,812.53l-19.29-3.32-7.12-23.78-6.7-1.15-3.77,21.9-17.48-3.01,13.69-79.44,24.17,4.16c19.07,3.28,27.93,16.26,24.9,33.85-1.96,11.35-8.11,19.29-17.33,22.61l8.93,28.18ZM150.67,740.24l-5.24,30.41,5.9,1.02c8.4,1.45,13.71-3.6,15.33-13.02s-1.69-15.95-10.09-17.4l-5.9-1.02Z"/>
    <path d="M188.14,773.69c4.63-26.9,19.36-39.78,40.92-36.07s31.24,20.81,26.6,47.7c-4.63,26.9-19.36,39.79-41.03,36.05-21.56-3.71-31.12-20.79-26.49-47.68ZM237.28,782.15c2.97-17.25-.61-26.98-10.94-28.76s-16.96,6.19-19.93,23.44c-2.97,17.25.72,27,10.94,28.76s16.96-6.19,19.93-23.44Z"/>
    <path d="M264.59,827.76l10.99-63.78-16-2.76,2.7-15.66,49.48,8.52-2.7,15.66-16-2.76-10.99,63.78-17.48-3.01Z"/>
    <path d="M304.69,793.77c4.63-26.9,19.36-39.78,40.92-36.07,21.68,3.73,31.24,20.81,26.6,47.7-4.63,26.9-19.36,39.79-41.03,36.05-21.56-3.71-31.12-20.79-26.49-47.68ZM353.83,802.23c2.97-17.25-.61-26.98-10.94-28.76s-16.96,6.19-19.93,23.44c-2.97,17.25.72,27,10.94,28.76s16.96-6.19,19.93-23.44Z"/>
  </g>
  <rect class="cls-5" x="1028.59" y="848.63" width="500.61" height="93.13" transform="translate(-272.64 722.92) rotate(-28.66)"/>
  <rect class="cls-5" x="1031.96" y="788.63" width="426.72" height="95.57" transform="translate(-248.57 699.62) rotate(-28.66)"/>
  <g>
    <path d="M1089.28,896.43c7.06-3.86,15.13-2.35,18.8,4.35s.55,14.26-6.52,18.12-15.08,2.33-18.72-4.33c-3.66-6.71-.63-14.28,6.44-18.14ZM1104.66,941.14l-8.08-14.79,6.81-3.72,5.2,9.52,25.19-13.76,2.88,5.27-31.99,17.48ZM1098.45,913.22c3.38-1.85,4.89-5.4,3.02-8.83s-5.77-4.23-9.15-2.38-4.79,5.47-2.88,8.95,5.63,4.1,9.01,2.26ZM1122.64,916.49l-18.07-33.07,6.86-3.75,18.07,33.07-6.86,3.75Z"/>
    <path d="M1145.14,899.54c4.4-2.41,9.58-5.83,12.79-8.59,1.08,1.61,2.31,3.26,3.47,4.89-4.61,3.85-11.4,8.22-16.87,11.21-2.05,1.12-3.92,2.07-6,3.01l-16.92-30.97,20.89-11.41,2.88,5.27-14.18,7.75,3.8,6.96,12.59-6.88,2.94,5.37-12.59,6.88,4.34,7.93c.9-.42,1.85-.88,2.87-1.44ZM1173.77,904.84l-13.04-23.85-7.27,3.97-3.16-5.78,7.27-3.97-8.73-15.97,6.81-3.72,24.92,45.61-6.81,3.72Z"/>
    <path d="M1181.84,875.83l-3.43,1.87-7.94-14.54,10.65-5.82-1.99-3.63-10.7,5.85-2.88-5.27,17.56-9.59,7.72,14.13-10.7,5.85,2.21,4.04c.44-.17.9-.42,1.46-.73,3.28-1.79,8.68-5.28,10.35-6.85l3.33,4.76c-2.82,2.74-10.57,7.17-15.64,9.94ZM1217.39,860.72l8.56,15.66-6.76,3.69-5.65-10.34-25.29,13.82-2.91-5.32,32.04-17.51ZM1209.96,862.46l-6.32-11.57-3.02,1.65,6.07,11.11-6.35,3.47-14.71-26.93,6.35-3.47,5.68,10.39,3.02-1.65-6.13-11.21,6.45-3.52,15.41,28.21-6.45,3.52Z"/>
    <path d="M1245.33,843.13c-4.1.78-11.1-.72-14.7-3.54.85,4.72-1.66,11.81-5.3,15.73l-6.45-3.65c5.36-6.25,6.47-13.71,3.03-20l-3.52-6.45,6.96-3.8,3.33,6.09c3.61,6.6,10.33,9.18,17.16,8.04l-.51,7.59ZM1237.76,868.34l-7.69-14.08,6.76-3.69,4.81,8.8,24.88-13.6,2.88,5.27-31.64,17.29ZM1237.31,826.51l-2.99-5.48,6.65-3.64-3.58-6.55,6.91-3.78,18.07,33.07-6.91,3.78-6.63-12.13-6.65,3.64-2.97-5.43,6.65-3.64-1.9-3.48-6.65,3.64Z"/>
    <path d="M1292.34,818.84c5.94-3.24,11.65-6.9,14.71-9.7,1.21,1.73,2.45,3.38,3.74,5.14-3.49,3.1-10.55,7.69-17.57,11.53-2.51,1.37-4.97,2.58-7.43,3.93l-16.84-30.82,20.78-11.36,2.91,5.32-13.97,7.64,10.83,19.81c.95-.45,1.87-.96,2.84-1.49ZM1319.64,825.12l-24.92-45.61,6.76-3.69,24.92,45.61-6.76,3.69Z"/>
    <path d="M1351.53,794.33c-4.76-.19-13.07-2.63-16.99-6.27,1.35,5.64-.47,14.35-3.44,18.9l-6.82-2.99c5.26-8.86,4.82-17.33-.6-27.26l-.11-.2-8.75,4.78-3.08-5.63,24.52-13.4,3.08,5.63-8.8,4.81c5.4,9.88,12.6,14.19,21.82,14.14l-.82,7.5ZM1353.61,769.67l6.14-3.36,3.02,5.53-6.14,3.36,12.5,22.88-6.65,3.64-24.92-45.61,6.65-3.64,9.4,17.2Z"/>
    <path d="M1368.38,743.91c7.06-3.86,15.13-2.35,18.8,4.35,3.64,6.65.55,14.26-6.52,18.12s-15.08,2.33-18.72-4.33-.63-14.28,6.44-18.14ZM1383.77,788.62l-8.08-14.79,6.81-3.72,5.2,9.52,25.19-13.76,2.88,5.27-31.99,17.48ZM1377.55,760.7c3.38-1.85,4.89-5.4,3.02-8.83s-5.77-4.23-9.15-2.38-4.79,5.47-2.88,8.95,5.63,4.1,9.01,2.26ZM1401.74,763.97l-18.07-33.07,6.86-3.75,18.07,33.07-6.86,3.75Z"/>
    <path d="M1099.91,1019.71l-19.58-35.83,7.88-4.31,19.58,35.83-7.88,4.31Z"/>
    <path d="M1112.96,1012.58l-13.4-24.52,7.47-4.08,1.9,3.48c-.18-3.49,1.47-6.19,4.7-7.95,4.81-2.63,9.2-1.04,12.53,5.05l8.76,16.02-7.58,4.14-7.64-13.97c-1.85-3.38-3.61-4.41-5.91-3.15-2.61,1.43-2.65,3.91-.61,7.65l7.25,13.26-7.47,4.08Z"/>
    <path d="M1149.14,984.76l3.38,6.19c-1.14.96-2.28,1.78-3.72,2.56-4.5,2.46-9.16,1.61-12.04-3.66l-6.15-11.26-3.12,1.71-3.16-5.78,3.12-1.71-4-7.32,7.47-4.08,4,7.32,3.99-2.18,3.16,5.78-3.99,2.18,5.06,9.27c1.29,2.35,2.67,2.93,4.51,1.92.41-.22.79-.5,1.48-.94Z"/>
    <path d="M1171.32,967.32l-15.1,8.25c1.92,3.27,4.52,4.51,7.44,2.91,2.15-1.17,2.8-2.66,2.32-4.52l6.76-3.69c2.13,5.48.15,10.49-5.94,13.82-7.63,4.17-14.42,1.83-18.93-6.41s-2.86-15.45,4.51-19.48,13.5-1.33,17.22,5.48c.48.87,1.21,2.33,1.73,3.64ZM1161.84,966.39c-1.93-3.53-4.26-4.52-6.77-3.15-2.71,1.48-3.24,4.17-1.42,7.62l8.19-4.48Z"/>
    <path d="M1180.58,975.63l-13.4-24.52,6.91-3.78,3.13,5.73c-1.57-4.33-.39-7.77,2.63-9.42.61-.34.95-.45,1.44-.65l4.03,7.37c-.67.23-.82.32-1.49.68-3.69,2.01-4.06,5.34-1.12,10.72l5.34,9.78-7.47,4.08Z"/>
    <path d="M1189.52,954.78c-4.22-7.73-3.21-15,2.73-18.24,3.23-1.76,6.36-1.62,9.21.55l-1.99-3.63,7.47-4.08,13.4,24.52-7.47,4.08-1.99-3.63c.26,3.51-1.28,6.29-4.51,8.05-5.94,3.24-12.6.17-16.85-7.61ZM1206.37,945.58c-2.32-4.25-5.35-5.65-8.27-4.06s-3.35,4.82-1,9.12,5.27,5.76,8.24,4.14,3.37-4.9,1.02-9.2Z"/>
    <path d="M1217.06,939.74c-4.34-7.93-2.6-15.46,4.46-19.32,6.96-3.8,12.91-2.4,16.46,3.97l-7.27,3.97c-1.5-2.37-3.4-2.93-5.65-1.7-2.66,1.45-2.91,4.78-.58,9.03s5.15,5.89,8.02,4.33c2.1-1.15,2.68-3,1.63-5.41l7.27-3.97c3.14,6.59,1.04,12.13-5.66,15.79-7.22,3.94-14.28,1.36-18.67-6.68Z"/>
    <path d="M1259.29,924.57l3.38,6.19c-1.14.96-2.28,1.78-3.72,2.56-4.5,2.46-9.16,1.61-12.04-3.66l-6.15-11.26-3.12,1.71-3.16-5.78,3.12-1.71-4-7.32,7.47-4.08,4,7.32,3.99-2.18,3.16,5.78-3.99,2.18,5.06,9.27c1.29,2.35,2.67,2.93,4.51,1.92.41-.22.79-.5,1.48-.94Z"/>
    <path d="M1247.7,898c-1.48-2.71-.55-5.75,2.11-7.2s5.77-.63,7.26,2.08.52,5.7-2.19,7.18-5.72.6-7.18-2.06ZM1266.21,928.83l-13.4-24.52,7.42-4.06,13.4,24.52-7.42,4.06Z"/>
    <path d="M1270.34,910.62c-4.34-7.93-2.5-15.52,4.92-19.58,7.42-4.06,14.8-1.51,19.13,6.43s2.5,15.52-4.92,19.58-14.8,1.51-19.13-6.43ZM1286.98,901.53c-2.38-4.35-5.33-5.73-8.24-4.14s-3.35,4.82-.97,9.17,5.33,5.73,8.24,4.14,3.35-4.82.97-9.17Z"/>
    <path d="M1304.54,907.88l-13.4-24.52,7.47-4.08,1.9,3.48c-.18-3.49,1.47-6.19,4.7-7.95,4.81-2.63,9.2-1.04,12.53,5.05l8.76,16.02-7.58,4.14-7.64-13.97c-1.85-3.38-3.61-4.41-5.91-3.15-2.61,1.43-2.65,3.91-.61,7.65l7.25,13.26-7.47,4.08Z"/>
    <path d="M1341.34,887.77l-19.58-35.83,11.36-6.21c9.52-5.2,19.06-1.37,25.05,9.58,5.87,10.75,3.95,21.11-5.82,26.45l-11.01,6.01ZM1345.56,876.76l3.12-1.71c4.71-2.57,5.54-7.62,1.35-15.29-4.2-7.68-8.89-9.7-13.6-7.13l-3.12,1.71,12.25,22.42Z"/>
    <path d="M1387.26,849.32l-15.1,8.25c1.92,3.27,4.52,4.51,7.44,2.91,2.15-1.17,2.8-2.66,2.32-4.52l6.76-3.69c2.13,5.48.15,10.49-5.94,13.82-7.63,4.17-14.42,1.83-18.93-6.41s-2.86-15.45,4.51-19.48c7.12-3.89,13.5-1.33,17.22,5.48.48.87,1.21,2.33,1.73,3.64ZM1377.78,848.39c-1.93-3.53-4.26-4.52-6.77-3.15-2.71,1.48-3.24,4.17-1.42,7.62l8.19-4.48Z"/>
    <path d="M1391.13,850.93l7.37-4.03c1.01,1.84,2.8,2.46,4.8,1.36,1.54-.84,2.06-2.32,1.24-3.8-.62-1.13-1.78-1.55-3.28-1.26l-5.15,1.15c-4.59.98-8.11-.36-10.09-3.99-2.55-4.66-.3-9.67,5.38-12.78,5.99-3.27,11.48-2.35,14.05,2.36l-7.12,3.89c-1.01-1.84-2.59-2.31-4.33-1.36-1.48.81-2.06,2.19-1.36,3.47.62,1.13,1.78,1.55,3.47,1.23l5.44-1.11c4.51-.87,7.82.32,9.8,3.95,2.69,4.91.65,10.08-5.39,13.38-6.25,3.41-12.15,2.45-14.84-2.46Z"/>
    <path d="M1400.27,814.62c-1.48-2.71-.55-5.75,2.11-7.2s5.77-.63,7.26,2.08.52,5.7-2.19,7.18-5.72.6-7.18-2.06ZM1418.78,845.46l-13.4-24.52,7.42-4.06,13.4,24.52-7.42,4.06Z"/>
    <path d="M1432.82,805.94l7.47-4.08,13.4,24.52c2.41,4.4,2.52,8.26.74,11.56-1.32,2.32-3.39,4.25-6.42,5.9s-5.87,2.28-8.54,2.01c-3.06-.25-5.73-1.85-7.36-4.35l7.52-4.11c1.13,1.58,3.11,2.29,5.62.92,2.76-1.51,3.12-3.9,1.44-6.97l-2.66-4.86c.28,3.43-1.34,6.18-4.57,7.95-5.89,3.22-12.47.3-16.66-7.38-4.2-7.68-3.1-14.79,2.79-18.01,3.28-1.79,6.44-1.59,9.21.55l-1.99-3.63ZM1439.76,818.04c-2.32-4.25-5.35-5.65-8.27-4.06s-3.35,4.82-1,9.12,5.27,5.76,8.24,4.14,3.37-4.9,1.02-9.2Z"/>
    <path d="M1458.6,823.7l-13.4-24.52,7.47-4.08,1.9,3.48c-.18-3.49,1.47-6.19,4.7-7.95,4.81-2.63,9.2-1.04,12.53,5.05l8.76,16.02-7.58,4.14-7.64-13.97c-1.85-3.38-3.61-4.41-5.91-3.15-2.61,1.43-2.65,3.91-.61,7.65l7.25,13.26-7.47,4.08Z"/>
  </g>
</svg>