<?xml version="1.0" encoding="UTF-8"?>
<svg id="_레이어_1" data-name=" 레이어 1" xmlns="http://www.w3.org/2000/svg" viewBox="0 0 1765.08 1281.62">
  <defs>
    <style>
      .cls-1 {
        fill: #009698;
      }

      .cls-2 {
        fill: #dae24a;
      }

      .cls-3 {
        fill: #fff;
      }

      .cls-4 {
        fill: #0081cc;
      }

      .cls-5 {
        fill: #e5e972;
      }

      .cls-6 {
        fill: #ea5550;
      }

      .cls-7 {
        fill: #00b3cd;
      }

      .cls-8 {
        fill: #d11719;
      }
    </style>
  </defs>
  <g>
    <path class="cls-8" d="M1117.63,1051.33s2.3-26.88-56.3-21.36c-74.6,7.03-123.98,40.94-120.73,72.21,2.73,21.34-8.45,19.6-14.32,20.45-7.61,1.1-14.13,1.92-15.99-17.8-3.57-37.84,29.63-92.69,147.78-103.83,49.62-4.68,86.63,13.33,88.88,37.16"/>
    <path class="cls-8" d="M1125.11,1130.77s2.3-26.88-56.3-21.36c-74.6,7.03-123.98,40.94-120.73,72.21,2.73,21.34-8.45,19.6-14.32,20.45-7.61,1.1-14.13,1.92-15.99-17.8-3.57-37.84,29.63-92.69,147.78-103.83,49.62-4.68,86.63,13.33,88.88,37.16"/>
    <path class="cls-8" d="M1132.6,1210.21s2.3-26.88-56.3-21.36c-74.6,7.03-123.98,40.94-120.73,72.21,1.47,15.58-6.92,19.83-13.85,20.48-7.98.75-15.13-3.68-16.46-17.84-3.57-37.84,29.63-92.69,147.78-103.83,49.62-4.68,86.63,13.33,88.88,37.16"/>
    <path class="cls-8" d="M1110.14,971.89s2.3-26.88-56.3-21.36c-74.6,7.03-123.98,40.94-120.73,72.21,2.73,21.34-8.45,19.6-14.32,20.45-7.61,1.1-14.13,1.92-15.99-17.8-3.57-37.84,29.63-92.69,147.78-103.83,49.62-4.68,86.63,13.33,88.88,37.16"/>
    <path class="cls-6" d="M909.34,931.1c5.97-.56,15.21,1.94,16.35,14.06,1.88,19.95,34.68,51.86,122.31,43.6,38.16-3.6,61.36-21.58,60.76-27.95-1-10.6,6.38-16.77,14.23-17.51,8.86-.84,15.63,4.5,17.07,19.81,1.11,11.74-7.57,54.47-93.99,62.61-86.42,8.15-145.08-19.43-150.22-74-1.49-15.84,6.16-19.92,13.49-20.61h0Z"/>
    <path class="cls-6" d="M916.82,1010.53c5.97-.56,15.21,1.94,16.35,14.06,1.88,19.95,34.68,51.86,122.31,43.6,38.16-3.6,61.36-21.58,60.76-27.95-1-10.6,6.38-16.77,14.23-17.51,8.86-.84,15.63,4.5,17.07,19.81,1.11,11.74-7.57,54.47-93.99,62.61-86.42,8.15-145.08-19.43-150.22-74-1.49-15.84,6.16-19.92,13.49-20.61h0Z"/>
    <path class="cls-6" d="M924.31,1089.97c5.97-.56,15.21,1.94,16.35,14.06,1.88,19.95,34.68,51.86,122.31,43.6,38.16-3.6,61.36-21.58,60.76-27.95-1-10.6,6.38-16.77,14.23-17.51,8.86-.84,15.63,4.5,17.07,19.81,1.11,11.74-7.57,54.47-93.99,62.61-86.42,8.15-145.08-19.43-150.22-74-1.49-15.84,6.16-19.92,13.49-20.61h0Z"/>
    <path class="cls-6" d="M931.8,1169.41c5.97-.56,15.21,1.94,16.35,14.06,1.88,19.95,34.68,51.86,122.31,43.6,38.16-3.6,61.36-21.58,60.76-27.95-1-10.6,6.38-16.77,14.23-17.51,8.86-.84,15.63,4.5,17.07,19.81,1.11,11.74-7.57,54.47-93.99,62.61-86.42,8.15-145.08-19.43-150.22-74-1.49-15.84,6.16-19.92,13.49-20.61h0Z"/>
    <circle class="cls-6" cx="940.93" cy="1267.26" r="10.74"/>
  </g>
  <g>
    <path class="cls-4" d="M1764.66,680.34h.01l-.07-.2c-.05-.16-.11-.33-.17-.49l-4.72-13.39c-.12-.48-.29-.94-.49-1.38l-.04-.11h0c-8.51-18.76-81.92-14.24-179.46,14.17L493.01,997.57c-172.61,52.57-272.42,110.32-268.01,144.08h0c.21,1.59.72,3.04,1.48,4.39l3.85,11.43c6.03,24.19,83.53,17.8,157.59-2.72l1079.6-319.45c162.18-47.53,301.73-120.83,297.47-153.5-.07-.51-.18-.99-.33-1.47h0Z"/>
    <path class="cls-2" d="M493.01,997.57c-172.61,52.57-272.42,110.32-268.01,144.08,3.37,25.82,82.41,19.58,157.87-1.32l1079.6-319.45c162.18-47.53,301.73-120.83,297.47-153.5-2.84-21.74-78.38-18.11-180.22,11.55L493.01,997.57Z"/>
  </g>
  <g>
    <path class="cls-7" d="M237.31,434.43c-2.31-5-.97-13.67,2.3-20.02,2.5-5.2,6.73-12.51,9.62-15.4,10.01-10.01,35.8-10.79,46.97,11.54,32.16,64.47,63.16,117.78,141.52,196.1,150.36,150.29,394.06,237.61,599.61,191.37,118.17-26.59,227.49-83.2,299.06-197.55,24.63-39.27,42.32-84.7,52.12-153.8,10.76-75.84-2.74-172.46-37.02-255.22-2.31-5.77-.77-9.24,2.31-15.4,2.5-4.81,6.93-13.09,10.58-16.75,16.74-16.75,42.54-2.13,49.28,16.54,72.42,197.85,57.84,389.94-107.85,555.71-234.96,235.07-662.67,169.34-914.09-81.97-78.16-78.12-118.21-136.62-154.41-215.15Z"/>
    <path class="cls-5" d="M1367.23,183.21c5.2-5.2,13.66-6.36,22.33,2.3,1.73,1.73,5.01,10.39,8.67,20.21,26.96,72.36,102.28,313.52-101.89,517.79-128.74,128.8-349.88,161.38-518.89,121.77-205.77-48.26-323.97-149.48-375.96-201.43-91.06-91.02-135.16-171.28-150.76-209.57-2.5-5.97,1.15-10.78,2.69-12.32,5.58-5.58,15.98-1.74,19.25,1.54,2.7,2.69,5.2,7.51,8.86,15.4,21.18,45.8,63.35,114.12,138.05,188.79,58.53,58.5,188.86,158.36,368.45,194.7,196.91,39.8,382.83-14.14,487.9-119.26,142.01-142.08,155.83-330.71,95.54-493.34-4.43-11.74-9.05-21.75-4.24-26.56v-.02Z"/>
    <path class="cls-1" d="M1352.83,571.05c-18.41,31.24-43.62,70.25-92.47,115.35-203.26,187.65-588.51,154.31-822.66-79.73-78.36-78.32-109.36-131.63-141.52-196.1-11.17-22.32-36.96-21.55-46.97-11.54-2.89,2.89-7.12,10.2-9.62,15.4,11.93-14.63,32.33-10.02,43.5,1.14,6.55,6.54,11.55,20.78,16.95,31.18,22.15,42.92,61.71,97.25,133.14,168.64,253.09,252.96,651.85,257.83,832.89,76.7,66.21-66.24,86.77-121.05,86.77-121.05h-.01Z"/>
    <path class="cls-1" d="M1353.67,176.19c2.5-4.81,6.93-13.09,10.58-16.75,16.74-16.75,42.54-2.13,49.28,16.54,72.42,197.85,57.84,389.94-107.85,555.71,57.15-57.18,86.2-107.42,95.44-127.06,43.1-74.69,59.04-212.32,35.15-316.25-10.98-47.54-27.55-101.81-37.94-112.2-14.25-14.24-35.8-13.85-44.65.01h-.01Z"/>
  </g>
  <rect class="cls-3" x="12.32" y="220.67" width="470.65" height="163.96" transform="translate(73.28 -47.38) rotate(12.81)"/>
  <g>
    <path d="M57.96,303.56l17.88-78.6,17.29,3.93-7.3,32.11,20.21,4.6,7.3-32.11,17.29,3.93-17.88,78.6-17.29-3.93,7.18-31.55-20.21-4.6-7.18,31.55-17.29-3.93Z"/>
    <path d="M178.69,248.35l18.3,4.16-50.55,71.17-18.53-4.21,17.66-24.68-8.99-56.02,18.42,4.19,3.95,37.15,19.74-31.77Z"/>
    <path d="M225.51,258.99c18.86,4.29,27.03,17.72,23.07,35.13s-17.27,26.07-36.02,21.81l-6.62-1.51-4.93,21.67-17.29-3.93,17.88-78.6,23.92,5.44ZM214.84,302.27c8.31,1.89,13.88-2.87,16-12.19s-.84-16.02-9.15-17.91l-5.84-1.33-6.84,30.09,5.84,1.33Z"/>
    <path d="M244.12,345.9l17.88-78.6,17.29,3.93-7.3,32.11,20.21,4.6,7.3-32.11,17.29,3.93-17.88,78.6-17.29-3.93,7.18-31.55-20.21-4.6-7.18,31.55-17.29-3.93Z"/>
    <path d="M310.82,361.06l17.88-78.6,41.66,9.47-3.19,14.04-24.37-5.54-4.19,18.42,24.37,5.54-3.12,13.7-24.37-5.54-4.19,18.42,24.37,5.54-3.19,14.04-41.66-9.47Z"/>
    <path d="M363.37,373.02l17.88-78.6,15.83,3.6,11.41,55.27,11.39-50.08,15.83,3.6-17.88,78.6-15.83-3.6-11.79-53.58-11.01,48.4-15.83-3.6Z"/>
  </g>
  <rect class="cls-3" x="86.04" y="146.91" width="699.33" height="93.13" transform="translate(126.12 -169.05) rotate(25.56)"/>
  <rect class="cls-3" x="257.93" y="84.56" width="413.64" height="95.57" transform="translate(102.58 -187.57) rotate(25.56)"/>
  <g>
    <path d="M328.16,82.41c-2.91-4.05-5.89-11.74-5.05-17.03-3.53,4.26-11.76,7.69-17.06,7.81l-1.8-7.46c10.39-.91,17.11-6.3,21.82-16.14l3.1-6.47,7.26,3.47-2.99,6.26c-4.68,9.79-3.96,18.28,1.45,25.91l-6.72,3.64ZM329.11,95.99l22.43-46.89,7.1,3.4-22.43,46.89-7.1-3.4Z"/>
    <path d="M354.12,83.83l-.07-6.89c9.46,2.39,19.57.18,23.24-5.18l-14.47-6.92,2.74-5.74,22.31,10.67c-6.64,12.8-18.7,16.66-33.75,14.06ZM372.55,117.09l5.81-12.16-24.79-11.85,2.64-5.53,31.79,15.2-8.46,17.68-7-3.35ZM394.09,89.76l-5.11,10.68-6.95-3.32,13.01-27.21,6.95,3.32-5.21,10.89,6.53,3.12-2.69,5.63-6.53-3.12Z"/>
    <path d="M394.73,111.79c.57-1.99,1.13-3.99,1.75-5.95,3.68,1.76,7.29,3.42,10.92,5.03l.88-1.84c-4.31-3.03-6.09-6.73-4.63-9.78,1.91-4,7.77-4.62,14.56-1.38s10.03,8.23,8.1,12.28c-1.48,3.1-5.77,3.96-11.02,2.36l-.68,1.42c3.76,1.47,7.43,2.84,11.21,4.13-.7,1.86-1.45,3.7-2.2,5.54-9.68-3.27-21.78-8.41-28.88-11.81ZM405.24,90.76l2.44-5.1,26.58,12.71-2.44,5.1-26.58-12.71ZM393.55,126.29l5.18-10.84,6.95,3.32-2.59,5.42,25.73,12.31-2.59,5.42-32.68-15.63ZM417.86,82.63l13,6.22-2.34,4.89-13-6.22,2.34-4.89ZM415.97,102.54c-3.05-1.46-4.95-1.27-5.56,0-.48,1,.46,2.68,3.57,4.16s4.95,1.14,5.43.14c.6-1.26-.28-2.79-3.44-4.3ZM440.57,111.27l5.37,2.57-2.72,5.68-5.37-2.57-7.27,15.21-6.89-3.3,17.62-36.84,6.89,3.3-7.63,15.95Z"/>
    <path d="M445.27,128.07l-.07-6.76c9.36,2.34,19.7-.08,23.44-5.6l-14.52-6.95,2.72-5.68,22.31,10.67c-6.53,12.72-18.96,17.06-33.88,14.32ZM456.87,157.09c-10-4.78-14.11-11.47-11.29-17.36s10.65-7,20.65-2.21,14.29,11.62,11.45,17.57-10.6,6.89-20.81,2.01ZM463.59,143.04c-5.47-2.62-9.49-2.47-10.75.16s1.17,5.8,6.64,8.42c5.79,2.77,9.73,2.65,10.99.02s-1.09-5.83-6.88-8.59ZM475.44,140.82l2.01-4.21-7.53-3.6,2.57-5.37,7.53,3.6,1.96-4.1-7.16-3.42,2.54-5.32,7.16,3.42,3.55-7.42,7.1,3.4-12.63,26.42-7.1-3.4Z"/>
    <path d="M499.88,157.03c6.1,2.92,12.41,5.42,16.47,6.26-.7,2-1.31,3.96-1.98,6.04-4.56-1.02-12.41-4.06-19.62-7.51-2.58-1.23-5-2.52-7.53-3.73l15.15-31.68,21.37,10.22-2.62,5.47-14.37-6.87-9.74,20.37c.92.51,1.87.96,2.87,1.44ZM510.75,182.86l22.43-46.89,6.95,3.32-22.43,46.89-6.95-3.32Z"/>
    <path d="M554.38,190.73c-2.63-3.97-5.51-12.14-4.85-17.45-3.78,4.4-11.91,8.01-17.34,8.26l-1.56-7.28c10.26-.91,16.88-6.22,21.76-16.43l.1-.21-9-4.3,2.77-5.79,25.21,12.06-2.77,5.79-9.05-4.33c-4.86,10.16-4.14,18.52,1.29,25.97l-6.56,3.72ZM575.6,177.99l6.31,3.02-2.72,5.68-6.31-3.02-11.25,23.52-6.84-3.27,22.43-46.89,6.84,3.27-8.46,17.68Z"/>
    <path d="M605.13,174.91c7.26,3.47,10.76,10.9,7.46,17.79s-11.25,8.78-18.51,5.31-10.71-10.87-7.43-17.72,11.22-8.86,18.48-5.39ZM577.86,213.53l7.27-15.21,7,3.35-4.68,9.79,25.89,12.38-2.59,5.42-32.89-15.73ZM596.87,192.17c3.47,1.66,7.24.81,8.93-2.71s.06-7.15-3.42-8.81c-3.47-1.66-7.24-.68-8.95,2.9s-.03,6.97,3.44,8.63ZM608.37,213.7l16.26-34,7.05,3.37-16.26,34-7.05-3.37Z"/>
    <path d="M150.83,83.2l6.99-41.92,8.63,4.13-6.34,28.52,18.23-22.84,8.58,4.1-28.25,31.75-7.84-3.75Z"/>
    <path d="M185.85,60.12c1.33-2.79,4.34-3.81,7.08-2.5s3.89,4.32,2.55,7.1-4.32,3.75-7.11,2.42-3.83-4.29-2.52-7.03ZM171.66,93.17l12.06-25.21,7.63,3.65-12.06,25.21-7.63-3.65Z"/>
    <path d="M186.47,90.87l7.58,3.62c-.91,1.89-.35,3.71,1.7,4.69,1.58.76,3.08.31,3.81-1.22.55-1.16.22-2.35-.89-3.4l-3.95-3.51c-3.47-3.15-4.45-6.78-2.66-10.52,2.29-4.79,7.67-5.9,13.51-3.11,6.16,2.94,8.62,7.94,6.3,12.78l-7.31-3.5c.91-1.89.36-3.45-1.43-4.31-1.53-.73-2.98-.39-3.61.92-.55,1.16-.22,2.35,1.03,3.53l4.08,3.76c3.34,3.15,4.31,6.53,2.53,10.26-2.42,5.05-7.79,6.42-14,3.45s-9.1-8.42-6.68-13.48Z"/>
    <path d="M211.22,100.77l7.65-16,7.74,3.7-7.12,14.89c-1.43,3-1.06,5.05,1.2,6.14s4.51-.1,6.12-3.47l6.8-14.21,7.68,3.67-12.06,25.21-7.68-3.67,1.74-3.63c-2.54,2.21-5.43,2.71-9.17.92-4.84-2.32-5.92-7.23-2.9-13.54Z"/>
    <path d="M238.79,109.75c3.8-7.95,10.29-11.37,16.39-8.45,3.32,1.59,5.03,4.22,4.94,7.79l1.79-3.74,7.68,3.67-12.06,25.21-7.68-3.67,1.79-3.74c-2.7,2.26-5.85,2.63-9.17,1.05-6.1-2.92-7.51-10.12-3.68-18.12ZM256.11,118.03c2.09-4.37,1.46-7.64-1.54-9.08s-5.87.1-7.98,4.52-1.59,7.65,1.46,9.11,5.95-.13,8.06-4.55Z"/>
    <path d="M262.8,136.75l17.62-36.84,7.68,3.67-17.62,36.84-7.68-3.67Z"/>
    <path d="M286.16,147.92l17.62-36.84,19.52,9.34-3.15,6.58-11.42-5.46-4.13,8.63,11.42,5.46-3.07,6.42-11.42-5.46-4.13,8.63,11.42,5.46-3.15,6.58-19.52-9.34Z"/>
    <path d="M310.52,159.58l12.06-25.21,7.68,3.67-1.71,3.58c2.73-2.19,5.88-2.43,9.2-.84,4.95,2.37,6.23,6.86,3.23,13.12l-7.88,16.47-7.79-3.73,6.87-14.37c1.66-3.47,1.47-5.51-.9-6.64-2.68-1.28-4.72.13-6.56,3.98l-6.52,13.63-7.68-3.67Z"/>
    <path d="M343.83,175.51l2.95-29.56,8.05,3.85-2.95,17.66,11.9-13.39,8.1,3.88-21.21,20.83-6.84-3.27Z"/>
    <path d="M376.7,151.39c1.33-2.79,4.34-3.81,7.08-2.5s3.89,4.32,2.55,7.1-4.32,3.75-7.11,2.42-3.83-4.29-2.52-7.03ZM362.51,184.44l12.06-25.21,7.63,3.65-12.06,25.21-7.63-3.65Z"/>
    <path d="M375.19,190.5l12.06-25.21,7.1,3.4-2.82,5.89c2.59-3.8,6.07-4.85,9.18-3.37.63.3.92.51,1.37.79l-3.62,7.58c-.58-.41-.74-.48-1.42-.81-3.79-1.81-6.71-.17-9.35,5.36l-4.81,10.05-7.68-3.67Z"/>
    <path d="M397.39,185.6c3.9-8.16,11.13-11.1,18.76-7.45s9.87,11.12,5.97,19.28-11.13,11.1-18.76,7.45-9.88-11.12-5.97-19.28ZM414.49,193.78c2.14-4.47,1.54-7.67-1.46-9.11s-5.87.1-8.01,4.58-1.54,7.67,1.46,9.11,5.87-.1,8.01-4.58Z"/>
    <path d="M419.6,211.74l12.06-25.21,7.68,3.67-1.71,3.58c2.73-2.19,5.88-2.42,9.2-.84,4.95,2.37,6.23,6.86,3.23,13.12l-7.88,16.47-7.79-3.73,6.87-14.37c1.66-3.47,1.47-5.51-.9-6.64-2.68-1.28-4.72.13-6.56,3.98l-6.52,13.63-7.68-3.67Z"/>
    <path d="M446.96,224.83l12.06-25.21,7.68,3.67-1.71,3.58c2.44-2.26,5.46-2.63,8.67-1.09,3.47,1.66,4.93,4.3,4.47,7.83,2.49-2.24,5.79-2.92,9.27-1.26,5.16,2.47,6.37,7.38,3.32,13.74l-7.65,16-7.74-3.7,7.22-15.1c1.36-2.84,1.12-4.77-.94-5.75-2.37-1.13-4.38.23-5.94,3.5l-6.82,14.26-7.74-3.7,7.22-15.1c1.36-2.84,1.12-4.77-.94-5.75-2.37-1.13-4.38.23-5.94,3.5l-6.82,14.26-7.68-3.67Z"/>
    <path d="M514.43,244.1l-15.52-7.42c-1.53,3.47-1.01,6.31,1.99,7.74,2.21,1.06,3.8.72,5.02-.77l6.95,3.32c-3.2,4.94-8.42,6.25-14.68,3.26-7.84-3.75-9.92-10.63-5.87-19.1s10.86-11.36,18.44-7.73,8.97,10.18,5.62,17.17c-.43.89-1.18,2.34-1.95,3.53ZM509.64,235.86c1.74-3.63,1.17-6.1-1.41-7.33-2.79-1.33-5.27-.19-7.01,3.31l8.42,4.03Z"/>
    <path d="M513.11,256.46l12.06-25.21,7.68,3.67-1.71,3.58c2.73-2.19,5.88-2.42,9.2-.84,4.95,2.37,6.23,6.86,3.23,13.12l-7.88,16.47-7.79-3.73,6.87-14.37c1.66-3.47,1.47-5.51-.9-6.64-2.68-1.28-4.72.13-6.56,3.98l-6.52,13.63-7.68-3.67Z"/>
    <path d="M556.83,269.55l-3.05,6.37c-1.44-.37-2.78-.81-4.25-1.52-4.63-2.21-6.66-6.48-4.07-11.9l5.54-11.58-3.21-1.53,2.84-5.95,3.21,1.53,3.6-7.53,7.68,3.67-3.6,7.53,4.1,1.96-2.84,5.95-4.1-1.96-4.56,9.53c-1.16,2.42-.82,3.88,1.08,4.78.42.2.87.35,1.63.65Z"/>
    <path d="M567.88,282.66l17.62-36.84,11.68,5.59c9.79,4.68,12.26,14.66,6.87,25.92-5.29,11.05-14.81,15.55-24.86,10.74l-11.31-5.41ZM579.28,279.64l3.21,1.54c4.84,2.32,9.42.04,13.2-7.85s2.67-12.88-2.17-15.2l-3.21-1.54-11.02,23.05Z"/>
    <path d="M625.93,297.43l-15.52-7.42c-1.53,3.47-1.01,6.31,1.99,7.74,2.21,1.06,3.8.72,5.02-.77l6.95,3.32c-3.2,4.93-8.42,6.25-14.68,3.26-7.84-3.75-9.92-10.63-5.87-19.1s10.86-11.36,18.44-7.73,8.97,10.18,5.62,17.17c-.43.89-1.19,2.34-1.95,3.53ZM621.14,289.19c1.74-3.63,1.17-6.1-1.41-7.33-2.79-1.33-5.27-.19-7.01,3.31l8.42,4.03Z"/>
    <path d="M626.88,301.5l7.58,3.62c-.91,1.89-.35,3.71,1.7,4.69,1.58.76,3.08.31,3.81-1.22.55-1.16.22-2.35-.89-3.4l-3.95-3.51c-3.47-3.15-4.45-6.78-2.66-10.52,2.29-4.79,7.67-5.9,13.51-3.11,6.16,2.94,8.62,7.94,6.3,12.78l-7.31-3.5c.91-1.89.36-3.45-1.43-4.31-1.53-.73-2.98-.39-3.61.92-.55,1.16-.22,2.35,1.03,3.53l4.08,3.76c3.34,3.15,4.32,6.53,2.53,10.26-2.42,5.05-7.79,6.42-14,3.45s-9.1-8.42-6.68-13.48Z"/>
    <path d="M661.68,287.69c1.33-2.79,4.34-3.81,7.08-2.5s3.89,4.32,2.55,7.1-4.32,3.75-7.11,2.42-3.83-4.29-2.52-7.03ZM647.49,320.74l12.06-25.21,7.63,3.65-12.06,25.21-7.63-3.65Z"/>
    <path d="M687.75,309.02l7.68,3.67-12.06,25.21c-2.16,4.53-5.23,6.88-8.95,7.36-2.66.28-5.43-.27-8.54-1.75s-5.28-3.43-6.62-5.75c-1.59-2.63-1.85-5.73-.78-8.52l7.74,3.7c-.62,1.84-.04,3.86,2.54,5.1,2.84,1.36,4.99.25,6.5-2.91l2.39-5c-2.62,2.24-5.8,2.53-9.12.94-6.05-2.89-7.53-9.94-3.76-17.83s10.19-11.16,16.24-8.27c3.37,1.61,5.06,4.29,4.94,7.79l1.79-3.74ZM682,321.72c2.09-4.37,1.46-7.64-1.54-9.08s-5.87.1-7.98,4.52-1.59,7.65,1.46,9.11,5.95-.13,8.06-4.55Z"/>
    <path d="M688.43,340.31l12.06-25.21,7.68,3.67-1.71,3.58c2.73-2.19,5.88-2.43,9.2-.84,4.95,2.37,6.23,6.86,3.23,13.12l-7.88,16.47-7.79-3.73,6.87-14.37c1.66-3.47,1.47-5.51-.9-6.64-2.68-1.28-4.72.13-6.56,3.98l-6.52,13.63-7.68-3.67Z"/>
  </g>
</svg>