<?xml version="1.0" encoding="UTF-8"?>
<svg id="_레이어_1" xmlns="http://www.w3.org/2000/svg" version="1.1" viewBox="0 0 90.5 90.5">
  <!-- Generator: Adobe Illustrator 29.5.1, SVG Export Plug-In . SVG Version: 2.1.0 Build 141)  -->
  <defs>
    <style>
      .st0 {
        fill: #00cdde;
      }

      .st1 {
        fill: #fff;
      }
    </style>
  </defs>
  <circle class="st0" cx="45.25" cy="45.25" r="45.25"/>
  <rect class="st1" x="22.82" y="22.82" width="44.87" height="44.87"/>
  <g>
    <polygon points="52.33 52.24 59.17 52.23 59.16 47.93 47.78 47.94 47.79 61.35 59.18 61.34 59.17 56.98 52.33 56.99 52.33 52.24"/>
    <rect x="32.81" y="30.19" width="7.49" height="2.73" transform="translate(-.04 .04) rotate(-.07)"/>
    <path d="M53.6,43.65c3.71,0,6.73-2.98,6.72-6.63,0-3.65-3.03-6.62-6.74-6.62s-6.73,2.98-6.72,6.63c0,3.65,3.03,6.62,6.74,6.62M50.9,37.03c0-1.46,1.21-2.65,2.69-2.65s2.69,1.18,2.69,2.65-1.2,2.65-2.69,2.65-2.69-1.19-2.69-2.65"/>
    <path d="M36.69,41.03c-1.07,0-1.94-.85-1.94-1.9s.87-1.91,1.93-1.91,1.94.85,1.94,1.9-.87,1.91-1.93,1.91M42.88,33.24h-12.64v3.57h.96c-.31.71-.48,1.49-.48,2.32,0,3.24,2.69,5.87,5.98,5.87s5.97-2.64,5.96-5.88c0-.82-.18-1.61-.49-2.32h.71s0-3.56,0-3.56Z"/>
    <polygon points="29.74 60.27 33.92 61.89 36.74 55.78 39.58 61.89 43.75 60.25 36.7 47.4 29.74 60.27"/>
  </g>
</svg>