<?xml version="1.0" encoding="UTF-8"?>
<svg id="_레이어_1" data-name="레이어 1" xmlns="http://www.w3.org/2000/svg" viewBox="0 0 32.03 25.02">
  <defs>
    <style>
      .cls-1 {
        fill: #030000;
      }
    </style>
  </defs>
  <path class="cls-1" d="M31.27,15.68c1.01.59,1.01,2.05,0,2.63l-11.19,6.45c-1.29.74-2.89-.19-2.89-1.67v-4.3s-10.99-.01-10.99-.01c-.4,0-.8-.04-1.18-.12-1.26-.27-2.4-.96-3.31-2.02C.61,15.33,0,13.62,0,11.81V0s3.62,0,3.62,0v11.81c-.01.95.29,1.83.85,2.48.48.57,1.11.88,1.75.88h10.99s0-4.29,0-4.29c0-1.48,1.61-2.41,2.89-1.67l11.18,6.47"/>
</svg>