<?xml version="1.0" encoding="UTF-8"?>
<svg id="_레이어_1" data-name=" 레이어 1" xmlns="http://www.w3.org/2000/svg" viewBox="0 0 870.98 623.48">
  <defs>
    <style>
      .cls-1 {
        fill: #cf2626;
      }

      .cls-2 {
        fill: #1dacb1;
      }

      .cls-3 {
        fill: #a6dce7;
      }

      .cls-4 {
        fill: #ff5353;
      }

      .cls-5 {
        fill: #00cadc;
      }
    </style>
  </defs>
  <g>
    <path class="cls-3" d="M.66,17c-1.08,1.49-1.02,3.16,1.54,5.27l762.23,596.83c1.94,1.58,3.86,2.29,6.46,2.45l84.99,1.92c1.61.05,3.01-.17,3.83-.83l10.45-14.74c-.82.66-2.1,1.01-3.96.94l-86.54-4.62c-2.6-.16-4.51-.87-6.46-2.45L12.42,6.24c-1.66-1.21-1.9-3.63-1.9-4.78L.66,17.01h0Z"/>
    <path class="cls-2" d="M765.48,619.87c1.61,1.05,3.28,1.55,5.41,1.68l84.99,1.92c1.61.05,3.01-.17,3.83-.83l10.45-14.74c-.82.66-2.1,1.02-3.96.94l-86.54-4.62c-1.27-.08-2.38-.29-3.41-.67"/>
    <path class="cls-5" d="M101.39,4.69L13.62,0s-1.38-.09-2.5.8c-1.06.85-1.37,2.52-.59,3.5.41.51,1.16,1.42,1.89,1.98l760.78,595.53c1.94,1.58,3.86,2.29,6.46,2.45l86.54,4.62c5.09.18,6.45-3.16,2.42-6.21L107.85,7.14c-1.94-1.58-3.86-2.29-6.46-2.45"/>
  </g>
  <polygon class="cls-4" points="768.7 499.26 744.77 534.03 759.88 545.92 782.89 509.86 768.7 499.26"/>
  <polygon class="cls-4" points="781.14 495.15 747.24 493.09 760.54 504.03 794.74 506.31 781.14 495.15"/>
  <polygon class="cls-4" points="747.24 493.09 721.51 534.03 734.31 544.11 760.54 504.03 747.24 493.09"/>
  <polygon class="cls-1" points="794.73 506.31 760.53 504.03 734.31 544.11 744.28 544.75 765.73 512.91 780.6 513.53 759.88 545.92 769.08 546.32 794.73 506.31"/>
</svg>