<?xml version="1.0" encoding="UTF-8"?>
<svg id="_레이어_1" data-name="레이어 1" xmlns="http://www.w3.org/2000/svg" viewBox="0 0 713.13 836.93">
  <defs>
    <style>
      .cls-1 {
        fill: #c5ed00;
      }

      .cls-2 {
        fill: #ff0;
      }

      .cls-3 {
        fill: #f4eb37;
      }

      .cls-4 {
        fill: #007ae2;
      }

      .cls-5 {
        fill: #83c511;
      }

      .cls-6 {
        fill: #00cadc;
      }
    </style>
  </defs>
  <path class="cls-3" d="M306.8,113.61c22.48-49.33,123.34-51.7,225.22-5.24,101.89,46.43,166.29,124.09,143.81,173.42-22.48,49.33-123.31,51.7-225.22,5.24-101.89-46.43-166.29-124.09-143.81-173.42Z"/>
  <path class="cls-1" d="M365.37,138.38c25.71,31.17,65.76,61.36,114.81,83.73,49.05,22.37,98.13,32.76,138.52,31.73l57.85,26.35,31.5-69.13c23.95-52.53-39.25-132.78-141.16-179.21-101.92-46.43-203.92-41.5-227.87,11.06l-31.5,69.13,57.85,26.35Z"/>
  <path class="cls-5" d="M294.82,412.43l79.44,42.14,83.92,32.28s172.16-105.2,208.68-185.39c36.54-80.19-80.33-161.55-137.37-187.54-57.02-25.99-195.12-60.83-231.66,19.36-36.54,80.19-3.01,279.12-3.01,279.12"/>
  <path class="cls-1" d="M261.73,642.39l44.57,20.31,255,116.21,5.6-18.27,43.15-257.2c1.03-3.79,1.67-7.69,1.92-11.67v-.22c3.62-56.68-67.07-133.08-172.14-180.96s-209.12-51.11-249.51-11.2l-.14.14c-2.84,2.81-5.35,5.85-7.55,9.11L16.81,509.91l-10.11,16.21,255,116.21.03.05Z"/>
  <path class="cls-2" d="M6.73,526.18c33.79-74.15,185.34-77.68,338.48-7.88,153.14,69.8,249.9,186.48,216.12,260.63-33.79,74.15-185.34,77.68-338.48,7.88C69.71,717.01-27.06,600.33,6.73,526.18Z"/>
  <path class="cls-6" d="M32.99,541.17c27.91-61.28,162.75-59.8,301.13,3.26,138.38,63.06,227.93,163.86,199.99,225.11-27.91,61.28-162.75,59.8-301.12-3.26-138.38-63.06-227.9-163.84-199.99-225.11Z"/>
  <path class="cls-4" d="M293.45,750.15l-7.41,7.35,7.19-7.41.22.06Z"/>
  <path class="cls-4" d="M241.87,721.66l44.54,35.04-44.54-35.04Z"/>
  <path class="cls-4" d="M107.92,617.49l99.6,78.3-6.99-3.26c12.03,5.63,19.22,14.65,16.52,20.39-2.7,5.79-13.2,6.54-26.27.47l24.26,11.31c13.06,6.07,23.56,5.29,26.27-.47.22-.47.36-1,.45-1.53l44.29,34.82,58.88,27.46.39-.81-69.86-54.93c32.42,14.9,63.17,19.78,82.59,20.83l-3.29-5.29-3.48-2.67c-11.31-.42-46.18-5.18-74.87-18.58-5.71-2.67-15.46-7.35-25.51-13.62l-21.53-16.94c-12.31-13.26-16.8-27.13-10.75-40.08,9.36-20.08,46.65-21.7,66.49-20.47l-2.54-4.15,91.19,51.05,23.29-21.56-1.95-1.09-115.2-64.48,107.01,34.04-6.29-34.43-115.31-36.68,5.9,32.2-53.42-29.92-23.29,21.56,1.95,1.09,78.82,44.12c-21.31-1.48-59.02,1.03-68.8,21.95-4.62,9.89-3.12,20.5,2.73,31l-41.98-33.01-58.88-27.46-.39.81-.03.03ZM190.78,713.39c13.06,6.1,23.57,5.29,26.27-.47,2.67-5.77-4.48-14.79-16.52-20.39-13.01-6.07-23.29-4.37-25.65.72-2.4,5.12,2.93,14.07,15.9,20.14ZM88.98,604.65c4.26-2.87,13.96-1.73,23.62,2.79l58.88,27.46c3.2,1.5,6.24,3.29,8.83,5.24l2.84,2.12.47-1.59c.47-1.56,1.06-3.12,1.75-4.6,6.16-13.23,21.75-21.48,46.29-24.54l2.31-.28-44.54-24.93c-5.29-2.95-9.64-6.63-11.92-10.05-2.34-3.48-2.48-6.46-.39-8.38l21.78-20.17c3.79-3.51,13.98-2.56,24.26,2.23,1.23.58,2.42,1.2,3.59,1.84l22.01,12.31-2.62-14.26c-.56-3.06,1.14-5.24,4.79-6.13,3.65-.89,8.83-.36,14.54,1.45l103,32.76c10.75,6.02,21.06,12.23,30.92,18.61.39.78.67,1.56.81,2.31l5.91,32.2c.56,3.06-1.14,5.24-4.79,6.13-3.65.89-8.83.36-14.54-1.45l-23.37-7.44,38.74,21.7c5.29,2.95,9.64,6.63,11.92,10.05,2.34,3.48,2.48,6.46.39,8.38l-21.78,20.17c-3.79,3.51-13.98,2.56-24.26-2.23-1.23-.56-2.42-1.2-3.59-1.84l-69.8-39.08h-.89c-10.67-.5-46.12-.59-54.37,17.1-4.68,10.03-5.6,30.11,40.89,51.81,19.61,9.14,48.44,13.87,58.83,14.23,4.76.2,10.47,1.73,16.07,4.32,3.4,1.59,6.6,3.51,9.3,5.57l3.48,2.67c2.87,2.2,5.12,4.54,6.49,6.77l3.29,5.29c3.9,6.27.28,10.47-8.58,9.97-7.94-.45-20.61-1.64-36.13-4.79l-3.56-.72,29.44,23.15c6.02,4.73,8.8,9.72,7.27,13.01l-.39.81c-.53,1.12-1.56,1.92-2.9,2.51-9.53-1.78-19.3-3.98-29.27-6.54l-52.23-24.34c-3.62-1.7-6.99-3.79-9.78-5.99l-23.31-18.33-1.34.11c-9.94.75-23.17-2.34-36.38-8.5l-24.26-11.31c-.95-.45-1.56-.75-2.17-1.09-22.42-11.11-35.57-27.41-30.67-37.94,1.56-3.31,4.85-5.77,9.53-7.05l1.23-.33-70.41-55.37c-6.02-4.73-8.8-9.72-7.27-13.01l.31-.7c.36-.81.95-1.5,1.78-2.06"/>
  <path class="cls-4" d="M329.66,558.05c10.19,4.76,20.08,9.75,29.69,14.9l-94.26-29.97c-6.82-2.17-13.01-2.79-17.35-1.76-4.35,1.06-6.38,3.65-5.71,7.3l1.95,10.67-15.71-8.8c-1.36-.78-2.81-1.5-4.26-2.2-12.28-5.71-24.46-6.85-28.97-2.67l-21.78,20.17c-2.48,2.28-2.31,5.85.47,10,2.79,4.15,7.85,8.41,14.26,12.01l38.52,21.56c-23.84,3.34-39.05,11.7-45.18,24.87-.5,1.06-.95,2.17-1.34,3.26-2.4-1.56-5.01-3.01-7.69-4.26l-58.88-27.46c-11.53-5.38-23.12-6.74-28.19-3.31-.97.67-1.7,1.5-2.12,2.45l-.31.67c-1.84,3.93,1.5,9.86,8.69,15.52l67.38,52.98c-4.43,1.48-7.58,3.96-9.11,7.27-5.35,11.45,9.11,29.27,33.62,41.42.64.33,1.39.7,2.17,1.06l24.62,11.48c13.87,6.46,27.83,9.86,38.58,9.39l20.56,16.16c3.29,2.65,7.32,5.13,11.64,7.16l42.23,19.69c-27.6-7.8-56.52-18.47-85.62-32.03-127.96-59.66-211.07-152.28-185.64-206.84,25.43-54.57,149.8-50.42,277.76,9.25"/>
  <path class="cls-4" d="M370.25,796.5l.39-.81c1.84-3.93-1.5-9.86-8.69-15.52l-23.73-18.66c14.32,2.73,26.01,3.82,33.51,4.23,10.58.58,14.9-4.43,10.25-11.89l-3.29-5.29c-1.64-2.65-4.32-5.43-7.74-8.08l-3.48-2.67c-3.23-2.48-7.05-4.76-11.09-6.66-6.68-3.12-13.51-4.96-19.19-5.15-9.89-.36-37.27-4.82-55.71-13.4-42.92-20.03-41.98-38.74-37.6-48.13,7.72-16.54,40.42-16.91,51.67-16.49l67.8,37.94c1.36.78,2.81,1.51,4.26,2.2,12.28,5.71,24.46,6.85,28.97,2.67l21.78-20.17c2.48-2.28,2.31-5.85-.47-10-2.79-4.15-7.86-8.41-14.23-12.01l-22.37-12.53,5.9,1.89c6.82,2.17,13.01,2.79,17.35,1.76,4.35-1.06,6.38-3.65,5.71-7.3l-5.9-32.2c0-.14-.08-.31-.11-.47,83.67,55.51,131.11,122.17,111.05,165.17-16.35,35.04-73.56,45.82-146.29,33.26.5-.47.95-1,1.23-1.61"/>
  <path class="cls-4" d="M266.3,599.07c2.34,1.67,2.9,3.43,1.61,4.99-1.31,1.56-3.29,1.48-5.63-.2-2.28-1.64-2.92-3.48-1.64-5.01,1.28-1.53,3.37-1.39,5.65.25"/>
  <path class="cls-4" d="M340.8,638.85c2.28,2.06,2.98,4.12,1.92,5.85l-6.91-6.24c1.14-1.73,2.87-1.5,4.99.39Z"/>
  <path class="cls-4" d="M321.45,628.01c2.28,2.06,2.98,4.12,1.92,5.85l-6.91-6.24c1.14-1.73,2.87-1.5,4.99.39Z"/>
  <path class="cls-4" d="M227.11,586.99l5.12,2.87,7.83-2.59-1.59,6.07,5.1,2.84,12.87-3.82-5.9-3.29-6.96,2.87,1.7-5.82-5.01-2.81-7.41,2.62,2.12-5.6-5.9-3.29-1.98,9.92.03.03ZM257.08,603.75l1.09-1.03c.14,1.37,1.53,2.81,4.07,4.21,4.65,2.59,9.22,2.84,11.59.67,2.34-2.17.89-5.29-3.76-7.91-2.54-1.42-4.82-2.03-6.68-1.81l1.11-1-5.85-3.29-7.41,6.88,5.85,3.29ZM280.36,617.23c6.1,3.4,10.89,4.21,13.31,1.95l-6.18-3.45c-1.17,1.09-3.04.89-5.21-.31-1.81-1-2.48-2.06-1.78-2.7.67-.64,2.03-.47,4.48.31l4.18,1.36c4.48,1.45,7.3,1.64,8.8.25,1.84-1.7-.5-4.79-5.88-7.8-5.9-3.29-10.08-3.87-12.31-1.84l6.07,3.4c1.03-.97,2.65-.78,4.51.25,1.73.97,2.31,1.89,1.7,2.48-.7.64-2.12.31-4.65-.47l-4.49-1.42c-4.46-1.36-6.91-1.39-8.33-.08-2.01,1.84.33,5.04,5.77,8.08ZM307.27,626.96l1.84-1.7-11.48-6.43-1.84,1.7,11.47,6.43ZM314.54,636.23c5.96,3.34,10.72,3.9,13.2,1.59s.58-5.57-5.18-8.8c-5.57-3.12-10-3.51-12.03-1.59-.28.25-.67.67-.92,1.09l11.84,6.63c-1.09.89-2.87.81-5.15-.47-1.67-.95-2.31-1.67-2.12-2.31l-5.29-2.95c-1.03,1.73.92,4.18,5.68,6.85M333.9,647.09c5.96,3.34,10.72,3.9,13.2,1.59,2.51-2.31.58-5.54-5.18-8.8-5.57-3.12-10-3.51-12.06-1.59-.28.25-.67.67-.92,1.09l11.84,6.63c-1.09.89-2.87.81-5.15-.47-1.67-.95-2.31-1.67-2.12-2.31l-5.29-2.95c-1.03,1.73.92,4.15,5.68,6.85M353.65,658.26c6.1,3.43,10.89,4.21,13.31,1.95l-6.18-3.45c-1.17,1.09-3.04.89-5.21-.31-1.81-1-2.48-2.06-1.78-2.7.67-.64,2.06-.47,4.48.31l4.18,1.36c4.49,1.45,7.3,1.64,8.8.25,1.84-1.7-.5-4.79-5.88-7.8-5.91-3.29-10.08-3.87-12.31-1.84l6.04,3.4c1.03-.97,2.65-.78,4.51.25,1.73.98,2.31,1.89,1.7,2.48-.7.64-2.12.31-4.65-.47l-4.49-1.45c-4.46-1.36-6.91-1.42-8.33-.08-2.01,1.84.33,5.04,5.77,8.08M220.11,560.94l171.47,96.01-20.28,18.77-171.47-96.01,20.28-18.77Z"/>
  <path class="cls-4" d="M297.58,575.68c3.84,1.22,6.16,3.65,6.77,7.13.64,3.48-1,4.65-4.85,3.43-3.9-1.22-6.16-3.65-6.77-7.13-.64-3.48.95-4.65,4.85-3.43Z"/>
  <path class="cls-4" d="M285.79,576.9c1,5.43,6.13,9.92,14.29,12.51,8.13,2.59,12.14,1.03,11.14-4.4-1-5.43-6.13-9.92-14.23-12.48-8.16-2.59-12.2-1.03-11.2,4.4M313.51,589.13c.53,2.95,4.73,6.04,10.5,7.88,6.49,2.06,9.92,1.39,9.25-2.2l-6.6-2.09c.31,1.73-.89,2.15-3.2,1.42-1.92-.61-3.23-1.67-3.43-2.7-.2-1,.72-1.28,2.81-1.17l3.59.22c3.82.22,5.6-.5,5.18-2.76-.5-2.73-4.6-5.68-10.33-7.52-6.3-2.01-9.16-1.25-8.58,2.01l6.46,2.06c-.28-1.53.78-1.89,2.76-1.25,1.84.59,3.01,1.53,3.18,2.45.19,1.03-.92,1.11-3.04,1.03l-3.82-.2c-3.73-.14-5.15.67-4.76,2.79M343.87,602.92l-2.92-16.02-6.57-2.09,2.92,16.04,6.57,2.09v-.03ZM346.12,599.49c.56,2.95,4.73,6.04,10.5,7.88,6.49,2.06,9.92,1.39,9.27-2.2l-6.57-2.09c.31,1.73-.89,2.15-3.2,1.42-1.92-.61-3.23-1.67-3.43-2.67-.2-1,.72-1.28,2.81-1.17l3.59.22c3.82.22,5.6-.5,5.18-2.76-.5-2.73-4.6-5.68-10.31-7.52-6.29-2-9.16-1.25-8.58,2.01l6.46,2.06c-.28-1.53.78-1.89,2.76-1.25,1.84.59,3.01,1.53,3.2,2.45.19,1.03-.92,1.11-3.04,1.03l-3.82-.2c-3.73-.14-5.15.67-4.76,2.79M376.82,592.67l5.49,30-107.01-34.04-5.49-30,107.01,34.04Z"/>
</svg>