<?xml version="1.0" encoding="UTF-8"?>
<svg id="_레이어_1" data-name="레이어 1" xmlns="http://www.w3.org/2000/svg" xmlns:xlink="http://www.w3.org/1999/xlink" viewBox="0 0 415.06 246.55">
  <defs>
    <style>
      .cls-1 {
        fill: none;
      }

      .cls-2 {
        mask: url(#mask);
      }

      .cls-3 {
        filter: url(#luminosity-noclip);
      }

      .cls-4 {
        fill: url(#_무제_그라디언트_2);
      }

      .cls-5 {
        clip-path: url(#clippath-1);
      }

      .cls-6 {
        clip-path: url(#clippath-3);
      }

      .cls-7 {
        clip-path: url(#clippath-2);
      }

      .cls-8 {
        fill: #fff;
      }

      .cls-9 {
        opacity: .7;
      }

      .cls-10 {
        fill: #00cadc;
      }

      .cls-11 {
        clip-path: url(#clippath);
      }
    </style>
    <clipPath id="clippath">
      <rect class="cls-1" x="-15.28" y="-524.01" width="430.34" height="770.57"/>
    </clipPath>
    <clipPath id="clippath-1">
      <rect class="cls-1" x="-15.28" y="-524.01" width="430.34" height="770.57"/>
    </clipPath>
    <clipPath id="clippath-2">
      <rect class="cls-1" x="-9" y="-27.39" width="408.5" height="246.13"/>
    </clipPath>
    <filter id="luminosity-noclip" x="-131.96" y="-231.47" width="654.42" height="654.28" color-interpolation-filters="sRGB" filterUnits="userSpaceOnUse">
      <feFlood flood-color="#fff" result="bg"/>
      <feBlend in="SourceGraphic" in2="bg"/>
    </filter>
    <linearGradient id="_무제_그라디언트_2" data-name="무제 그라디언트 2" x1="-14.71" y1="-22.58" x2="-13.71" y2="-22.58" gradientTransform="translate(-9458.7 -5971.79) rotate(-90) scale(427.56 -427.56)" gradientUnits="userSpaceOnUse">
      <stop offset="0" stop-color="#fff"/>
      <stop offset="1" stop-color="#000"/>
    </linearGradient>
    <mask id="mask" x="-131.96" y="-231.47" width="654.42" height="654.28" maskUnits="userSpaceOnUse">
      <g class="cls-3">
        <rect class="cls-4" x="-34.94" y="-136.93" width="460.39" height="465.2" transform="translate(-8.94 170.38) rotate(-46.2)"/>
      </g>
    </mask>
    <clipPath id="clippath-3">
      <rect class="cls-1" x="-9" y="-27.39" width="408.5" height="246.13"/>
    </clipPath>
  </defs>
  <g class="cls-11">
    <polygon class="cls-10" points="0 .61 0 217.15 28.48 246.55 415.06 246.55 415.06 43.67 390.34 .61 0 .61"/>
    <g class="cls-5">
      <g class="cls-9">
        <g class="cls-7">
          <g class="cls-2">
            <g class="cls-6">
              <rect class="cls-8" y=".61" width="390.5" height="217.13"/>
            </g>
          </g>
        </g>
      </g>
    </g>
    <rect class="cls-8" x="174.76" y="81.56" width="49.32" height="49.32"/>
    <rect class="cls-8" x="182.02" y="87.1" width="34.79" height="38.26"/>
    <path d="M192.92,116.1c-1.59-1.56-2.39-3.83-2.39-6.81h5.89c0,1.43.29,2.51.86,3.23.57.73,1.38,1.09,2.43,1.09.87,0,1.55-.25,2.05-.76.5-.51.75-1.2.75-2.07,0-.82-.23-1.5-.69-2.07-.46-.56-1.19-1.1-2.18-1.61l-3.37-1.61c-1.84-.89-3.19-1.96-4.07-3.19s-1.32-2.77-1.32-4.61c0-2.27.77-4.09,2.31-5.45,1.54-1.36,3.6-2.05,6.18-2.05,2.81,0,4.92.71,6.35,2.14,1.43,1.43,2.14,3.52,2.14,6.27h-5.78c0-1.25-.25-2.19-.75-2.83-.5-.64-1.19-.96-2.08-.96-.82,0-1.45.23-1.91.69s-.69,1.08-.69,1.87.23,1.43.69,1.93c.46.5,1.25,1.04,2.37,1.63l3.6,1.8c1.76.94,3.03,2.01,3.83,3.19.79,1.19,1.19,2.66,1.19,4.42,0,1.63-.36,3.05-1.07,4.27-.71,1.21-1.72,2.15-3.02,2.81-1.3.66-2.81.99-4.51.99-2.93,0-5.2-.78-6.79-2.33Z"/>
  </g>
</svg>