<?xml version="1.0" encoding="UTF-8"?>
<svg id="_레이어_1" data-name="레이어 1" xmlns="http://www.w3.org/2000/svg" xmlns:xlink="http://www.w3.org/1999/xlink" viewBox="0 0 421.34 465.21">
  <defs>
    <style>
      .cls-1 {
        fill: none;
      }

      .cls-2 {
        mask: url(#mask);
      }

      .cls-3 {
        filter: url(#luminosity-noclip);
      }

      .cls-4 {
        fill: #231815;
        font-family: GTWalsheim-CondensedBold, 'GT Walsheim';
        font-size: 32.78px;
        font-weight: 700;
      }

      .cls-5 {
        fill: url(#_무제_그라디언트_3);
      }

      .cls-6 {
        clip-path: url(#clippath-1);
      }

      .cls-7 {
        fill: #fff;
      }

      .cls-8 {
        fill: #00cadc;
      }

      .cls-9 {
        clip-path: url(#clippath);
      }
    </style>
    <clipPath id="clippath">
      <rect class="cls-1" x="-8.09" y="-27.95" width="438.09" height="461.47"/>
    </clipPath>
    <filter id="luminosity-noclip" x="-238.82" y="-247" width="899.56" height="899.56" color-interpolation-filters="sRGB" filterUnits="userSpaceOnUse">
      <feFlood flood-color="#fff" result="bg"/>
      <feBlend in="SourceGraphic" in2="bg"/>
    </filter>
    <linearGradient id="_무제_그라디언트_3" data-name="무제 그라디언트 3" x1="683.67" y1="1372.36" x2="684.67" y2="1372.36" gradientTransform="translate(866836.68 432258.96) rotate(-90) scale(631.49 -631.49)" gradientUnits="userSpaceOnUse">
      <stop offset="0" stop-color="#fff"/>
      <stop offset="1" stop-color="#000"/>
    </linearGradient>
    <mask id="mask" x="-238.82" y="-247" width="899.56" height="899.56" maskUnits="userSpaceOnUse">
      <g class="cls-3">
        <rect class="cls-5" x="-107.08" y="-115.26" width="636.08" height="636.08" transform="translate(-81.6 208.56) rotate(-45)"/>
      </g>
    </mask>
    <clipPath id="clippath-1">
      <rect class="cls-1" x="-8.09" y="-27.95" width="438.09" height="461.47"/>
    </clipPath>
  </defs>
  <g>
    <path class="cls-8" d="M238.59,274.57l19.96-26.85,22.36,15.82,57.26-81.34.33-34.02-5.69-4.33,7.64-11.88.65-39.42-73.47-51.98-26.89,38.01L129.72.05l-58.67,82.93.35,31.97,95.88,67.95-20.33,28.24c-58.67-44.77-104.64-76.99-104.64-76.99L.02,187.39l.96,32.25s25.68,32.45,153.29,116.05c127.6,83.61,240.66,129.46,240.66,129.46l24.54-61.74,1.62-38.15c-31.66-13.97-104.87-42.47-182.5-90.7"/>
    <g class="cls-9">
      <g class="cls-2">
        <g class="cls-6">
          <path class="cls-7" d="M221.13,262.8l36.11-49.13,22.12,15.19,58.96-80.75-24.29-17.65,26.99-37.99-73.21-51.9-26.78,37.99L129.96.04l-59.23,83.3,111.48,78.26-34.81,49.82c-58.67-44.77-104.89-76.91-104.89-76.91L.91,187.14s30.68,40.44,158.28,124.04c127.6,83.61,235.28,121.33,235.28,121.33l26.53-67.11s-111.11-44.99-199.87-102.59"/>
        </g>
      </g>
    </g>
  </g>
  <rect class="cls-7" x="221.85" y="125.5" width="42.26" height="42.26"/>
  <text class="cls-4" transform="translate(233.92 156.46)"><tspan x="0" y="0">R</tspan></text>
</svg>