<?xml version="1.0" encoding="UTF-8"?>
<svg id="_레이어_1" data-name="레이어 1" xmlns="http://www.w3.org/2000/svg" viewBox="0 0 235.84 72.75">
  <defs>
    <style>
      .cls-1 {
        fill: #231f20;
      }

      .cls-2 {
        isolation: isolate;
      }

      .cls-3 {
        fill: #fff;
      }
    </style>
  </defs>
  <g class="cls-2">
    <rect class="cls-3" x=".02" y="20.81" width="235.8" height="21.37" transform="translate(-3.72 21.49) rotate(-10.25)"/>
  </g>
  <g class="cls-2">
    <rect class="cls-3" x="27.56" y="35.47" width="186.29" height="20.88" transform="translate(-6.24 22.21) rotate(-10.25)"/>
  </g>
  <path class="cls-1" d="M201.95,34.03c1.41-.25,2.19-1.28,1.95-2.62-.17-.96-.69-1.49-1.74-1.83l-1.07-.31c-.6-.19-.93-.35-1.01-.82-.08-.43.14-.75.58-.83.48-.09.83.19.96.89l1.58-.28c-.27-1.49-1.2-2.15-2.73-1.88-1.4.25-2.17,1.22-1.95,2.46.19,1.02.79,1.56,1.86,1.86l1,.27c.58.17.88.4.96.86.08.47-.15.83-.62.91-.56.1-.97-.24-1.11-1.02l-1.61.29c.3,1.64,1.37,2.33,2.96,2.04M195.96,35.02c.56-.1.93-.64.83-1.2-.1-.54-.63-.92-1.19-.82-.57.1-.93.64-.83,1.18.1.55.62.93,1.2.83M191.53,34.53c-.61.11-1.03-.31-1.19-1.19-.16-.88.09-1.41.7-1.52.6-.11,1.04.31,1.19,1.18.16.88-.11,1.42-.7,1.53M191.86,31.25c-.35-.53-.89-.74-1.56-.62-1.2.22-1.8,1.38-1.52,2.95.28,1.57,1.25,2.45,2.45,2.23.66-.12,1.1-.5,1.24-1.11l.18.99c.11.63-.08,1.02-.65,1.12-.51.09-.81-.14-.92-.48l-1.53.28c.14.53.51.95,1.02,1.17.45.2.99.25,1.59.14.62-.11,1.08-.33,1.45-.65.5-.47.7-1.14.54-2.04l-.9-5-1.52.28.13.74ZM185.88,35.55c-.61.11-1.03-.31-1.19-1.19-.16-.88.09-1.41.7-1.52.6-.11,1.04.31,1.19,1.18.16.88-.11,1.42-.7,1.53M186.23,32.27c-.37-.54-.9-.74-1.56-.62-1.21.22-1.8,1.41-1.52,2.99.29,1.59,1.26,2.5,2.47,2.28.66-.12,1.08-.51,1.24-1.13l.13.74,1.52-.28-1.32-7.3-1.52.27.55,3.05ZM182.87,37.27l-1.32-7.3-1.52.27,1.32,7.3,1.52-.28ZM176.96,37.09l-.35-1.94.72-.13c.56-.1,1,.21,1.1.78.12.67-.15,1.05-.86,1.18l-.61.11ZM176.68,32.05c.64-.11,1.02.15,1.13.76.11.59-.19.99-.81,1.11l-.58.11-.34-1.86.61-.11ZM178.3,34.24c.84-.35,1.25-1.01,1.09-1.92-.22-1.19-1.2-1.74-2.65-1.48l-2.48.45,1.32,7.3,2.48-.45c1.51-.27,2.28-1.19,2.05-2.46-.17-.96-.91-1.51-1.8-1.44M170.56,39.5l-.47-2.6,2.13-.39-.25-1.4-2.13.39-.35-1.94,2.13-.39-.25-1.37-3.74.68,1.32,7.3,1.62-.29ZM165.66,40.54c1.51-.27,2.27-1.34,2.05-2.53-.15-.86-.8-1.48-1.76-1.47.85-.33,1.19-1.02,1.03-1.93-.2-1.1-1.11-1.74-2.58-1.47-1.52.28-2.24,1.31-2,2.64l1.55-.28c-.11-.62.11-1.05.6-1.13.48-.09.79.19.88.69.11.6-.14.99-.78,1.1l-.57.1.23,1.25.54-.1c.75-.14,1.17.16,1.28.75.11.6-.14,1-.61,1.08-.64.11-1.03-.22-1.17-.99l-1.55.28c.28,1.57,1.24,2.3,2.87,2M158.06,38.3l1.22-.22-.22-1.21-1.22.22.22,1.21ZM151.55,36.68c.77-.14,1.27.34,1.42,1.19.16.87-.14,1.47-.92,1.61l-.54.1-.51-2.8.54-.1ZM153.84,40.07c.69-.58.98-1.46.79-2.5-.29-1.62-1.47-2.46-3.22-2.14l-2.22.4,1.32,7.3,1.61-.29-.36-2.01.62-.11,1.37,1.83,1.77-.32-1.66-2.16ZM146.66,43.93c.56-.1.93-.64.83-1.2-.1-.54-.63-.92-1.19-.82-.57.1-.93.64-.83,1.18.1.55.62.93,1.2.83M142.22,43.44c-.61.11-1.03-.31-1.19-1.19-.16-.88.09-1.41.7-1.52.6-.11,1.04.31,1.19,1.17.16.88-.11,1.42-.7,1.53M142.56,40.17c-.36-.53-.89-.74-1.56-.62-1.2.22-1.8,1.38-1.51,2.95.28,1.57,1.25,2.45,2.45,2.23.66-.12,1.1-.5,1.24-1.11l.18.99c.11.63-.09,1.02-.65,1.12-.51.09-.81-.14-.92-.48l-1.53.28c.14.53.51.95,1.02,1.17.45.2.99.25,1.59.14.62-.11,1.08-.33,1.45-.65.5-.47.7-1.14.54-2.04l-.9-5-1.52.28.13.74ZM136.58,44.46c-.61.11-1.03-.31-1.19-1.19-.16-.88.09-1.41.7-1.52.6-.11,1.04.31,1.19,1.17.16.88-.11,1.42-.7,1.53M136.92,41.19c-.37-.54-.9-.74-1.56-.62-1.21.22-1.8,1.41-1.52,2.99.29,1.59,1.26,2.5,2.47,2.28.66-.12,1.08-.51,1.24-1.13l.13.74,1.52-.28-1.32-7.3-1.52.28.55,3.05ZM133.57,46.19l-1.32-7.3-1.52.28,1.32,7.3,1.52-.28ZM127.66,46.01l-.35-1.94.72-.13c.56-.1,1,.21,1.1.78.12.67-.15,1.05-.87,1.18l-.61.11ZM127.38,40.96c.64-.11,1.02.15,1.13.76.11.59-.19.99-.81,1.11l-.58.11-.34-1.86.6-.11ZM129,43.16c.84-.35,1.25-1.01,1.09-1.92-.22-1.19-1.2-1.74-2.65-1.48l-2.48.45,1.32,7.31,2.48-.45c1.51-.27,2.27-1.19,2.04-2.46-.17-.96-.91-1.51-1.8-1.44M121.25,48.42l-.47-2.6,2.13-.39-.25-1.4-2.13.39-.35-1.94,2.13-.39-.25-1.37-3.74.68,1.32,7.3,1.62-.29ZM118.3,48.95l-1.28-7.1-1.37.25c.13.88-.07,1.33-1.24,1.54l.23,1.27,1.23-.22.82,4.55,1.61-.29ZM110.76,48.01c.12.66-.07,1.07-.54,1.15-.45.08-.72-.17-.83-.79l-.52-2.88-1.53.28.56,3.09c.2,1.14.83,1.86,1.86,1.68.74-.13,1.12-.51,1.26-1.11l.16.89c.14.75-.04,1.12-.54,1.21-.46.08-.74-.12-.85-.49l-1.45.26c.12.62.48,1.03.96,1.24.41.17.9.21,1.55.1.64-.11,1.11-.35,1.43-.69.42-.46.56-1.11.4-2.02l-.89-4.95-1.52.27.5,2.77ZM107.03,49.71c-.38.07-.58-.11-.67-.59l-.34-1.89.81-.15-.21-1.18-.81.15-.27-1.49-1.52.28.27,1.49-.64.11.21,1.18.64-.12.42,2.3c.19,1.07.95,1.49,1.86,1.32.29-.05.54-.13.79-.23l-.23-1.26c-.14.04-.23.06-.31.08M103.93,51.55l-.9-5-1.51.27.9,5,1.51-.27ZM102.11,46.21c.55-.1.89-.57.79-1.11-.1-.55-.58-.88-1.13-.78-.54.1-.88.57-.78,1.12.1.54.58.86,1.12.77M99.75,52.46c1.23-.22,1.88-1,1.7-2-.13-.74-.64-1.14-1.46-1.24l-1-.12c-.31-.04-.49-.18-.53-.41-.05-.26.13-.47.43-.52.36-.06.6.11.67.48l1.45-.26c-.17-.96-1.07-1.43-2.29-1.21-1.16.21-1.83.95-1.66,1.89.13.74.67,1.17,1.51,1.27l.96.1c.28.04.45.18.49.41.06.3-.12.53-.43.58-.41.07-.68-.13-.75-.51l-1.5.27c.18,1,1.14,1.51,2.42,1.27M95.94,53l-.36-1.99c-.2-1.1.06-1.65.81-1.79.14-.02.17-.03.3-.03l-.27-1.5c-.1,0-.16,0-.29.03-.62.11-1.02.64-.99,1.47l-.21-1.17-1.41.25.9,5,1.52-.28ZM90.04,50.91c-.12-.7.13-1.14.68-1.24.51-.09.86.21.99.93l-1.67.3ZM93.2,50.58c-.25-1.39-1.2-2.2-2.65-1.93-1.5.27-2.2,1.42-1.9,3.1.3,1.68,1.34,2.47,2.9,2.19,1.24-.22,1.87-.97,1.82-2.04l-1.38.25c-.02.35-.22.57-.66.65-.6.11-.97-.26-1.12-.93l3.08-.56c-.01-.26-.06-.55-.09-.73M87.25,54.57l.91-5.33-1.61.29-.33,3.24-1.44-2.92-1.6.29,2.71,4.67,1.36-.24ZM83.55,55.24l-.9-5-1.51.27.9,5,1.51-.27ZM81.73,49.89c.55-.1.89-.57.79-1.11-.1-.55-.58-.88-1.13-.77-.54.1-.88.57-.78,1.12.1.54.58.87,1.12.77M78.13,56.22l-.49-2.7c-.14-.76.01-1.19.55-1.28.47-.09.71.19.84.88l.51,2.85,1.54-.28-.59-3.27c-.23-1.24-.89-1.77-1.87-1.59-.66.12-1.1.49-1.27,1.1l-.13-.71-1.52.28.9,5,1.52-.27ZM73.07,57.32c1.61-.29,2.44-1.41,2.13-3.12l-.88-4.84-1.62.29.86,4.77c.15.86-.17,1.39-.75,1.49-.58.1-1.05-.28-1.21-1.14l-.86-4.77-1.63.29.88,4.84c.31,1.7,1.47,2.47,3.08,2.18M65.13,53.4l-.94,2.49-.82-4.55-1.51.27,1.32,7.3,1.51-.27-.43-2.39,1.73,2.16,1.76-.32-2.05-2.39,1.17-2.61-1.73.31ZM62.13,59.11l-.9-5-1.51.27.9,5,1.51-.27ZM60.31,53.77c.55-.1.89-.57.79-1.11-.1-.55-.58-.88-1.13-.78-.54.1-.88.57-.78,1.12.1.54.58.86,1.12.77M56.99,58.85c-.61.11-1.03-.31-1.18-1.19-.16-.88.09-1.41.7-1.52.6-.11,1.04.31,1.19,1.18.16.88-.11,1.42-.7,1.53M57.32,55.58c-.35-.53-.89-.74-1.56-.62-1.2.22-1.8,1.38-1.51,2.95.28,1.57,1.25,2.45,2.45,2.23.66-.12,1.1-.5,1.24-1.11l.18.99c.11.63-.09,1.02-.65,1.12-.51.09-.81-.15-.92-.48l-1.53.28c.14.53.51.95,1.02,1.17.45.2.99.25,1.59.14.62-.11,1.08-.33,1.44-.65.5-.47.7-1.14.54-2.04l-.9-5-1.52.28.13.74ZM51.11,61.1l-.49-2.7c-.14-.76.01-1.19.54-1.28.47-.09.71.19.84.88l.52,2.85,1.54-.28-.59-3.27c-.22-1.24-.89-1.77-1.87-1.59-.66.12-1.1.49-1.27,1.1l-.13-.71-1.52.27.9,5,1.52-.27ZM46.23,60.8c-.6.11-1.02-.3-1.18-1.19-.16-.89.1-1.42.69-1.53.6-.11,1.02.3,1.19,1.19.16.89-.1,1.42-.7,1.53M46.46,62.09c1.51-.27,2.26-1.47,1.97-3.09-.29-1.62-1.42-2.48-2.93-2.21-1.51.27-2.27,1.48-1.97,3.09.29,1.62,1.42,2.48,2.93,2.21M39.74,63.16l-.53-2.93,1.88-.34.53,2.93,1.61-.29-1.32-7.3-1.61.29.54,2.98-1.88.34-.54-2.98-1.61.29,1.32,7.3,1.61-.29Z"/>
  <path class="cls-1" d="M223.42,15.24c.08.42-.49.79-1.59.98-1.1.2-1.77.05-1.85-.36-.08-.45.5-.82,1.6-1.02,1.1-.2,1.76-.05,1.84.39M224.79,14.99c-.2-1.09-1.47-1.52-3.4-1.18-1.93.35-2.98,1.2-2.78,2.29.19,1.05,1.47,1.5,3.4,1.15,1.92-.35,2.96-1.21,2.77-2.26M225.17,10.92l-.19-1.07-1.17.21-.38-2.08-1.32.24.95,5.23,1.32-.24-.38-2.08,1.17-.21ZM218.74,12.65l-.37-2.04,2.66-.48-.18-1.02-3.96.71.74,4.11c.27-.05.51-.07.76-.12,1.68-.3,3.24-.75,3.99-1.05-.09-.32-.19-.65-.29-.98-.82.33-2.17.66-3.34.87M212.59,10.56l-4.2.76.19,1.07,2.73-.49c.04,1.15-1.15,2.47-2.71,3.09l.69.95c2.38-1.14,3.65-2.92,3.3-5.38M214.94,16.75c.09.49-.46.9-1.56,1.1-1.07.19-1.73,0-1.82-.49-.08-.47.46-.89,1.53-1.09,1.1-.2,1.76,0,1.85.47M216.28,16.51c-.2-1.1-1.43-1.64-3.39-1.28-1.92.35-2.88,1.28-2.68,2.38.2,1.11,1.42,1.64,3.35,1.29,1.95-.35,2.92-1.28,2.72-2.39M216.68,12.33l-.19-1.06-1.23.22-.36-1.97-1.31.24.91,5.06,1.31-.24-.37-2.02,1.23-.22ZM202.11,12.97l2.97-.54-.18-.99-2.98.54.18.99ZM207.53,14.2c-1.37.25-2.27.05-2.71-.34l2.16-.39-.18-1-6.28,1.14.18,1,2.18-.39c-.27.51-1.05,1-2.46,1.25l.64.94c1.45-.25,2.58-1,2.87-1.8.56.65,1.97.93,3.32.67l.28-1.07ZM201.39,18.26l.19,1.06,4.76-.86.31,1.71,1.31-.24-.5-2.77-2.33.42-.1-.55,3.37-.61-.19-1.04-7.98,1.44.19,1.04,3.31-.6.1.56-2.44.44ZM197.03,16.97c-1.17-.16-2.2-.84-2.46-2.26l-.16-.86-1.35.24.17.93c.23,1.3-.33,2.52-1.58,3.21l.86.89c.78-.42,1.64-1.49,1.75-2.36.46.66,1.53,1.27,2.26,1.38l.5-1.18ZM199.96,21.12l-.19-1.03-4.95.9-.32-1.75-1.31.24.5,2.78,6.26-1.13ZM199.37,18.94l-1.16-6.41-1.34.24,1.16,6.41,1.34-.24ZM183.03,16.44l2.97-.54-.18-.98-2.98.54.18.98ZM187.47,22.07c.05.29-.65.67-1.74.87-1.07.19-1.85.08-1.9-.21-.06-.32.63-.69,1.7-.88,1.09-.2,1.88-.09,1.93.22M189.31,19.88l-.19-1.04-7.98,1.44.19,1.04,7.98-1.44ZM188.41,17.69c-1.42.22-2.33.02-2.72-.39l2.13-.39-.18-.98-6.13,1.11.18.98,2.14-.39c-.21.52-.98,1-2.42,1.3l.63.92c1.35-.28,2.51-.97,2.83-1.72.61.6,1.96.81,3.25.61l.28-1.05ZM188.82,21.81c-.17-.93-1.51-1.31-3.47-.96-1.94.35-3.05,1.18-2.89,2.11.17.93,1.5,1.33,3.46.97,1.94-.35,3.06-1.19,2.89-2.12M178.79,24.51c1.51-.27,2.27-1.34,2.05-2.53-.16-.86-.8-1.48-1.76-1.47.85-.33,1.19-1.02,1.03-1.93-.2-1.1-1.11-1.74-2.58-1.47-1.52.28-2.24,1.31-2,2.64l1.55-.28c-.11-.62.11-1.04.6-1.13.48-.09.79.19.88.69.11.61-.14.99-.78,1.1l-.58.1.23,1.25.54-.1c.75-.14,1.17.15,1.28.75.11.59-.14,1-.61,1.08-.64.12-1.03-.22-1.17-.98l-1.55.28c.28,1.57,1.24,2.3,2.87,2M171.38,24.79c.07.36-.57.77-1.63.96-1.03.19-1.77.02-1.83-.33-.07-.42.56-.81,1.59-.99,1.06-.19,1.79-.05,1.87.37M172.72,24.53c-.19-1.05-1.47-1.5-3.4-1.15-1.92.35-2.95,1.21-2.76,2.26.18,1.01,1.45,1.5,3.39,1.15,1.91-.35,2.95-1.25,2.76-2.26M171.97,20.69l-.19-1.03-4.66.84-.19-1.05,4.59-.83-.19-1.05-5.9,1.07.57,3.13,2.31-.42.14.77-3.35.61.19,1.03,7.98-1.44-.19-1.03-3.32.6-.14-.77,2.35-.42ZM163.07,27.41c1.41-.26,2.19-1.28,1.95-2.63-.17-.96-.69-1.49-1.74-1.83l-1.07-.31c-.6-.19-.93-.35-1.01-.82-.08-.43.13-.75.58-.83.48-.09.83.19.96.89l1.57-.29c-.27-1.49-1.2-2.15-2.73-1.88-1.4.25-2.17,1.22-1.95,2.46.18,1.02.79,1.56,1.86,1.86l1,.27c.58.17.88.4.96.86.09.47-.15.82-.62.91-.56.1-.97-.23-1.11-1.02l-1.61.29c.3,1.64,1.37,2.33,2.96,2.04M155.56,25.1l1.22-.22-.22-1.21-1.22.22.22,1.21ZM149.54,24.77c-1.18-.18-2.17-.8-2.43-2.23l-.07-.39-1.35.24.08.47c.23,1.29-.34,2.46-1.58,3.15l.84.91c.79-.42,1.66-1.46,1.77-2.33.45.69,1.48,1.24,2.22,1.35l.51-1.18ZM152.68,29.82l-.19-1.03-4.85.88-.08-.44,4.63-.84-.44-2.42-5.97,1.08.19,1.05,4.66-.84.08.43-4.65.84.44,2.41,6.18-1.12ZM151.7,25.63l-.82-4.54-1.33.24.82,4.54,1.33-.24ZM143.29,27.85l-.94-5.21-1.34.24.38,2.08-1.16.21.19,1.05,1.16-.21.38,2.08,1.34-.24ZM137.33,29.31l.19,1.05,4.7-.85.4,2.21,1.32-.24-.59-3.26-6.02,1.09ZM135.62,25.42l1.66-.3c.18,1.28-.43,2.29-1.61,2.95l.85.92c.8-.43,1.69-1.47,1.77-2.3.46.67,1.54,1.28,2.26,1.38l.54-1.17c-1.12-.16-2.11-.79-2.44-2.04l1.64-.29-.19-1.06-4.66.84.19,1.06ZM132.46,26.85l-3.2.58-.2-1.13,3.2-.58.21,1.13ZM128.45,31.13l.19,1.03,4.69-.85.36,2,1.31-.24-.55-3.03-6,1.08ZM133.98,27.62l-.57-3.13-5.86,1.06.57,3.13,2.28-.41.14.75-3.34.6.19,1.05,7.98-1.44-.19-1.05-3.34.6-.14-.75,2.28-.41ZM124.83,25.8l-1.3.23,1.6,8.83,1.3-.24-.81-4.46,1.23-.22-.19-1.07-1.23.22-.6-3.3ZM120.58,32.51l-.7-3.9,2.77-.5-.19-1.06-4.07.73,1.1,6.06.77-.14c1.59-.29,3.24-.73,4.02-1.03-.11-.35-.22-.7-.32-1.05-.8.32-2.16.67-3.14.84l-.23.04ZM110.07,29.63l2.97-.54-.18-.98-2.98.54.18.98ZM114.51,35.27c.05.29-.65.67-1.74.87-1.07.19-1.85.08-1.9-.21-.06-.32.63-.69,1.7-.88,1.09-.2,1.88-.09,1.93.22M116.36,33.07l-.19-1.04-7.98,1.44.19,1.04,7.98-1.44ZM115.45,30.88c-1.43.22-2.33.02-2.72-.39l2.13-.39-.18-.98-6.13,1.11.18.98,2.14-.39c-.21.52-.98,1-2.42,1.3l.63.92c1.35-.28,2.51-.96,2.83-1.72.61.6,1.96.81,3.25.61l.28-1.05ZM115.87,35c-.17-.93-1.51-1.32-3.47-.96-1.94.35-3.05,1.18-2.89,2.11.17.93,1.5,1.33,3.46.97,1.94-.35,3.06-1.19,2.89-2.12M107.78,37.2l-1.28-7.1-1.37.25c.13.88-.07,1.33-1.24,1.54l.23,1.27,1.23-.22.82,4.55,1.61-.29ZM99.38,39.4l1.03-.19c.82-1.12,1.48-2.77,1.14-4.69l-.03-.19c-.34-1.9-1.54-3.22-2.7-3.98l-1.03.19c1.14.88,2.22,2.37,2.51,4.01l.05.3c.3,1.68-.2,3.34-.97,4.55M94.51,31.91l-4.6.83.19,1.03,3.29-.59c.14.78.21,1.59.19,1.99l1.27-.1c.04-.7-.14-2.05-.34-3.16M95.84,36.4l-.24-.96c-.44.15-1.89.52-2.62.67l-.31-1.7-1.24.22.31,1.73c-.54.11-1.08.21-1.68.31l.31,1.03c.51-.09,1.7-.33,2.74-.57.95-.22,2.19-.57,2.73-.74M98.25,39.48l-.18-1.02-4.75.86-.29-1.59-1.31.24.47,2.61,6.06-1.1ZM98.29,34.37l-.2-1.1-1.1.2-.46-2.55-1.3.23,1.18,6.53,1.3-.23-.52-2.89,1.1-.2ZM87.03,35.39l-3.25.59-.21-1.18,3.25-.59.21,1.18ZM89.53,41.09l-.18-1.02-4.73.86-.28-1.54-1.3.24.46,2.56,6.03-1.09ZM86.86,39.78l-.28-1.57,3.28-.59-.18-1.02-7.98,1.44.18,1.02,3.37-.61.28,1.57,1.33-.24ZM87.96,32.95l-5.91,1.07.58,3.22,5.91-1.07-.58-3.22ZM78.5,37.99c.04.2-.35.4-1.41.59-1.05.19-1.51.14-1.55-.06-.04-.22.38-.41,1.43-.6,1.06-.19,1.49-.16,1.53.06M79.53,41.84c.04.23-.63.49-1.73.69-1.06.19-1.8.18-1.84-.05-.04-.25.65-.51,1.71-.7,1.1-.2,1.82-.2,1.86.05M75.08,35.9l3.02-.55-.17-.95-3.02.55.17.95ZM80.3,36.25l-.18-.98-7.05,1.28.18.98,7.05-1.28ZM80.99,41.58c-.13-.72-1.17-1.13-3.48-.71-2.32.42-3.14,1.15-3.01,1.88.13.7,1.16,1.13,3.48.71,2.31-.42,3.13-1.18,3.01-1.89M81.47,39.98l-.18-.99-3.35.61-.05-.29c1.48-.37,2.07-.99,1.97-1.57-.12-.66-1.09-1.06-3.04-.71-1.94.35-2.71,1.06-2.6,1.73.1.58.86.94,2.36.78l.05.29-3.33.6.18.99,7.98-1.44ZM72.56,44.25l1.03-.19c-1.13-.88-2.22-2.36-2.52-4.02l-.05-.29c-.31-1.69.22-3.34.97-4.55l-1.03.19c-.83,1.12-1.49,2.77-1.15,4.68l.03.19c.35,1.91,1.55,3.23,2.72,3.99M67.32,43.61c.07.36-.57.77-1.63.96-1.03.19-1.77.02-1.83-.34-.08-.42.56-.81,1.59-.99,1.06-.19,1.79-.05,1.87.37M68.66,43.34c-.19-1.05-1.47-1.5-3.4-1.15-1.92.35-2.95,1.21-2.76,2.26.18,1.01,1.45,1.5,3.39,1.15,1.91-.35,2.95-1.25,2.77-2.26M67.91,39.51l-.19-1.03-4.66.84-.19-1.05,4.59-.83-.19-1.05-5.9,1.07.57,3.13,2.31-.42.14.77-3.35.61.19,1.03,7.98-1.44-.19-1.03-3.32.6-.14-.77,2.35-.42ZM57.33,40.06c.77-.14,1.27.34,1.42,1.19.16.87-.14,1.47-.92,1.61l-.54.1-.51-2.8.54-.1ZM59.61,43.45c.69-.58.98-1.46.79-2.5-.29-1.62-1.47-2.46-3.22-2.14l-2.22.4,1.32,7.3,1.61-.29-.36-2.01.62-.11,1.37,1.83,1.77-.32-1.66-2.16ZM51.4,39.96l-6.3,1.14.19,1.04,4.98-.9c.25,1.09.39,2.66.4,3.68l1.26-.1c.05-1.31-.23-3.36-.53-4.86M53.38,46.58l-.19-1.04-2.83.51-.47-2.62-1.31.24.47,2.62-.78.14-.47-2.62-1.32.24.47,2.62-1.74.32.19,1.04,7.98-1.44ZM37.98,45.81c-.06-.32.23-.67.71-.75.48-.09.89.14.94.45.06.34-.25.67-.72.76-.49.09-.87-.12-.93-.46M40.93,45.28c-.15-.84-1.16-1.38-2.41-1.15-1.28.23-2.02,1.08-1.86,1.92.16.87,1.15,1.4,2.42,1.17,1.25-.23,2.01-1.07,1.85-1.94M36.92,42.83l2.65-.48-.18-1-2.65.48.18,1ZM41.07,43.48l-.18-1.01-5.18.93.18,1.01,5.17-.94ZM37.56,47.82l.19,1.03,4.62-.84.32,1.78,1.33-.24-.51-2.8-5.95,1.08ZM44.23,44.11l-.19-1.06-1.16.21-.46-2.55-1.31.24,1.04,5.72,1.31-.24-.38-2.11,1.16-.21ZM29.52,49.01l-.67-3.73,2.04-.37-.18-1.02-3.35.61,1.05,5.8.95-.17c.78-.14,2.18-.48,2.88-.77l-.31-.97c-.54.23-1.69.49-2.21.58l-.2.04ZM36.07,50.98l-1.6-8.83-1.25.23.62,3.42-.65.12-.59-3.27-1.23.22,1.5,8.28,1.23-.22-.71-3.96.65-.12.79,4.36,1.25-.23ZM20.46,47.51c-.12-.66.28-1.12.88-1.23.61-.11,1.17.19,1.29.84.12.66-.29,1.11-.92,1.22-.61.11-1.14-.17-1.26-.83M19.17,47.75c.23,1.26,1.4,1.95,2.74,1.7,1.35-.24,2.23-1.3,2-2.56-.23-1.27-1.41-1.91-2.77-1.67-1.34.24-2.21,1.26-1.98,2.53M20.74,50.45l.19,1.05,4.71-.85.39,2.15,1.31-.24-.58-3.2-6.02,1.09ZM26.67,48.97l-.95-5.24-1.33.24.95,5.24,1.33-.24ZM15.97,49.3c.04.2-.35.4-1.41.59-1.05.19-1.51.14-1.55-.06-.04-.22.38-.41,1.43-.6,1.06-.19,1.49-.16,1.53.06M17,53.15c.04.23-.63.49-1.73.69-1.06.19-1.8.18-1.84-.05-.05-.25.65-.51,1.71-.7,1.1-.2,1.82-.2,1.86.05M12.55,47.2l3.02-.55-.17-.95-3.02.55.17.95ZM17.77,47.56l-.18-.98-7.05,1.28.18.98,7.05-1.28ZM18.45,52.88c-.13-.72-1.17-1.13-3.48-.71-2.32.42-3.14,1.15-3.01,1.89.13.7,1.16,1.13,3.48.71,2.31-.42,3.13-1.18,3.01-1.89M18.93,51.29l-.18-.99-3.35.61-.05-.29c1.48-.37,2.07-.99,1.97-1.56-.12-.66-1.09-1.06-3.04-.71-1.94.35-2.72,1.07-2.6,1.73.1.58.86.94,2.36.78l.05.29-3.33.6.18.99,7.98-1.44Z"/>
</svg>