<?xml version="1.0" encoding="UTF-8"?>
<svg id="_레이어_1" data-name="레이어 1" xmlns="http://www.w3.org/2000/svg" viewBox="0 0 115.99 59.08">
  <defs>
    <style>
      .cls-1 {
        fill: #231f20;
      }

      .cls-2 {
        isolation: isolate;
      }

      .cls-3 {
        fill: #fff;
      }
    </style>
  </defs>
  <g class="cls-2">
    <rect class="cls-3" x="2.52" y="12.03" width="110.96" height="35.01" transform="translate(-5.16 13.8) rotate(-13)"/>
  </g>
  <path class="cls-1" d="M94.81,29.08l.17-7.78,3.59,6.91,3.1-.72.62-12.37-3.56.82.17,7.47-3.37-6.73-3.03.7-.07,7.52-3.1-6.79-3.56.82,5.98,10.85,3.08-.71ZM80.89,29.49c-1.41.33-2.44-.61-2.91-2.65-.47-2.04.05-3.31,1.46-3.63,1.38-.32,2.46.61,2.93,2.62.47,2.04-.1,3.34-1.48,3.66M80.44,32.73c1.53-.35,2.48-1.31,2.78-2.79l.4,1.72,3.54-.82-2.68-11.61-3.54.82.4,1.72c-.92-1.22-2.19-1.64-3.72-1.29-2.81.65-4.07,3.52-3.22,7.18.85,3.68,3.23,5.71,6.05,5.06M69.46,35.42c3.27-.76,4.99-3.25,4.27-6.37-.51-2.23-1.79-3.42-4.29-4.09l-2.54-.61c-1.42-.39-2.21-.72-2.46-1.81-.23-.99.23-1.76,1.27-2.01,1.11-.26,1.97.36,2.35,1.99l3.66-.84c-.8-3.47-3.05-4.91-6.61-4.09-3.25.75-4.95,3.11-4.28,5.99.55,2.38,2.02,3.57,4.56,4.16l2.37.53c1.38.35,2.11.84,2.36,1.91.25,1.09-.27,1.95-1.36,2.2-1.31.3-2.3-.44-2.72-2.26l-3.73.86c.88,3.81,3.47,5.3,7.16,4.45M59.41,31.81l-.67-2.88-6.93,1.6.67,2.89,6.93-1.6ZM41.61,33.88c-.35-1.63.18-2.67,1.46-2.97,1.19-.27,2.03.4,2.42,2.07l-3.88.9ZM48.99,32.77c-.74-3.22-3.07-5.01-6.44-4.23-3.49.81-4.99,3.58-4.09,7.48.9,3.9,3.42,5.64,7.03,4.81,2.88-.67,4.28-2.49,4.03-4.99l-3.2.74c-.01.82-.45,1.36-1.47,1.59-1.38.32-2.31-.49-2.72-2.05l7.15-1.65c-.06-.6-.19-1.28-.29-1.7M29.78,36.61c-.35-1.63.18-2.67,1.46-2.97,1.19-.27,2.03.4,2.42,2.07l-3.88.9ZM37.16,35.5c-.74-3.22-3.07-5.01-6.44-4.23-3.49.81-5,3.58-4.09,7.48.9,3.9,3.42,5.65,7.03,4.81,2.88-.67,4.28-2.49,4.03-4.99l-3.2.74c-.01.82-.45,1.36-1.47,1.59-1.38.32-2.31-.49-2.72-2.05l7.15-1.65c-.06-.6-.19-1.28-.29-1.7M21.69,46.45c3.27-.76,4.99-3.25,4.27-6.37-.51-2.23-1.78-3.42-4.29-4.09l-2.54-.61c-1.42-.39-2.21-.72-2.46-1.81-.23-.99.23-1.76,1.27-2,1.12-.26,1.97.36,2.35,1.98l3.66-.85c-.8-3.47-3.05-4.91-6.61-4.09-3.25.75-4.95,3.11-4.28,5.99.55,2.38,2.02,3.57,4.56,4.16l2.37.53c1.38.35,2.11.84,2.35,1.91.25,1.09-.26,1.95-1.35,2.2-1.31.3-2.3-.44-2.72-2.26l-3.73.86c.88,3.8,3.47,5.3,7.15,4.45"/>
</svg>