<?xml version="1.0" encoding="UTF-8"?>
<svg id="_레이어_1" data-name="레이어 1" xmlns="http://www.w3.org/2000/svg" viewBox="0 0 249.01 80">
  <defs>
    <style>
      .cls-1 {
        fill: #231f20;
      }

      .cls-2 {
        isolation: isolate;
      }

      .cls-3 {
        fill: #fff;
      }
    </style>
  </defs>
  <g>
    <g class="cls-2">
      <rect class="cls-3" x="113.75" y="-80.13" width="21.51" height="249.26" transform="translate(58.06 158.81) rotate(-79.5)"/>
    </g>
    <g class="cls-2">
      <rect class="cls-3" x="116.77" y="-83.26" width="20.88" height="228.74" transform="translate(73.44 150.52) rotate(-79.5)"/>
    </g>
    <g class="cls-2">
      <rect class="cls-3" x="111.6" y="-7.6" width="20.88" height="130.83" transform="translate(42.95 167.27) rotate(-79.5)"/>
    </g>
    <path class="cls-1" d="M170.63,68.9c-.94-.17-1.27-1.08-.97-2.66.29-1.58.92-2.31,1.86-2.14.95.18,1.27,1.08.98,2.66-.29,1.59-.92,2.31-1.86,2.14M170.36,70.34c1.99.37,3.36-.8,3.82-3.27.46-2.47-.4-4.05-2.39-4.42-1.98-.37-3.35.8-3.81,3.27-.46,2.47.4,4.05,2.38,4.42M164.55,69.27c1.41.26,2.5-.42,2.75-1.76.18-.96-.12-1.64-.98-2.33l-.89-.67c-.49-.39-.74-.66-.66-1.12.08-.43.39-.65.84-.57.48.09.71.48.58,1.18l1.57.29c.28-1.49-.36-2.44-1.89-2.72-1.4-.26-2.46.37-2.69,1.61-.19,1.02.18,1.74,1.08,2.4l.84.61c.48.37.68.69.6,1.15-.09.47-.43.72-.9.63-.56-.11-.82-.56-.68-1.35l-1.6-.3c-.3,1.64.46,2.66,2.04,2.95M161.37,68.47l1.35-7.3-1.6-.3-1.35,7.3,1.6.3ZM156.66,67.8c1.41.26,2.5-.42,2.75-1.76.18-.96-.12-1.64-.98-2.33l-.89-.67c-.49-.39-.74-.66-.65-1.12.08-.43.39-.65.84-.57.48.09.71.48.58,1.17l1.57.29c.28-1.49-.36-2.44-1.89-2.72-1.4-.26-2.46.37-2.69,1.61-.19,1.02.18,1.74,1.07,2.4l.84.61c.48.37.68.69.6,1.15-.09.47-.43.72-.9.63-.56-.1-.82-.56-.68-1.35l-1.61-.3c-.3,1.64.46,2.66,2.04,2.96M150.11,65.44l1.27.23.23-1.23-1.27-.24-.23,1.23ZM150.81,61.66l1.27.23.23-1.23-1.27-.24-.23,1.23ZM148.15,60.86l-1.76,1.99.84-4.55-1.51-.28-1.35,7.3,1.51.28.44-2.39.85,2.63,1.76.33-1.07-2.96,2.02-2.03-1.73-.32ZM141.08,61.55c.14-.7.52-1.02,1.08-.91.51.1.73.5.59,1.22l-1.67-.31ZM144.15,62.37c.26-1.39-.35-2.48-1.8-2.75-1.5-.28-2.56.55-2.87,2.23-.31,1.68.38,2.79,1.93,3.08,1.24.23,2.1-.25,2.42-1.26l-1.38-.26c-.15.32-.41.45-.85.37-.6-.11-.82-.58-.71-1.27l3.08.57c.08-.24.14-.53.17-.71M135.99,60.61c.14-.7.52-1.02,1.08-.91.51.1.73.5.59,1.22l-1.67-.31ZM139.06,61.43c.26-1.39-.35-2.48-1.8-2.75-1.5-.28-2.56.55-2.87,2.23-.31,1.68.38,2.79,1.93,3.08,1.24.23,2.1-.25,2.42-1.26l-1.38-.26c-.15.32-.41.45-.85.37-.6-.11-.82-.58-.71-1.27l3.08.57c.08-.24.14-.53.18-.71M129.22,62.51l1.77-4.26.13,4.61,1.49.28,2.83-7.02-1.67-.31-1.59,4.75-.07-5.06-1.18-.22-1.87,4.7.22-5.01-1.68-.31.13,7.57,1.49.28ZM123.62,61.47l1.35-7.3-1.52-.28-1.35,7.3,1.52.28ZM118.84,59.4c-.61-.11-.85-.65-.69-1.53.16-.88.58-1.28,1.19-1.17.6.11.86.66.7,1.52-.16.88-.61,1.29-1.2,1.18M118.11,60.59c.66.12,1.19-.09,1.56-.62l-.14.74,1.52.28.93-4.99-1.52-.28-.14.74c-.15-.63-.58-1.01-1.24-1.13-1.21-.22-2.19.68-2.48,2.26-.29,1.59.29,2.78,1.5,3.01M114.27,59.74l2.74-4.66-1.6-.3-1.46,2.91-.32-3.24-1.6-.3.88,5.33,1.36.25ZM110.56,59.05l.93-4.99-1.51-.28-.93,4.99,1.51.28ZM110.76,53.42c.55.1,1.03-.22,1.13-.76.1-.55-.23-1.02-.78-1.13-.54-.1-1.02.22-1.12.77-.1.54.23,1.01.78,1.11M108.25,57.34c-.38-.07-.5-.31-.41-.79l.35-1.89.81.15.22-1.18-.81-.15.28-1.49-1.52-.28-.28,1.49-.64-.12-.22,1.18.64.12-.43,2.3c-.2,1.07.36,1.73,1.28,1.9.29.05.55.07.82.07l.23-1.26c-.15-.02-.23-.02-.32-.04M103.02,57.81c1.23.23,2.11-.27,2.29-1.27.14-.74-.19-1.29-.93-1.68l-.9-.47c-.27-.15-.39-.34-.35-.57.05-.26.29-.39.59-.33.36.07.53.31.46.69l1.45.27c.18-.96-.49-1.72-1.71-1.94-1.16-.21-2.05.23-2.22,1.18-.14.74.21,1.33.96,1.72l.86.43c.24.13.36.33.32.56-.06.3-.3.45-.61.39-.41-.08-.59-.37-.52-.74l-1.5-.28c-.19,1,.54,1.81,1.81,2.05M97.95,53.56c.14-.7.52-1.02,1.08-.91.51.09.73.5.59,1.22l-1.67-.31ZM101.02,54.38c.26-1.39-.35-2.48-1.8-2.75-1.5-.28-2.56.55-2.87,2.23-.31,1.68.38,2.79,1.93,3.08,1.24.23,2.1-.25,2.42-1.26l-1.38-.26c-.15.32-.41.45-.85.37-.6-.11-.82-.58-.72-1.27l3.08.57c.08-.24.14-.53.17-.71M93.2,55.84l.48-2.6,2.13.39.26-1.4-2.13-.4.36-1.94,2.13.39.25-1.36-3.74-.69-1.35,7.3,1.62.3ZM86.55,53.42c-.6-.11-.87-.66-.71-1.53.16-.87.6-1.28,1.21-1.17.6.11.84.64.68,1.52-.17.89-.59,1.29-1.18,1.18M87.77,49.52c-.66-.12-1.19.08-1.56.62l.56-3.04-1.51-.28-1.35,7.3,1.51.28.14-.74c.15.63.58,1.01,1.24,1.13,1.21.22,2.19-.68,2.48-2.27.29-1.58-.29-2.77-1.5-3M79.91,53.51c.74.14,1.23-.08,1.57-.59l-.13.72,1.52.28.93-4.99-1.52-.28-.52,2.82c-.12.67-.44.99-.91.9-.45-.08-.61-.43-.5-1.02l.55-2.95-1.53-.28-.59,3.17c-.23,1.25.19,2.06,1.15,2.24M77.44,52.92l1.35-7.3-1.52-.28-1.35,7.3,1.52.28ZM72.32,52.17c1.74.32,2.87-.49,3.3-2.31l-1.68-.31c-.23.92-.62,1.33-1.35,1.2-.93-.17-1.16-1.07-.87-2.66.3-1.6.84-2.35,1.76-2.18.73.14.95.66.84,1.6l1.68.31c.26-1.85-.51-3.02-2.25-3.34-1.97-.36-3.25.85-3.71,3.29-.45,2.44.31,4.04,2.28,4.4"/>
    <path class="cls-1" d="M234.65,68.39l.5-2.7c.14-.76.43-1.11.96-1.01.47.09.6.43.47,1.12l-.53,2.85,1.54.29.61-3.26c.23-1.24-.21-1.97-1.19-2.15-.66-.12-1.2.07-1.58.58l.13-.71-1.52-.28-.93,4.99,1.52.28ZM229.95,66.33c-.6-.11-.85-.65-.69-1.53.16-.88.58-1.28,1.19-1.17.6.11.86.66.7,1.52-.16.88-.61,1.29-1.2,1.18M231.42,63.39c-.14-.62-.57-1.01-1.24-1.13-1.2-.22-2.17.65-2.46,2.22-.29,1.57.3,2.73,1.5,2.95.66.12,1.2-.08,1.56-.59l-.18.99c-.12.63-.44.92-1,.82-.51-.09-.71-.42-.69-.77l-1.53-.28c-.06.54.14,1.07.54,1.46.35.34.84.59,1.43.7.62.11,1.13.08,1.58-.09.63-.26,1.06-.82,1.22-1.72l.93-4.99-1.52-.28-.14.74ZM226.58,66.89l.93-4.99-1.51-.28-.93,4.99,1.51.28ZM226.77,61.26c.55.1,1.03-.22,1.13-.76.1-.55-.23-1.02-.78-1.13-.54-.1-1.02.22-1.12.77-.1.54.23,1.01.77,1.11M222.38,66.27c1.23.23,2.11-.27,2.29-1.27.14-.74-.19-1.29-.93-1.68l-.9-.47c-.27-.15-.39-.34-.35-.57.05-.26.29-.39.59-.33.36.07.52.31.46.69l1.45.27c.18-.96-.49-1.72-1.71-1.95-1.16-.21-2.05.23-2.23,1.18-.14.74.21,1.33.96,1.72l.86.43c.25.13.36.33.32.56-.06.3-.3.45-.61.39-.41-.08-.59-.37-.52-.74l-1.5-.28c-.18,1,.54,1.81,1.81,2.05M217.33,62.02c.14-.7.52-1.02,1.08-.91.51.1.73.5.59,1.22l-1.67-.31ZM220.41,62.84c.26-1.39-.35-2.48-1.8-2.75-1.5-.28-2.56.55-2.87,2.23-.31,1.68.38,2.79,1.93,3.08,1.24.23,2.1-.25,2.42-1.26l-1.38-.26c-.14.32-.41.45-.85.37-.6-.11-.82-.58-.71-1.27l3.08.57c.08-.24.14-.53.17-.71M212.07,58.07l.64.12c.96.18,1.39,1,1.1,2.57s-.99,2.18-1.95,2l-.64-.12.85-4.57ZM211.61,64.12c1.99.37,3.45-.87,3.86-3.06.41-2.23-.49-3.87-2.43-4.22l-2.32-.43-1.35,7.3,2.24.41ZM203.44,62.61l.5-2.7c.14-.76.43-1.11.96-1.01.47.09.6.43.47,1.12l-.53,2.85,1.54.29.61-3.26c.23-1.24-.21-1.97-1.19-2.15-.66-.12-1.2.07-1.58.58l.13-.71-1.52-.28-.92,4.99,1.52.28ZM199.01,60.6c-.6-.11-.85-.64-.69-1.53.17-.89.6-1.29,1.19-1.18.59.11.85.64.69,1.53-.16.89-.6,1.29-1.19,1.18M198.77,61.89c1.51.28,2.64-.58,2.94-2.2.3-1.62-.45-2.82-1.96-3.1-1.51-.28-2.64.58-2.94,2.19-.3,1.62.45,2.82,1.96,3.1M195.68,61.17l.92-4.99-1.51-.28-.92,4.99,1.51.28ZM195.87,55.53c.55.1,1.03-.22,1.13-.76.1-.55-.23-1.02-.78-1.13-.54-.1-1.02.22-1.12.77-.1.54.23,1.01.77,1.11M193.39,59.46c-.38-.07-.5-.31-.42-.79l.35-1.89.81.15.22-1.18-.81-.15.28-1.49-1.52-.28-.28,1.49-.64-.12-.22,1.18.64.12-.43,2.3c-.2,1.07.36,1.73,1.28,1.9.29.05.55.07.82.07l.23-1.26c-.15-.02-.23-.02-.32-.04M187.64,58.49c-.61-.11-.85-.65-.69-1.53.16-.88.58-1.28,1.19-1.17.59.11.86.66.7,1.52-.16.88-.61,1.29-1.2,1.18M186.91,59.68c.66.12,1.19-.09,1.56-.61l-.14.74,1.52.28.93-4.99-1.52-.28-.14.74c-.15-.63-.58-1.01-1.24-1.14-1.21-.22-2.19.68-2.48,2.26-.29,1.58.29,2.78,1.5,3.01M182.23,58.83c1.37.25,2.3-.29,2.61-1.58l-1.48-.27c-.13.46-.42.66-.85.58-.58-.11-.8-.65-.63-1.53.16-.87.58-1.31,1.12-1.21.46.09.66.38.6.89l1.48.27c.23-1.31-.45-2.18-1.86-2.45-1.44-.27-2.55.59-2.85,2.21-.3,1.64.39,2.81,1.87,3.08M179.23,58.12l.93-4.99-1.51-.28-.93,4.99,1.51.28ZM179.42,52.48c.55.1,1.03-.22,1.13-.76.1-.55-.23-1.02-.78-1.13-.54-.1-1.02.22-1.12.77-.1.54.23,1.01.77,1.11M173.84,57.12l.5-2.7c.14-.76.43-1.11.96-1.01.47.09.6.43.47,1.12l-.53,2.85,1.54.29.61-3.26c.23-1.24-.21-1.97-1.19-2.15-.66-.12-1.2.07-1.58.58l.13-.71-1.52-.28-.93,4.99,1.52.28ZM168.39,56.25c.74.14,1.22-.09,1.57-.59l-.13.72,1.52.28.92-4.99-1.52-.28-.52,2.82c-.12.67-.44.99-.91.9-.45-.08-.61-.43-.5-1.02l.55-2.95-1.53-.28-.59,3.17c-.23,1.25.19,2.06,1.15,2.24M160.4,54.63l.52-2.83c.12-.65.41-.98.88-.89.41.08.54.4.44.97l-.55,2.99,1.53.28.52-2.83c.12-.65.41-.98.88-.9.41.08.54.4.44.97l-.55,2.99,1.53.28.59-3.17c.23-1.26-.21-2.07-1.23-2.26-.69-.13-1.24.15-1.57.66-.09-.64-.47-1.04-1.15-1.16-.64-.12-1.15.09-1.47.6l.13-.71-1.52-.28-.92,4.99,1.52.28ZM152.32,53.13l.52-2.83c.12-.65.41-.98.88-.89.41.08.54.4.44.97l-.56,2.99,1.53.28.52-2.83c.12-.65.41-.98.88-.9.41.08.54.4.44.97l-.55,2.99,1.53.28.59-3.17c.23-1.26-.21-2.07-1.23-2.25-.69-.13-1.24.15-1.57.66-.09-.64-.47-1.03-1.15-1.16-.64-.12-1.15.09-1.47.6l.13-.71-1.52-.28-.93,4.99,1.52.28ZM147.89,51.12c-.59-.11-.85-.64-.69-1.53.16-.89.6-1.29,1.19-1.18.6.11.85.64.69,1.53s-.6,1.29-1.19,1.18M147.65,52.42c1.51.28,2.64-.58,2.94-2.19.3-1.62-.45-2.82-1.96-3.1-1.51-.28-2.64.58-2.94,2.2-.3,1.62.45,2.82,1.96,3.1M141.89,51.4c1.74.32,2.87-.49,3.3-2.31l-1.68-.31c-.23.92-.62,1.33-1.35,1.2-.93-.17-1.16-1.07-.87-2.66.3-1.6.83-2.35,1.76-2.18.73.14.95.66.84,1.6l1.68.31c.26-1.85-.51-3.02-2.25-3.34-1.97-.36-3.25.85-3.71,3.29-.45,2.44.31,4.04,2.28,4.4M136.23,50.15l1.35-7.3-1.52-.28-1.35,7.3,1.52.28ZM131.48,48.08c-.6-.11-.85-.65-.69-1.53.16-.88.58-1.28,1.19-1.17.6.11.86.66.7,1.52-.16.88-.61,1.29-1.2,1.18M130.75,49.27c.66.12,1.19-.09,1.56-.62l-.14.74,1.52.28.93-4.99-1.52-.28-.14.74c-.15-.63-.58-1.01-1.24-1.14-1.21-.22-2.19.68-2.48,2.26-.29,1.58.29,2.78,1.5,3.01M125.15,48.24c.74.14,1.23-.09,1.57-.59l-.13.72,1.52.28.93-4.99-1.52-.28-.52,2.82c-.12.67-.44.99-.91.9-.45-.08-.61-.43-.5-1.02l.55-2.95-1.53-.28-.59,3.17c-.23,1.25.19,2.06,1.15,2.24M121.03,47.48c1.23.23,2.11-.27,2.29-1.27.14-.74-.19-1.29-.93-1.68l-.9-.47c-.27-.15-.39-.34-.35-.57.05-.26.29-.39.59-.33.35.07.52.31.45.69l1.45.27c.18-.96-.49-1.72-1.71-1.94-1.16-.21-2.05.23-2.23,1.18-.14.74.2,1.33.96,1.72l.86.43c.24.13.36.33.32.56-.06.3-.3.45-.61.39-.41-.08-.59-.37-.52-.74l-1.5-.28c-.19,1,.54,1.81,1.81,2.05M118.26,46.82l.92-4.99-1.51-.28-.93,4.99,1.51.28ZM118.46,41.18c.55.1,1.03-.22,1.13-.76.1-.55-.23-1.02-.78-1.13-.54-.1-1.02.22-1.12.77-.1.54.23,1.01.77,1.11M114.2,46.07l3.46-6.91-1.7-.32-2.12,4.87-.23-5.31-1.71-.32.75,7.69,1.55.29ZM106.96,42.42c-.12.66-.44.97-.91.89-.45-.08-.61-.42-.5-1.03l.53-2.88-1.53-.28-.57,3.09c-.21,1.14.12,2.04,1.15,2.23.74.14,1.23-.09,1.57-.59l-.16.89c-.14.75-.43,1.03-.93.94-.46-.09-.65-.38-.62-.76l-1.45-.27c-.11.63.08,1.13.46,1.5.32.31.77.52,1.41.64.64.12,1.16.06,1.58-.14.56-.29.92-.84,1.09-1.75l.92-4.94-1.52-.28-.51,2.76ZM102.9,42.69c-.38-.07-.5-.31-.41-.79l.35-1.89.81.15.22-1.18-.81-.15.28-1.49-1.52-.28-.28,1.49-.64-.12-.22,1.18.64.12-.43,2.3c-.2,1.07.36,1.73,1.28,1.9.29.05.55.07.82.07l.23-1.26c-.15-.02-.23-.02-.32-.04M99.37,43.32l.93-4.99-1.51-.28-.93,4.99,1.51.28ZM99.57,37.68c.55.1,1.03-.22,1.13-.76.1-.55-.23-1.02-.78-1.13-.54-.1-1.02.22-1.12.77-.1.54.23,1.01.78,1.11M95.17,42.69c1.23.23,2.11-.27,2.29-1.27.14-.74-.19-1.29-.93-1.68l-.9-.47c-.27-.15-.39-.34-.35-.57.05-.26.29-.39.59-.33.35.07.52.31.46.69l1.45.27c.18-.96-.49-1.72-1.71-1.94-1.16-.21-2.05.23-2.23,1.18-.14.74.21,1.33.96,1.72l.86.43c.24.13.36.33.32.55-.06.3-.3.45-.61.39-.41-.08-.59-.37-.52-.74l-1.5-.28c-.18,1,.54,1.81,1.81,2.05M91.44,41.85l.37-1.99c.2-1.1.64-1.52,1.39-1.38.13.02.17.03.29.07l.28-1.5c-.09-.03-.15-.05-.28-.07-.61-.11-1.18.23-1.45,1.02l.22-1.17-1.41-.26-.93,4.99,1.52.28ZM86.69,37.81c.14-.7.52-1.01,1.08-.91.51.09.73.5.59,1.22l-1.67-.31ZM89.76,38.62c.26-1.39-.35-2.48-1.8-2.75-1.5-.28-2.56.55-2.87,2.23-.31,1.68.38,2.79,1.93,3.08,1.24.23,2.1-.25,2.42-1.26l-1.38-.26c-.14.32-.41.45-.85.37-.6-.11-.82-.58-.72-1.27l3.08.57c.08-.24.14-.53.17-.71M82.81,40.25l2.74-4.66-1.61-.3-1.46,2.91-.32-3.24-1.6-.3.88,5.33,1.35.25ZM79.13,39.57l.93-4.99-1.51-.28-.92,4.99,1.51.28ZM79.33,33.93c.55.1,1.03-.22,1.13-.76.1-.55-.23-1.02-.78-1.13-.54-.1-1.02.22-1.12.77-.1.54.23,1.01.77,1.11M73.75,38.57l.5-2.7c.14-.76.43-1.11.96-1.01.47.09.6.43.47,1.12l-.53,2.85,1.54.29.6-3.26c.23-1.24-.21-1.97-1.19-2.15-.66-.12-1.2.07-1.58.58l.13-.71-1.52-.28-.93,4.99,1.52.28ZM68.65,37.82c1.61.3,2.78-.45,3.1-2.16l.9-4.84-1.62-.3-.88,4.77c-.16.86-.65,1.24-1.24,1.13-.57-.11-.89-.64-.73-1.49l.88-4.77-1.63-.3-.9,4.84c-.32,1.7.5,2.83,2.1,3.13M62.67,31.35l-1.76,1.99.84-4.55-1.51-.28-1.35,7.3,1.51.28.44-2.39.85,2.63,1.76.33-1.07-2.96,2.02-2.03-1.73-.32ZM57.87,35.62l.92-4.99-1.51-.28-.93,4.99,1.51.28ZM58.06,29.99c.55.1,1.03-.22,1.13-.76.1-.55-.23-1.02-.78-1.13-.54-.1-1.02.22-1.12.77-.1.54.23,1.01.77,1.11M53.17,33.57c-.61-.11-.85-.65-.69-1.53.16-.88.58-1.28,1.19-1.17.6.11.86.66.7,1.52-.16.88-.61,1.29-1.2,1.18M54.65,30.63c-.15-.62-.57-1.01-1.24-1.13-1.2-.22-2.17.65-2.46,2.22-.29,1.57.3,2.73,1.5,2.95.66.12,1.2-.08,1.56-.59l-.18.99c-.12.63-.44.92-1,.82-.51-.09-.71-.42-.69-.77l-1.53-.28c-.06.54.14,1.07.54,1.46.35.35.84.59,1.44.7.62.11,1.13.08,1.58-.09.63-.26,1.06-.82,1.22-1.72l.93-4.99-1.52-.28-.14.74ZM46.91,33.59l.5-2.7c.14-.76.43-1.11.96-1.01.47.09.6.43.47,1.12l-.53,2.85,1.54.29.6-3.26c.23-1.24-.21-1.97-1.19-2.15-.66-.12-1.2.07-1.58.58l.13-.71-1.52-.28-.93,4.99,1.52.28ZM42.47,31.59c-.6-.11-.85-.64-.69-1.53.16-.89.6-1.29,1.19-1.18.6.11.85.64.69,1.53-.16.89-.6,1.29-1.19,1.18M42.23,32.88c1.51.28,2.64-.58,2.94-2.19.3-1.62-.45-2.82-1.96-3.1-1.51-.28-2.64.58-2.94,2.19-.3,1.62.45,2.82,1.96,3.1M35.6,31.5l.54-2.93,1.88.35-.54,2.93,1.6.3,1.35-7.3-1.6-.3-.55,2.98-1.88-.35.55-2.98-1.6-.3-1.35,7.3,1.6.3ZM28.98,29.09c-.6-.11-.85-.64-.69-1.53.16-.89.6-1.29,1.19-1.18.6.11.85.64.69,1.53-.17.89-.6,1.29-1.19,1.18M31.76,23.45l-1.74-.32-2.36,2.45c-.44.39-.74.96-.88,1.69-.3,1.62.45,2.82,1.96,3.1,1.51.28,2.64-.58,2.94-2.19.27-1.47-.31-2.6-1.57-3.01l1.65-1.72ZM26.01,29.72l.26-1.39-2.84-.53c.21-.49.49-.72,1.22-1.01l.77-.31c1.08-.44,1.55-1.08,1.71-1.98.23-1.22-.41-2.14-1.91-2.41-1.57-.29-2.64.45-2.92,1.97l1.57.29c.14-.77.5-1.08,1.07-.98.45.08.63.42.54.92-.08.42-.25.75-.99,1.05l-.92.38c-1.27.52-1.92,1.32-2.26,3.13l4.7.87ZM18.27,27.14c-.85-.16-1-.83-.66-2.65.34-1.81.72-2.39,1.57-2.23.84.15.99.83.65,2.65-.34,1.82-.72,2.39-1.56,2.24M18.04,28.39c1.81.34,2.85-.68,3.32-3.2.47-2.53-.14-3.84-1.95-4.18-1.82-.34-2.87.68-3.33,3.2-.47,2.52.14,3.84,1.96,4.18M14.77,27.64l.26-1.39-2.84-.53c.21-.49.49-.72,1.23-1.01l.77-.31c1.08-.44,1.55-1.08,1.71-1.98.23-1.22-.41-2.14-1.91-2.41-1.57-.29-2.64.45-2.92,1.97l1.57.29c.14-.77.5-1.08,1.07-.98.45.08.63.42.54.92-.08.42-.25.75-.99,1.05l-.92.38c-1.27.52-1.93,1.32-2.26,3.13l4.7.87Z"/>
  </g>
  <path class="cls-1" d="M227.62,52.13c-.94-.17-1.27-1.08-.97-2.66.29-1.59.92-2.31,1.86-2.14.95.18,1.27,1.08.97,2.66-.29,1.59-.91,2.31-1.86,2.14M227.36,53.58c1.99.37,3.36-.8,3.82-3.27.46-2.47-.4-4.06-2.39-4.42-1.98-.37-3.35.8-3.81,3.27-.46,2.47.4,4.05,2.38,4.42M221.55,52.5c1.41.26,2.5-.42,2.75-1.76.18-.96-.12-1.64-.98-2.33l-.89-.67c-.49-.39-.74-.65-.65-1.12.08-.43.39-.65.84-.57.48.09.71.48.58,1.18l1.57.29c.28-1.49-.36-2.44-1.89-2.72-1.4-.26-2.46.37-2.69,1.61-.19,1.02.18,1.74,1.07,2.4l.84.61c.48.37.68.69.6,1.15-.09.47-.43.72-.9.63-.56-.1-.82-.56-.68-1.34l-1.61-.3c-.3,1.64.46,2.66,2.04,2.96M218.36,51.71l1.35-7.3-1.6-.3-1.35,7.3,1.61.3ZM213.65,51.04c1.41.26,2.5-.42,2.75-1.76.18-.96-.12-1.64-.98-2.33l-.89-.67c-.49-.39-.74-.66-.65-1.12.08-.43.39-.65.84-.57.48.09.71.48.58,1.18l1.57.29c.28-1.49-.36-2.44-1.89-2.72-1.4-.26-2.46.37-2.69,1.61-.19,1.02.18,1.74,1.08,2.4l.84.61c.48.37.68.69.6,1.15-.09.47-.43.72-.91.63-.56-.1-.82-.56-.68-1.34l-1.61-.3c-.3,1.64.46,2.66,2.04,2.95M207.1,48.67l1.27.24.23-1.23-1.27-.24-.23,1.23ZM207.8,44.9l1.27.24.23-1.23-1.27-.24-.23,1.23ZM204.9,49.81l.2-1.07-4.6-.85.35-1.88-1.33-.25-.55,2.95,5.92,1.1ZM203.78,41.37l-4.24-.79-.2,1.08,2.78.52c-.49,1.18-2.02,2.03-3.69,2.08l.34,1.15c2.05-.1,4.36-1.28,5-4.04M206.88,44.89l.2-1.09-1.24-.23.45-2.42-1.31-.24-1.17,6.33,1.31.24.52-2.82,1.24.23ZM193.76,47.97l.55-2.97,3.37.62.19-1.05-7.98-1.48-.19,1.05,3.31.61-.55,2.97,1.3.24ZM190.84,42.69c1.18.1,2.75-.25,3.44-1.09.35,1.05,1.71,1.9,2.86,2.25.23-.31.47-.61.7-.92-1.39-.39-2.61-1.32-2.57-2.38l2.55.47.19-1.03-6.62-1.23-.19,1.03,2.53.47c-.33,1.02-1.77,1.47-3.22,1.33.1.38.22.73.33,1.11M188.15,46.92l1.64-8.83-1.21-.22-1.64,8.83,1.21.22ZM186.42,46.18l1.53-8.25-1.2-.22-.51,2.77-1-.19-.21,1.14,1,.19-.8,4.34,1.2.22ZM185.59,43.31c-1.15-1.05-1.28-2.18-.97-3.82l.07-.38,1.28.24.19-1.02-3.94-.73-.19,1.02,1.4.26-.07.38c-.3,1.61-.88,2.74-2.46,3.44l.55,1.03c.75-.26,1.8-1.2,2.11-1.93.07.82.66,1.87,1.17,2.34l.88-.82ZM175.94,36.66l2.97.55.18-.99-2.97-.55-.18.99ZM180.58,39.74c-1.37-.25-2.14-.76-2.42-1.28l2.16.4.19-1-6.27-1.16-.19,1,2.18.4c-.43.38-1.33.56-2.74.3l.27,1.11c1.44.28,2.77-.02,3.32-.67.29.8,1.51,1.57,2.86,1.8l.64-.91ZM173.39,41.36l-.2,1.06,4.76.88-.32,1.7,1.31.24.51-2.76-2.33-.43.1-.55,3.37.62.19-1.04-7.98-1.48-.19,1.04,3.31.61-.1.55-2.44-.45ZM164.14,36.08c.12-.65.66-.96,1.26-.85.61.11,1.03.6.9,1.25-.12.65-.67.94-1.29.83-.61-.11-1-.58-.88-1.23M162.85,35.85c-.23,1.26.62,2.33,1.96,2.58,1.36.25,2.55-.44,2.78-1.7.23-1.27-.64-2.31-1.99-2.56-1.34-.25-2.52.41-2.75,1.68M167.63,41.97l-3.32-.62.24-1.3,3.32.62-.24,1.3ZM168.77,43.22l.61-3.29-5.98-1.11-.61,3.29,5.98,1.11ZM169.06,34.25l-.94,5.06,1.33.25.94-5.06-1.33-.25ZM159.53,36.56l-3.6-.67.42-2.25,3.6.67-.42,2.25ZM161.03,40.75l.19-1.03-3.34-.62.32-1.71,2.45.45.8-4.33-6.21-1.15-.8,4.33,2.47.46-.32,1.71-3.34-.62-.19,1.03,7.97,1.48ZM152.46,39.18l.19-1.03-3.37-.62.37-2-1.3-.24-.37,2-3.31-.61-.19,1.03,7.98,1.48ZM152.98,35.23c-1.43-.44-2.85-1.82-2.55-3.44l.09-.47-1.41-.26-.09.46c-.3,1.62-2.14,2.41-3.62,2.31l.38,1.2c1.17,0,2.92-.57,3.63-1.77.26,1.38,1.72,2.54,2.77,2.95l.79-.99ZM139.43,35.81l.08-1.01c-.63-.03-1.56-.14-2.55-.26l.43-2.34-1.25-.23-.44,2.39c-.55-.09-.96-.18-1.72-.32l-.06,1.1c.65.12,1.29.22,2.22.36,1.1.14,2.45.27,3.28.31M140.22,29.8l-4.72-.88-.2,1.07,3.41.63c-.18.98-.41,1.86-.72,2.73l1.2.35c.4-.94.77-2.43,1.04-3.91M142.61,34.09l.2-1.07-1.15-.21.65-3.52-1.3-.24-1.64,8.83,1.3.24.79-4.24,1.15.21ZM127.73,29.56c.12-.67.71-1.01,1.36-.89.65.12,1.09.64.97,1.32-.12.66-.71.97-1.37.85-.65-.12-1.08-.62-.96-1.28M126.45,29.33c-.24,1.29.67,2.37,2.03,2.62,1.37.25,2.61-.43,2.85-1.72.24-1.3-.68-2.38-2.04-2.63-1.37-.25-2.6.43-2.84,1.73M132.67,36.41l.19-1.02-4.87-.9.34-1.84-1.32-.24-.53,2.86,6.19,1.15ZM132.9,34.17l1.19-6.4-1.33-.25-1.19,6.4,1.33.25ZM125.12,26.11l-1.29-.24-1.64,8.83,1.29.24.82-4.43,1.19.22.2-1.07-1.19-.22.62-3.33ZM122.47,31.6c-1.24-1-1.74-2.36-1.38-4.27l1.7.32.2-1.09-4.75-.88-.2,1.09,1.69.31v.04c-.36,1.92-1.23,3.1-2.9,3.72l.59,1.14c.89-.29,2.09-1.25,2.52-2.16.13.92.98,2.15,1.59,2.69l.93-.91ZM110.39,29.23l.71-3.83,2.7.5.19-1.03-4.02-.74-1.11,5.96c.48.09.94.19,1.42.28,1.36.25,2.8.41,3.61.37.02-.38.03-.73.06-1.1-.71.04-1.88-.09-3.03-.3-.19-.03-.37-.07-.54-.11M115.21,33.4l1.64-8.83-1.31-.24-1.64,8.83,1.31.24ZM105.47,22.99l-4.2-.78-.2,1.08,2.72.51c-.37,1.06-1.96,1.88-3.64,1.91l.32,1.15c2.63-.24,4.47-1.43,5-3.86M106.36,31.81l.62-3.33-5.98-1.11-.19,1.04,4.67.86-.42,2.29,1.32.24ZM108.64,26.27l.2-1.06-1.23-.23.38-2.05-1.31-.24-.95,5.12,1.31.24.37-2.01,1.23.23ZM97.04,26.87c-1.24-1.03-1.75-2.41-1.4-4.26l.22-1.18-1.37-.25-.23,1.22c-.34,1.85-1.22,3.05-2.91,3.67l.64,1.16c.88-.26,2.1-1.2,2.49-2.07.1.92.94,2.07,1.61,2.61l.96-.91ZM98.19,30.24l1.64-8.83-1.34-.25-1.64,8.83,1.34.25ZM88.94,20.28l-6.29-1.17-.19,1.04,4.97.92c-.15,1.11-.58,2.63-.93,3.58l1.21.36c.51-1.21.98-3.22,1.23-4.73M88.45,27.17l.19-1.04-2.82-.52.49-2.61-1.31-.24-.49,2.62-.78-.15.49-2.62-1.32-.24-.49,2.62-1.74-.32-.19,1.04,7.98,1.48ZM74.29,20.99c.06-.32.45-.54.93-.45.48.09.78.44.72.76-.06.34-.47.54-.94.45-.49-.09-.77-.42-.71-.76M77.24,21.54c.16-.84-.6-1.7-1.85-1.93-1.28-.24-2.27.3-2.42,1.14-.16.87.58,1.72,1.85,1.95,1.25.23,2.26-.29,2.42-1.16M74.36,17.83l2.65.49.19-1-2.65-.49-.18,1ZM78.01,19.91l.19-1.01-5.17-.96-.19,1.01,5.17.96ZM73.19,22.72l-.19,1.03,4.62.86-.33,1.77,1.33.25.52-2.8-5.94-1.1ZM80.74,21.61l.2-1.06-1.16-.22.47-2.55-1.31-.24-1.06,5.72,1.31.24.39-2.11,1.16.22ZM65.21,20.98l.69-3.72,2.04.38.19-1.02-3.35-.62-1.07,5.8.95.18c.78.15,2.2.33,2.97.3l.06-1.02c-.59.02-1.76-.14-2.27-.24l-.2-.04ZM70.64,25.14l1.64-8.83-1.25-.23-.63,3.42-.65-.12.61-3.27-1.23-.23-1.53,8.27,1.23.23.73-3.95.65.12-.81,4.36,1.25.23ZM57.25,16.37c.12-.66.66-.95,1.26-.84.61.11,1.03.59.91,1.24-.12.66-.66.93-1.29.82-.6-.11-1-.57-.88-1.22M55.96,16.13c-.23,1.26.62,2.32,1.96,2.57,1.35.25,2.55-.43,2.78-1.69.24-1.27-.64-2.29-2-2.54-1.34-.25-2.51.4-2.75,1.66M56.46,19.21l-.19,1.05,4.71.87-.4,2.15,1.31.24.59-3.2-6.01-1.11ZM62.54,19.93l.97-5.24-1.33-.25-.97,5.24,1.33.25ZM52.39,16.44c-.04.2-.47.25-1.53.05-1.05-.19-1.46-.4-1.43-.6.04-.22.5-.25,1.55-.05,1.06.2,1.45.38,1.4.6M51.98,20.4c-.04.23-.76.24-1.86.03-1.06-.2-1.75-.47-1.71-.7.05-.25.78-.24,1.84-.05,1.1.2,1.77.46,1.72.71M49.93,13.27l3.02.56.18-.95-3.02-.56-.18.95ZM54.68,15.45l.18-.98-7.04-1.31-.18.98,7.04,1.3ZM53.44,20.67c.13-.72-.69-1.47-3-1.9-2.32-.43-3.34-.04-3.48.7-.13.7.68,1.47,3,1.9,2.31.43,3.35,0,3.48-.7M54.45,19.35l.18-.99-3.35-.62.05-.29c1.51.18,2.29-.19,2.4-.77.12-.66-.65-1.38-2.59-1.74-1.94-.36-2.92.03-3.04.7-.11.57.47,1.18,1.93,1.57l-.05.29-3.33-.62-.18.99,7.98,1.48ZM41.31,17.71c-.6-.11-.85-.64-.69-1.53.16-.89.6-1.29,1.19-1.18.59.11.85.64.69,1.53-.16.89-.6,1.29-1.19,1.18M44.09,12.08l-1.74-.32-2.36,2.45c-.44.39-.74.96-.87,1.69-.3,1.62.45,2.82,1.96,3.1,1.51.28,2.64-.58,2.94-2.19.27-1.47-.32-2.6-1.57-3.01l1.65-1.72ZM38.31,18.34l.26-1.39-2.84-.53c.21-.49.49-.72,1.22-1.01l.77-.31c1.08-.43,1.55-1.08,1.71-1.98.23-1.22-.41-2.14-1.91-2.41-1.57-.29-2.64.45-2.92,1.97l1.57.29c.14-.77.5-1.08,1.07-.98.45.08.63.42.54.92-.08.42-.25.75-.99,1.05l-.92.38c-1.27.52-1.93,1.32-2.26,3.13l4.7.87ZM30.54,15.76c-.85-.16-1-.83-.66-2.65.34-1.82.72-2.39,1.57-2.23.84.15.99.83.65,2.65-.34,1.82-.72,2.39-1.56,2.24M30.31,17.01c1.81.34,2.85-.68,3.32-3.2.47-2.53-.14-3.84-1.95-4.18-1.83-.34-2.87.68-3.33,3.2-.47,2.52.14,3.84,1.96,4.18M27.02,16.24l.26-1.39-2.84-.53c.21-.49.49-.72,1.23-1.01l.77-.31c1.08-.44,1.55-1.08,1.71-1.98.23-1.22-.41-2.14-1.91-2.41-1.57-.29-2.64.45-2.92,1.97l1.57.29c.14-.77.5-1.08,1.07-.98.45.08.63.42.54.92-.08.42-.25.75-.99,1.05l-.92.38c-1.27.52-1.93,1.32-2.26,3.13l4.7.87Z"/>
</svg>