<?xml version="1.0" encoding="UTF-8"?>
<svg id="_레이어_1" data-name="레이어 1" xmlns="http://www.w3.org/2000/svg" viewBox="0 0 112 55.2">
  <defs>
    <style>
      .cls-1 {
        fill: #231f20;
      }

      .cls-2 {
        isolation: isolate;
      }

      .cls-3 {
        fill: #fff;
      }
    </style>
  </defs>
  <g class="cls-2">
    <rect class="cls-3" x="45.48" y="-27.93" width="21.05" height="111.06" transform="translate(12.06 71.95) rotate(-71.5)"/>
  </g>
  <path class="cls-1" d="M100.88,41.15l1.37-4.1-.9-.3-1.37,4.1.9.3ZM99.08,36.76c.43.15.55.53.39,1.01-.16.49-.49.71-.92.57l-.31-.1.53-1.57.31.1ZM99.29,39.14c.52-.1.91-.47,1.1-1.06.31-.91-.06-1.67-1.04-2l-1.25-.42-1.37,4.1.9.3.38-1.13.35.12.18,1.32,1,.33-.24-1.57ZM95.01,39.19l.49-1.46,1.2.4.26-.79-1.2-.4.37-1.09,1.2.4.26-.77-2.1-.7-1.37,4.1.91.3ZM90.98,43.08c.54.18,1.12-.12,1.3-.65.17-.52-.11-1.11-.65-1.29-.55-.18-1.12.12-1.3.64-.18.53.1,1.12.65,1.3M87.17,41.85c1.46.49,2.63-.08,3.02-1.23.28-.83.02-1.68-.84-2.14.9.12,1.54-.32,1.83-1.2.35-1.06-.14-2.06-1.56-2.53-1.47-.49-2.6.07-3.02,1.35l1.5.5c.2-.59.6-.86,1.07-.7.46.15.6.55.44,1.03-.19.58-.6.79-1.22.59l-.55-.19-.4,1.21.52.17c.73.24.95.7.76,1.27-.19.57-.61.8-1.06.65-.61-.21-.8-.69-.55-1.43l-1.5-.5c-.51,1.51-.01,2.61,1.55,3.14M83.86,40.58l2.29-6.84-1.32-.44c-.31.83-.7,1.13-1.83.75l-.41,1.23,1.19.4-1.47,4.39,1.55.52ZM77.66,38.62c.54.18,1.12-.12,1.3-.65.17-.52-.11-1.11-.65-1.29-.55-.18-1.12.12-1.3.64-.18.53.1,1.12.65,1.3M73.86,37.39c1.46.49,2.63-.08,3.02-1.23.28-.83.02-1.68-.84-2.14.9.12,1.54-.32,1.83-1.2.35-1.06-.14-2.06-1.56-2.53-1.47-.49-2.6.07-3.02,1.35l1.5.5c.2-.59.6-.86,1.08-.7.46.16.6.55.44,1.03-.2.58-.6.79-1.22.59l-.55-.18-.4,1.21.52.17c.72.24.95.7.76,1.27-.19.57-.61.8-1.06.65-.61-.21-.8-.69-.55-1.43l-1.5-.5c-.51,1.51-.01,2.61,1.56,3.14M70.15,31.7l-2.88-.96-.27.8,2.88.96.27-.8ZM62.74,28.39l.85-2.53.35,2.92.83.28,1.37-4.1-.83-.28-.88,2.61-.32-3.01-.83-.28-1.37,4.1.83.28ZM59.98,26.69c-.53-.18-.64-.72-.35-1.62.3-.89.72-1.26,1.25-1.08.53.18.64.73.35,1.62-.3.89-.71,1.26-1.25,1.08M59.71,27.5c1.12.38,2.01-.19,2.47-1.58s.1-2.37-1.02-2.75c-1.11-.37-2,.19-2.46,1.58-.46,1.39-.1,2.37,1.02,2.75M54.82,25.74l.84-2.5-.17,2.73.6.2,1.51-2.28-.84,2.5.83.28,1.37-4.1-1.01-.34-1.76,2.66.2-3.19-1.01-.34-1.37,4.1.83.28ZM50.87,29.66c.54.18,1.12-.12,1.3-.65.17-.52-.11-1.11-.65-1.29-.55-.18-1.12.12-1.3.64-.18.53.1,1.12.65,1.3M48.4,23.8c.29-.85.77-1.21,1.35-1.01.57.19.75.77.47,1.62-.29.85-.77,1.2-1.34,1-.57-.19-.76-.76-.47-1.61M51.67,24.89c.52-1.56-.05-2.86-1.51-3.34-1.46-.49-2.7.2-3.22,1.76-.47,1.42-.05,2.62,1.13,3.2l-1.87,1.48,1.68.56,2.68-2.1c.49-.33.87-.85,1.1-1.56M42,26.69c.54.18,1.12-.12,1.3-.65.18-.52-.11-1.11-.65-1.29-.55-.18-1.12.12-1.3.64-.18.53.1,1.12.65,1.3M38.19,25.46c1.46.49,2.63-.08,3.01-1.23.28-.83.02-1.68-.84-2.14.9.12,1.54-.32,1.83-1.2.35-1.06-.14-2.06-1.56-2.53-1.47-.49-2.6.07-3.02,1.35l1.5.5c.2-.59.6-.86,1.08-.7.46.16.6.55.44,1.03-.19.58-.6.8-1.21.59l-.55-.18-.4,1.21.52.17c.73.24.95.7.76,1.27-.19.57-.6.8-1.06.65-.61-.2-.8-.69-.55-1.43l-1.5-.5c-.51,1.51-.01,2.61,1.56,3.14M32.41,23.48c.54.18,1.12-.12,1.3-.65.18-.52-.11-1.11-.65-1.29-.55-.18-1.12.12-1.3.64-.18.53.1,1.12.65,1.3M28.97,20.99c-.57-.19-.75-.76-.47-1.61.29-.85.77-1.2,1.34-1.01.57.19.76.76.47,1.61-.29.85-.77,1.2-1.34,1M32.51,15.8l-1.68-.56-2.68,2.1c-.49.33-.87.85-1.1,1.56-.52,1.56.05,2.86,1.51,3.34,1.46.49,2.7-.2,3.22-1.76.47-1.42.05-2.62-1.13-3.2l1.87-1.48ZM25.92,21.2l.45-1.34-2.74-.91c.28-.46.58-.64,1.35-.83l.81-.2c1.13-.28,1.68-.86,1.97-1.72.39-1.18-.11-2.17-1.56-2.66-1.52-.51-2.67.08-3.17,1.54l1.52.51c.25-.74.65-1,1.19-.82.43.15.57.5.41.99-.14.4-.35.71-1.13.9l-.97.25c-1.33.34-2.09,1.03-2.67,2.78l4.54,1.52ZM18.58,17.56c-.81-.27-.88-.96-.29-2.71.59-1.75,1.05-2.27,1.86-1.99.81.27.86.96.28,2.71-.59,1.75-1.05,2.27-1.86,2M18.18,18.76c1.75.59,2.92-.27,3.74-2.71.81-2.43.4-3.83-1.35-4.41-1.76-.59-2.93.27-3.74,2.71-.82,2.43-.4,3.83,1.36,4.41M15.03,17.55l.45-1.34-2.74-.92c.28-.46.59-.64,1.35-.83l.8-.2c1.13-.28,1.68-.86,1.97-1.72.39-1.18-.11-2.17-1.56-2.66-1.52-.51-2.68.08-3.17,1.54l1.52.51c.25-.74.65-1,1.19-.82.43.14.57.5.41.99-.13.4-.35.71-1.13.9l-.97.25c-1.33.34-2.09,1.04-2.68,2.78l4.54,1.52Z"/>
</svg>