<?xml version="1.0" encoding="UTF-8"?>
<svg id="_레이어_1" data-name="레이어 1" xmlns="http://www.w3.org/2000/svg" xmlns:xlink="http://www.w3.org/1999/xlink" viewBox="0 0 866.06 551.62">
  <defs>
    <style>
      .cls-1 {
        fill: none;
      }

      .cls-2 {
        mask: url(#mask);
      }

      .cls-3 {
        filter: url(#luminosity-noclip);
      }

      .cls-4 {
        fill: #c5ed00;
      }

      .cls-5 {
        filter: url(#luminosity-noclip-3);
      }

      .cls-6 {
        filter: url(#luminosity-noclip-2);
      }

      .cls-7 {
        mask: url(#mask-2);
      }

      .cls-8 {
        mask: url(#mask-1);
      }

      .cls-9 {
        fill: url(#_무제_그라디언트_5);
      }

      .cls-10 {
        fill: url(#_무제_그라디언트_3);
      }

      .cls-11 {
        clip-path: url(#clippath-1);
      }

      .cls-12 {
        clip-path: url(#clippath-3);
      }

      .cls-13 {
        clip-path: url(#clippath-4);
      }

      .cls-14 {
        clip-path: url(#clippath-2);
      }

      .cls-15 {
        clip-path: url(#clippath-6);
      }

      .cls-16 {
        clip-path: url(#clippath-5);
      }

      .cls-17 {
        fill: #fff;
      }

      .cls-18 {
        fill: url(#_무제_그라디언트_3-2);
      }

      .cls-19 {
        opacity: .7;
      }

      .cls-20 {
        fill: #00cadc;
      }

      .cls-21 {
        clip-path: url(#clippath);
      }
    </style>
    <clipPath id="clippath">
      <rect class="cls-1" y="0" width="866.06" height="551.62"/>
    </clipPath>
    <clipPath id="clippath-1">
      <rect class="cls-1" x="24.37" y="298" width="179.87" height="196.74"/>
    </clipPath>
    <filter id="luminosity-noclip" x="-74" y="208.07" width="376.61" height="376.61" color-interpolation-filters="sRGB" filterUnits="userSpaceOnUse">
      <feFlood flood-color="#fff" result="bg"/>
      <feBlend in="SourceGraphic" in2="bg"/>
    </filter>
    <linearGradient id="_무제_그라디언트_3" data-name="무제 그라디언트 3" x1="875.31" y1="604.12" x2="876.31" y2="604.12" gradientTransform="translate(140916.33 204529.03) rotate(-90) scale(233.07 -233.07)" gradientUnits="userSpaceOnUse">
      <stop offset="0" stop-color="#fff"/>
      <stop offset="1" stop-color="#000"/>
    </linearGradient>
    <mask id="mask" x="-74" y="208.07" width="376.61" height="376.61" maskUnits="userSpaceOnUse">
      <g class="cls-3">
        <rect class="cls-10" x="-18.85" y="263.22" width="266.3" height="266.3" transform="translate(-246.8 196.92) rotate(-45)"/>
      </g>
    </mask>
    <clipPath id="clippath-2">
      <rect class="cls-1" x="24.37" y="298" width="179.87" height="196.74"/>
    </clipPath>
    <filter id="luminosity-noclip-2" x="-275.81" y="-433.03" width="1417.68" height="1417.68" color-interpolation-filters="sRGB" filterUnits="userSpaceOnUse">
      <feFlood flood-color="#fff" result="bg"/>
      <feBlend in="SourceGraphic" in2="bg"/>
    </filter>
    <linearGradient id="_무제_그라디언트_5" data-name="무제 그라디언트 5" x1="863.73" y1="593.73" x2="864.73" y2="593.73" gradientTransform="translate(-43694.9 -63812.13) rotate(90) scale(74.32 -74.32)" gradientUnits="userSpaceOnUse">
      <stop offset="0" stop-color="#fff"/>
      <stop offset=".38" stop-color="#fff"/>
      <stop offset="1" stop-color="#333"/>
    </linearGradient>
    <mask id="mask-1" x="-275.81" y="-433.03" width="1417.68" height="1417.68" maskUnits="userSpaceOnUse">
      <g class="cls-6">
        <rect class="cls-9" x="-68.2" y="-225.41" width="1002.45" height="1002.45" transform="translate(-68.2 386.98) rotate(-45)"/>
      </g>
    </mask>
    <clipPath id="clippath-3">
      <rect class="cls-1" x="501.58" y="326.12" width="80.12" height="64.95"/>
    </clipPath>
    <clipPath id="clippath-4">
      <rect class="cls-1" x="501.58" y="326.12" width="80.12" height="64.95"/>
    </clipPath>
    <filter id="luminosity-noclip-3" x="469.1" y="286.06" width="145.07" height="145.07" color-interpolation-filters="sRGB" filterUnits="userSpaceOnUse">
      <feFlood flood-color="#fff" result="bg"/>
      <feBlend in="SourceGraphic" in2="bg"/>
    </filter>
    <linearGradient id="_무제_그라디언트_3-2" data-name="무제 그라디언트 3" x1="881.91" y1="609.92" x2="882.91" y2="609.92" gradientTransform="translate(42844.33 61570.78) rotate(-90) scale(69.36 -69.36)" xlink:href="#_무제_그라디언트_3"/>
    <mask id="mask-2" x="469.1" y="286.06" width="145.07" height="145.07" maskUnits="userSpaceOnUse">
      <g class="cls-5">
        <rect class="cls-18" x="490.35" y="307.3" width="102.58" height="102.58" transform="translate(-94.92 488.02) rotate(-45)"/>
      </g>
    </mask>
    <clipPath id="clippath-5">
      <rect class="cls-1" x="501.58" y="326.12" width="80.12" height="64.95"/>
    </clipPath>
    <clipPath id="clippath-6">
      <rect class="cls-1" y="0" width="866.06" height="551.62"/>
    </clipPath>
  </defs>
  <g class="cls-21">
    <rect class="cls-4" x="108.32" y="368.1" width="29.47" height="29.47"/>
    <rect class="cls-4" x="531.2" y="361.91" width="20.79" height="22.86"/>
    <rect class="cls-4" x="807.88" y="165.36" width="29.77" height="80.93"/>
    <polygon class="cls-4" points="754.85 137.92 754.85 179.16 621.51 179.16 621.51 215.74 668.11 215.74 668.11 236.14 594.76 236.14 594.76 179.16 572.29 179.16 572.29 236.14 550.34 236.14 550.34 260.13 572.29 260.13 572.29 272.77 594.76 272.77 594.76 260.13 737.93 260.13 737.93 236.14 697.88 236.14 697.88 215.74 754.85 215.74 754.85 288.55 784.62 288.55 784.62 137.92 754.85 137.92"/>
    <polygon class="cls-4" points="747.86 346.76 743.46 320.67 589.76 346.56 591 353.97 591 353.97 599.53 404.61 625.2 400.29 619.81 368.33 747.86 346.76"/>
    <rect class="cls-4" x="608.83" y="407.77" width="26.02" height="101.9" transform="translate(-67.55 109.65) rotate(-9.56)"/>
    <rect class="cls-4" x="565.8" y="405.74" width="30.18" height="98.09" transform="translate(-67.47 102.79) rotate(-9.56)"/>
    <rect class="cls-4" x="536.16" y="131.72" width="48.8" height="39.66"/>
    <rect class="cls-4" x="495.69" y="186.55" width="60.53" height="32.77"/>
    <rect class="cls-4" x="365.88" y="35.01" width="36.85" height="86.66" transform="translate(174.3 409.59) rotate(-69.15)"/>
    <rect class="cls-4" x="282.4" y="15.52" width="32.58" height="63.13" transform="translate(129.48 297.69) rotate(-64.93)"/>
    <polygon class="cls-4" points="275.71 72.36 256.27 63.27 249.77 77.17 247.89 81.18 235.95 106.7 229.45 120.6 241.76 126.37 248.26 112.47 255.39 115.8 275.71 72.36"/>
    <polygon class="cls-4" points="283.69 127.02 303.23 85.24 283.8 76.14 260.63 125.68 251.5 121.41 246.53 132.03 263.95 140.18 252.12 165.48 285.17 180.95 305.6 137.27 283.69 127.02"/>
    <polygon class="cls-4" points="336.43 188.94 354.58 141.29 387.68 153.9 398.49 125.53 322.62 96.64 311.82 125 328.6 131.39 310.45 179.04 298.73 174.58 289.14 199.74 390.63 238.4 400.22 213.24 336.43 188.94"/>
    <polygon class="cls-4" points="442.86 149.19 407.41 135.68 395.59 166.7 375.64 159.11 365.14 186.69 420.55 207.79 431.05 180.21 431.05 180.21 442.86 149.19"/>
    <rect class="cls-4" x="400.22" y="308.89" width="146.59" height="27.23"/>
    <rect class="cls-4" x="70.13" y="224.04" width="188.53" height="35.87" transform="translate(-128.09 236.43) rotate(-54.72)"/>
    <polygon class="cls-4" points="319.84 456.74 218.29 430.95 214.17 447.19 207.06 475.21 205.17 482.65 201.04 498.89 278.42 518.53 282.55 502.3 306.71 508.43 319.84 456.74"/>
    <polygon class="cls-4" points="461.03 475.3 461.03 381.92 434.3 381.92 434.3 475.3 434.3 493.95 434.3 502.52 552.71 502.52 552.71 475.3 461.03 475.3"/>
    <polygon class="cls-4" points="748.1 489.12 736.39 419.59 746.72 375.54 732.94 372.65 729.27 387.93 713.4 384.44 711.13 372.65 694.38 375.54 709 462.33 652.55 471.84 656.94 497.93 713.39 488.42 714.46 494.79 748.1 489.12"/>
    <path d="M161.89,240.63v7.59h-3.52v-16h3.52v7.63l3.95-7.63h3.95l-4.41,7.93,4.46,8.07h-4.02l-3.93-7.59Z"/>
    <path d="M248.34,99.63c-.85-.96-1.27-2.33-1.27-4.11h3.54c0,.87.12,1.5.37,1.9.24.4.63.59,1.17.59s.92-.19,1.17-.57c.24-.38.37-1.01.37-1.87v-10.9h3.52v10.83c0,1.8-.43,3.18-1.28,4.14-.85.96-2.1,1.44-3.75,1.44s-2.98-.48-3.83-1.44Z"/>
    <path d="M275.81,142.14h3.52v12.85h4.46v3.15h-7.98v-16Z"/>
    <path d="M316.39,200.6c-1.15-1.49-1.73-3.58-1.73-6.3,0-1.72.26-3.21.78-4.46.52-1.25,1.28-2.21,2.27-2.88,1-.67,2.19-1,3.58-1,1.86,0,3.28.46,4.27,1.38s1.53,2.25,1.62,3.99h-3.57c-.06-.81-.28-1.41-.66-1.79-.38-.39-.94-.58-1.67-.58-1.01,0-1.75.43-2.23,1.3-.48.87-.72,2.19-.72,3.98,0,1.94.24,3.35.73,4.24.49.89,1.26,1.34,2.33,1.34.76,0,1.35-.26,1.77-.78.42-.52.64-1.27.65-2.26h-2.65v-2.72h6.81v2.72h-.82c-.09,1.97-.65,3.47-1.67,4.5-1.02,1.04-2.43,1.55-4.23,1.55-2.1,0-3.73-.74-4.88-2.23Z"/>
    <path d="M296.04,37.53h3.52v16h-3.52v-16Z"/>
    <path d="M380.67,68.59h4.87c1.9,0,3.38.52,4.43,1.55,1.05,1.04,1.58,2.45,1.58,4.23s-.53,3.18-1.59,4.23c-1.06,1.05-2.53,1.58-4.42,1.58h-1.35v4.41h-3.52v-16ZM385.38,77.44c.84,0,1.47-.27,1.91-.81.43-.54.65-1.29.65-2.25s-.22-1.69-.66-2.24c-.44-.55-1.07-.82-1.9-.82h-1.19v6.13h1.19Z"/>
    <path d="M341.63,116.09h3.52v6.54h4.11v-6.54h3.52v16h-3.52v-6.42h-4.11v6.42h-3.52v-16Z"/>
    <path d="M413.38,189.16c-.09.02-.24.02-.46.02-2.18,0-3.86-.73-5.03-2.18-1.17-1.45-1.76-3.54-1.76-6.25s.59-4.8,1.76-6.25c1.17-1.46,2.85-2.18,5.03-2.18s3.86.73,5.04,2.18,1.77,3.54,1.77,6.25c0,1.77-.26,3.27-.77,4.51-.51,1.24-1.25,2.2-2.23,2.87l1.74,2.35-3.04,1.53-2.06-2.86ZM410.6,184.68c.53.88,1.3,1.33,2.32,1.33,2.07,0,3.11-1.75,3.11-5.26s-1.04-5.26-3.11-5.26c-1.02,0-1.79.44-2.32,1.33-.53.88-.79,2.19-.79,3.93s.26,3.05.79,3.93Z"/>
    <path d="M522.75,195.15h8.48v2.86h-4.96v3.75h4.96v2.79h-4.96v3.75h4.96v2.86h-8.48v-16Z"/>
    <g>
      <path d="M470.36,316.29h-5.12v-2.99h9.87l-5.6,13.01h5.46v2.99h-10.19l5.58-13.01Z"/>
      <path d="M478.84,319.33h-2.7v-2.79c.84,0,1.49-.09,1.94-.29.46-.19.78-.48.96-.88.18-.4.29-.94.32-1.62h2.99v15.54h-3.52v-9.97Z"/>
    </g>
    <g>
      <path d="M444.24,484.47h-5.12v-2.99h9.87l-5.6,13.01h5.46v2.99h-10.19l5.58-13.01Z"/>
      <path d="M450.55,481.93h3.27v8.18h2.31v-3.86h3.27v3.86h1.78v2.95h-1.78v4.41h-3.27v-4.41h-5.58v-11.13Z"/>
    </g>
    <path d="M581.84,459.1h-1.35v4.41h-3.52v-16h4.87c1.9,0,3.38.52,4.43,1.55,1.05,1.04,1.58,2.45,1.58,4.23,0,1.14-.22,2.14-.67,2.99s-1.1,1.52-1.95,2.01l2.7,5.21h-3.89l-2.19-4.41ZM581.68,456.36c.84,0,1.47-.27,1.91-.81.43-.54.65-1.29.65-2.25s-.22-1.69-.66-2.24c-.44-.55-1.07-.82-1.9-.82h-1.19v6.13h1.19Z"/>
    <path d="M616.42,447.51h5.44c1.58,0,2.82.37,3.71,1.1.89.73,1.34,1.75,1.34,3.06,0,.99-.26,1.79-.79,2.41s-1.28,1.03-2.25,1.25c.97.11,1.76.5,2.37,1.18.6.68.9,1.54.9,2.57,0,1.39-.47,2.47-1.39,3.26-.93.78-2.22,1.18-3.89,1.18h-5.44v-16ZM621.22,454.12c.69,0,1.21-.18,1.59-.54.37-.36.56-.86.56-1.5s-.18-1.18-.53-1.52-.88-.51-1.58-.51h-1.33v4.07h1.28ZM621.26,460.86c.78,0,1.35-.18,1.73-.54.37-.36.56-.9.56-1.63,0-.62-.19-1.13-.56-1.51-.37-.38-.87-.57-1.47-.57h-1.58v4.25h1.33Z"/>
    <g>
      <path d="M665.79,341.07h-5.12v-2.99h9.87l-5.6,13.01h5.46v2.99h-10.19l5.58-13.01Z"/>
      <path d="M672.62,349.47c.55-1.12,1.46-2.09,2.74-2.91l1.81-1.17c.67-.43,1.12-.84,1.35-1.23.23-.4.34-.85.34-1.37,0-.55-.13-.98-.39-1.28s-.63-.46-1.12-.46c-1.25,0-1.87.83-1.87,2.49h-3.45c0-1.68.47-2.98,1.42-3.92.94-.94,2.28-1.41,4-1.41,1.62,0,2.85.39,3.71,1.17.86.78,1.29,1.84,1.29,3.2,0,1.02-.22,1.92-.66,2.71-.44.78-1.17,1.5-2.19,2.16l-1.51.96c-.72.46-1.23.87-1.54,1.23-.31.37-.53.83-.65,1.39h6.22v3.04h-10.31c0-1.95.27-3.49.82-4.61Z"/>
    </g>
    <path d="M725.86,474.98l-3.82-8.05h3.82l2.19,5.58,2.17-5.58h3.84l-3.84,8.05,3.84,7.95h-3.84l-2.17-5.46-2.19,5.46h-3.82l3.82-7.95Z"/>
    <path d="M255.72,462.85h3.95l3.04,11.41,3.06-11.41h3.95v16h-3.25v-9.76l-2.61,9.76h-2.33l-2.61-9.76v9.76h-3.22v-16Z"/>
    <path d="M557.08,158.22c-1.01-1.01-1.51-2.44-1.51-4.29v-10.61h3.57v10.45c0,.92.19,1.62.58,2.13s.9.75,1.54.75,1.18-.25,1.58-.75c.4-.5.59-1.21.59-2.13v-10.45h3.54v10.61c0,1.86-.51,3.29-1.52,4.3-1.01,1-2.41,1.51-4.19,1.51s-3.18-.51-4.18-1.52Z"/>
    <path d="M681.95,238.1h3.5l4.69,16h-3.63l-.57-2.4h-4.46l-.57,2.4h-3.63l4.69-16ZM685.29,248.95l-1.6-6.77-1.58,6.77h3.18Z"/>
    <path d="M578,238.94h5.44c1.58,0,2.82.37,3.71,1.1.89.73,1.34,1.75,1.34,3.06,0,.99-.26,1.79-.79,2.41s-1.28,1.03-2.25,1.25c.97.11,1.76.5,2.37,1.18.6.68.9,1.54.9,2.57,0,1.39-.47,2.47-1.39,3.26-.93.78-2.22,1.18-3.89,1.18h-5.44v-16ZM582.8,245.55c.69,0,1.21-.18,1.59-.54.37-.36.56-.86.56-1.5s-.18-1.18-.53-1.52-.88-.51-1.58-.51h-1.33v4.07h1.28ZM582.84,252.29c.78,0,1.35-.18,1.73-.54.37-.36.56-.9.56-1.63,0-.62-.19-1.13-.56-1.51-.37-.38-.87-.57-1.47-.57h-1.58v4.25h1.33Z"/>
    <path d="M679.01,203.26c-1.12-1.46-1.68-3.54-1.68-6.24s.56-4.78,1.68-6.24c1.12-1.46,2.75-2.19,4.88-2.19,1.9,0,3.37.53,4.4,1.59,1.03,1.06,1.59,2.59,1.68,4.61h-3.68c-.08-1.04-.3-1.81-.67-2.31-.37-.5-.95-.75-1.73-.75-1.01,0-1.74.44-2.19,1.31s-.69,2.21-.69,3.99.23,3.11.69,3.99c.46.88,1.19,1.31,2.19,1.31.78,0,1.35-.25,1.73-.75s.6-1.27.67-2.31h3.68c-.09,2.01-.65,3.55-1.68,4.61-1.03,1.06-2.5,1.59-4.4,1.59-2.13,0-3.76-.73-4.88-2.19Z"/>
    <path d="M815.98,198.6h5.07c1.4,0,2.61.32,3.63.97,1.02.65,1.81,1.57,2.35,2.78.55,1.2.82,2.62.82,4.25s-.28,3-.83,4.21c-.56,1.2-1.36,2.14-2.41,2.8-1.05.66-2.29.99-3.73.99h-4.92v-16ZM820.9,211.61c1.08,0,1.91-.42,2.48-1.25.57-.83.86-2.08.86-3.76s-.29-2.93-.86-3.76c-.57-.83-1.4-1.25-2.48-1.25h-1.39v10.01h1.39Z"/>
    <g>
      <path class="cls-20" d="M121.8,426.31l9.01-12.74,8.25,5.84,25.33-35.81-8.25-5.84,9.92-14.03-32.19-22.77-9.92,14.03-40.97-28.99-25.33,35.81,40.97,28.99-9.28,13.12c-21.66-16.52-37.83-31.83-37.83-31.83l-18.14,26.42s11.86,17.82,58.96,48.68c47.09,30.86,91.75,46.56,91.75,46.56l11.16-29.31s-35.29-14.43-73.43-38.13"/>
      <g class="cls-19">
        <g class="cls-11">
          <g class="cls-2">
            <g class="cls-14">
              <path class="cls-17" d="M121.8,426.31l9.01-12.74,8.25,5.84,25.33-35.81-8.25-5.84,9.92-14.03-32.19-22.77-9.92,14.03-40.97-28.99-25.33,35.81,40.97,28.99-9.28,13.12c-21.66-16.52-37.83-31.83-37.83-31.83l-18.14,26.42s11.86,17.82,58.96,48.68c47.09,30.86,91.75,46.56,91.75,46.56l11.16-29.31s-35.29-14.43-73.43-38.13"/>
            </g>
          </g>
        </g>
      </g>
      <g class="cls-8">
        <g class="cls-12">
          <rect class="cls-20" x="510.58" y="354.12" width="62.12" height="35.95"/>
        </g>
      </g>
      <g class="cls-19">
        <g class="cls-13">
          <g class="cls-7">
            <g class="cls-16">
              <rect class="cls-17" x="510.58" y="354.12" width="62.12" height="35.95"/>
            </g>
          </g>
        </g>
      </g>
      <path d="M277.74,551.62l-.42-.11-154.89-41.86.91-3.38,154.47,41.75,93.72-21.81h214.27v3.5h-213.87l-94.19,21.92ZM615.31,529.68l-.63-3.44,41.82-7.67.63,3.44-41.82,7.67ZM701.46,513.87l-.63-3.44,87.04-15.97-34.01-193.38h40.65l68.06-42.48v-38.1h3.5v40.04l-70.55,44.04h-37.49l33.89,192.69-90.46,16.6ZM71.13,474.93L0,421.35,210.68,125.18,270.92,0l65.77,32.41-1.55,3.14-62.6-30.85-58.84,122.27-.09.12L4.83,420.6l68.41,51.54-2.11,2.79ZM379.71,458.1l-157.8-40.07,23.48-92.47,157.8,40.07-23.48,92.47ZM303.37,435.1l73.81,18.74,5.33-20.99-19.97-5.07,11.1-43.69,19.97,5.07,5.33-21-73.81-18.74-5.62,22.11c8.43,2.9,14.5,10.9,14.5,20.3,0,11.83-9.63,21.46-21.46,21.46-1.22,0-2.41-.1-3.57-.3l-5.61,22.11ZM226.16,415.5l73.81,18.74,5.61-22.11c-8.43-2.9-14.5-10.9-14.5-20.3,0-11.83,9.63-21.46,21.46-21.46,1.22,0,2.41.1,3.57.3l5.61-22.11-73.81-18.74-5.26,20.7,19.78,5.03-11.1,43.69-19.79-5.02-5.41,21.28ZM366.8,425.25l16.39,4.16,9.37-36.91-16.39-4.16-9.37,36.91ZM309.85,409.59c.88.13,1.78.2,2.7.2,9.9,0,17.96-8.06,17.96-17.96,0-7.76-4.95-14.39-11.86-16.89l-8.8,34.65ZM312.55,373.87c-9.9,0-17.96,8.06-17.96,17.96,0,7.76,4.95,14.39,11.86,16.9l8.8-34.65c-.88-.13-1.78-.2-2.7-.2ZM232.43,390.82l16.39,4.16,9.37-36.91-16.39-4.16-9.37,36.91ZM214.78,427.37l-14.63-23.45v-32.49l14.32-49.03,40.4-16.76,163.81,44.58,75.33,37.15h10.75v3.5h-11.57l-.37-.18-75.55-37.25-162.17-44.1-37.74,15.66-13.71,46.94v30.99l14.1,22.6-2.97,1.85ZM866.06,187.74h-3.5v-60.84h-118.37v42.56h-110.35l-46.98-43.95h-47.7l-12.56-7.44h-56.43l-.18-1.54c-.75-6.29-5.13-14.97-15.05-18.75-8.99-3.42-16.65-.48-20.42,1.58-1.42.77-2.2.13-2.54-.32l-.91-1.2.82-.85,13.38-34.09-100.38-38.79,1.26-3.26,103.66,40.05-13.2,33.65c6.39-2.43,13.21-2.47,19.58-.04,8.86,3.37,15.4,11.14,17.05,20.06h54.33l12.56,7.44h48.12l46.98,43.95h105.47v-42.56h125.37v64.34Z"/>
    </g>
    <g class="cls-15">
      <path class="cls-4" d="M480.44,227.59v-8.28h9.77v-32.77h-5.64v-27.44h-4.13v-11.62h41.43v-18.33h-61.26c1.62-2.74,2.61-5.9,2.61-9.32,0-10.21-8.28-18.49-18.49-18.49s-18.49,8.28-18.49,18.49,8.28,18.49,18.49,18.49c2.57,0,5.02-.53,7.24-1.48v22.26h-4.43v27.44h-4.67v32.77h9.1v8.28h-38.14v33.87h113.11v-33.87h-46.5Z"/>
    </g>
    <g>
      <path d="M452.72,235.76h3.96l3.04,11.41,3.06-11.41h3.95v16h-3.25v-9.76l-2.61,9.76h-2.33l-2.61-9.76v9.76h-3.22v-16Z"/>
      <path d="M469.13,235.76h3.52v6.54h4.11v-6.54h3.52v16h-3.52v-6.42h-4.11v6.42h-3.52v-16Z"/>
    </g>
    <rect class="cls-17" x="108.32" y="369.13" width="29.47" height="29.47"/>
    <path d="M462.87,166.19h8.21v2.99h-4.66v4.25h4.66v3.06h-4.66v5.69h-3.54v-16Z"/>
    <rect class="cls-17" x="112.66" y="372.44" width="20.79" height="22.86"/>
    <path d="M122.82,386.31h-1.35v4.41h-3.52v-16h4.87c1.9,0,3.38.52,4.43,1.55,1.05,1.04,1.58,2.45,1.58,4.23,0,1.14-.22,2.14-.67,2.99-.45.85-1.1,1.52-1.95,2.01l2.7,5.21h-3.89l-2.19-4.41ZM122.65,383.57c.84,0,1.47-.27,1.91-.81.43-.54.65-1.29.65-2.25s-.22-1.69-.66-2.24c-.44-.55-1.07-.82-1.9-.82h-1.19v6.13h1.19Z"/>
    <rect class="cls-17" x="526.86" y="357.43" width="29.47" height="29.47"/>
    <path d="M537.71,379.24c-.95-.93-1.43-2.29-1.43-4.07h3.52c0,.85.17,1.5.51,1.93.34.43.83.65,1.45.65.52,0,.93-.15,1.22-.46s.45-.72.45-1.23c0-.49-.14-.9-.41-1.23s-.71-.66-1.3-.96l-2.01-.96c-1.1-.53-1.91-1.17-2.43-1.91-.53-.74-.79-1.66-.79-2.75,0-1.36.46-2.44,1.38-3.26s2.15-1.22,3.69-1.22c1.68,0,2.94.43,3.79,1.28.85.85,1.28,2.1,1.28,3.75h-3.45c0-.75-.15-1.31-.45-1.69-.3-.38-.71-.57-1.25-.57-.49,0-.87.14-1.14.41s-.41.65-.41,1.12.14.86.41,1.15c.27.3.75.62,1.42.97l2.15,1.08c1.05.56,1.81,1.2,2.29,1.91.47.71.71,1.59.71,2.64,0,.98-.21,1.83-.64,2.55-.43.72-1.03,1.28-1.81,1.68-.78.4-1.68.59-2.7.59-1.75,0-3.11-.46-4.06-1.39Z"/>
  </g>
</svg>