<?xml version="1.0" encoding="UTF-8"?>
<svg id="_레이어_1" data-name="레이어 1" xmlns="http://www.w3.org/2000/svg" xmlns:xlink="http://www.w3.org/1999/xlink" viewBox="0 0 320.46 270.76">
  <defs>
    <style>
      .cls-1 {
        fill: none;
      }

      .cls-2 {
        fill: #99bf45;
      }

      .cls-3 {
        clip-path: url(#clippath-1);
      }

      .cls-4 {
        clip-path: url(#clippath-2);
      }

      .cls-5 {
        fill: #ff0;
      }

      .cls-6 {
        fill: #0081cc;
      }

      .cls-7 {
        opacity: .95;
      }

      .cls-8 {
        fill: #fff100;
      }

      .cls-9 {
        clip-path: url(#clippath);
      }

      .cls-10 {
        fill: #00b3cd;
      }
    </style>
    <clipPath id="clippath">
      <rect class="cls-1" x="17.16" y="12.32" width="303.31" height="258.44"/>
    </clipPath>
    <clipPath id="clippath-1">
      <rect class="cls-1" x="17.16" y="12.32" width="303.31" height="258.44"/>
    </clipPath>
    <clipPath id="clippath-2">
      <rect class="cls-1" width="195.51" height="245.48"/>
    </clipPath>
  </defs>
  <g class="cls-9">
    <g class="cls-3">
      <path class="cls-5" d="M279.29,123.5c17.88,8.15,18.73,44.69,1.9,81.62-16.83,36.93-44.97,60.26-62.85,52.11-17.88-8.15-18.73-44.69-1.9-81.62,16.83-36.93,44.97-60.26,62.85-52.11"/>
      <path class="cls-2" d="M270.31,144.73c-11.29,9.32-22.24,23.83-30.34,41.61-8.1,17.78-11.88,35.56-11.5,50.2l-9.55,20.96,25.06,11.42c19.04,8.68,48.12-14.22,64.95-51.15,16.83-36.93,15.04-73.9-4-82.58l-25.06-11.42-9.55,20.96Z"/>
      <path class="cls-5" d="M170.99,119.16l-15.28,28.78-11.7,30.41s38.13,62.39,67.19,75.63c29.06,13.24,58.55-29.12,67.96-49.78,9.42-20.67,22.04-70.71-7.02-83.95-29.06-13.24-101.16-1.09-101.16-1.09"/>
      <path class="cls-8" d="M87.66,107.17l-7.36,16.15-42.12,92.42,6.62,2.03,93.21,15.63c1.37.37,2.78.6,4.23.7h.07s0,0,0,0c20.54,1.31,48.23-24.31,65.59-62.39h0c17.35-38.08,18.52-75.79,4.05-90.43h.01l-.06-.05c-1.02-1.03-2.12-1.94-3.3-2.73l-72.95-60.09-5.87-3.67-42.12,92.42Z"/>
      <path class="cls-2" d="M129.77,14.76c26.87,12.25,28.15,67.17,2.86,122.67-25.29,55.5-67.58,90.57-94.45,78.32-26.87-12.25-28.15-67.17-2.86-122.67C60.61,37.58,102.9,2.51,129.77,14.76"/>
      <path class="cls-10" d="M124.34,24.28c22.2,10.12,21.68,58.98-1.18,109.12-22.85,50.15-59.38,82.6-81.59,72.48-22.21-10.12-21.68-58.98,1.18-109.13C65.61,46.61,102.13,14.16,124.34,24.28"/>
      <g class="cls-7">
        <g class="cls-4">
          <path class="cls-6" d="M59.45,81.28h0l-.02.03.02-.03ZM59.44,81.13h.06s-.06,0-.06,0h0ZM59.77,80.09s0,0,0,0t0,0"/>
          <polygon class="cls-6" points="46.49 116.57 46.2 116.43 46.49 116.56 46.49 116.57"/>
          <polyline class="cls-6" points="59.07 100.57 46.49 116.56 59.07 100.57"/>
          <path class="cls-6" d="M96.47,52.48l-28.11,35.76,1.17-2.51c-2.02,4.32-5.26,6.9-7.32,5.93-2.08-.97-2.35-4.74-.17-9.43l-4.06,8.71c-2.18,4.69-1.9,8.46.17,9.43.17.08.36.13.55.16l-12.5,15.9-9.86,21.14.29.14,19.72-25.08c-5.35,11.64-7.1,22.69-7.48,29.65l1.9-1.18.96-1.25c.15-4.05,1.86-16.58,6.67-26.88.96-2.05,2.64-5.55,4.89-9.16l6.08-7.73c4.76-4.42,9.74-6.03,14.39-3.86,7.21,3.36,7.79,16.75,7.35,23.87l1.49-.91-18.33,32.74,7.74,8.36.39-.7,23.15-41.36-12.22,38.43,12.36-2.26,13.17-41.4-11.56,2.12,10.74-19.17-7.74-8.36-.39.7-15.84,28.3c.53-7.65-.37-21.19-7.88-24.7-3.55-1.66-7.36-1.12-11.13.98l11.85-15.07,9.86-21.14-28.99,36.88h0s28.99-36.88,28.99-36.88l-.29-.14ZM62.04,82.23c-2.19,4.69-1.9,8.46.17,9.43,2.07.96,5.31-1.61,7.32-5.93,2.18-4.67,1.57-8.36-.26-9.21-1.84-.86-5.05,1.05-7.23,5.72M101.08,45.68c1.03,1.53.62,5.01-1,8.48l-9.86,21.14c-.53,1.15-1.18,2.24-1.88,3.17l-.76,1.02.57.17c.56.17,1.12.38,1.65.63,4.75,2.21,7.71,7.81,8.81,16.62l.1.83,8.95-15.99c1.06-1.9,2.38-3.46,3.61-4.28,1.25-.84,2.32-.89,3.01-.14l7.24,7.82c1.26,1.36.92,5.02-.8,8.71-.21.44-.43.87-.66,1.29l-4.42,7.9,5.12-.94c1.1-.2,1.88.41,2.2,1.72.32,1.31.13,3.17-.52,5.22l-11.76,36.98c-2.16,3.86-4.39,7.56-6.68,11.1-.28.14-.56.24-.83.29l-11.56,2.12c-1.1.2-1.88-.41-2.2-1.72-.32-1.31-.13-3.17.52-5.22l2.67-8.39-7.79,13.91c-1.06,1.9-2.38,3.46-3.61,4.28-1.25.84-2.32.89-3.01.14l-7.24-7.82c-1.26-1.36-.92-5.02.8-8.71.2-.44.43-.87.66-1.29l14.03-25.06v-.32c.18-3.83.21-16.56-6.14-19.52-3.6-1.68-10.81-2.01-18.6,14.68-3.28,7.04-4.98,17.39-5.11,21.11-.07,1.71-.62,3.76-1.55,5.77-.57,1.22-1.26,2.37-2,3.34l-.96,1.25c-.79,1.03-1.63,1.84-2.43,2.33l-1.9,1.18c-2.25,1.4-3.76.1-3.58-3.08.16-2.85.59-7.4,1.72-12.97l.26-1.28-8.31,10.57c-1.7,2.16-3.49,3.16-4.67,2.61l-.29-.14c-.4-.19-.69-.56-.9-1.04.64-3.42,1.43-6.93,2.35-10.51l8.74-18.75c.61-1.3,1.36-2.51,2.15-3.51l6.58-8.37-.04-.48c-.27-3.57.84-8.32,3.05-13.06l4.06-8.71c.16-.34.27-.56.39-.78,3.99-8.05,9.84-12.77,13.62-11.01,1.19.56,2.07,1.74,2.53,3.42l.12.44,19.88-25.28c1.7-2.16,3.49-3.16,4.67-2.61l.25.11c.29.13.54.34.74.64"/>
          <path class="cls-6" d="M117.81,132.09c-1.71,3.66-3.5,7.21-5.35,10.66l10.76-33.84c.78-2.45,1-4.67.63-6.23-.38-1.56-1.31-2.29-2.62-2.05l-3.83.7,3.16-5.64c.28-.49.54-1.01.79-1.53,2.05-4.41,2.46-8.78.96-10.4l-7.24-7.82c-.82-.89-2.1-.83-3.59.17-1.49,1-3.02,2.82-4.31,5.12l-7.74,13.83c-1.2-8.56-4.2-14.02-8.93-16.22-.38-.18-.78-.34-1.17-.48.56-.86,1.08-1.8,1.53-2.76l9.86-21.14c1.93-4.14,2.42-8.3,1.19-10.12-.24-.35-.54-.61-.88-.76l-.24-.11c-1.41-.66-3.54.54-5.57,3.12l-19.02,24.19c-.53-1.59-1.42-2.72-2.61-3.27-4.11-1.92-10.51,3.27-14.87,12.07-.12.23-.25.5-.38.78l-4.12,8.84c-2.32,4.98-3.54,9.99-3.37,13.85l-5.8,7.38c-.95,1.18-1.84,2.63-2.57,4.18l-7.07,15.16c2.8-9.91,6.63-20.29,11.5-30.74,21.42-45.94,54.67-75.78,74.26-66.65,19.59,9.13,18.1,53.78-3.32,99.72"/>
          <path class="cls-6" d="M32.2,146.66l.29.14c1.41.66,3.54-.54,5.57-3.12l6.7-8.52c-.98,5.14-1.37,9.34-1.52,12.04-.21,3.8,1.59,5.35,4.27,3.68l1.9-1.18c.95-.59,1.95-1.55,2.9-2.78l.96-1.25c.89-1.16,1.71-2.53,2.39-3.98,1.12-2.4,1.78-4.85,1.85-6.89.13-3.55,1.73-13.38,4.82-20,7.19-15.41,13.91-15.07,17.28-13.5,5.94,2.77,6.07,14.51,5.92,18.55l-13.62,24.34c-.28.49-.54,1.01-.79,1.53-2.05,4.41-2.46,8.78-.96,10.4l7.24,7.82c.82.89,2.1.83,3.59-.17s3.02-2.82,4.31-5.11l4.5-8.03-.68,2.12c-.78,2.45-1,4.67-.63,6.23.38,1.56,1.31,2.29,2.62,2.05l11.56-2.12c.05,0,.11-.03.17-.04-19.94,30.04-43.86,47.07-59.3,39.87-12.58-5.87-16.45-26.41-11.94-52.52.17.18.36.34.58.44"/>
          <path class="cls-6" d="M102.6,109.33c-.47.84-.96,1.04-1.39.58-.43-.47-.41-1.18.06-2.02.46-.82.97-1.05,1.4-.59.43.46.39,1.21-.07,2.03"/>
          <path class="cls-6" d="M87.92,135.96c-.43.76-.86.99-1.21.64l1.29-2.3c.36.38.31.96-.08,1.66"/>
          <path class="cls-6" d="M91.81,129.01c-.43.76-.86.99-1.21.64l1.29-2.3c.35.38.31.96-.08,1.67"/>
          <path class="cls-6" d="M107.42,95.27l-1.03,1.84.93,2.81-2.18-.57-1.02,1.83,1.37,4.62,1.18-2.12-1.03-2.5,2.09.61,1.01-1.8-.94-2.66,2.01.76,1.18-2.12-3.56-.71ZM101.4,106.03l.37.39c-.49.05-1.01.55-1.51,1.46-.93,1.67-1.02,3.31-.24,4.16.78.84,1.9.32,2.84-1.35.51-.91.73-1.73.65-2.4l.36.4,1.18-2.1-2.47-2.66-1.18,2.1ZM96.56,114.39c-1.22,2.19-1.51,3.91-.7,4.78l1.24-2.22c-.39-.42-.32-1.09.11-1.87.36-.65.74-.89.97-.64.23.24.17.73-.11,1.61l-.49,1.5c-.52,1.61-.59,2.62-.09,3.16.61.66,1.72-.18,2.8-2.11,1.18-2.12,1.39-3.62.66-4.42l-1.22,2.18c.35.37.28.95-.09,1.62-.35.62-.68.83-.89.61-.23-.25-.11-.76.17-1.67l.51-1.61c.49-1.6.5-2.48.03-2.99-.66-.72-1.81.12-2.9,2.07M93.07,124.05l.61.66,2.31-4.12-.61-.66-2.31,4.12ZM89.74,126.66c-1.2,2.14-1.4,3.85-.57,4.74.83.89,2,.21,3.16-1.86,1.12-2,1.26-3.59.57-4.32-.09-.1-.24-.24-.39-.33l-2.38,4.25c-.32-.39-.29-1.03.17-1.85.34-.6.6-.83.83-.76l1.06-1.9c-.62-.37-1.5.33-2.46,2.04M85.84,133.61c-1.2,2.14-1.4,3.85-.57,4.74.83.9,1.99.21,3.16-1.86,1.12-2,1.26-3.59.57-4.33-.09-.1-.24-.24-.39-.33l-2.38,4.25c-.32-.39-.29-1.03.17-1.85.34-.6.6-.83.83-.76l1.06-1.9c-.62-.37-1.49.33-2.46,2.04M81.83,140.7c-1.23,2.19-1.51,3.91-.7,4.78l1.24-2.22c-.39-.42-.32-1.09.11-1.87.36-.65.74-.89.97-.64.23.24.17.74-.11,1.61l-.49,1.5c-.52,1.61-.59,2.62-.09,3.16.61.66,1.72-.18,2.8-2.11,1.18-2.12,1.39-3.62.66-4.42l-1.22,2.17c.35.37.28.95-.09,1.62-.35.62-.68.83-.89.61-.23-.25-.11-.76.17-1.67l.52-1.61c.49-1.6.51-2.48.03-2.99-.66-.72-1.81.12-2.9,2.07M116.77,92.76l-34.47,61.56-6.74-7.28,34.47-61.56,6.74,7.28Z"/>
          <path class="cls-6" d="M111.48,120.57c-.44,1.38-1.31,2.21-2.56,2.43-1.25.23-1.67-.36-1.23-1.74.44-1.4,1.31-2.21,2.56-2.43,1.25-.23,1.67.34,1.23,1.74"/>
          <path class="cls-6" d="M111.04,116.34c-1.95.36-3.56,2.2-4.49,5.13-.93,2.92-.37,4.36,1.58,4,1.95-.36,3.56-2.2,4.48-5.12.93-2.93.37-4.38-1.58-4.02M106.65,126.29c-1.06.19-2.17,1.7-2.83,3.77-.74,2.33-.5,3.56.79,3.32l.75-2.37c-.62.11-.77-.32-.51-1.15.22-.69.6-1.17.97-1.23.36-.07.46.26.42,1.01l-.08,1.29c-.08,1.37.18,2.01.99,1.86.98-.18,2.04-1.65,2.7-3.71.72-2.26.45-3.29-.72-3.08l-.74,2.32c.55-.1.68.28.45.99-.21.66-.55,1.08-.88,1.14-.37.07-.4-.33-.37-1.09l.07-1.37c.05-1.34-.24-1.85-1-1.71M101.7,137.19l5.75-1.05.75-2.36-5.76,1.05-.75,2.36ZM102.93,138c-1.06.19-2.17,1.7-2.83,3.77-.74,2.33-.5,3.56.79,3.32l.75-2.37c-.62.11-.77-.32-.51-1.15.22-.69.6-1.16.96-1.23.36-.07.46.26.42,1.01l-.08,1.29c-.08,1.37.18,2.01.99,1.86.98-.18,2.04-1.65,2.7-3.7.72-2.26.45-3.29-.72-3.08l-.74,2.32c.55-.1.68.28.45.99-.21.66-.55,1.08-.88,1.15-.37.07-.4-.33-.37-1.09l.07-1.37c.05-1.34-.24-1.85-1-1.71M105.38,149.02l-10.77,1.97,12.22-38.42,10.77-1.97-12.22,38.42Z"/>
        </g>
      </g>
    </g>
  </g>
</svg>