<?xml version="1.0" encoding="UTF-8"?>
<svg id="_레이어_1" data-name="레이어 1" xmlns="http://www.w3.org/2000/svg" viewBox="0 0 348.66 238.71">
  <defs>
    <style>
      .cls-1 {
        isolation: isolate;
      }

      .cls-2 {
        fill: #ff3000;
      }
    </style>
  </defs>
  <g>
    <g class="cls-1">
      <rect class="cls-2" x="62.57" y="191.67" width="110.96" height="35.01" transform="translate(-44.03 31.91) rotate(-13)"/>
    </g>
    <path class="cls-2" d="M154.86,208.72l.17-7.78,3.59,6.91,3.1-.72.62-12.37-3.56.82.17,7.47-3.37-6.73-3.03.7-.07,7.52-3.1-6.79-3.56.82,5.98,10.85,3.08-.71ZM140.94,209.12c-1.41.33-2.44-.61-2.91-2.65-.47-2.04.05-3.31,1.46-3.63,1.38-.32,2.46.61,2.93,2.62.47,2.04-.1,3.34-1.48,3.66M140.49,212.37c1.53-.35,2.48-1.31,2.78-2.79l.4,1.72,3.54-.82-2.68-11.61-3.54.82.4,1.72c-.92-1.22-2.19-1.64-3.72-1.29-2.81.65-4.07,3.52-3.22,7.18.85,3.68,3.23,5.71,6.05,5.06M129.52,215.05c3.27-.76,4.99-3.25,4.27-6.37-.51-2.23-1.79-3.42-4.29-4.09l-2.54-.61c-1.42-.39-2.21-.72-2.46-1.81-.23-.99.23-1.76,1.27-2.01,1.11-.26,1.97.36,2.35,1.99l3.66-.84c-.8-3.47-3.05-4.91-6.61-4.09-3.25.75-4.95,3.11-4.28,5.99.55,2.38,2.02,3.57,4.56,4.16l2.37.53c1.38.35,2.11.84,2.36,1.91.25,1.09-.27,1.95-1.36,2.2-1.31.3-2.3-.44-2.72-2.26l-3.73.86c.88,3.81,3.47,5.3,7.16,4.45M119.47,211.45l-.67-2.88-6.93,1.6.67,2.89,6.93-1.6ZM101.67,213.52c-.35-1.63.18-2.67,1.46-2.97,1.19-.27,2.03.4,2.42,2.07l-3.88.9ZM109.04,212.4c-.74-3.22-3.07-5.01-6.44-4.23-3.49.81-4.99,3.58-4.09,7.48.9,3.9,3.42,5.64,7.03,4.81,2.88-.67,4.28-2.49,4.03-4.99l-3.2.74c-.01.82-.45,1.36-1.47,1.59-1.38.32-2.31-.49-2.72-2.05l7.15-1.65c-.06-.6-.19-1.28-.29-1.7M89.84,216.25c-.35-1.63.18-2.67,1.46-2.97,1.19-.27,2.03.4,2.42,2.07l-3.88.9ZM97.21,215.13c-.74-3.22-3.07-5.01-6.44-4.23-3.49.81-5,3.58-4.09,7.48.9,3.9,3.42,5.65,7.03,4.81,2.88-.67,4.28-2.49,4.03-4.99l-3.2.74c-.01.82-.45,1.36-1.47,1.59-1.38.32-2.31-.49-2.72-2.05l7.15-1.65c-.06-.6-.19-1.28-.29-1.7M81.74,226.08c3.27-.76,4.99-3.25,4.27-6.37-.51-2.23-1.78-3.42-4.29-4.09l-2.54-.61c-1.42-.39-2.21-.72-2.46-1.81-.23-.99.23-1.76,1.27-2,1.12-.26,1.97.36,2.35,1.98l3.66-.85c-.8-3.47-3.05-4.91-6.61-4.09-3.25.75-4.95,3.11-4.28,5.99.55,2.38,2.02,3.57,4.56,4.16l2.37.53c1.38.35,2.11.84,2.35,1.91.25,1.09-.26,1.95-1.35,2.2-1.31.3-2.3-.44-2.72-2.26l-3.73.86c.88,3.8,3.47,5.3,7.15,4.45"/>
  </g>
  <g>
    <g class="cls-1">
      <rect class="cls-2" x="113.75" y="21.82" width="21.51" height="249.26" transform="translate(-42.18 242.18) rotate(-79.5)"/>
    </g>
    <g class="cls-1">
      <rect class="cls-2" x="116.77" y="18.68" width="20.88" height="228.74" transform="translate(-26.79 233.89) rotate(-79.5)"/>
    </g>
    <g class="cls-1">
      <rect class="cls-2" x="111.6" y="94.35" width="20.88" height="130.83" transform="translate(-57.29 250.64) rotate(-79.5)"/>
    </g>
    <path class="cls-2" d="M170.63,170.84c-.94-.17-1.27-1.08-.97-2.66.29-1.58.92-2.31,1.86-2.14.95.18,1.27,1.08.98,2.66-.29,1.59-.92,2.31-1.86,2.14M170.36,172.29c1.99.37,3.36-.8,3.82-3.27.46-2.47-.4-4.05-2.39-4.42-1.98-.37-3.35.8-3.81,3.27-.46,2.47.4,4.05,2.38,4.42M164.55,171.21c1.41.26,2.5-.42,2.75-1.76.18-.96-.12-1.64-.98-2.33l-.89-.67c-.49-.39-.74-.66-.66-1.12.08-.43.39-.65.84-.57.48.09.71.48.58,1.18l1.57.29c.28-1.49-.36-2.44-1.89-2.72-1.4-.26-2.46.37-2.69,1.61-.19,1.02.18,1.74,1.08,2.4l.84.61c.48.37.68.69.6,1.15-.09.47-.43.72-.9.63-.56-.11-.82-.56-.68-1.35l-1.6-.3c-.3,1.64.46,2.66,2.04,2.95M161.37,170.42l1.35-7.3-1.6-.3-1.35,7.3,1.6.3ZM156.66,169.75c1.41.26,2.5-.42,2.75-1.76.18-.96-.12-1.64-.98-2.33l-.89-.67c-.49-.39-.74-.66-.65-1.12.08-.43.39-.65.84-.57.48.09.71.48.58,1.17l1.57.29c.28-1.49-.36-2.44-1.89-2.72-1.4-.26-2.46.37-2.69,1.61-.19,1.02.18,1.74,1.07,2.4l.84.61c.48.37.68.69.6,1.15-.09.47-.43.72-.9.63-.56-.1-.82-.56-.68-1.35l-1.61-.3c-.3,1.64.46,2.66,2.04,2.96M150.11,167.38l1.27.23.23-1.23-1.27-.24-.23,1.23ZM150.81,163.61l1.27.23.23-1.23-1.27-.24-.23,1.23ZM148.15,162.8l-1.76,1.99.84-4.55-1.51-.28-1.35,7.3,1.51.28.44-2.39.85,2.63,1.76.33-1.07-2.96,2.02-2.03-1.73-.32ZM141.08,163.5c.14-.7.52-1.02,1.08-.91.51.1.73.5.59,1.22l-1.67-.31ZM144.15,164.31c.26-1.39-.35-2.48-1.8-2.75-1.5-.28-2.56.55-2.87,2.23-.31,1.68.38,2.79,1.93,3.08,1.24.23,2.1-.25,2.42-1.26l-1.38-.26c-.15.32-.41.45-.85.37-.6-.11-.82-.58-.71-1.27l3.08.57c.08-.24.14-.53.17-.71M135.99,162.55c.14-.7.52-1.02,1.08-.91.51.1.73.5.59,1.22l-1.67-.31ZM139.06,163.37c.26-1.39-.35-2.48-1.8-2.75-1.5-.28-2.56.55-2.87,2.23-.31,1.68.38,2.79,1.93,3.08,1.24.23,2.1-.25,2.42-1.26l-1.38-.26c-.15.32-.41.45-.85.37-.6-.11-.82-.58-.71-1.27l3.08.57c.08-.24.14-.53.18-.71M129.22,164.46l1.77-4.26.13,4.61,1.49.28,2.83-7.02-1.67-.31-1.59,4.75-.07-5.06-1.18-.22-1.87,4.7.22-5.01-1.68-.31.13,7.57,1.49.28ZM123.62,163.42l1.35-7.3-1.52-.28-1.35,7.3,1.52.28ZM118.84,161.35c-.61-.11-.85-.65-.69-1.53.16-.88.58-1.28,1.19-1.17.6.11.86.66.7,1.52-.16.88-.61,1.29-1.2,1.18M118.11,162.54c.66.12,1.19-.09,1.56-.62l-.14.74,1.52.28.93-4.99-1.52-.28-.14.74c-.15-.63-.58-1.01-1.24-1.13-1.21-.22-2.19.68-2.48,2.26-.29,1.59.29,2.78,1.5,3.01M114.27,161.69l2.74-4.66-1.6-.3-1.46,2.91-.32-3.24-1.6-.3.88,5.33,1.36.25ZM110.56,161l.93-4.99-1.51-.28-.93,4.99,1.51.28ZM110.76,155.36c.55.1,1.03-.22,1.13-.76.1-.55-.23-1.02-.78-1.13-.54-.1-1.02.22-1.12.77-.1.54.23,1.01.78,1.11M108.25,159.29c-.38-.07-.5-.31-.41-.79l.35-1.89.81.15.22-1.18-.81-.15.28-1.49-1.52-.28-.28,1.49-.64-.12-.22,1.18.64.12-.43,2.3c-.2,1.07.36,1.73,1.28,1.9.29.05.55.07.82.07l.23-1.26c-.15-.02-.23-.02-.32-.04M103.02,159.75c1.23.23,2.11-.27,2.29-1.27.14-.74-.19-1.29-.93-1.68l-.9-.47c-.27-.15-.39-.34-.35-.57.05-.26.29-.39.59-.33.36.07.53.31.46.69l1.45.27c.18-.96-.49-1.72-1.71-1.94-1.16-.21-2.05.23-2.22,1.18-.14.74.21,1.33.96,1.72l.86.43c.24.13.36.33.32.56-.06.3-.3.45-.61.39-.41-.08-.59-.37-.52-.74l-1.5-.28c-.19,1,.54,1.81,1.81,2.05M97.95,155.5c.14-.7.52-1.02,1.08-.91.51.09.73.5.59,1.22l-1.67-.31ZM101.02,156.32c.26-1.39-.35-2.48-1.8-2.75-1.5-.28-2.56.55-2.87,2.23-.31,1.68.38,2.79,1.93,3.08,1.24.23,2.1-.25,2.42-1.26l-1.38-.26c-.15.32-.41.45-.85.37-.6-.11-.82-.58-.72-1.27l3.08.57c.08-.24.14-.53.17-.71M93.2,157.78l.48-2.6,2.13.39.26-1.4-2.13-.4.36-1.94,2.13.39.25-1.36-3.74-.69-1.35,7.3,1.62.3ZM86.55,155.37c-.6-.11-.87-.66-.71-1.53.16-.87.6-1.28,1.21-1.17.6.11.84.64.68,1.52-.17.89-.59,1.29-1.18,1.18M87.77,151.47c-.66-.12-1.19.08-1.56.62l.56-3.04-1.51-.28-1.35,7.3,1.51.28.14-.74c.15.63.58,1.01,1.24,1.13,1.21.22,2.19-.68,2.48-2.27.29-1.58-.29-2.77-1.5-3M79.91,155.46c.74.14,1.23-.08,1.57-.59l-.13.72,1.52.28.93-4.99-1.52-.28-.52,2.82c-.12.67-.44.99-.91.9-.45-.08-.61-.43-.5-1.02l.55-2.95-1.53-.28-.59,3.17c-.23,1.25.19,2.06,1.15,2.24M77.44,154.86l1.35-7.3-1.52-.28-1.35,7.3,1.52.28ZM72.32,154.12c1.74.32,2.87-.49,3.3-2.31l-1.68-.31c-.23.92-.62,1.33-1.35,1.2-.93-.17-1.16-1.07-.87-2.66.3-1.6.84-2.35,1.76-2.18.73.14.95.66.84,1.6l1.68.31c.26-1.85-.51-3.02-2.25-3.34-1.97-.36-3.25.85-3.71,3.29-.45,2.44.31,4.04,2.28,4.4"/>
    <path class="cls-2" d="M234.65,170.34l.5-2.7c.14-.76.43-1.11.96-1.01.47.09.6.43.47,1.12l-.53,2.85,1.54.29.61-3.26c.23-1.24-.21-1.97-1.19-2.15-.66-.12-1.2.07-1.58.58l.13-.71-1.52-.28-.93,4.99,1.52.28ZM229.95,168.28c-.6-.11-.85-.65-.69-1.53.16-.88.58-1.28,1.19-1.17.6.11.86.66.7,1.52-.16.88-.61,1.29-1.2,1.18M231.42,165.34c-.14-.62-.57-1.01-1.24-1.13-1.2-.22-2.17.65-2.46,2.22-.29,1.57.3,2.73,1.5,2.95.66.12,1.2-.08,1.56-.59l-.18.99c-.12.63-.44.92-1,.82-.51-.09-.71-.42-.69-.77l-1.53-.28c-.06.54.14,1.07.54,1.46.35.34.84.59,1.43.7.62.11,1.13.08,1.58-.09.63-.26,1.06-.82,1.22-1.72l.93-4.99-1.52-.28-.14.74ZM226.58,168.84l.93-4.99-1.51-.28-.93,4.99,1.51.28ZM226.77,163.2c.55.1,1.03-.22,1.13-.76.1-.55-.23-1.02-.78-1.13-.54-.1-1.02.22-1.12.77-.1.54.23,1.01.77,1.11M222.38,168.21c1.23.23,2.11-.27,2.29-1.27.14-.74-.19-1.29-.93-1.68l-.9-.47c-.27-.15-.39-.34-.35-.57.05-.26.29-.39.59-.33.36.07.52.31.46.69l1.45.27c.18-.96-.49-1.72-1.71-1.95-1.16-.21-2.05.23-2.23,1.18-.14.74.21,1.33.96,1.72l.86.43c.25.13.36.33.32.56-.06.3-.3.45-.61.39-.41-.08-.59-.37-.52-.74l-1.5-.28c-.18,1,.54,1.81,1.81,2.05M217.33,163.97c.14-.7.52-1.02,1.08-.91.51.1.73.5.59,1.22l-1.67-.31ZM220.41,164.78c.26-1.39-.35-2.48-1.8-2.75-1.5-.28-2.56.55-2.87,2.23-.31,1.68.38,2.79,1.93,3.08,1.24.23,2.1-.25,2.42-1.26l-1.38-.26c-.14.32-.41.45-.85.37-.6-.11-.82-.58-.71-1.27l3.08.57c.08-.24.14-.53.17-.71M212.07,160.01l.64.12c.96.18,1.39,1,1.1,2.57s-.99,2.18-1.95,2l-.64-.12.85-4.57ZM211.61,166.07c1.99.37,3.45-.87,3.86-3.06.41-2.23-.49-3.87-2.43-4.22l-2.32-.43-1.35,7.3,2.24.41ZM203.44,164.55l.5-2.7c.14-.76.43-1.11.96-1.01.47.09.6.43.47,1.12l-.53,2.85,1.54.29.61-3.26c.23-1.24-.21-1.97-1.19-2.15-.66-.12-1.2.07-1.58.58l.13-.71-1.52-.28-.92,4.99,1.52.28ZM199.01,162.55c-.6-.11-.85-.64-.69-1.53.17-.89.6-1.29,1.19-1.18.59.11.85.64.69,1.53-.16.89-.6,1.29-1.19,1.18M198.77,163.84c1.51.28,2.64-.58,2.94-2.2.3-1.62-.45-2.82-1.96-3.1-1.51-.28-2.64.58-2.94,2.19-.3,1.62.45,2.82,1.96,3.1M195.68,163.11l.92-4.99-1.51-.28-.92,4.99,1.51.28ZM195.87,157.47c.55.1,1.03-.22,1.13-.76.1-.55-.23-1.02-.78-1.13-.54-.1-1.02.22-1.12.77-.1.54.23,1.01.77,1.11M193.39,161.41c-.38-.07-.5-.31-.42-.79l.35-1.89.81.15.22-1.18-.81-.15.28-1.49-1.52-.28-.28,1.49-.64-.12-.22,1.18.64.12-.43,2.3c-.2,1.07.36,1.73,1.28,1.9.29.05.55.07.82.07l.23-1.26c-.15-.02-.23-.02-.32-.04M187.64,160.44c-.61-.11-.85-.65-.69-1.53.16-.88.58-1.28,1.19-1.17.59.11.86.66.7,1.52-.16.88-.61,1.29-1.2,1.18M186.91,161.63c.66.12,1.19-.09,1.56-.61l-.14.74,1.52.28.93-4.99-1.52-.28-.14.74c-.15-.63-.58-1.01-1.24-1.14-1.21-.22-2.19.68-2.48,2.26-.29,1.58.29,2.78,1.5,3.01M182.23,160.77c1.37.25,2.3-.29,2.61-1.58l-1.48-.27c-.13.46-.42.66-.85.58-.58-.11-.8-.65-.63-1.53.16-.87.58-1.31,1.12-1.21.46.09.66.38.6.89l1.48.27c.23-1.31-.45-2.18-1.86-2.45-1.44-.27-2.55.59-2.85,2.21-.3,1.64.39,2.81,1.87,3.08M179.23,160.06l.93-4.99-1.51-.28-.93,4.99,1.51.28ZM179.42,154.43c.55.1,1.03-.22,1.13-.76.1-.55-.23-1.02-.78-1.13-.54-.1-1.02.22-1.12.77-.1.54.23,1.01.77,1.11M173.84,159.07l.5-2.7c.14-.76.43-1.11.96-1.01.47.09.6.43.47,1.12l-.53,2.85,1.54.29.61-3.26c.23-1.24-.21-1.97-1.19-2.15-.66-.12-1.2.07-1.58.58l.13-.71-1.52-.28-.93,4.99,1.52.28ZM168.39,158.2c.74.14,1.22-.09,1.57-.59l-.13.72,1.52.28.92-4.99-1.52-.28-.52,2.82c-.12.67-.44.99-.91.9-.45-.08-.61-.43-.5-1.02l.55-2.95-1.53-.28-.59,3.17c-.23,1.25.19,2.06,1.15,2.24M160.4,156.57l.52-2.83c.12-.65.41-.98.88-.89.41.08.54.4.44.97l-.55,2.99,1.53.28.52-2.83c.12-.65.41-.98.88-.9.41.08.54.4.44.97l-.55,2.99,1.53.28.59-3.17c.23-1.26-.21-2.07-1.23-2.26-.69-.13-1.24.15-1.57.66-.09-.64-.47-1.04-1.15-1.16-.64-.12-1.15.09-1.47.6l.13-.71-1.52-.28-.92,4.99,1.52.28ZM152.32,155.08l.52-2.83c.12-.65.41-.98.88-.89.41.08.54.4.44.97l-.56,2.99,1.53.28.52-2.83c.12-.65.41-.98.88-.9.41.08.54.4.44.97l-.55,2.99,1.53.28.59-3.17c.23-1.26-.21-2.07-1.23-2.25-.69-.13-1.24.15-1.57.66-.09-.64-.47-1.03-1.15-1.16-.64-.12-1.15.09-1.47.6l.13-.71-1.52-.28-.93,4.99,1.52.28ZM147.89,153.07c-.59-.11-.85-.64-.69-1.53.16-.89.6-1.29,1.19-1.18.6.11.85.64.69,1.53s-.6,1.29-1.19,1.18M147.65,154.36c1.51.28,2.64-.58,2.94-2.19.3-1.62-.45-2.82-1.96-3.1-1.51-.28-2.64.58-2.94,2.2-.3,1.62.45,2.82,1.96,3.1M141.89,153.35c1.74.32,2.87-.49,3.3-2.31l-1.68-.31c-.23.92-.62,1.33-1.35,1.2-.93-.17-1.16-1.07-.87-2.66.3-1.6.83-2.35,1.76-2.18.73.14.95.66.84,1.6l1.68.31c.26-1.85-.51-3.02-2.25-3.34-1.97-.36-3.25.85-3.71,3.29-.45,2.44.31,4.04,2.28,4.4M136.23,152.09l1.35-7.3-1.52-.28-1.35,7.3,1.52.28ZM131.48,150.03c-.6-.11-.85-.65-.69-1.53.16-.88.58-1.28,1.19-1.17.6.11.86.66.7,1.52-.16.88-.61,1.29-1.2,1.18M130.75,151.22c.66.12,1.19-.09,1.56-.62l-.14.74,1.52.28.93-4.99-1.52-.28-.14.74c-.15-.63-.58-1.01-1.24-1.14-1.21-.22-2.19.68-2.48,2.26-.29,1.58.29,2.78,1.5,3.01M125.15,150.18c.74.14,1.23-.09,1.57-.59l-.13.72,1.52.28.93-4.99-1.52-.28-.52,2.82c-.12.67-.44.99-.91.9-.45-.08-.61-.43-.5-1.02l.55-2.95-1.53-.28-.59,3.17c-.23,1.25.19,2.06,1.15,2.24M121.03,149.43c1.23.23,2.11-.27,2.29-1.27.14-.74-.19-1.29-.93-1.68l-.9-.47c-.27-.15-.39-.34-.35-.57.05-.26.29-.39.59-.33.35.07.52.31.45.69l1.45.27c.18-.96-.49-1.72-1.71-1.94-1.16-.21-2.05.23-2.23,1.18-.14.74.2,1.33.96,1.72l.86.43c.24.13.36.33.32.56-.06.3-.3.45-.61.39-.41-.08-.59-.37-.52-.74l-1.5-.28c-.19,1,.54,1.81,1.81,2.05M118.26,148.76l.92-4.99-1.51-.28-.93,4.99,1.51.28ZM118.46,143.13c.55.1,1.03-.22,1.13-.76.1-.55-.23-1.02-.78-1.13-.54-.1-1.02.22-1.12.77-.1.54.23,1.01.77,1.11M114.2,148.01l3.46-6.91-1.7-.32-2.12,4.87-.23-5.31-1.71-.32.75,7.69,1.55.29ZM106.96,144.36c-.12.66-.44.97-.91.89-.45-.08-.61-.42-.5-1.03l.53-2.88-1.53-.28-.57,3.09c-.21,1.14.12,2.04,1.15,2.23.74.14,1.23-.09,1.57-.59l-.16.89c-.14.75-.43,1.03-.93.94-.46-.09-.65-.38-.62-.76l-1.45-.27c-.11.63.08,1.13.46,1.5.32.31.77.52,1.41.64.64.12,1.16.06,1.58-.14.56-.29.92-.84,1.09-1.75l.92-4.94-1.52-.28-.51,2.76ZM102.9,144.64c-.38-.07-.5-.31-.41-.79l.35-1.89.81.15.22-1.18-.81-.15.28-1.49-1.52-.28-.28,1.49-.64-.12-.22,1.18.64.12-.43,2.3c-.2,1.07.36,1.73,1.28,1.9.29.05.55.07.82.07l.23-1.26c-.15-.02-.23-.02-.32-.04M99.37,145.26l.93-4.99-1.51-.28-.93,4.99,1.51.28ZM99.57,139.63c.55.1,1.03-.22,1.13-.76.1-.55-.23-1.02-.78-1.13-.54-.1-1.02.22-1.12.77-.1.54.23,1.01.78,1.11M95.17,144.64c1.23.23,2.11-.27,2.29-1.27.14-.74-.19-1.29-.93-1.68l-.9-.47c-.27-.15-.39-.34-.35-.57.05-.26.29-.39.59-.33.35.07.52.31.46.69l1.45.27c.18-.96-.49-1.72-1.71-1.94-1.16-.21-2.05.23-2.23,1.18-.14.74.21,1.33.96,1.72l.86.43c.24.13.36.33.32.55-.06.3-.3.45-.61.39-.41-.08-.59-.37-.52-.74l-1.5-.28c-.18,1,.54,1.81,1.81,2.05M91.44,143.79l.37-1.99c.2-1.1.64-1.52,1.39-1.38.13.02.17.03.29.07l.28-1.5c-.09-.03-.15-.05-.28-.07-.61-.11-1.18.23-1.45,1.02l.22-1.17-1.41-.26-.93,4.99,1.52.28ZM86.69,139.75c.14-.7.52-1.01,1.08-.91.51.09.73.5.59,1.22l-1.67-.31ZM89.76,140.57c.26-1.39-.35-2.48-1.8-2.75-1.5-.28-2.56.55-2.87,2.23-.31,1.68.38,2.79,1.93,3.08,1.24.23,2.1-.25,2.42-1.26l-1.38-.26c-.14.32-.41.45-.85.37-.6-.11-.82-.58-.72-1.27l3.08.57c.08-.24.14-.53.17-.71M82.81,142.19l2.74-4.66-1.61-.3-1.46,2.91-.32-3.24-1.6-.3.88,5.33,1.35.25ZM79.13,141.51l.93-4.99-1.51-.28-.92,4.99,1.51.28ZM79.33,135.87c.55.1,1.03-.22,1.13-.76.1-.55-.23-1.02-.78-1.13-.54-.1-1.02.22-1.12.77-.1.54.23,1.01.77,1.11M73.75,140.51l.5-2.7c.14-.76.43-1.11.96-1.01.47.09.6.43.47,1.12l-.53,2.85,1.54.29.6-3.26c.23-1.24-.21-1.97-1.19-2.15-.66-.12-1.2.07-1.58.58l.13-.71-1.52-.28-.93,4.99,1.52.28ZM68.65,139.76c1.61.3,2.78-.45,3.1-2.16l.9-4.84-1.62-.3-.88,4.77c-.16.86-.65,1.24-1.24,1.13-.57-.11-.89-.64-.73-1.49l.88-4.77-1.63-.3-.9,4.84c-.32,1.7.5,2.83,2.1,3.13M62.67,133.29l-1.76,1.99.84-4.55-1.51-.28-1.35,7.3,1.51.28.44-2.39.85,2.63,1.76.33-1.07-2.96,2.02-2.03-1.73-.32ZM57.87,137.57l.92-4.99-1.51-.28-.93,4.99,1.51.28ZM58.06,131.93c.55.1,1.03-.22,1.13-.76.1-.55-.23-1.02-.78-1.13-.54-.1-1.02.22-1.12.77-.1.54.23,1.01.77,1.11M53.17,135.52c-.61-.11-.85-.65-.69-1.53.16-.88.58-1.28,1.19-1.17.6.11.86.66.7,1.52-.16.88-.61,1.29-1.2,1.18M54.65,132.57c-.15-.62-.57-1.01-1.24-1.13-1.2-.22-2.17.65-2.46,2.22-.29,1.57.3,2.73,1.5,2.95.66.12,1.2-.08,1.56-.59l-.18.99c-.12.63-.44.92-1,.82-.51-.09-.71-.42-.69-.77l-1.53-.28c-.06.54.14,1.07.54,1.46.35.35.84.59,1.44.7.62.11,1.13.08,1.58-.09.63-.26,1.06-.82,1.22-1.72l.93-4.99-1.52-.28-.14.74ZM46.91,135.54l.5-2.7c.14-.76.43-1.11.96-1.01.47.09.6.43.47,1.12l-.53,2.85,1.54.29.6-3.26c.23-1.24-.21-1.97-1.19-2.15-.66-.12-1.2.07-1.58.58l.13-.71-1.52-.28-.93,4.99,1.52.28ZM42.47,133.53c-.6-.11-.85-.64-.69-1.53.16-.89.6-1.29,1.19-1.18.6.11.85.64.69,1.53-.16.89-.6,1.29-1.19,1.18M42.23,134.82c1.51.28,2.64-.58,2.94-2.19.3-1.62-.45-2.82-1.96-3.1-1.51-.28-2.64.58-2.94,2.19-.3,1.62.45,2.82,1.96,3.1M35.6,133.44l.54-2.93,1.88.35-.54,2.93,1.6.3,1.35-7.3-1.6-.3-.55,2.98-1.88-.35.55-2.98-1.6-.3-1.35,7.3,1.6.3ZM28.98,131.03c-.6-.11-.85-.64-.69-1.53.16-.89.6-1.29,1.19-1.18.6.11.85.64.69,1.53-.17.89-.6,1.29-1.19,1.18M31.76,125.4l-1.74-.32-2.36,2.45c-.44.39-.74.96-.88,1.69-.3,1.62.45,2.82,1.96,3.1,1.51.28,2.64-.58,2.94-2.19.27-1.47-.31-2.6-1.57-3.01l1.65-1.72ZM26.01,131.67l.26-1.39-2.84-.53c.21-.49.49-.72,1.22-1.01l.77-.31c1.08-.44,1.55-1.08,1.71-1.98.23-1.22-.41-2.14-1.91-2.41-1.57-.29-2.64.45-2.92,1.97l1.57.29c.14-.77.5-1.08,1.07-.98.45.08.63.42.54.92-.08.42-.25.75-.99,1.05l-.92.38c-1.27.52-1.92,1.32-2.26,3.13l4.7.87ZM18.27,129.09c-.85-.16-1-.83-.66-2.65.34-1.81.72-2.39,1.57-2.23.84.15.99.83.65,2.65-.34,1.82-.72,2.39-1.56,2.24M18.04,130.34c1.81.34,2.85-.68,3.32-3.2.47-2.53-.14-3.84-1.95-4.18-1.82-.34-2.87.68-3.33,3.2-.47,2.52.14,3.84,1.96,4.18M14.77,129.58l.26-1.39-2.84-.53c.21-.49.49-.72,1.23-1.01l.77-.31c1.08-.44,1.55-1.08,1.71-1.98.23-1.22-.41-2.14-1.91-2.41-1.57-.29-2.64.45-2.92,1.97l1.57.29c.14-.77.5-1.08,1.07-.98.45.08.63.42.54.92-.08.42-.25.75-.99,1.05l-.92.38c-1.27.52-1.93,1.32-2.26,3.13l4.7.87Z"/>
  </g>
  <path class="cls-2" d="M227.62,154.08c-.94-.17-1.27-1.08-.97-2.66.29-1.59.92-2.31,1.86-2.14.95.18,1.27,1.08.97,2.66-.29,1.59-.91,2.31-1.86,2.14M227.36,155.53c1.99.37,3.36-.8,3.82-3.27.46-2.47-.4-4.06-2.39-4.42-1.98-.37-3.35.8-3.81,3.27-.46,2.47.4,4.05,2.38,4.42M221.55,154.45c1.41.26,2.5-.42,2.75-1.76.18-.96-.12-1.64-.98-2.33l-.89-.67c-.49-.39-.74-.65-.65-1.12.08-.43.39-.65.84-.57.48.09.71.48.58,1.18l1.57.29c.28-1.49-.36-2.44-1.89-2.72-1.4-.26-2.46.37-2.69,1.61-.19,1.02.18,1.74,1.07,2.4l.84.61c.48.37.68.69.6,1.15-.09.47-.43.72-.9.63-.56-.1-.82-.56-.68-1.34l-1.61-.3c-.3,1.64.46,2.66,2.04,2.96M218.36,153.65l1.35-7.3-1.6-.3-1.35,7.3,1.61.3ZM213.65,152.99c1.41.26,2.5-.42,2.75-1.76.18-.96-.12-1.64-.98-2.33l-.89-.67c-.49-.39-.74-.66-.65-1.12.08-.43.39-.65.84-.57.48.09.71.48.58,1.18l1.57.29c.28-1.49-.36-2.44-1.89-2.72-1.4-.26-2.46.37-2.69,1.61-.19,1.02.18,1.74,1.08,2.4l.84.61c.48.37.68.69.6,1.15-.09.47-.43.72-.91.63-.56-.1-.82-.56-.68-1.34l-1.61-.3c-.3,1.64.46,2.66,2.04,2.95M207.1,150.62l1.27.24.23-1.23-1.27-.24-.23,1.23ZM207.8,146.84l1.27.24.23-1.23-1.27-.24-.23,1.23ZM204.9,151.75l.2-1.07-4.6-.85.35-1.88-1.33-.25-.55,2.95,5.92,1.1ZM203.78,143.32l-4.24-.79-.2,1.08,2.78.52c-.49,1.18-2.02,2.03-3.69,2.08l.34,1.15c2.05-.1,4.36-1.28,5-4.04M206.88,146.83l.2-1.09-1.24-.23.45-2.42-1.31-.24-1.17,6.33,1.31.24.52-2.82,1.24.23ZM193.76,149.91l.55-2.97,3.37.62.19-1.05-7.98-1.48-.19,1.05,3.31.61-.55,2.97,1.3.24ZM190.84,144.64c1.18.1,2.75-.25,3.44-1.09.35,1.05,1.71,1.9,2.86,2.25.23-.31.47-.61.7-.92-1.39-.39-2.61-1.32-2.57-2.38l2.55.47.19-1.03-6.62-1.23-.19,1.03,2.53.47c-.33,1.02-1.77,1.47-3.22,1.33.1.38.22.73.33,1.11M188.15,148.86l1.64-8.83-1.21-.22-1.64,8.83,1.21.22ZM186.42,148.12l1.53-8.25-1.2-.22-.51,2.77-1-.19-.21,1.14,1,.19-.8,4.34,1.2.22ZM185.59,145.26c-1.15-1.05-1.28-2.18-.97-3.82l.07-.38,1.28.24.19-1.02-3.94-.73-.19,1.02,1.4.26-.07.38c-.3,1.61-.88,2.74-2.46,3.44l.55,1.03c.75-.26,1.8-1.2,2.11-1.93.07.82.66,1.87,1.17,2.34l.88-.82ZM175.94,138.61l2.97.55.18-.99-2.97-.55-.18.99ZM180.58,141.68c-1.37-.25-2.14-.76-2.42-1.28l2.16.4.19-1-6.27-1.16-.19,1,2.18.4c-.43.38-1.33.56-2.74.3l.27,1.11c1.44.28,2.77-.02,3.32-.67.29.8,1.51,1.57,2.86,1.8l.64-.91ZM173.39,143.3l-.2,1.06,4.76.88-.32,1.7,1.31.24.51-2.76-2.33-.43.1-.55,3.37.62.19-1.04-7.98-1.48-.19,1.04,3.31.61-.1.55-2.44-.45ZM164.14,138.03c.12-.65.66-.96,1.26-.85.61.11,1.03.6.9,1.25-.12.65-.67.94-1.29.83-.61-.11-1-.58-.88-1.23M162.85,137.79c-.23,1.26.62,2.33,1.96,2.58,1.36.25,2.55-.44,2.78-1.7.23-1.27-.64-2.31-1.99-2.56-1.34-.25-2.52.41-2.75,1.68M167.63,143.91l-3.32-.62.24-1.3,3.32.62-.24,1.3ZM168.77,145.17l.61-3.29-5.98-1.11-.61,3.29,5.98,1.11ZM169.06,136.2l-.94,5.06,1.33.25.94-5.06-1.33-.25ZM159.53,138.51l-3.6-.67.42-2.25,3.6.67-.42,2.25ZM161.03,142.7l.19-1.03-3.34-.62.32-1.71,2.45.45.8-4.33-6.21-1.15-.8,4.33,2.47.46-.32,1.71-3.34-.62-.19,1.03,7.97,1.48ZM152.46,141.12l.19-1.03-3.37-.62.37-2-1.3-.24-.37,2-3.31-.61-.19,1.03,7.98,1.48ZM152.98,137.18c-1.43-.44-2.85-1.82-2.55-3.44l.09-.47-1.41-.26-.09.46c-.3,1.62-2.14,2.41-3.62,2.31l.38,1.2c1.17,0,2.92-.57,3.63-1.77.26,1.38,1.72,2.54,2.77,2.95l.79-.99ZM139.43,137.76l.08-1.01c-.63-.03-1.56-.14-2.55-.26l.43-2.34-1.25-.23-.44,2.39c-.55-.09-.96-.18-1.72-.32l-.06,1.1c.65.12,1.29.22,2.22.36,1.1.14,2.45.27,3.28.31M140.22,131.74l-4.72-.88-.2,1.07,3.41.63c-.18.98-.41,1.86-.72,2.73l1.2.35c.4-.94.77-2.43,1.04-3.91M142.61,136.04l.2-1.07-1.15-.21.65-3.52-1.3-.24-1.64,8.83,1.3.24.79-4.24,1.15.21ZM127.73,131.51c.12-.67.71-1.01,1.36-.89.65.12,1.09.64.97,1.32-.12.66-.71.97-1.37.85-.65-.12-1.08-.62-.96-1.28M126.45,131.27c-.24,1.29.67,2.37,2.03,2.62,1.37.25,2.61-.43,2.85-1.72.24-1.3-.68-2.38-2.04-2.63-1.37-.25-2.6.43-2.84,1.73M132.67,138.36l.19-1.02-4.87-.9.34-1.84-1.32-.24-.53,2.86,6.19,1.15ZM132.9,136.11l1.19-6.4-1.33-.25-1.19,6.4,1.33.25ZM125.12,128.05l-1.29-.24-1.64,8.83,1.29.24.82-4.43,1.19.22.2-1.07-1.19-.22.62-3.33ZM122.47,133.54c-1.24-1-1.74-2.36-1.38-4.27l1.7.32.2-1.09-4.75-.88-.2,1.09,1.69.31v.04c-.36,1.92-1.23,3.1-2.9,3.72l.59,1.14c.89-.29,2.09-1.25,2.52-2.16.13.92.98,2.15,1.59,2.69l.93-.91ZM110.39,131.17l.71-3.83,2.7.5.19-1.03-4.02-.74-1.11,5.96c.48.09.94.19,1.42.28,1.36.25,2.8.41,3.61.37.02-.38.03-.73.06-1.1-.71.04-1.88-.09-3.03-.3-.19-.03-.37-.07-.54-.11M115.21,135.35l1.64-8.83-1.31-.24-1.64,8.83,1.31.24ZM105.47,124.93l-4.2-.78-.2,1.08,2.72.51c-.37,1.06-1.96,1.88-3.64,1.91l.32,1.15c2.63-.24,4.47-1.43,5-3.86M106.36,133.76l.62-3.33-5.98-1.11-.19,1.04,4.67.86-.42,2.29,1.32.24ZM108.64,128.21l.2-1.06-1.23-.23.38-2.05-1.31-.24-.95,5.12,1.31.24.37-2.01,1.23.23ZM97.04,128.81c-1.24-1.03-1.75-2.41-1.4-4.26l.22-1.18-1.37-.25-.23,1.22c-.34,1.85-1.22,3.05-2.91,3.67l.64,1.16c.88-.26,2.1-1.2,2.49-2.07.1.92.94,2.07,1.61,2.61l.96-.91ZM98.19,132.19l1.64-8.83-1.34-.25-1.64,8.83,1.34.25ZM88.94,122.23l-6.29-1.17-.19,1.04,4.97.92c-.15,1.11-.58,2.63-.93,3.58l1.21.36c.51-1.21.98-3.22,1.23-4.73M88.45,129.12l.19-1.04-2.82-.52.49-2.61-1.31-.24-.49,2.62-.78-.15.49-2.62-1.32-.24-.49,2.62-1.74-.32-.19,1.04,7.98,1.48ZM74.29,122.94c.06-.32.45-.54.93-.45.48.09.78.44.72.76-.06.34-.47.54-.94.45-.49-.09-.77-.42-.71-.76M77.24,123.48c.16-.84-.6-1.7-1.85-1.93-1.28-.24-2.27.3-2.42,1.14-.16.87.58,1.72,1.85,1.95,1.25.23,2.26-.29,2.42-1.16M74.36,119.77l2.65.49.19-1-2.65-.49-.18,1ZM78.01,121.85l.19-1.01-5.17-.96-.19,1.01,5.17.96ZM73.19,124.67l-.19,1.03,4.62.86-.33,1.77,1.33.25.52-2.8-5.94-1.1ZM80.74,123.56l.2-1.06-1.16-.22.47-2.55-1.31-.24-1.06,5.72,1.31.24.39-2.11,1.16.22ZM65.21,122.92l.69-3.72,2.04.38.19-1.02-3.35-.62-1.07,5.8.95.18c.78.15,2.2.33,2.97.3l.06-1.02c-.59.02-1.76-.14-2.27-.24l-.2-.04ZM70.64,127.09l1.64-8.83-1.25-.23-.63,3.42-.65-.12.61-3.27-1.23-.23-1.53,8.27,1.23.23.73-3.95.65.12-.81,4.36,1.25.23ZM57.25,118.31c.12-.66.66-.95,1.26-.84.61.11,1.03.59.91,1.24-.12.66-.66.93-1.29.82-.6-.11-1-.57-.88-1.22M55.96,118.07c-.23,1.26.62,2.32,1.96,2.57,1.35.25,2.55-.43,2.78-1.69.24-1.27-.64-2.29-2-2.54-1.34-.25-2.51.4-2.75,1.66M56.46,121.16l-.19,1.05,4.71.87-.4,2.15,1.31.24.59-3.2-6.01-1.11ZM62.54,121.87l.97-5.24-1.33-.25-.97,5.24,1.33.25ZM52.39,118.38c-.04.2-.47.25-1.53.05-1.05-.19-1.46-.4-1.43-.6.04-.22.5-.25,1.55-.05,1.06.2,1.45.38,1.4.6M51.98,122.35c-.04.23-.76.24-1.86.03-1.06-.2-1.75-.47-1.71-.7.05-.25.78-.24,1.84-.05,1.1.2,1.77.46,1.72.71M49.93,115.21l3.02.56.18-.95-3.02-.56-.18.95ZM54.68,117.39l.18-.98-7.04-1.31-.18.98,7.04,1.3ZM53.44,122.62c.13-.72-.69-1.47-3-1.9-2.32-.43-3.34-.04-3.48.7-.13.7.68,1.47,3,1.9,2.31.43,3.35,0,3.48-.7M54.45,121.3l.18-.99-3.35-.62.05-.29c1.51.18,2.29-.19,2.4-.77.12-.66-.65-1.38-2.59-1.74-1.94-.36-2.92.03-3.04.7-.11.57.47,1.18,1.93,1.57l-.05.29-3.33-.62-.18.99,7.98,1.48ZM41.31,119.65c-.6-.11-.85-.64-.69-1.53.16-.89.6-1.29,1.19-1.18.59.11.85.64.69,1.53-.16.89-.6,1.29-1.19,1.18M44.09,114.02l-1.74-.32-2.36,2.45c-.44.39-.74.96-.87,1.69-.3,1.62.45,2.82,1.96,3.1,1.51.28,2.64-.58,2.94-2.19.27-1.47-.32-2.6-1.57-3.01l1.65-1.72ZM38.31,120.28l.26-1.39-2.84-.53c.21-.49.49-.72,1.22-1.01l.77-.31c1.08-.43,1.55-1.08,1.71-1.98.23-1.22-.41-2.14-1.91-2.41-1.57-.29-2.64.45-2.92,1.97l1.57.29c.14-.77.5-1.08,1.07-.98.45.08.63.42.54.92-.08.42-.25.75-.99,1.05l-.92.38c-1.27.52-1.93,1.32-2.26,3.13l4.7.87ZM30.54,117.7c-.85-.16-1-.83-.66-2.65.34-1.82.72-2.39,1.57-2.23.84.15.99.83.65,2.65-.34,1.82-.72,2.39-1.56,2.24M30.31,118.95c1.81.34,2.85-.68,3.32-3.2.47-2.53-.14-3.84-1.95-4.18-1.83-.34-2.87.68-3.33,3.2-.47,2.52.14,3.84,1.96,4.18M27.02,118.19l.26-1.39-2.84-.53c.21-.49.49-.72,1.23-1.01l.77-.31c1.08-.44,1.55-1.08,1.71-1.98.23-1.22-.41-2.14-1.91-2.41-1.57-.29-2.64.45-2.92,1.97l1.57.29c.14-.77.5-1.08,1.07-.98.45.08.63.42.54.92-.08.42-.25.75-.99,1.05l-.92.38c-1.27.52-1.93,1.32-2.26,3.13l4.7.87Z"/>
  <g>
    <g class="cls-1">
      <rect class="cls-2" x="112.84" y="72.16" width="235.8" height="21.37" transform="translate(-11.06 42.38) rotate(-10.25)"/>
    </g>
    <g class="cls-1">
      <rect class="cls-2" x="140.38" y="86.82" width="186.29" height="20.88" transform="translate(-13.58 43.1) rotate(-10.25)"/>
    </g>
    <path class="cls-2" d="M314.77,85.38c1.41-.25,2.19-1.28,1.95-2.62-.17-.96-.69-1.49-1.74-1.83l-1.07-.31c-.6-.19-.93-.35-1.01-.82-.08-.43.14-.75.58-.83.48-.09.83.19.96.89l1.58-.28c-.27-1.49-1.2-2.15-2.73-1.88-1.4.25-2.17,1.22-1.95,2.46.19,1.02.79,1.56,1.86,1.86l1,.27c.58.17.88.4.96.86.08.47-.15.83-.62.91-.56.1-.97-.24-1.11-1.02l-1.61.29c.3,1.64,1.37,2.33,2.96,2.04M308.78,86.37c.56-.1.93-.64.83-1.2-.1-.54-.63-.92-1.19-.82-.57.1-.93.64-.83,1.18.1.55.62.93,1.2.83M304.35,85.87c-.61.11-1.03-.31-1.19-1.19-.16-.88.09-1.41.7-1.52.6-.11,1.04.31,1.19,1.18.16.88-.11,1.42-.7,1.53M304.68,82.6c-.35-.53-.89-.74-1.56-.62-1.2.22-1.8,1.38-1.52,2.95.28,1.57,1.25,2.45,2.45,2.23.66-.12,1.1-.5,1.24-1.11l.18.99c.11.63-.08,1.02-.65,1.12-.51.09-.81-.14-.92-.48l-1.53.28c.14.53.51.95,1.02,1.17.45.2.99.25,1.59.14.62-.11,1.08-.33,1.45-.65.5-.47.7-1.14.54-2.04l-.9-5-1.52.28.13.74ZM298.7,86.9c-.61.11-1.03-.31-1.19-1.19-.16-.88.09-1.41.7-1.52.6-.11,1.04.31,1.19,1.18.16.88-.11,1.42-.7,1.53M299.05,83.62c-.37-.54-.9-.74-1.56-.62-1.21.22-1.8,1.41-1.52,2.99.29,1.59,1.26,2.5,2.47,2.28.66-.12,1.08-.51,1.24-1.13l.13.74,1.52-.28-1.32-7.3-1.52.27.55,3.05ZM295.69,88.62l-1.32-7.3-1.52.27,1.32,7.3,1.52-.28ZM289.78,88.44l-.35-1.94.72-.13c.56-.1,1,.21,1.1.78.12.67-.15,1.05-.86,1.18l-.61.11ZM289.5,83.4c.64-.11,1.02.15,1.13.76.11.59-.19.99-.81,1.11l-.58.11-.34-1.86.61-.11ZM291.12,85.59c.84-.35,1.25-1.01,1.09-1.92-.22-1.19-1.2-1.74-2.65-1.48l-2.48.45,1.32,7.3,2.48-.45c1.51-.27,2.28-1.19,2.05-2.46-.17-.96-.91-1.51-1.8-1.44M283.38,90.85l-.47-2.6,2.13-.39-.25-1.4-2.13.39-.35-1.94,2.13-.39-.25-1.37-3.74.68,1.32,7.3,1.62-.29ZM278.48,91.89c1.51-.27,2.27-1.34,2.05-2.53-.15-.86-.8-1.48-1.76-1.47.85-.33,1.19-1.02,1.03-1.93-.2-1.1-1.11-1.74-2.58-1.47-1.52.28-2.24,1.31-2,2.64l1.55-.28c-.11-.62.11-1.05.6-1.13.48-.09.79.19.88.69.11.6-.14.99-.78,1.1l-.57.1.23,1.25.54-.1c.75-.14,1.17.16,1.28.75.11.6-.14,1-.61,1.08-.64.11-1.03-.22-1.17-.99l-1.55.28c.28,1.57,1.24,2.3,2.87,2M270.88,89.65l1.22-.22-.22-1.21-1.22.22.22,1.21ZM264.37,88.03c.77-.14,1.27.34,1.42,1.19.16.87-.14,1.47-.92,1.61l-.54.1-.51-2.8.54-.1ZM266.66,91.42c.69-.58.98-1.46.79-2.5-.29-1.62-1.47-2.46-3.22-2.14l-2.22.4,1.32,7.3,1.61-.29-.36-2.01.62-.11,1.37,1.83,1.77-.32-1.66-2.16ZM259.48,95.28c.56-.1.93-.64.83-1.2-.1-.54-.63-.92-1.19-.82-.57.1-.93.64-.83,1.18.1.55.62.93,1.2.83M255.04,94.79c-.61.11-1.03-.31-1.19-1.19-.16-.88.09-1.41.7-1.52.6-.11,1.04.31,1.19,1.17.16.88-.11,1.42-.7,1.53M255.38,91.52c-.36-.53-.89-.74-1.56-.62-1.2.22-1.8,1.38-1.51,2.95.28,1.57,1.25,2.45,2.45,2.23.66-.12,1.1-.5,1.24-1.11l.18.99c.11.63-.09,1.02-.65,1.12-.51.09-.81-.14-.92-.48l-1.53.28c.14.53.51.95,1.02,1.17.45.2.99.25,1.59.14.62-.11,1.08-.33,1.45-.65.5-.47.7-1.14.54-2.04l-.9-5-1.52.28.13.74ZM249.4,95.81c-.61.11-1.03-.31-1.19-1.19-.16-.88.09-1.41.7-1.52.6-.11,1.04.31,1.19,1.17.16.88-.11,1.42-.7,1.53M249.74,92.54c-.37-.54-.9-.74-1.56-.62-1.21.22-1.8,1.41-1.52,2.99.29,1.59,1.26,2.5,2.47,2.28.66-.12,1.08-.51,1.24-1.13l.13.74,1.52-.28-1.32-7.3-1.52.28.55,3.05ZM246.39,97.54l-1.32-7.3-1.52.28,1.32,7.3,1.52-.28ZM240.48,97.36l-.35-1.94.72-.13c.56-.1,1,.21,1.1.78.12.67-.15,1.05-.87,1.18l-.61.11ZM240.2,92.31c.64-.11,1.02.15,1.13.76.11.59-.19.99-.81,1.11l-.58.11-.34-1.86.6-.11ZM241.82,94.51c.84-.35,1.25-1.01,1.09-1.92-.22-1.19-1.2-1.74-2.65-1.48l-2.48.45,1.32,7.31,2.48-.45c1.51-.27,2.27-1.19,2.04-2.46-.17-.96-.91-1.51-1.8-1.44M234.07,99.77l-.47-2.6,2.13-.39-.25-1.4-2.13.39-.35-1.94,2.13-.39-.25-1.37-3.74.68,1.32,7.3,1.62-.29ZM231.12,100.3l-1.28-7.1-1.37.25c.13.88-.07,1.33-1.24,1.54l.23,1.27,1.23-.22.82,4.55,1.61-.29ZM223.58,99.36c.12.66-.07,1.07-.54,1.15-.45.08-.72-.17-.83-.79l-.52-2.88-1.53.28.56,3.09c.2,1.14.83,1.86,1.86,1.68.74-.13,1.12-.51,1.26-1.11l.16.89c.14.75-.04,1.12-.54,1.21-.46.08-.74-.12-.85-.49l-1.45.26c.12.62.48,1.03.96,1.24.41.17.9.21,1.55.1.64-.11,1.11-.35,1.43-.69.42-.46.56-1.11.4-2.02l-.89-4.95-1.52.27.5,2.77ZM219.85,101.06c-.38.07-.58-.11-.67-.59l-.34-1.89.81-.15-.21-1.18-.81.15-.27-1.49-1.52.28.27,1.49-.64.11.21,1.18.64-.12.42,2.3c.19,1.07.95,1.49,1.86,1.32.29-.05.54-.13.79-.23l-.23-1.26c-.14.04-.23.06-.31.08M216.75,102.9l-.9-5-1.51.27.9,5,1.51-.27ZM214.93,97.56c.55-.1.89-.57.79-1.11-.1-.55-.58-.88-1.13-.78-.54.1-.88.57-.78,1.12.1.54.58.86,1.12.77M212.57,103.81c1.23-.22,1.88-1,1.7-2-.13-.74-.64-1.14-1.46-1.24l-1-.12c-.31-.04-.49-.18-.53-.41-.05-.26.13-.47.43-.52.36-.06.6.11.67.48l1.45-.26c-.17-.96-1.07-1.43-2.29-1.21-1.16.21-1.83.95-1.66,1.89.13.74.67,1.17,1.51,1.27l.96.1c.28.04.45.18.49.41.06.3-.12.53-.43.58-.41.07-.68-.13-.75-.51l-1.5.27c.18,1,1.14,1.51,2.42,1.27M208.76,104.34l-.36-1.99c-.2-1.1.06-1.65.81-1.79.14-.02.17-.03.3-.03l-.27-1.5c-.1,0-.16,0-.29.03-.62.11-1.02.64-.99,1.47l-.21-1.17-1.41.25.9,5,1.52-.28ZM202.86,102.25c-.12-.7.13-1.14.68-1.24.51-.09.86.21.99.93l-1.67.3ZM206.02,101.93c-.25-1.39-1.2-2.2-2.65-1.93-1.5.27-2.2,1.42-1.9,3.1.3,1.68,1.34,2.47,2.9,2.19,1.24-.22,1.87-.97,1.82-2.04l-1.38.25c-.02.35-.22.57-.66.65-.6.11-.97-.26-1.12-.93l3.08-.56c-.01-.26-.06-.55-.09-.73M200.07,105.91l.91-5.33-1.61.29-.33,3.24-1.44-2.92-1.6.29,2.71,4.67,1.36-.24ZM196.37,106.58l-.9-5-1.51.27.9,5,1.51-.27ZM194.55,101.24c.55-.1.89-.57.79-1.11-.1-.55-.58-.88-1.13-.77-.54.1-.88.57-.78,1.12.1.54.58.87,1.12.77M190.95,107.56l-.49-2.7c-.14-.76.01-1.19.55-1.28.47-.09.71.19.84.88l.51,2.85,1.54-.28-.59-3.27c-.23-1.24-.89-1.77-1.87-1.59-.66.12-1.1.49-1.27,1.1l-.13-.71-1.52.28.9,5,1.52-.27ZM185.89,108.67c1.61-.29,2.44-1.41,2.13-3.12l-.88-4.84-1.62.29.86,4.77c.15.86-.17,1.39-.75,1.49-.58.1-1.05-.28-1.21-1.14l-.86-4.77-1.63.29.88,4.84c.31,1.7,1.47,2.47,3.08,2.18M177.95,104.75l-.94,2.49-.82-4.55-1.51.27,1.32,7.3,1.51-.27-.43-2.39,1.73,2.16,1.76-.32-2.05-2.39,1.17-2.61-1.73.31ZM174.95,110.46l-.9-5-1.51.27.9,5,1.51-.27ZM173.13,105.12c.55-.1.89-.57.79-1.11-.1-.55-.58-.88-1.13-.78-.54.1-.88.57-.78,1.12.1.54.58.86,1.12.77M169.81,110.2c-.61.11-1.03-.31-1.18-1.19-.16-.88.09-1.41.7-1.52.6-.11,1.04.31,1.19,1.18.16.88-.11,1.42-.7,1.53M170.14,106.93c-.35-.53-.89-.74-1.56-.62-1.2.22-1.8,1.38-1.51,2.95.28,1.57,1.25,2.45,2.45,2.23.66-.12,1.1-.5,1.24-1.11l.18.99c.11.63-.09,1.02-.65,1.12-.51.09-.81-.15-.92-.48l-1.53.28c.14.53.51.95,1.02,1.17.45.2.99.25,1.59.14.62-.11,1.08-.33,1.44-.65.5-.47.7-1.14.54-2.04l-.9-5-1.52.28.13.74ZM163.93,112.45l-.49-2.7c-.14-.76.01-1.19.54-1.28.47-.09.71.19.84.88l.52,2.85,1.54-.28-.59-3.27c-.22-1.24-.89-1.77-1.87-1.59-.66.12-1.1.49-1.27,1.1l-.13-.71-1.52.27.9,5,1.52-.27ZM159.05,112.15c-.6.11-1.02-.3-1.18-1.19-.16-.89.1-1.42.69-1.53.6-.11,1.02.3,1.19,1.19.16.89-.1,1.42-.7,1.53M159.28,113.44c1.51-.27,2.26-1.47,1.97-3.09-.29-1.62-1.42-2.48-2.93-2.21-1.51.27-2.27,1.48-1.97,3.09.29,1.62,1.42,2.48,2.93,2.21M152.56,114.51l-.53-2.93,1.88-.34.53,2.93,1.61-.29-1.32-7.3-1.61.29.54,2.98-1.88.34-.54-2.98-1.61.29,1.32,7.3,1.61-.29Z"/>
    <path class="cls-2" d="M336.24,66.59c.08.42-.49.79-1.59.98-1.1.2-1.77.05-1.85-.36-.08-.45.5-.82,1.6-1.02,1.1-.2,1.76-.05,1.84.39M337.61,66.34c-.2-1.09-1.47-1.52-3.4-1.18-1.93.35-2.98,1.2-2.78,2.29.19,1.05,1.47,1.5,3.4,1.15,1.92-.35,2.96-1.21,2.77-2.26M337.99,62.27l-.19-1.07-1.17.21-.38-2.08-1.32.24.95,5.23,1.32-.24-.38-2.08,1.17-.21ZM331.56,64l-.37-2.04,2.66-.48-.18-1.02-3.96.71.74,4.11c.27-.05.51-.07.76-.12,1.68-.3,3.24-.75,3.99-1.05-.09-.32-.19-.65-.29-.98-.82.33-2.17.66-3.34.87M325.41,61.91l-4.2.76.19,1.07,2.73-.49c.04,1.15-1.15,2.47-2.71,3.09l.69.95c2.38-1.14,3.65-2.92,3.3-5.38M327.76,68.1c.09.49-.46.9-1.56,1.1-1.07.19-1.73,0-1.82-.49-.08-.47.46-.89,1.53-1.09,1.1-.2,1.76,0,1.85.47M329.1,67.86c-.2-1.1-1.43-1.64-3.39-1.28-1.92.35-2.88,1.28-2.68,2.38.2,1.11,1.42,1.64,3.35,1.29,1.95-.35,2.92-1.28,2.72-2.39M329.5,63.68l-.19-1.06-1.23.22-.36-1.97-1.31.24.91,5.06,1.31-.24-.37-2.02,1.23-.22ZM314.93,64.32l2.97-.54-.18-.99-2.98.54.18.99ZM320.35,65.55c-1.37.25-2.27.05-2.71-.34l2.16-.39-.18-1-6.28,1.14.18,1,2.18-.39c-.27.51-1.05,1-2.46,1.25l.64.94c1.45-.25,2.58-1,2.87-1.8.56.65,1.97.93,3.32.67l.28-1.07ZM314.21,69.61l.19,1.06,4.76-.86.31,1.71,1.31-.24-.5-2.77-2.33.42-.1-.55,3.37-.61-.19-1.04-7.98,1.44.19,1.04,3.31-.6.1.56-2.44.44ZM309.85,68.32c-1.17-.16-2.2-.84-2.46-2.26l-.16-.86-1.35.24.17.93c.23,1.3-.33,2.52-1.58,3.21l.86.89c.78-.42,1.64-1.49,1.75-2.36.46.66,1.53,1.27,2.26,1.38l.5-1.18ZM312.78,72.47l-.19-1.03-4.95.9-.32-1.75-1.31.24.5,2.78,6.26-1.13ZM312.19,70.29l-1.16-6.41-1.34.24,1.16,6.41,1.34-.24ZM295.85,67.79l2.97-.54-.18-.98-2.98.54.18.98ZM300.29,73.42c.05.29-.65.67-1.74.87-1.07.19-1.85.08-1.9-.21-.06-.32.63-.69,1.7-.88,1.09-.2,1.88-.09,1.93.22M302.13,71.23l-.19-1.04-7.98,1.44.19,1.04,7.98-1.44ZM301.23,69.04c-1.42.22-2.33.02-2.72-.39l2.13-.39-.18-.98-6.13,1.11.18.98,2.14-.39c-.21.52-.98,1-2.42,1.3l.63.92c1.35-.28,2.51-.97,2.83-1.72.61.6,1.96.81,3.25.61l.28-1.05ZM301.64,73.16c-.17-.93-1.51-1.31-3.47-.96-1.94.35-3.05,1.18-2.89,2.11.17.93,1.5,1.33,3.46.97,1.94-.35,3.06-1.19,2.89-2.12M291.61,75.86c1.51-.27,2.27-1.34,2.05-2.53-.16-.86-.8-1.48-1.76-1.47.85-.33,1.19-1.02,1.03-1.93-.2-1.1-1.11-1.74-2.58-1.47-1.52.28-2.24,1.31-2,2.64l1.55-.28c-.11-.62.11-1.04.6-1.13.48-.09.79.19.88.69.11.61-.14.99-.78,1.1l-.58.1.23,1.25.54-.1c.75-.14,1.17.15,1.28.75.11.59-.14,1-.61,1.08-.64.12-1.03-.22-1.17-.98l-1.55.28c.28,1.57,1.24,2.3,2.87,2M284.2,76.14c.07.36-.57.77-1.63.96-1.03.19-1.77.02-1.83-.33-.07-.42.56-.81,1.59-.99,1.06-.19,1.79-.05,1.87.37M285.54,75.88c-.19-1.05-1.47-1.5-3.4-1.15-1.92.35-2.95,1.21-2.76,2.26.18,1.01,1.45,1.5,3.39,1.15,1.91-.35,2.95-1.25,2.76-2.26M284.79,72.04l-.19-1.03-4.66.84-.19-1.05,4.59-.83-.19-1.05-5.9,1.07.57,3.13,2.31-.42.14.77-3.35.61.19,1.03,7.98-1.44-.19-1.03-3.32.6-.14-.77,2.35-.42ZM275.89,78.76c1.41-.26,2.19-1.28,1.95-2.63-.17-.96-.69-1.49-1.74-1.83l-1.07-.31c-.6-.19-.93-.35-1.01-.82-.08-.43.13-.75.58-.83.48-.09.83.19.96.89l1.57-.29c-.27-1.49-1.2-2.15-2.73-1.88-1.4.25-2.17,1.22-1.95,2.46.18,1.02.79,1.56,1.86,1.86l1,.27c.58.17.88.4.96.86.09.47-.15.82-.62.91-.56.1-.97-.23-1.11-1.02l-1.61.29c.3,1.64,1.37,2.33,2.96,2.04M268.38,76.45l1.22-.22-.22-1.21-1.22.22.22,1.21ZM262.36,76.12c-1.18-.18-2.17-.8-2.43-2.23l-.07-.39-1.35.24.08.47c.23,1.29-.34,2.46-1.58,3.15l.84.91c.79-.42,1.66-1.46,1.77-2.33.45.69,1.48,1.24,2.22,1.35l.51-1.18ZM265.5,81.17l-.19-1.03-4.85.88-.08-.44,4.63-.84-.44-2.42-5.97,1.08.19,1.05,4.66-.84.08.43-4.65.84.44,2.41,6.18-1.12ZM264.52,76.98l-.82-4.54-1.33.24.82,4.54,1.33-.24ZM256.11,79.2l-.94-5.21-1.34.24.38,2.08-1.16.21.19,1.05,1.16-.21.38,2.08,1.34-.24ZM250.15,80.66l.19,1.05,4.7-.85.4,2.21,1.32-.24-.59-3.26-6.02,1.09ZM248.44,76.77l1.66-.3c.18,1.28-.43,2.29-1.61,2.95l.85.92c.8-.43,1.69-1.47,1.77-2.3.46.67,1.54,1.28,2.26,1.38l.54-1.17c-1.12-.16-2.11-.79-2.44-2.04l1.64-.29-.19-1.06-4.66.84.19,1.06ZM245.28,78.2l-3.2.58-.2-1.13,3.2-.58.21,1.13ZM241.27,82.48l.19,1.03,4.69-.85.36,2,1.31-.24-.55-3.03-6,1.08ZM246.8,78.97l-.57-3.13-5.86,1.06.57,3.13,2.28-.41.14.75-3.34.6.19,1.05,7.98-1.44-.19-1.05-3.34.6-.14-.75,2.28-.41ZM237.65,77.15l-1.3.23,1.6,8.83,1.3-.24-.81-4.46,1.23-.22-.19-1.07-1.23.22-.6-3.3ZM233.4,83.86l-.7-3.9,2.77-.5-.19-1.06-4.07.73,1.1,6.06.77-.14c1.59-.29,3.24-.73,4.02-1.03-.11-.35-.22-.7-.32-1.05-.8.32-2.16.67-3.14.84l-.23.04ZM222.89,80.98l2.97-.54-.18-.98-2.98.54.18.98ZM227.33,86.62c.05.29-.65.67-1.74.87-1.07.19-1.85.08-1.9-.21-.06-.32.63-.69,1.7-.88,1.09-.2,1.88-.09,1.93.22M229.18,84.42l-.19-1.04-7.98,1.44.19,1.04,7.98-1.44ZM228.27,82.23c-1.43.22-2.33.02-2.72-.39l2.13-.39-.18-.98-6.13,1.11.18.98,2.14-.39c-.21.52-.98,1-2.42,1.3l.63.92c1.35-.28,2.51-.96,2.83-1.72.61.6,1.96.81,3.25.61l.28-1.05ZM228.69,86.35c-.17-.93-1.51-1.32-3.47-.96-1.94.35-3.05,1.18-2.89,2.11.17.93,1.5,1.33,3.46.97,1.94-.35,3.06-1.19,2.89-2.12M220.6,88.55l-1.28-7.1-1.37.25c.13.88-.07,1.33-1.24,1.54l.23,1.27,1.23-.22.82,4.55,1.61-.29ZM212.2,90.75l1.03-.19c.82-1.12,1.48-2.77,1.14-4.69l-.03-.19c-.34-1.9-1.54-3.22-2.7-3.98l-1.03.19c1.14.88,2.22,2.37,2.51,4.01l.05.3c.3,1.68-.2,3.34-.97,4.55M207.33,83.26l-4.6.83.19,1.03,3.29-.59c.14.78.21,1.59.19,1.99l1.27-.1c.04-.7-.14-2.05-.34-3.16M208.66,87.75l-.24-.96c-.44.15-1.89.52-2.62.67l-.31-1.7-1.24.22.31,1.73c-.54.11-1.08.21-1.68.31l.31,1.03c.51-.09,1.7-.33,2.74-.57.95-.22,2.19-.57,2.73-.74M211.07,90.83l-.18-1.02-4.75.86-.29-1.59-1.31.24.47,2.61,6.06-1.1ZM211.11,85.72l-.2-1.1-1.1.2-.46-2.55-1.3.23,1.18,6.53,1.3-.23-.52-2.89,1.1-.2ZM199.85,86.74l-3.25.59-.21-1.18,3.25-.59.21,1.18ZM202.35,92.44l-.18-1.02-4.73.86-.28-1.54-1.3.24.46,2.56,6.03-1.09ZM199.68,91.13l-.28-1.57,3.28-.59-.18-1.02-7.98,1.44.18,1.02,3.37-.61.28,1.57,1.33-.24ZM200.78,84.3l-5.91,1.07.58,3.22,5.91-1.07-.58-3.22ZM191.32,89.34c.04.2-.35.4-1.41.59-1.05.19-1.51.14-1.55-.06-.04-.22.38-.41,1.43-.6,1.06-.19,1.49-.16,1.53.06M192.35,93.19c.04.23-.63.49-1.73.69-1.06.19-1.8.18-1.84-.05-.04-.25.65-.51,1.71-.7,1.1-.2,1.82-.2,1.86.05M187.9,87.25l3.02-.55-.17-.95-3.02.55.17.95ZM193.12,87.6l-.18-.98-7.05,1.28.18.98,7.05-1.28ZM193.81,92.93c-.13-.72-1.17-1.13-3.48-.71-2.32.42-3.14,1.15-3.01,1.88.13.7,1.16,1.13,3.48.71,2.31-.42,3.13-1.18,3.01-1.89M194.29,91.33l-.18-.99-3.35.61-.05-.29c1.48-.37,2.07-.99,1.97-1.57-.12-.66-1.09-1.06-3.04-.71-1.94.35-2.71,1.06-2.6,1.73.1.58.86.94,2.36.78l.05.29-3.33.6.18.99,7.98-1.44ZM185.38,95.6l1.03-.19c-1.13-.88-2.22-2.36-2.52-4.02l-.05-.29c-.31-1.69.22-3.34.97-4.55l-1.03.19c-.83,1.12-1.49,2.77-1.15,4.68l.03.19c.35,1.91,1.55,3.23,2.72,3.99M180.14,94.96c.07.36-.57.77-1.63.96-1.03.19-1.77.02-1.83-.34-.08-.42.56-.81,1.59-.99,1.06-.19,1.79-.05,1.87.37M181.48,94.69c-.19-1.05-1.47-1.5-3.4-1.15-1.92.35-2.95,1.21-2.76,2.26.18,1.01,1.45,1.5,3.39,1.15,1.91-.35,2.95-1.25,2.77-2.26M180.73,90.86l-.19-1.03-4.66.84-.19-1.05,4.59-.83-.19-1.05-5.9,1.07.57,3.13,2.31-.42.14.77-3.35.61.19,1.03,7.98-1.44-.19-1.03-3.32.6-.14-.77,2.35-.42ZM170.15,91.41c.77-.14,1.27.34,1.42,1.19.16.87-.14,1.47-.92,1.61l-.54.1-.51-2.8.54-.1ZM172.43,94.8c.69-.58.98-1.46.79-2.5-.29-1.62-1.47-2.46-3.22-2.14l-2.22.4,1.32,7.3,1.61-.29-.36-2.01.62-.11,1.37,1.83,1.77-.32-1.66-2.16ZM164.22,91.31l-6.3,1.14.19,1.04,4.98-.9c.25,1.09.39,2.66.4,3.68l1.26-.1c.05-1.31-.23-3.36-.53-4.86M166.2,97.93l-.19-1.04-2.83.51-.47-2.62-1.31.24.47,2.62-.78.14-.47-2.62-1.32.24.47,2.62-1.74.32.19,1.04,7.98-1.44ZM150.8,97.16c-.06-.32.23-.67.71-.75.48-.09.89.14.94.45.06.34-.25.67-.72.76-.49.09-.87-.12-.93-.46M153.75,96.63c-.15-.84-1.16-1.38-2.41-1.15-1.28.23-2.02,1.08-1.86,1.92.16.87,1.15,1.4,2.42,1.17,1.25-.23,2.01-1.07,1.85-1.94M149.74,94.18l2.65-.48-.18-1-2.65.48.18,1ZM153.89,94.83l-.18-1.01-5.18.93.18,1.01,5.17-.94ZM150.38,99.17l.19,1.03,4.62-.84.32,1.78,1.33-.24-.51-2.8-5.95,1.08ZM157.05,95.46l-.19-1.06-1.16.21-.46-2.55-1.31.24,1.04,5.72,1.31-.24-.38-2.11,1.16-.21ZM142.34,100.36l-.67-3.73,2.04-.37-.18-1.02-3.35.61,1.05,5.8.95-.17c.78-.14,2.18-.48,2.88-.77l-.31-.97c-.54.23-1.69.49-2.21.58l-.2.04ZM148.89,102.33l-1.6-8.83-1.25.23.62,3.42-.65.12-.59-3.27-1.23.22,1.5,8.28,1.23-.22-.71-3.96.65-.12.79,4.36,1.25-.23ZM133.28,98.86c-.12-.66.28-1.12.88-1.23.61-.11,1.17.19,1.29.84.12.66-.29,1.11-.92,1.22-.61.11-1.14-.17-1.26-.83M131.99,99.1c.23,1.26,1.4,1.95,2.74,1.7,1.35-.24,2.23-1.3,2-2.56-.23-1.27-1.41-1.91-2.77-1.67-1.34.24-2.21,1.26-1.98,2.53M133.56,101.8l.19,1.05,4.71-.85.39,2.15,1.31-.24-.58-3.2-6.02,1.09ZM139.49,100.32l-.95-5.24-1.33.24.95,5.24,1.33-.24ZM128.79,100.65c.04.2-.35.4-1.41.59-1.05.19-1.51.14-1.55-.06-.04-.22.38-.41,1.43-.6,1.06-.19,1.49-.16,1.53.06M129.82,104.5c.04.23-.63.49-1.73.69-1.06.19-1.8.18-1.84-.05-.05-.25.65-.51,1.71-.7,1.1-.2,1.82-.2,1.86.05M125.37,98.55l3.02-.55-.17-.95-3.02.55.17.95ZM130.59,98.91l-.18-.98-7.05,1.28.18.98,7.05-1.28ZM131.27,104.23c-.13-.72-1.17-1.13-3.48-.71-2.32.42-3.14,1.15-3.01,1.89.13.7,1.16,1.13,3.48.71,2.31-.42,3.13-1.18,3.01-1.89M131.75,102.64l-.18-.99-3.35.61-.05-.29c1.48-.37,2.07-.99,1.97-1.56-.12-.66-1.09-1.06-3.04-.71-1.94.35-2.72,1.07-2.6,1.73.1.58.86.94,2.36.78l.05.29-3.33.6.18.99,7.98-1.44Z"/>
  </g>
  <g>
    <g class="cls-1">
      <rect class="cls-2" x="107.62" y="-.28" width="21.05" height="111.06" transform="translate(28.26 149.75) rotate(-71.5)"/>
    </g>
    <path class="cls-2" d="M163.02,68.8l1.37-4.1-.9-.3-1.37,4.1.9.3ZM161.22,64.41c.43.15.55.53.39,1.01-.16.49-.49.71-.92.57l-.31-.1.53-1.57.31.1ZM161.44,66.79c.52-.1.91-.47,1.1-1.06.31-.91-.06-1.67-1.04-2l-1.25-.42-1.37,4.1.9.3.38-1.13.35.12.18,1.32,1,.33-.24-1.57ZM157.16,66.84l.49-1.46,1.2.4.26-.79-1.2-.4.37-1.09,1.2.4.26-.77-2.1-.7-1.37,4.1.91.3ZM153.12,70.73c.54.18,1.12-.12,1.3-.65.17-.52-.11-1.11-.65-1.29-.55-.18-1.12.12-1.3.64-.18.53.1,1.12.65,1.3M149.32,69.5c1.46.49,2.63-.08,3.02-1.23.28-.83.02-1.68-.84-2.14.9.12,1.54-.32,1.83-1.2.35-1.06-.14-2.06-1.56-2.53-1.47-.49-2.6.07-3.02,1.35l1.5.5c.2-.59.6-.86,1.07-.7.46.15.6.55.44,1.03-.19.58-.6.79-1.22.59l-.55-.19-.4,1.21.52.17c.73.24.95.7.76,1.27-.19.57-.61.8-1.06.65-.61-.21-.8-.69-.55-1.43l-1.5-.5c-.51,1.51-.01,2.61,1.55,3.14M146.01,68.23l2.29-6.84-1.32-.44c-.31.83-.7,1.13-1.83.75l-.41,1.23,1.19.4-1.47,4.39,1.55.52ZM139.81,66.27c.54.18,1.12-.12,1.3-.65.17-.52-.11-1.11-.65-1.29-.55-.18-1.12.12-1.3.64-.18.53.1,1.12.65,1.3M136,65.04c1.46.49,2.63-.08,3.02-1.23.28-.83.02-1.68-.84-2.14.9.12,1.54-.32,1.83-1.2.35-1.06-.14-2.06-1.56-2.53-1.47-.49-2.6.07-3.02,1.35l1.5.5c.2-.59.6-.86,1.08-.7.46.16.6.55.44,1.03-.2.58-.6.79-1.22.59l-.55-.18-.4,1.21.52.17c.72.24.95.7.76,1.27-.19.57-.61.8-1.06.65-.61-.21-.8-.69-.55-1.43l-1.5-.5c-.51,1.51-.01,2.61,1.56,3.14M132.29,59.35l-2.88-.96-.27.8,2.88.96.27-.8ZM124.88,56.04l.85-2.53.35,2.92.83.28,1.37-4.1-.83-.28-.88,2.61-.32-3.01-.83-.28-1.37,4.1.83.28ZM122.12,54.34c-.53-.18-.64-.72-.35-1.62.3-.89.72-1.26,1.25-1.08.53.18.64.73.35,1.62-.3.89-.71,1.26-1.25,1.08M121.85,55.15c1.12.38,2.01-.19,2.47-1.58s.1-2.37-1.02-2.75c-1.11-.37-2,.19-2.46,1.58-.46,1.39-.1,2.37,1.02,2.75M116.96,53.39l.84-2.5-.17,2.73.6.2,1.51-2.28-.84,2.5.83.28,1.37-4.1-1.01-.34-1.76,2.66.2-3.19-1.01-.34-1.37,4.1.83.28ZM113.01,57.3c.54.18,1.12-.12,1.3-.65.17-.52-.11-1.11-.65-1.29-.55-.18-1.12.12-1.3.64-.18.53.1,1.12.65,1.3M110.54,51.45c.29-.85.77-1.21,1.35-1.01.57.19.75.77.47,1.62-.29.85-.77,1.2-1.34,1-.57-.19-.76-.76-.47-1.61M113.81,52.54c.52-1.56-.05-2.86-1.51-3.34-1.46-.49-2.7.2-3.22,1.76-.47,1.42-.05,2.62,1.13,3.2l-1.87,1.48,1.68.56,2.68-2.1c.49-.33.87-.85,1.1-1.56M104.14,54.34c.54.18,1.12-.12,1.3-.65.18-.52-.11-1.11-.65-1.29-.55-.18-1.12.12-1.3.64-.18.53.1,1.12.65,1.3M100.34,53.11c1.46.49,2.63-.08,3.01-1.23.28-.83.02-1.68-.84-2.14.9.12,1.54-.32,1.83-1.2.35-1.06-.14-2.06-1.56-2.53-1.47-.49-2.6.07-3.02,1.35l1.5.5c.2-.59.6-.86,1.08-.7.46.16.6.55.44,1.03-.19.58-.6.8-1.21.59l-.55-.18-.4,1.21.52.17c.73.24.95.7.76,1.27-.19.57-.6.8-1.06.65-.61-.2-.8-.69-.55-1.43l-1.5-.5c-.51,1.51-.01,2.61,1.56,3.14M94.56,51.13c.54.18,1.12-.12,1.3-.65.18-.52-.11-1.11-.65-1.29-.55-.18-1.12.12-1.3.64-.18.53.1,1.12.65,1.3M91.12,48.64c-.57-.19-.75-.76-.47-1.61.29-.85.77-1.2,1.34-1.01.57.19.76.76.47,1.61-.29.85-.77,1.2-1.34,1M94.66,43.45l-1.68-.56-2.68,2.1c-.49.33-.87.85-1.1,1.56-.52,1.56.05,2.86,1.51,3.34,1.46.49,2.7-.2,3.22-1.76.47-1.42.05-2.62-1.13-3.2l1.87-1.48ZM88.06,48.84l.45-1.34-2.74-.91c.28-.46.58-.64,1.35-.83l.81-.2c1.13-.28,1.68-.86,1.97-1.72.39-1.18-.11-2.17-1.56-2.66-1.52-.51-2.67.08-3.17,1.54l1.52.51c.25-.74.65-1,1.19-.82.43.15.57.5.41.99-.14.4-.35.71-1.13.9l-.97.25c-1.33.34-2.09,1.03-2.67,2.78l4.54,1.52ZM80.72,45.2c-.81-.27-.88-.96-.29-2.71.59-1.75,1.05-2.27,1.86-1.99.81.27.86.96.28,2.71-.59,1.75-1.05,2.27-1.86,2M80.32,46.41c1.75.59,2.92-.27,3.74-2.71.81-2.43.4-3.83-1.35-4.41-1.76-.59-2.93.27-3.74,2.71-.82,2.43-.4,3.83,1.36,4.41M77.17,45.2l.45-1.34-2.74-.92c.28-.46.59-.64,1.35-.83l.8-.2c1.13-.28,1.68-.86,1.97-1.72.39-1.18-.11-2.17-1.56-2.66-1.52-.51-2.68.08-3.17,1.54l1.52.51c.25-.74.65-1,1.19-.82.43.14.57.5.41.99-.13.4-.35.71-1.13.9l-.97.25c-1.33.34-2.09,1.04-2.68,2.78l4.54,1.52Z"/>
  </g>
  <g>
    <g class="cls-1">
      <rect class="cls-2" x="126.51" width="48.43" height="46.25"/>
    </g>
    <rect class="cls-2" x="138.38" y="7.77" width="7.67" height="2.59" transform="translate(0 .15) rotate(-.06)"/>
    <path class="cls-2" d="M159.67,20.57c3.8,0,6.89-2.83,6.89-6.3,0-3.47-3.1-6.29-6.9-6.28-3.8,0-6.89,2.83-6.88,6.3,0,3.47,3.1,6.29,6.9,6.28M156.9,14.28c0-1.39,1.23-2.52,2.75-2.52,1.52,0,2.76,1.13,2.76,2.51,0,1.39-1.23,2.52-2.76,2.52-1.52,0-2.76-1.13-2.76-2.51"/>
    <path class="cls-2" d="M142.35,18.07c-1.09,0-1.98-.81-1.99-1.81,0-1,.89-1.81,1.98-1.81,1.09,0,1.98.81,1.98,1.81,0,1-.89,1.81-1.98,1.81M148.69,10.67h-12.95s0,3.4,0,3.4h.98c-.32.67-.5,1.42-.49,2.2,0,3.08,2.75,5.58,6.12,5.58,3.37,0,6.11-2.51,6.11-5.59,0-.78-.18-1.53-.5-2.2h.73s0-3.38,0-3.38Z"/>
    <polygon class="cls-2" points="149.58 36.33 142.36 24.12 135.22 36.35 139.51 37.89 142.4 32.09 145.31 37.88 149.58 36.33"/>
    <polygon class="cls-2" points="158.36 28.72 165.37 28.71 165.37 24.62 153.7 24.64 153.72 37.37 165.38 37.36 165.38 33.22 158.37 33.23 158.36 28.72"/>
  </g>
</svg>