<?xml version="1.0" encoding="UTF-8"?>
<svg id="_레이어_1" data-name="레이어 1" xmlns="http://www.w3.org/2000/svg" viewBox="0 0 450 179.55">
  <path d="M436.17,95.15v-28.05h13.83V28.19h-27.85v-14.14h-14.06V0h-14.18v14.06h-14.06v14.14h-121.49c9.44,2.03,16.52,10.42,16.52,20.46,0,11.56-9.37,20.93-20.93,20.93s-20.93-9.37-20.93-20.93c0-10.05,7.08-18.43,16.52-20.46H42.29v-14.14h-14.06V0h-14.18v14.06H0v30.25c2.36-8.97,10.53-15.58,20.24-15.58,11.56,0,20.93,9.37,20.93,20.93s-9.37,20.93-20.93,20.93c-9.71,0-17.88-6.61-20.24-15.58v82.28h55.38l-.06-27.64h14.18v14.06h14.06v13.59h46.49v42.27h28.24v-14.06h-14.18v-14.18h14.18v-14.03h54.98v42.27h28.23v-14.06h-14.18v-14.18h14.18v-14.03h61.6v-27.68h-14.18v-14.06h-14.06v-14.18h14.06v-14.18h-14.06v-14.06h14.06v-14.06h14.18v70.53h14.18v14.06h14.06v13.62h118.67v-27.89h-13.83v-.06h-42.26v-14.18h14.06v-14.06h14.18v14.06h14.02ZM69.37,95.55h-14.06v14.06h-14.18v-42.29h14.18v14.06h14.06v14.18ZM87.53,42.56h28.24v28.24h-14.18v-14.06h-14.06v-14.18ZM87.53,81h42.29v14.18h-42.29v-14.18ZM129.78,123.78v-14.18h28.24v27.65h-14.18v-13.47h-14.06ZM156.5,56.74v-14.18h56.44v28.24h-14.18v-14.06h-14.02v14.06h-14.18v-14.06h-14.06ZM213.04,123.78v-14.18h-42.29v-14.18h14.06v-14.06h14.18v14.06h14.06v14.18h28.24v27.65h-14.18v-13.47h-14.06ZM331.2,42.56h28.24v28.24h-14.18v-14.06h-14.06v-14.18ZM373.49,95.55h-14.06v14.06h-14.18v-14.06h-14.06v-14.18h42.29v14.18ZM401.13,70.31c-11.56,0-20.93-9.37-20.93-20.93s9.37-20.93,20.93-20.93,20.93,9.37,20.93,20.93-9.37,20.93-20.93,20.93Z"/>
  <path d="M28.52,49.38c0-4.42-3.58-8.01-8.01-8.01s-8.01,3.58-8.01,8.01,3.58,8.01,8.01,8.01,8.01-3.58,8.01-8.01Z"/>
  <path d="M246.17,48.39c0,4.42,3.58,8.01,8.01,8.01s8.01-3.58,8.01-8.01-3.58-8.01-8.01-8.01-8.01,3.58-8.01,8.01Z"/>
  <path d="M401.13,41.37c-4.42,0-8.01,3.58-8.01,8.01s3.58,8.01,8.01,8.01,8.01-3.58,8.01-8.01-3.58-8.01-8.01-8.01Z"/>
</svg>