<?xml version="1.0" encoding="UTF-8"?>
<svg id="_레이어_1" data-name=" 레이어 1" xmlns="http://www.w3.org/2000/svg" viewBox="0 0 643.63 423.1">
  <defs>
    <style>
      .cls-1 {
        fill: #fff;
      }
    </style>
  </defs>
  <g>
    <path class="cls-1" d="M298.58,177.43c6.33-.53,12.66-.64,18.96.33,2.51.38,5.01.87,7.28,2.09,3.99,2.16,7.21,5.18,9.83,8.9,1.86,2.65,3.88,5.2,5.99,7.66,2.85,3.33,6.62,4.67,10.95,4.74,2.96.05,5.72-.82,8.43-1.79,4.83-1.72,9.61-3.56,14.38-5.43,1.55-.6,2.95-.55,4.36.3.91.55,1.85,1.06,2.77,1.59,3.95,2.28,7.89,4.57,11.96,6.65,6.83,3.5,14.11,5.7,21.52,7.42,12.03,2.79,24.26,3.56,36.58,2.64,10.73-.8,21.17-2.94,31.24-6.74,6.51-2.38,12.64-5.49,18.26-9.58,3.54-2.58,6.87-5.36,9.58-8.84,3.54-4.54,6.59-9.37,8.54-14.83,1.4-3.92,2.67-7.87,3.12-12.04.5-4.6.72-9.19.05-13.8-.44-3.03-1.36-5.93-2.29-8.82-.67-2.07-1.42-4.14-2.39-6.08-2.49-4.96-5.72-9.44-9.28-13.69-2.2-2.63-4.6-5-7.9-6.26-1.47-.56-3.04-.25-4.02.87-1.07,1.23-1.28,3.08-.39,4.38.42.62.98,1.17,1.57,1.63,2.79,2.14,5.22,4.65,7.52,7.3,2.68,3.09,4.55,6.69,6.48,10.26,1.87,3.47,3.25,7.13,4.05,10.95,1.49,7.21,1.47,14.37-1,21.45-2.45,7.03-6.57,12.9-12.1,17.78-5.08,4.48-11.06,7.48-17.24,10.1-5.62,2.39-11.56,3.76-17.46,5.22-4.38,1.08-8.81,1.92-13.3,2.38-8.65.87-17.21.06-25.72-1.52-4.67-.87-9.07-2.52-13.41-4.39-2.17-.94-3.64-2.51-4.51-4.68-.49-1.22-.97-2.45-1.42-3.69-.99-2.72-1.3-5.53-.94-8.39.59-4.67,2.35-8.89,5.15-12.68,1.68-2.28,3.4-4.55,4.99-6.9,2.46-3.62.19-8.16-2.52-9.61-1.94-1.04-3.99-1.74-6.15-2.17-4.59-.91-9.23-1.3-13.89-1.64-4.35-.32-8.71-.52-13.05-.98-2.61-.28-5.2-.87-7.76-1.47-2.6-.61-4.53-2.15-5.69-4.63-1.18-2.5-1.64-5.13-1.45-7.83.24-3.4,1.03-6.71,2.47-9.83,1.91-4.15,3.78-8.31,5.68-12.46,1.35-2.96,2.49-5.99,3.2-9.18.45-2.03.87-4.07,1.32-6.1,1.41-6.39,1.67-12.88,1.33-19.37-.37-7.11-1.74-14.08-3.89-20.87-1.6-5.04-3.83-9.81-6.49-14.39-2.35-4.05-5.13-7.77-8.18-11.32-4.41-5.15-9.32-9.77-14.87-13.65-6.23-4.35-12.96-7.75-20.18-10.15-9.27-3.08-18.75-5.21-28.5-6.01-6.3-.52-12.57-.32-18.74,1.16-2.17.52-4.31,1.23-6.15,2.55-2.64,1.9-4.35,5-2.06,8.58.87,1.35,1.88,2.65,3,3.8,5.13,5.28,10.08,10.69,13.92,17.04,2.98,4.91,5.54,10.03,7.76,15.31,1.62,3.87,2.95,7.88,4.27,11.87,1.52,4.58,2.48,9.31,3.09,14.09.93,7.26,1.02,14.54.1,21.84-.83,6.56-2.8,12.76-5.27,18.84-.21.51-.5,1.02-.88,1.41-.23.24-.76.44-1.03.34-.24-.09-.45-.64-.42-.97.1-1.11.34-2.2.47-3.31.09-.8.19-1.62.12-2.42-.14-1.72-1.09-2.59-2.81-2.49-1.61.09-3.25.24-4.82.6-2.76.63-5.5,1.39-8.21,2.2-2.33.7-4.65,1.45-6.91,2.35-2.35.94-4.63,2.05-6.92,3.14-3.15,1.51-6.35,2.94-9.4,4.64-5.09,2.83-10.13,5.74-14.84,9.18-.55.4-1.26.73-1.93.82-2,.26-4.03.58-6.04.52-4.71-.15-9.42-.38-14.11-.83-4.23-.41-8.43-1.13-12.64-1.76-1.5-.23-3.03-.44-4.46-.91-3.17-1.05-6.33-2.18-9.43-3.44-5.61-2.29-10.88-5.25-15.86-8.66-6.44-4.41-12.01-9.81-17.07-15.73-3.29-3.86-6.48-7.8-9.74-11.68-.75-.89-1.51-1.8-2.42-2.51-2.59-2.02-6.11-.94-7.19,2.15-.17.48-.3.98-.35,1.48-.2,1.87-.43,3.73-.51,5.6-.36,8.82,1.37,17.34,3.87,25.73.38,1.26.93,2.47,1.3,3.74,1.84,6.38,4.49,12.4,8.17,17.92,3.69,5.53,7.88,10.68,12.56,15.43,3.22,3.27,6.84,6.06,10.65,8.57,3.21,2.12,6.69,3.79,10.29,5.22,6.06,2.41,12.3,4.11,18.78,4.95,1.75.23,2.38-.15,2.94-1.84.13-.38.21-.79.23-1.19.12-1.67,1-2.75,2.58-3.2,1.5-.43,2.34-1.41,2.95-2.81,1.95-4.51,3.64-9.14,6.59-13.17,2.56-3.49,5.19-6.89,8.66-9.53.43-.33.93-.62,1.45-.78.57-.18.91.24.64.78-.32.63-.72,1.22-1.14,1.79-2.14,2.95-4.35,5.86-6.43,8.85-1.61,2.3-2.75,4.84-3.45,7.58-.32,1.27-.15,2.4.61,3.46.29.41.57.84.78,1.3.68,1.48.14,2.67-1.36,3.24-1.28.49-2.59.93-3.78,1.58-2.27,1.25-3.94,3.17-5.38,5.27-1.86,2.72-3.57,5.54-5.47,8.23-2.58,3.66-4.74,7.56-6.66,11.6-1.09,2.31-1.87,4.73-2.24,7.24-.43,2.9.16,5.56,2.52,7.57.45.39.96.93,1.57.52.17-.11-.04-.92-.21-1.35-.81-2.03-1.04-4.14-.79-6.28.39-3.22,1.5-6.22,3.2-8.96,2.61-4.2,6.22-7.27,10.71-9.38,3.71-1.74,7.51-2.37,11.53-1.41,3.73.89,6.35,3.03,7.55,6.76.97,3.03.68,5.98-.45,8.92-.96,2.51-1.95,5.02-2.69,7.59-.75,2.64-.7,5.33.89,7.74,1.35,2.06,4.86,3.24,7.45,1.71,2.2-1.3,3.38-3.23,3.43-5.72.04-1.76-.19-3.54-.41-5.29-.28-2.26-.76-4.49-.17-6.79.97-3.74,3.48-6.17,6.54-8.25,5.39-3.68,7.72-8.86,7.01-15.32-.31-2.83-1.95-4.72-4.77-5.49-.73-.2-1.48-.41-2.14-.76-1.42-.75-1.77-2.51-.8-3.78.27-.36.64-.65,1-.92,2.95-2.2,5.49-4.82,7.62-7.81,4.2-5.9,8.33-11.87,12.53-17.77.67-.94,1.48-1.81,2.38-2.53,1.35-1.07,2.36-.66,2.47,1.05.09,1.4.02,2.85-.24,4.23-.71,3.81-2.16,7.4-3.6,10.97-2.27,5.61-5.12,10.92-8.84,15.73-.33.43-.57.97-.72,1.5-.39,1.35.36,2.19,1.75,2.03.65-.08,1.31-.23,1.96-.21.96.03,1.79.39,2.13,1.41.31.93,0,1.69-.68,2.34-.48.45-1.01.85-1.47,1.32-1.18,1.2-2.27,2.48-2.61,4.2-.49,2.45,1,4.13,3.46,3.82.94-.12,1.91-.35,2.77-.74,4.81-2.18,9.72-4.08,14.79-5.55,4.64-1.35,9.35-2.27,14.17-2.67l-.07-.02h0ZM286.07,170.09c.4-.7.85-1.38,1.38-1.99,2.69-3.1,5.46-6.14,8.11-9.27,2.5-2.94,4.61-6.17,6.47-9.55,1.91-3.46,3.83-6.91,5.63-10.43,2.2-4.29,4-8.76,5.54-13.34.86-2.55,1.89-5.03,2.69-7.59,1.42-4.56,2.36-9.21,3.06-13.95.72-4.89.87-9.79.86-14.71,0-6.25-.85-12.41-2.03-18.55-.84-4.34-1.78-8.65-3.15-12.83-1.68-5.1-3.51-10.15-6.05-14.92-3.76-7.08-8.03-13.84-12.53-20.46-1.05-1.55-2.03-3.16-2.85-4.84-.43-.87-.56-1.95-.61-2.94-.06-1.5.67-2.57,2.11-3.19,1.79-.76,3.62-1.24,5.57-1.39,4.75-.38,9.41.14,14.05,1.14,4.42.95,8.76,2.2,13.02,3.67,4.96,1.71,9.62,4.06,13.98,6.98,1.26.85,2.55,1.66,3.8,2.53,4.08,2.82,7.47,6.38,10.72,10.08,3.91,4.44,7.15,9.33,9.67,14.68,1.08,2.29,2.09,4.61,3.14,6.92,2.4,6.21,3.82,12.61,4.22,19.24.22,3.67-.1,7.29-.75,10.9-1.23,6.86-3.93,13.19-7.09,19.35-3.45,6.73-7.65,13.02-11.73,19.37-2.72,4.23-5.34,8.5-7.28,13.15-1.49,3.58-2.54,7.27-2.78,11.16-.14,2.22.3,4.34,1.3,6.33s2.51,3.41,4.59,4.22c2.86,1.13,5.84,1.34,8.83.92,4.51-.63,9-1.45,13.5-2.17,3.95-.64,7.89-1.4,11.86-1.82,2.96-.32,5.97-.27,8.95-.22,2.55.04,4.76,1.2,6.48,2.99,2.58,2.68,3.21,5.89,1.82,9.42-.67,1.7-1.39,3.37-2,5.09-.77,2.18-.62,4.41,0,6.59.59,2.04,1.36,4.03,2,6.06.32,1.01.54,2.06.72,3.1.1.59.07,1.22,0,1.82-.2,1.46-.94,1.92-2.34,1.52-2.12-.6-4.09-1.55-5.91-2.76-2.62-1.74-5.14-3.61-7.75-5.37-4.12-2.78-8.12-5.76-12.43-8.21-6.83-3.88-13.91-7.34-21.49-9.57-8-2.35-16.11-4.15-24.47-4.53-6.46-.29-12.88.25-19.21,1.52-5.97,1.19-11.82,2.85-17.42,5.3-.88.39-1.74.82-2.63,1.2-.32.14-.67.25-1.02.26-.56.02-.84-.41-.55-.91h0ZM247.48,187.3c-1.36.57-2.94-.14-3.45-1.55-.42-1.16.22-2.45,1.46-2.92,1.3-.49,2.65.06,3.13,1.28.52,1.31.02,2.7-1.14,3.19h0Z"/>
    <path class="cls-1" d="M218.96,196.34c2.65-1.56,5.51-2.27,8.56-2.29,1.45,0,2.81.34,4.07,1.06.52.3,1.13.83,1.59.2.21-.28-.03-1.06-.28-1.49-1.79-3.11-4.63-4.37-8.07-4.02-3.76.39-7.32,1.46-10.4,3.85-2.72,2.12-5.14,4.44-6.37,7.76-1.09,2.95-1.19,5.93-.37,8.95.37,1.3,1.27,2.18,2.26,3,1.02.85,2.19,1.01,3.44.66,2.17-.6,3.75-3.04,3.4-5.46-.18-1.24-.61-2.45-1.01-3.65-1.23-3.6-.1-6.65,3.18-8.58h0Z"/>
  </g>
  <path class="cls-1" d="M227.25,304.75c-6.28.88-6.45.68-11.72,1.88-11.41,2.6-9.06,14.98.8,16.63,5.14.86,5.05.66,9.54.29,13.53-1.11,14.83-20.69,1.38-18.8h0Z"/>
  <path class="cls-1" d="M451.6,259.85c-1.31-9.96-19.78-14.15-19.92-2.88-13.1,7.6-64.99,18.34-67.74,42.97-.92,7.73,7.34,13.1,7.86,8.26,1.57-13.1,25.94-25.03,48.48-33.93-3.8,11.79-10.74,31.18-18.87,50.84-14.27,9.15-29.72,20.54-39.74,32.26-10.25-15.95-19.21-33.08-25.05-45.08,21.43-12.09,38.41-32.6,38.41-54.94,0-16.07-3.98-25.71-9.03-30.76s-21.73-4.29-25.25-4.29c-21.73,0-27.55,65.66-28.16,83.26-1.07.61-2.14,1.22-3.21,1.68.92-34.13,6.12-57.24,6.12-62.29,0-5.66-16.38-6.28-21.88-6.28-7.35,0-10.71,27.55-10.71,50.51,0,50.2,11.78,90.14,32.91,90.14,3.52,0,7.5-2.29,7.5-3.52,0-1.07-13.01-21.27-14.08-53.26,2.6-.46,5.2-1.07,7.8-1.84,7.42,16.63,19.38,39.01,34,56.93-.02.14-.05.27-.06.41-1.18,10.22,1.83,18.47,18.74,20.44.88.1,1.77.03,2.67-.16,8.42,5.97,17.29,9.61,26.38,9.61,11.79,0,15.46-7.96,9.03-7.96-7.09,0-14.76-4.75-22.43-12.21,11.25-14.67,22.99-41.92,32.17-66.47,6.03-3.67,11-6.68,14.15-8.52.13,12.31.65,24.63,1.96,34.85,3.93,30.27,19.92,44.68,28.17,43.63,8.39-1.05-4.06-2.62-8.91-39.57-3.01-23.98,0-81.37-1.31-91.85v.02h0ZM338.31,230.25c7.19,0,16.83,3.37,16.83,22.8,0,23.42-20.66,39.64-37.8,49.74,1.07-17.6,7.65-72.54,20.97-72.54h0ZM360.14,390.36c-4.68-.52-5.63-5.45-5.74-8.73,2.63,3.01,5.33,5.86,8.1,8.49-.81.23-1.6.32-2.37.23h0ZM375.77,377.13c-3.86-4.78-7.66-10.04-11.32-15.52,8.39-9.14,20.91-18.81,33.16-27.21-7.11,16.39-14.73,32.13-21.84,42.72h0ZM431.68,307.68c-2.88,1.44-6.68,3.54-11.4,6.16,5.11-13.89,9.17-26.2,11.53-34.2-.13,8.26-.26,18.08-.13,28.04Z"/>
  <path class="cls-1" d="M546.48,273.94c0-11.92-7.73-17.82-14.54-17.82s-4.72,5.24-4.72,8.78c0,4.32.13,24.5-1.31,48.22-8.91,17.82-23.85,45.07-31.32,45.07s.92-82.15.92-99.71c0-12.45-12.45-18.87-17.82-18.87-10.22,0-4.85,7.21-4.85,15.07,0,39.96-1.96,56.6-1.96,67.21,0,33.02,16.9,41.67,23.45,41.67,10.22,0,22.41-20.18,30.4-36.03-3.54,38.13-12.05,79.4-33.02,79.4-17.16,0-1.83,15.33,7.47,15.33,54.64,0,47.3-148.32,47.3-148.32h0Z"/>
  <path class="cls-1" d="M181.06,383.38c-8.36,1.91-16.57,4.13-24.68,6.52.15-9.26-.66-22.86-.09-41.18,1.05-33.81,5.02-77.26,6.5-92,5.11-.32,10.13-.95,14.87-2.49,5.16-1.98,12.97-10.04,9.19-11.72-22.85-7.54-49.97-2.92-71.12,16.54-.15.14-.3.3-.43.47-1.5,1.9-2.87,4.08-4.06,6.61-.03.06-.32.94-.61,1.85-.37,1.12-.28,2.35.16,3.37v.02c1.47,3.44,1.84,3.66,3.6.55.12-.21.26-.43.41-.61,5.68-6.93,12.31-10.38,19.39-12.17-1.78,19.74-4.92,68.56-4.07,94.53.75,22.81,2.3,35.68,5.2,42.86-5.16,1.72-10.3,3.47-15.43,5.25-3.52,1.24-6.79,2.45-9.68,3.61-2.41.95-4.83,2-7.05,3.21-.02.01-.04.03-.07.04-5.29,3.03-6.16,7.17-6.28,10.28-.07,1.73.85,4.99,3.1,3.99,3.29-1.46,1.38-.5,4.68-1.85,1.83-.75,3.65-1.5,5.46-2.24,1.81-.75,3.61-1.49,5.4-2.23,20.99-7.56,42.74-12.83,64.46-14.18,5.02-1.01,8.41-6.04,11.47-12.81.45-1.63.91-3.52-.23-4.96-2.41-3.03-6.49-2.18-10.09-1.25h0Z"/>
</svg>