<?xml version="1.0" encoding="UTF-8"?>
<svg id="_레이어_1" data-name="레이어 1" xmlns="http://www.w3.org/2000/svg" viewBox="0 0 450 306.01">
  <g>
    <rect x="344.92" y="248.2" width="9.8" height="34.87"/>
    <polygon points="396.06 262.54 396.06 252.74 367.84 252.74 367.84 283.07 396.06 283.07 396.06 273.27 377.64 273.27 377.64 262.54 396.06 262.54"/>
    <path d="M303.02,252.72v53.29h9.8v-22.94h19.94v-30.34l-29.74-.02ZM322.96,273.27h-10.14v-10.75h10.14v10.75Z"/>
    <path d="M245.39,252.72h-50.12v30.34h9.8v-20.54h10.36v20.54h9.8v-20.54h10.36v20.54h9.8s0-26.94,0-30.34h0Z"/>
    <path d="M183.17,252.72h-29.74v30.34l29.74.02v-30.34h0ZM173.37,273.27h-10.14v-10.75h10.14v10.75Z"/>
    <path d="M97.83,229.83h-9.8v22.89h-19.94v30.34l29.74.02v-53.25ZM88.03,273.27h-10.14v-10.75h10.14v10.75Z"/>
    <path d="M111.21,252.72v30.34h9.8v-20.54h19.94v-9.8h-29.74Z"/>
    <path d="M258.73,229.83v9.8h19.98v13.09h-19.94v30.34l29.74.02v-53.25h-29.78ZM278.71,273.27h-10.14v-10.75h10.14v10.75Z"/>
    <rect x="344.8" y="229.83" width="10.04" height="9.98"/>
  </g>
  <path d="M449.87,96.92c-1.67-29.92-15.42-59.97-40.5-77.32C391.05,6.63,368.72,1.31,346.72.2c-2.01-.07-7.11-.15-9.16-.2,0,0,0,0,0,0l-56.16.18-21.9.07.07,21.9.51,160.16-35.07.11-35.07-.11.51-160.16.07-21.9-21.9-.07L112.44,0s0,0,0,0c-2.06.05-7.15.13-9.16.2-22,1.12-44.33,6.43-62.65,19.41C15.55,36.95,1.8,67,.13,96.92c-1.58,33.07,11.56,68.33,39.4,87.7,11.43,8.13,25.21,13.32,38.84,15.65,21.05,3.44,42.84,2.75,62.83-5.5,10.22-4.33,19.53-11.01,26.86-19.4l-.02,6.87-.07,21.9,21.9.07,35.14.11,35.14-.11,21.9-.07-.07-21.9-.02-6.87c7.33,8.39,16.64,15.07,26.86,19.4,19.99,8.25,41.78,8.94,62.83,5.5,13.63-2.33,27.41-7.52,38.84-15.65,27.83-19.36,40.98-54.63,39.4-87.7ZM168.39,68.1c-5.68-6.09-12.42-11.18-19.93-14.71-16.35-7.68-33.99-9.95-51.68-7.47-30.03,4.37-50.91,30.56-48.64,60.92,1.73,25.48,18.59,48.06,45.29,50.07,10.07.72,19.71-.37,28.93-5.43,10.78-5.94,17.57-17.32,17.95-29.7.64-18.73-14.43-35.17-32.64-32.66-15.35,2.11-15.73,22.62-.23,23.43,2.21,0,4.16.49,5.57,1.24,2.85,1.54,4.3,4.81,3.88,7.97-.56,8.78-9.29,11.95-17.15,12.07-3.46.08-6.98-.14-10.25-1.23-12.75-3.95-18.46-18.33-18.39-30.83.1-10.2,5.08-20.69,13.28-26.68,9.71-7.26,23.61-8.1,35.57-6.47,12.7,1.73,24.68,6.7,32.96,16.37,8.04,9.21,12.44,22.54,12.3,34.72-.29,26.71-14.81,51.03-42.14,57.36-12.94,3.29-27.62,3.27-40.83,1.06-10.44-1.78-20.15-5.34-28.86-11.13-24.78-16.58-34.84-50.19-29.95-79.01C31.83,40.74,66.98,21.75,112.37,21.9c0,0,0,0,0,0l56.16.18-.15,46.03ZM396.6,167c-8.71,5.79-18.42,9.35-28.86,11.13-13.2,2.21-27.89,2.23-40.83-1.06-27.34-6.33-41.85-30.64-42.14-57.36-.14-12.18,4.26-25.5,12.3-34.72,8.28-9.67,20.26-14.63,32.96-16.37,11.96-1.64,25.85-.8,35.57,6.47,8.2,5.99,13.18,16.48,13.28,26.68.07,12.49-5.64,26.88-18.39,30.83-3.27,1.08-6.79,1.31-10.25,1.23-7.86-.12-16.59-3.29-17.15-12.07-.42-3.16,1.03-6.43,3.88-7.97,1.41-.75,3.36-1.24,5.57-1.24,15.5-.82,15.12-21.32-.23-23.43-18.21-2.51-33.29,13.93-32.64,32.66.38,12.38,7.17,23.77,17.95,29.7,9.22,5.06,18.86,6.15,28.93,5.43,26.71-2.01,43.57-24.59,45.29-50.07,2.27-30.35-18.61-56.55-48.64-60.92-17.69-2.48-35.33-.22-51.68,7.47-7.5,3.53-14.25,8.62-19.93,14.71l-.15-46.03,56.16-.18s0,0,0,0c45.39-.15,80.55,18.84,88.93,66.1,4.89,28.82-5.17,62.43-29.95,79.01Z"/>
</svg>