<?xml version="1.0" encoding="UTF-8"?>
<svg id="_레이어_1" data-name="레이어 1" xmlns="http://www.w3.org/2000/svg" viewBox="0 0 346.37 346.37">
  <defs>
    <style>
      .cls-1 {
        fill: none;
      }
    </style>
  </defs>
  <g>
    <polygon points="177.84 160.17 161.35 131.61 127.85 131.61 111.51 159.92 128.26 188.95 161.22 188.95 177.84 160.17"/>
    <polygon points="161.22 60.15 128.26 60.15 111.51 89.18 127.85 117.48 161.35 117.48 177.84 88.93 161.22 60.15"/>
    <polygon points="66.31 24.53 49.69 53.32 66.31 82.1 99.26 82.1 116.02 53.07 99.54 24.53 66.31 24.53"/>
    <polygon points="99.26 167 66.31 167 49.69 195.78 65.67 223.46 100.18 223.46 116.02 196.02 99.26 167"/>
    <polygon points="65.67 238.46 49.69 266.15 66.31 294.93 99.26 294.93 116.02 265.9 100.18 238.46 65.67 238.46"/>
    <polygon points="111.51 302 127.99 330.54 161.22 330.54 177.7 302 160.94 272.98 128.26 272.98 111.51 302"/>
    <polygon points="173.18 265.9 189.94 294.93 222.9 294.93 239.37 266.39 222.62 237.36 189.66 237.36 173.18 265.9"/>
    <polygon points="251.62 259.31 284.57 259.31 301.19 230.53 284.71 201.98 251.2 201.98 234.86 230.29 251.62 259.31"/>
    <polygon points="284.57 130.51 251.34 130.51 234.72 159.3 251.2 187.85 284.71 187.85 301.19 159.3 284.57 130.51"/>
  </g>
  <rect class="cls-1" width="346.37" height="346.37"/>
</svg>