<?xml version="1.0" encoding="UTF-8"?>
<svg id="_레이어_1" data-name="레이어 1" xmlns="http://www.w3.org/2000/svg" viewBox="0 0 49.66 131.94">
  <defs>
    <style>
      .cls-1 {
        fill: #fff;
      }
    </style>
  </defs>
  <path class="cls-1" d="M49.59,131.94v-1.39h-2.53l2.6-6.04h-4.58v1.39h2.38l-2.59,6.03h4.73ZM40.86,125.91h.65c.98,0,1.55.73,1.55,2.32s-.57,2.32-1.55,2.32h-.65v-4.65ZM41.51,131.94c2.03,0,3.23-1.48,3.23-3.71s-1.19-3.71-3.16-3.71h-2.35v7.42h2.28ZM35.56,126.42l.74,3.14h-1.47l.73-3.14ZM38.55,131.94l-2.17-7.42h-1.62l-2.17,7.42h1.69l.27-1.11h2.07l.27,1.11h1.69ZM30.81,127.77l-1.11-3.26h-1.74l1.95,4.85-1.08,2.58h1.75l3.08-7.42h-1.73l-1.12,3.26Z"/>
  <path class="cls-1" d="M46.49,115.12c-.96,0-1.44-.83-1.44-2.44s.49-2.44,1.44-2.44,1.44.83,1.44,2.44-.48,2.44-1.44,2.44M46.49,116.59c2.03,0,3.16-1.4,3.16-3.91s-1.13-3.91-3.16-3.91-3.15,1.4-3.15,3.91,1.13,3.91,3.15,3.91M41.87,116.39v-5.96h1.5v-1.46h-4.62v1.46h1.49v5.96h1.63ZM35.6,115.12c-.96,0-1.44-.83-1.44-2.44s.49-2.44,1.44-2.44,1.44.83,1.44,2.44-.48,2.44-1.44,2.44M35.6,116.59c2.03,0,3.16-1.4,3.16-3.91s-1.13-3.91-3.16-3.91-3.15,1.4-3.15,3.91,1.13,3.91,3.15,3.91M29.08,110.22c.78,0,1.19.56,1.19,1.42s-.4,1.42-1.19,1.42h-.55v-2.84h.55ZM30.72,113.97c.78-.45,1.22-1.26,1.22-2.32,0-1.65-1.01-2.68-2.79-2.68h-2.26v7.42h1.63v-2.05h.63l1.02,2.05h1.8l-1.25-2.42ZM22.82,113.07v-2.84h.55c.78,0,1.19.56,1.19,1.42s-.4,1.42-1.19,1.42h-.55ZM21.19,108.96v7.42h1.63v-2.05h.63c1.77,0,2.79-1.07,2.79-2.69s-1.01-2.68-2.79-2.68h-2.26Z"/>
  <path class="cls-1" d="M48.11,98.56c0,.67-.26,1.04-.73,1.04s-.68-.3-.68-.92v-2.93h-1.56v3.14c0,1.16.49,1.98,1.54,1.98.75,0,1.19-.31,1.43-.87v.9c0,.76-.23,1.09-.74,1.09-.47,0-.71-.25-.74-.64h-1.47c.01.64.29,1.09.72,1.39.37.24.85.37,1.51.37s1.16-.15,1.53-.42c.5-.38.75-1,.75-1.92v-5.03h-1.55v2.81ZM41.7,99.66c-.61,0-.95-.49-.95-1.38s.34-1.37.95-1.37.97.49.97,1.37-.36,1.38-.97,1.38M41.2,100.97c.67,0,1.16-.31,1.42-.89v.75h1.55v-5.08h-1.55v.75c-.27-.59-.75-.89-1.42-.89-1.23,0-2.03,1.07-2.03,2.67s.8,2.68,2.03,2.68M37.48,100.83v-2.03c0-1.11.35-1.61,1.11-1.61.14,0,.17,0,.3.02v-1.53c-.1-.01-.16-.02-.29-.02-.63,0-1.11.45-1.24,1.27v-1.19h-1.43v5.08h1.55ZM35.03,97.31h-3.03v1.26h3.03v-1.26ZM31.04,93.41h-1.63v7.42h1.63v-7.42Z"/>
  <path class="cls-1" d="M46.01,85.27v-4.57l2.15,4.57h1.49v-7.42h-1.49v4.73l-2.15-4.73h-1.49v7.42h1.49ZM43.48,85.27v-1.32h-2.3v-1.74h2.3v-1.29h-2.3v-1.74h2.3v-1.33h-3.93v7.42h3.93ZM34.88,85.27v-2.98h1.91v2.98h1.63v-7.42h-1.63v3.03h-1.91v-3.03h-1.63v7.42h1.63ZM29.18,81.96v-2.84h.55c.79,0,1.19.56,1.19,1.42s-.4,1.42-1.19,1.42h-.55ZM27.54,77.85v7.42h1.63v-2.05h.63c1.77,0,2.79-1.07,2.79-2.69s-1.01-2.68-2.79-2.68h-2.26ZM24.25,81.11l-1.11-3.26h-1.74l1.95,4.85-1.08,2.58h1.75l3.09-7.42h-1.73l-1.12,3.26ZM17.3,85.27v-2.98h1.91v2.98h1.63v-7.42h-1.63v3.03h-1.91v-3.03h-1.63v7.42h1.63Z"/>
  <path class="cls-1" d="M47.27,69.92c1.43,0,2.38-.87,2.38-2.24,0-.98-.41-1.59-1.39-2.11l-1-.5c-.55-.3-.85-.51-.85-.99,0-.43.27-.71.72-.71.49,0,.79.34.79,1.05h1.6c0-1.52-.8-2.33-2.35-2.33-1.42,0-2.35.82-2.35,2.08,0,1.04.5,1.68,1.49,2.16l.93.45c.54.28.8.55.8,1.02s-.3.79-.77.79c-.57,0-.91-.4-.91-1.2h-1.63c0,1.67.93,2.53,2.55,2.53M41.12,66.4v-2.84h.55c.79,0,1.19.56,1.19,1.42s-.4,1.42-1.19,1.42h-.55ZM39.49,62.3v7.42h1.63v-2.05h.63c1.77,0,2.79-1.07,2.79-2.69s-1.01-2.68-2.79-2.68h-2.26ZM38.36,62.3h-1.63v7.42h1.63v-7.42ZM32.06,69.72v-2.98h1.91v2.98h1.63v-7.42h-1.63v3.03h-1.91v-3.03h-1.63v7.42h1.63Z"/>
  <path class="cls-1" d="M49.66,46.74h-1.55v7.42h1.55v-7.42ZM44.86,53c-.6,0-.95-.48-.95-1.38s.35-1.38.95-1.38.96.48.96,1.38-.35,1.38-.96,1.38M44.86,54.31c1.54,0,2.49-1.05,2.49-2.69s-.95-2.69-2.49-2.69-2.49,1.05-2.49,2.69.95,2.69,2.49,2.69M39.2,53c-.62,0-.96-.49-.96-1.38s.34-1.37.96-1.37.96.49.96,1.37-.36,1.38-.96,1.38M40.11,49.84c-.25-.58-.74-.89-1.42-.89-1.22,0-2.01,1.04-2.01,2.63s.79,2.63,2.01,2.63c.67,0,1.17-.3,1.42-.87v1.01c0,.64-.27.99-.84.99-.52,0-.77-.29-.82-.64h-1.56c.04.54.33,1.03.79,1.34.4.28.93.42,1.54.42s1.12-.13,1.54-.38c.57-.37.89-1,.89-1.91v-5.08h-1.55v.75ZM33.5,53c-.61,0-.95-.49-.95-1.38s.34-1.37.95-1.37.97.49.97,1.37-.36,1.38-.97,1.38M34.42,49.84c-.26-.58-.74-.89-1.42-.89-1.22,0-2.01,1.04-2.01,2.63s.79,2.63,2.01,2.63c.67,0,1.17-.3,1.42-.87v1.01c0,.64-.27.99-.84.99-.52,0-.77-.29-.82-.64h-1.56c.04.54.33,1.03.79,1.34.4.28.93.42,1.54.42s1.12-.13,1.54-.38c.57-.37.89-1,.89-1.91v-5.08h-1.55v.75ZM30.24,46.74h-1.55v7.42h1.55v-7.42ZM24.65,54.3c.75,0,1.19-.31,1.43-.87v.73h1.55v-5.08h-1.55v2.86c0,.68-.26,1.05-.73,1.05s-.68-.31-.68-.91v-3h-1.56v3.22c0,1.27.56,1.99,1.54,1.99M19.68,53c-.62,0-.96-.49-.96-1.38s.34-1.37.96-1.37.97.49.97,1.37-.36,1.38-.97,1.38M20.6,49.84c-.26-.58-.74-.89-1.42-.89-1.22,0-2.01,1.04-2.01,2.63s.79,2.63,2.01,2.63c.67,0,1.17-.3,1.42-.87v1.01c0,.64-.27.99-.84.99-.52,0-.77-.29-.82-.64h-1.56c.04.54.33,1.03.8,1.34.4.28.93.42,1.54.42s1.12-.13,1.54-.38c.57-.37.89-1,.89-1.91v-5.08h-1.55v.75ZM13.5,54.16v-2.75c0-.77.22-1.17.76-1.17.48,0,.67.32.67,1.02v2.89h1.57v-3.32c0-1.26-.56-1.9-1.56-1.9-.67,0-1.17.29-1.44.86v-.72h-1.55v5.08h1.55ZM8.46,53c-.62,0-.96-.49-.96-1.38s.34-1.37.96-1.37.97.49.97,1.37-.36,1.38-.97,1.38M7.96,54.3c.67,0,1.16-.31,1.42-.89v.75h1.55v-5.08h-1.55v.75c-.27-.59-.75-.89-1.42-.89-1.23,0-2.02,1.07-2.02,2.67s.79,2.68,2.02,2.68M1.63,54.16v-2.98h1.91v2.98h1.63v-7.42h-1.63v3.03h-1.91v-3.03H0v7.42h1.63Z"/>
  <path class="cls-1" d="M46.48,35.5c0-.71.33-1.09.89-1.09.52,0,.81.36.81,1.09h-1.7ZM49.66,35.75c0-1.41-.79-2.38-2.27-2.38s-2.42,1.01-2.42,2.71.88,2.67,2.46,2.67c1.26,0,2.02-.62,2.15-1.68h-1.4c-.09.34-.32.52-.76.52-.6,0-.91-.42-.93-1.11h3.13c.03-.25.04-.55.04-.73M41.31,35.5c.01-.71.33-1.09.89-1.09.52,0,.81.36.81,1.09h-1.7ZM44.48,35.75c0-1.41-.79-2.38-2.27-2.38s-2.42,1.01-2.42,2.71.88,2.67,2.46,2.67c1.26,0,2.01-.62,2.15-1.68h-1.4c-.08.34-.32.52-.76.52-.61,0-.91-.42-.93-1.11h3.13c.03-.25.04-.55.04-.73M36.81,37.44c-.62,0-.98-.49-.98-1.38s.36-1.37.98-1.37.94.48.94,1.37-.34,1.38-.94,1.38M37.3,33.39c-.67,0-1.16.3-1.42.89v-3.1h-1.54v7.42h1.54v-.75c.27.59.75.89,1.42.89,1.23,0,2.02-1.07,2.02-2.68s-.79-2.67-2.02-2.67M30.33,38.61v-2.75c0-.77.22-1.17.77-1.17.48,0,.67.32.67,1.02v2.9h1.57v-3.32c0-1.26-.56-1.9-1.56-1.9-.67,0-1.17.29-1.44.86v-.72h-1.55v5.08h1.55ZM24.9,35.5c.01-.71.33-1.09.89-1.09.52,0,.81.36.81,1.09h-1.7ZM28.07,35.75c0-1.41-.79-2.38-2.27-2.38s-2.42,1.01-2.42,2.71.88,2.67,2.46,2.67c1.26,0,2.01-.62,2.15-1.68h-1.4c-.09.34-.32.52-.76.52-.6,0-.91-.42-.93-1.11h3.13c.03-.25.04-.55.04-.73M19.73,35.5c.01-.71.33-1.09.89-1.09.52,0,.81.36.81,1.09h-1.7ZM22.9,35.75c0-1.41-.79-2.38-2.27-2.38s-2.42,1.01-2.42,2.71.88,2.67,2.46,2.67c1.26,0,2.02-.62,2.15-1.68h-1.4c-.09.34-.32.52-.77.52-.61,0-.91-.42-.93-1.11h3.13c.03-.25.04-.55.04-.73M16.5,38.61v-2.02c0-1.11.35-1.61,1.11-1.61.14,0,.17,0,.3.02v-1.53c-.1,0-.16-.02-.29-.02-.62,0-1.11.45-1.24,1.27v-1.19h-1.43v5.08h1.55ZM11.16,34.74v1.26h1.23c-.01.93-.42,1.41-1.12,1.41-.99,0-1.42-.79-1.42-2.59,0-1.64.43-2.45,1.37-2.45.69,0,1.03.36,1.08,1.1h1.65c-.09-1.59-.99-2.49-2.74-2.49-1.95,0-3.08,1.46-3.08,3.87s1.1,3.95,3.07,3.95c1.66,0,2.65-.97,2.73-2.81h.38v-1.26h-3.16Z"/>
  <path class="cls-1" d="M47.38,23.2c1.39,0,2.21-.7,2.28-2.02h-1.5c-.04.48-.3.72-.73.72-.59,0-.9-.5-.9-1.39s.33-1.39.88-1.39c.47,0,.72.26.75.76h1.5c0-1.33-.84-2.07-2.28-2.07s-2.4,1.05-2.4,2.69.9,2.69,2.4,2.69M44.27,17.97h-1.54v5.08h1.54v-5.08ZM43.43,17.47c.56,0,.97-.4.97-.95s-.41-.96-.97-.96-.96.4-.96.96.41.95.96.95M39.51,21.89c-.61,0-.98-.49-.98-1.38s.36-1.37.98-1.37.95.48.95,1.37-.34,1.38-.95,1.38M39.99,17.84c-.67,0-1.16.3-1.42.89v-.75h-1.54v7.22h1.54v-2.89c.26.59.75.89,1.42.89,1.23,0,2.02-1.07,2.02-2.68s-.79-2.67-2.02-2.67M33.5,21.89c-.61,0-.96-.49-.96-1.38s.34-1.37.96-1.37.97.49.97,1.37-.36,1.38-.97,1.38M33,23.19c.67,0,1.16-.31,1.42-.89v.75h1.55v-5.08h-1.55v.75c-.27-.59-.75-.89-1.42-.89-1.23,0-2.02,1.07-2.02,2.67s.79,2.68,2.02,2.68M24.59,23.05v-2.87c0-.66.22-1.04.7-1.04.41,0,.6.3.6.87v3.04h1.56v-2.87c0-.66.22-1.04.7-1.04.41,0,.6.3.6.87v3.04h1.56v-3.22c0-1.28-.58-1.99-1.62-1.99-.7,0-1.19.37-1.42.93-.2-.61-.65-.93-1.35-.93-.65,0-1.12.3-1.34.86v-.72h-1.55v5.08h1.55ZM19.84,21.89c-.61,0-.96-.48-.96-1.38s.35-1.38.96-1.38.95.48.95,1.38-.35,1.38-.95,1.38M19.84,23.2c1.54,0,2.49-1.05,2.49-2.69s-.95-2.69-2.49-2.69-2.49,1.05-2.49,2.69.95,2.69,2.49,2.69M15.64,23.05v-2.02c0-1.11.35-1.61,1.11-1.61.14,0,.17,0,.3.02v-1.53c-.1,0-.16-.02-.29-.02-.62,0-1.11.45-1.24,1.27v-1.19h-1.43v5.08h1.55ZM9.49,17.02h.65c.98,0,1.55.73,1.55,2.32s-.57,2.32-1.55,2.32h-.65v-4.65ZM10.14,23.05c2.03,0,3.23-1.48,3.23-3.71s-1.19-3.71-3.16-3.71h-2.35v7.42h2.28Z"/>
  <path class="cls-1" d="M46.65,7.5v-2.75c0-.77.22-1.17.76-1.17.48,0,.67.32.67,1.02v2.89h1.57v-3.32c0-1.26-.56-1.9-1.56-1.9-.67,0-1.17.29-1.44.86v-.72h-1.55v5.08h1.55ZM44.09,2.42h-1.54v5.08h1.54V2.42ZM43.25,1.92c.56,0,.97-.4.97-.95s-.41-.96-.97-.96-.97.4-.97.96.41.95.97.95M41.5.07h-1.55v7.42h1.55V.07ZM36.42,6.33c-.62,0-.96-.49-.96-1.38s.34-1.37.96-1.37.97.49.97,1.37-.36,1.38-.97,1.38M35.92,7.64c.67,0,1.16-.31,1.42-.89v.75h1.55V2.42h-1.55v.75c-.26-.59-.75-.89-1.42-.89-1.23,0-2.02,1.07-2.02,2.67s.79,2.68,2.02,2.68M30.24,7.5v-2.75c0-.77.22-1.17.76-1.17.48,0,.67.32.67,1.02v2.89h1.57v-3.32c0-1.26-.56-1.9-1.56-1.9-.67,0-1.17.29-1.44.86v-.72h-1.55v5.08h1.55ZM24.81,4.39c.01-.71.33-1.09.89-1.09.52,0,.81.36.81,1.09h-1.7ZM27.98,4.63c0-1.41-.79-2.38-2.27-2.38s-2.42,1.01-2.42,2.71.88,2.67,2.46,2.67c1.26,0,2.01-.62,2.15-1.68h-1.4c-.08.34-.32.52-.76.52-.6,0-.91-.42-.93-1.11h3.13c.03-.25.04-.55.04-.73M21.58,7.5v-2.02c0-1.11.35-1.61,1.11-1.61.14,0,.17,0,.3.02v-1.53c-.1,0-.16-.02-.29-.02-.63,0-1.11.45-1.24,1.27v-1.19h-1.43v5.08h1.55ZM15.43,1.46h.65c.98,0,1.55.73,1.55,2.32s-.57,2.32-1.55,2.32h-.65V1.46ZM16.08,7.5c2.03,0,3.23-1.48,3.23-3.71S18.13.07,16.15.07h-2.35v7.42h2.28ZM10.13,1.97l.74,3.14h-1.47l.73-3.14ZM13.12,7.5L10.94.07h-1.62l-2.17,7.42h1.69l.27-1.11h2.07l.27,1.11h1.69Z"/>
</svg>