<?xml version="1.0" encoding="UTF-8"?>
<svg id="_레이어_1" data-name="레이어 1" xmlns="http://www.w3.org/2000/svg" viewBox="0 0 199.64 62.87">
  <defs>
    <style>
      .cls-1 {
        fill: #fff;
      }
    </style>
  </defs>
  <rect class="cls-1" width="199.64" height="62.87"/>
  <g>
    <path d="M18.56,35.59h6.85c0,3.34,1.42,5.03,3.83,5.03,2,0,3.25-1.29,3.25-3.29s-1.07-3.11-3.34-4.27l-3.91-1.87c-4.18-2.05-6.27-4.71-6.27-9.07,0-5.29,3.91-8.72,9.87-8.72,6.54,0,9.87,3.42,9.87,9.79h-6.72c0-2.98-1.25-4.4-3.29-4.4-1.91,0-3.02,1.16-3.02,2.98,0,2,1.25,2.89,3.56,4.14l4.18,2.09c4.09,2.18,5.83,4.76,5.83,8.85,0,5.74-4,9.38-10.01,9.38-6.76,0-10.67-3.65-10.67-10.63Z"/>
    <path d="M60.42,36.44h-13.12c.09,2.89,1.38,4.67,3.91,4.67,1.87,0,2.85-.76,3.2-2.18h5.87c-.58,4.45-3.74,7.07-9.03,7.07-6.63,0-10.32-4.05-10.32-11.21s3.74-11.39,10.14-11.39,9.52,4.05,9.52,9.96c0,.76-.04,2-.18,3.07ZM54.41,32.35c0-3.07-1.2-4.58-3.38-4.58-2.36,0-3.69,1.6-3.74,4.58h7.12Z"/>
    <path d="M82.12,36.44h-13.12c.09,2.89,1.38,4.67,3.91,4.67,1.87,0,2.85-.76,3.2-2.18h5.87c-.58,4.45-3.74,7.07-9.03,7.07-6.63,0-10.32-4.05-10.32-11.21s3.74-11.39,10.14-11.39,9.52,4.05,9.52,9.96c0,.76-.04,2-.18,3.07ZM76.12,32.35c0-3.07-1.2-4.58-3.38-4.58-2.36,0-3.69,1.6-3.74,4.58h7.12Z"/>
  </g>
  <g>
    <path d="M107.38,35.59h6.85c0,3.34,1.42,5.03,3.83,5.03,2,0,3.25-1.29,3.25-3.29s-1.07-3.11-3.34-4.27l-3.91-1.87c-4.18-2.05-6.27-4.71-6.27-9.07,0-5.29,3.91-8.72,9.87-8.72,6.54,0,9.87,3.42,9.87,9.79h-6.72c0-2.98-1.25-4.4-3.29-4.4-1.91,0-3.02,1.16-3.02,2.98,0,2,1.25,2.89,3.56,4.14l4.18,2.09c4.09,2.18,5.83,4.76,5.83,8.85,0,5.74-4,9.38-10.01,9.38-6.76,0-10.67-3.65-10.67-10.63Z"/>
    <path d="M129.76,34.7c0-6.72,3.34-11.21,8.5-11.21,2.8,0,4.85,1.25,5.96,3.74v-3.16h6.49v21.31h-6.49v-3.16c-1.11,2.45-3.16,3.74-5.96,3.74-5.16,0-8.5-4.49-8.5-11.25ZM144.39,34.7c0-3.69-1.51-5.74-4.05-5.74s-4,2-4,5.74,1.42,5.78,4,5.78,4.05-2.05,4.05-5.78Z"/>
    <path d="M159.11,45.38l-6.05-21.31h6.54l2.67,13.08,3.16-13.08h5.56l3.16,13.08,2.71-13.08h6.54l-6.05,21.31h-5.69l-3.47-13.48-3.42,13.48h-5.65Z"/>
  </g>
  <path d="M88.82,35.91v-5.29h12.72v5.29h-12.72Z"/>
</svg>