<?xml version="1.0" encoding="UTF-8"?>
<svg id="_레이어_1" data-name=" 레이어 1" xmlns="http://www.w3.org/2000/svg" viewBox="0 0 565.57 317.13">
  <defs>
    <style>
      .cls-1 {
        fill: #fff;
      }
    </style>
  </defs>
  <path class="cls-1" d="M494.94,153.66C462.54,84.25,375.95,0,283,0S102.94,85.08,70.54,154.49c-32.39,69.4,1.12,127.45,53.3,127.55,22.67.04,30.15-36.34.38-56.59-18.3-12.45-21.48-62.24,28.79-62.4,21.55-.07,12.05,36.28,37.32,48.54,16.12,7.81,92.45,7.64,92.45,7.64,0,0,68.44-.3,85.95-7.64,34.31-14.37,22.7-48.61,44.23-48.54,50.28.15,47.11,49.95,28.81,62.4-29.77,20.25-22.29,56.63.37,56.59,52.19-.1,85.18-58.97,52.78-128.39h.02ZM199.07,112.03c-6.11,0-11.07-4.95-11.07-11.06s4.96-11.07,11.07-11.07,11.07,4.96,11.07,11.07-4.96,11.06-11.07,11.06ZM323.33,101.73c-3.78,5.99-7.56,11.96-11.34,17.95-1.87,2.95-6.03,2.95-7.9,0-2.44-3.87-4.89-7.75-7.34-11.62-2.38,3.87-4.76,7.74-7.15,11.62-1.92,3.12-5.91,2.76-7.89,0-2.99-4.16-5.97-8.31-8.96-12.46-2.99,4.15-5.98,8.31-8.97,12.46-2.01,2.79-5.94,3.08-7.89,0-3.79-5.99-7.57-11.96-11.35-17.95-3.16-5.01,4.76-9.58,7.9-4.62,2.55,4.04,5.1,8.08,7.65,12.11,2.9-4.04,5.81-8.07,8.71-12.11,2.1-2.92,5.79-2.92,7.89,0,2.88,4.01,5.77,8.03,8.65,12.04,2.47-4.01,4.93-8.02,7.4-12.04,1.83-2.98,6.05-2.92,7.89,0,2.46,3.9,4.93,7.8,7.4,11.7,2.47-3.9,4.93-7.8,7.4-11.7,3.14-4.96,11.05-.38,7.89,4.62,0,0,.01,0,.01,0ZM370.31,112.03c-6.11,0-11.07-4.95-11.07-11.06s4.96-11.07,11.07-11.07,11.07,4.96,11.07,11.07-4.96,11.06-11.07,11.06Z"/>
  <path class="cls-1" d="M182.82,242.71c0-1.1.36-2.06,1.1-2.85.73-.79,1.6-1.19,2.59-1.19s1.86.39,2.59,1.19c.74.79,1.1,1.75,1.1,2.85s-.36,2.13-1.1,2.92c-.73.79-1.59,1.19-2.59,1.19s-1.86-.4-2.59-1.19c-.74-.79-1.1-1.77-1.1-2.92M182.82,253.03c0-1.1.36-2.06,1.1-2.85.73-.79,1.6-1.19,2.59-1.19s1.86.39,2.59,1.19c.74.79,1.1,1.75,1.1,2.85s-.36,2.13-1.1,2.93c-.73.79-1.59,1.19-2.59,1.19s-1.86-.4-2.59-1.19c-.74-.8-1.1-1.77-1.1-2.93M192.08,263.35c0-1.11.36-2.05,1.1-2.85.73-.79,1.59-1.19,2.59-1.19s1.86.4,2.59,1.19,1.1,1.74,1.1,2.85-.37,2.14-1.1,2.93c-.73.79-1.6,1.19-2.59,1.19s-1.86-.4-2.59-1.19c-.74-.79-1.1-1.77-1.1-2.93M201.34,263.35c0-1.11.36-2.05,1.1-2.85.73-.79,1.59-1.19,2.58-1.19s1.86.4,2.59,1.19,1.1,1.74,1.1,2.85-.36,2.14-1.1,2.93c-.73.79-1.6,1.19-2.59,1.19s-1.86-.4-2.58-1.19c-.74-.79-1.1-1.77-1.1-2.93M201.34,273.67c0-1.1.36-2.05,1.1-2.85.73-.8,1.59-1.19,2.58-1.19s1.86.39,2.59,1.19c.73.79,1.1,1.74,1.1,2.85s-.36,2.13-1.1,2.92c-.73.8-1.6,1.19-2.59,1.19s-1.86-.39-2.58-1.19c-.74-.79-1.1-1.76-1.1-2.92M201.34,283.99c0-1.11.36-2.06,1.1-2.85.73-.79,1.59-1.19,2.58-1.19s1.86.4,2.59,1.19,1.1,1.74,1.1,2.85-.36,2.13-1.1,2.93c-.73.79-1.6,1.19-2.59,1.19s-1.86-.4-2.58-1.19c-.74-.8-1.1-1.77-1.1-2.93M210.6,263.35c0-1.11.36-2.05,1.1-2.85.73-.79,1.59-1.19,2.59-1.19s1.86.4,2.59,1.19,1.1,1.74,1.1,2.85-.37,2.14-1.1,2.93c-.73.79-1.59,1.19-2.59,1.19s-1.86-.4-2.59-1.19-1.1-1.77-1.1-2.93M219.86,242.71c0-1.1.36-2.06,1.1-2.85.73-.79,1.6-1.19,2.59-1.19s1.86.39,2.59,1.19c.73.79,1.1,1.75,1.1,2.85s-.37,2.13-1.1,2.92c-.73.79-1.59,1.19-2.59,1.19s-1.86-.4-2.59-1.19c-.74-.79-1.1-1.77-1.1-2.92M219.86,253.03c0-1.1.36-2.06,1.1-2.85.73-.79,1.6-1.19,2.59-1.19s1.86.39,2.59,1.19c.73.79,1.1,1.75,1.1,2.85s-.37,2.13-1.1,2.93c-.73.79-1.59,1.19-2.59,1.19s-1.86-.4-2.59-1.19c-.74-.8-1.1-1.77-1.1-2.93"/>
  <path class="cls-1" d="M235.73,242.71c0-1.1.36-2.06,1.1-2.85.73-.79,1.59-1.19,2.59-1.19s1.86.39,2.59,1.19c.73.79,1.1,1.75,1.1,2.85s-.37,2.13-1.1,2.92c-.74.79-1.6,1.19-2.59,1.19s-1.86-.4-2.59-1.19c-.74-.79-1.1-1.77-1.1-2.92M235.73,273.67c0-1.1.36-2.05,1.1-2.85.73-.8,1.59-1.19,2.59-1.19s1.86.39,2.59,1.19c.73.79,1.1,1.74,1.1,2.85s-.37,2.13-1.1,2.93c-.74.79-1.6,1.19-2.59,1.19s-1.86-.39-2.59-1.19c-.74-.79-1.1-1.77-1.1-2.93M244.99,242.71c0-1.1.37-2.06,1.1-2.85s1.59-1.19,2.59-1.19,1.86.39,2.59,1.19c.73.79,1.1,1.75,1.1,2.85s-.37,2.13-1.1,2.92c-.73.79-1.6,1.19-2.59,1.19s-1.86-.4-2.59-1.19c-.73-.79-1.1-1.77-1.1-2.92M244.99,263.35c0-1.11.37-2.06,1.1-2.85s1.59-1.19,2.59-1.19,1.86.4,2.59,1.19,1.1,1.74,1.1,2.85-.37,2.13-1.1,2.92c-.73.79-1.6,1.19-2.59,1.19s-1.86-.4-2.59-1.19-1.1-1.77-1.1-2.92M244.99,283.99c0-1.11.37-2.06,1.1-2.85.73-.79,1.59-1.19,2.59-1.19s1.86.4,2.59,1.19,1.1,1.74,1.1,2.85-.37,2.13-1.1,2.93c-.73.79-1.6,1.19-2.59,1.19s-1.86-.4-2.59-1.19-1.1-1.77-1.1-2.93M254.26,242.71c0-1.1.36-2.06,1.1-2.85.74-.79,1.6-1.19,2.59-1.19s1.86.39,2.59,1.19c.73.79,1.1,1.75,1.1,2.85s-.37,2.13-1.1,2.92c-.73.79-1.6,1.19-2.59,1.19s-1.86-.4-2.59-1.19c-.73-.79-1.1-1.77-1.1-2.92M254.26,263.35c0-1.11.36-2.06,1.1-2.85s1.6-1.19,2.59-1.19,1.86.4,2.59,1.19,1.1,1.74,1.1,2.85-.37,2.13-1.1,2.92c-.73.79-1.6,1.19-2.59,1.19s-1.86-.4-2.59-1.19-1.1-1.77-1.1-2.92M254.26,283.99c0-1.11.36-2.06,1.1-2.85s1.6-1.19,2.59-1.19,1.86.4,2.59,1.19,1.1,1.74,1.1,2.85-.37,2.13-1.1,2.93c-.73.79-1.6,1.19-2.59,1.19s-1.86-.4-2.59-1.19-1.1-1.77-1.1-2.93M263.52,242.71c0-1.1.37-2.06,1.1-2.85.73-.79,1.6-1.19,2.59-1.19s1.85.39,2.58,1.19c.73.79,1.1,1.75,1.1,2.85s-.37,2.13-1.1,2.92c-.73.79-1.59,1.19-2.58,1.19s-1.86-.4-2.59-1.19c-.73-.79-1.1-1.77-1.1-2.92M263.52,263.35c0-1.11.37-2.06,1.1-2.85.73-.79,1.6-1.19,2.59-1.19s1.85.4,2.58,1.19,1.1,1.74,1.1,2.85-.37,2.13-1.1,2.92c-.73.79-1.59,1.19-2.58,1.19s-1.86-.4-2.59-1.19-1.1-1.77-1.1-2.92M263.52,283.99c0-1.11.37-2.06,1.1-2.85.73-.79,1.6-1.19,2.59-1.19s1.85.4,2.58,1.19,1.1,1.74,1.1,2.85-.37,2.13-1.1,2.93c-.73.79-1.59,1.19-2.58,1.19s-1.86-.4-2.59-1.19-1.1-1.77-1.1-2.93M272.78,253.03c0-1.1.36-2.06,1.1-2.85.73-.79,1.6-1.19,2.59-1.19s1.85.39,2.58,1.19,1.1,1.75,1.1,2.85-.37,2.13-1.1,2.93c-.73.79-1.59,1.19-2.58,1.19s-1.86-.4-2.59-1.19c-.74-.8-1.1-1.77-1.1-2.93M272.78,263.35c0-1.11.36-2.06,1.1-2.85.73-.79,1.6-1.19,2.59-1.19s1.85.4,2.58,1.19,1.1,1.74,1.1,2.85-.37,2.13-1.1,2.92c-.73.79-1.59,1.19-2.58,1.19s-1.86-.4-2.59-1.19c-.74-.79-1.1-1.77-1.1-2.92M272.78,273.67c0-1.1.36-2.05,1.1-2.85.73-.8,1.6-1.19,2.59-1.19s1.85.39,2.58,1.19c.73.79,1.1,1.74,1.1,2.85s-.37,2.13-1.1,2.93c-.73.79-1.59,1.19-2.58,1.19s-1.86-.39-2.59-1.19c-.74-.79-1.1-1.77-1.1-2.93M272.78,283.99c0-1.11.36-2.06,1.1-2.85.73-.79,1.6-1.19,2.59-1.19s1.85.4,2.58,1.19,1.1,1.74,1.1,2.85-.37,2.13-1.1,2.93c-.73.79-1.59,1.19-2.58,1.19s-1.86-.4-2.59-1.19c-.74-.79-1.1-1.77-1.1-2.93"/>
  <path class="cls-1" d="M288.65,263.35c0-1.11.37-2.06,1.1-2.85.73-.79,1.59-1.19,2.59-1.19s1.86.4,2.59,1.19,1.1,1.74,1.1,2.85-.37,2.13-1.1,2.92c-.74.79-1.6,1.19-2.59,1.19s-1.86-.4-2.59-1.19-1.1-1.77-1.1-2.92M288.65,273.67c0-1.1.37-2.05,1.1-2.85.73-.8,1.59-1.19,2.59-1.19s1.86.39,2.59,1.19c.73.79,1.1,1.74,1.1,2.85s-.37,2.13-1.1,2.93c-.74.79-1.6,1.19-2.59,1.19s-1.86-.39-2.59-1.19c-.73-.79-1.1-1.77-1.1-2.93M297.91,253.03c0-1.1.37-2.06,1.1-2.85.73-.79,1.6-1.19,2.59-1.19s1.86.39,2.59,1.19c.73.79,1.1,1.75,1.1,2.85s-.37,2.13-1.1,2.93c-.74.79-1.6,1.19-2.59,1.19s-1.86-.4-2.59-1.19c-.73-.8-1.1-1.77-1.1-2.93M297.91,283.99c0-1.11.37-2.06,1.1-2.85.73-.79,1.6-1.19,2.59-1.19s1.86.4,2.59,1.19,1.1,1.74,1.1,2.85-.37,2.13-1.1,2.93c-.74.79-1.6,1.19-2.59,1.19s-1.86-.4-2.59-1.19-1.1-1.77-1.1-2.93M307.17,253.03c0-1.1.37-2.06,1.1-2.85.73-.79,1.6-1.19,2.59-1.19s1.85.39,2.59,1.19c.73.79,1.1,1.75,1.1,2.85s-.36,2.13-1.1,2.93c-.74.79-1.6,1.19-2.59,1.19s-1.86-.4-2.59-1.19c-.73-.8-1.1-1.77-1.1-2.93M307.17,283.99c0-1.11.37-2.06,1.1-2.85.73-.79,1.6-1.19,2.59-1.19s1.85.4,2.59,1.19c.73.79,1.1,1.74,1.1,2.85s-.36,2.13-1.1,2.93c-.74.79-1.6,1.19-2.59,1.19s-1.86-.4-2.59-1.19-1.1-1.77-1.1-2.93M316.44,253.03c0-1.1.36-2.06,1.1-2.85.73-.79,1.6-1.19,2.59-1.19s1.85.39,2.59,1.19c.73.79,1.1,1.75,1.1,2.85s-.36,2.13-1.1,2.93c-.74.79-1.6,1.19-2.59,1.19s-1.86-.4-2.59-1.19c-.73-.8-1.1-1.77-1.1-2.93M316.44,283.99c0-1.11.36-2.06,1.1-2.85.73-.79,1.6-1.19,2.59-1.19s1.85.4,2.59,1.19c.73.79,1.1,1.74,1.1,2.85s-.36,2.13-1.1,2.93c-.74.79-1.6,1.19-2.59,1.19s-1.86-.4-2.59-1.19-1.1-1.77-1.1-2.93M325.69,242.71c0-1.1.37-2.06,1.1-2.85.73-.79,1.6-1.19,2.59-1.19s1.86.39,2.59,1.19c.73.79,1.1,1.75,1.1,2.85s-.36,2.13-1.1,2.92c-.74.79-1.6,1.19-2.59,1.19s-1.86-.4-2.59-1.19c-.73-.79-1.1-1.77-1.1-2.92M325.69,253.03c0-1.1.37-2.06,1.1-2.85.73-.79,1.6-1.19,2.59-1.19s1.86.39,2.59,1.19c.73.79,1.1,1.75,1.1,2.85s-.36,2.13-1.1,2.93c-.74.79-1.6,1.19-2.59,1.19s-1.86-.4-2.59-1.19c-.73-.8-1.1-1.77-1.1-2.93M325.69,263.35c0-1.11.37-2.06,1.1-2.85s1.6-1.19,2.59-1.19,1.86.4,2.59,1.19,1.1,1.74,1.1,2.85-.36,2.13-1.1,2.92c-.74.79-1.6,1.19-2.59,1.19s-1.86-.4-2.59-1.19-1.1-1.77-1.1-2.92M325.69,273.67c0-1.1.37-2.05,1.1-2.85.73-.8,1.6-1.19,2.59-1.19s1.86.39,2.59,1.19c.73.79,1.1,1.74,1.1,2.85s-.36,2.13-1.1,2.93c-.74.79-1.6,1.19-2.59,1.19s-1.86-.39-2.59-1.19c-.73-.79-1.1-1.77-1.1-2.93M325.69,283.99c0-1.11.37-2.06,1.1-2.85s1.6-1.19,2.59-1.19,1.86.4,2.59,1.19,1.1,1.74,1.1,2.85-.36,2.13-1.1,2.93c-.74.79-1.6,1.19-2.59,1.19s-1.86-.4-2.59-1.19-1.1-1.77-1.1-2.93"/>
  <path class="cls-1" d="M341.56,242.71c0-1.1.37-2.06,1.1-2.85.73-.79,1.59-1.19,2.59-1.19s1.86.39,2.59,1.19c.73.79,1.1,1.75,1.1,2.85s-.36,2.13-1.1,2.92c-.73.79-1.6,1.19-2.59,1.19s-1.86-.4-2.59-1.19c-.73-.79-1.1-1.77-1.1-2.92M341.56,283.99c0-1.11.37-2.06,1.1-2.85s1.59-1.19,2.59-1.19,1.86.4,2.59,1.19,1.1,1.74,1.1,2.85-.36,2.13-1.1,2.93c-.73.79-1.6,1.19-2.59,1.19s-1.86-.4-2.59-1.19-1.1-1.77-1.1-2.93M350.82,242.71c0-1.1.37-2.06,1.1-2.85.73-.79,1.59-1.19,2.59-1.19s1.86.39,2.59,1.19c.73.79,1.1,1.75,1.1,2.85s-.37,2.13-1.1,2.92-1.59,1.19-2.59,1.19-1.86-.4-2.59-1.19c-.73-.79-1.1-1.77-1.1-2.92M350.82,273.67c0-1.1.37-2.05,1.1-2.85.73-.8,1.59-1.19,2.59-1.19s1.86.39,2.59,1.19c.73.79,1.1,1.74,1.1,2.85s-.37,2.13-1.1,2.93c-.73.79-1.59,1.19-2.59,1.19s-1.86-.39-2.59-1.19c-.73-.79-1.1-1.77-1.1-2.93M350.82,283.99c0-1.11.37-2.06,1.1-2.85s1.59-1.19,2.59-1.19,1.86.4,2.59,1.19,1.1,1.74,1.1,2.85-.37,2.13-1.1,2.93c-.73.79-1.59,1.19-2.59,1.19s-1.86-.4-2.59-1.19-1.1-1.77-1.1-2.93M360.09,242.71c0-1.1.36-2.06,1.1-2.85s1.6-1.19,2.59-1.19,1.86.39,2.59,1.19c.74.79,1.1,1.75,1.1,2.85s-.36,2.13-1.1,2.92c-.73.79-1.6,1.19-2.59,1.19s-1.86-.4-2.59-1.19c-.73-.79-1.1-1.77-1.1-2.92M360.09,263.35c0-1.11.36-2.06,1.1-2.85s1.6-1.19,2.59-1.19,1.86.4,2.59,1.19c.74.79,1.1,1.74,1.1,2.85s-.36,2.13-1.1,2.92c-.73.79-1.6,1.19-2.59,1.19s-1.86-.4-2.59-1.19-1.1-1.77-1.1-2.92M360.09,283.99c0-1.11.36-2.06,1.1-2.85.73-.79,1.6-1.19,2.59-1.19s1.86.4,2.59,1.19c.74.79,1.1,1.74,1.1,2.85s-.36,2.13-1.1,2.93c-.73.79-1.6,1.19-2.59,1.19s-1.86-.4-2.59-1.19-1.1-1.77-1.1-2.93M369.35,242.71c0-1.1.36-2.06,1.1-2.85s1.6-1.19,2.59-1.19,1.86.39,2.59,1.19c.73.79,1.1,1.75,1.1,2.85s-.36,2.13-1.1,2.92c-.74.79-1.6,1.19-2.59,1.19s-1.86-.4-2.59-1.19c-.73-.79-1.1-1.77-1.1-2.92M369.35,253.03c0-1.1.36-2.06,1.1-2.85s1.6-1.19,2.59-1.19,1.86.39,2.59,1.19c.73.79,1.1,1.75,1.1,2.85s-.36,2.13-1.1,2.93c-.74.79-1.6,1.19-2.59,1.19s-1.86-.4-2.59-1.19c-.73-.8-1.1-1.77-1.1-2.93M369.35,283.99c0-1.11.36-2.06,1.1-2.85.73-.79,1.6-1.19,2.59-1.19s1.86.4,2.59,1.19,1.1,1.74,1.1,2.85-.36,2.13-1.1,2.93c-.74.79-1.6,1.19-2.59,1.19s-1.86-.4-2.59-1.19-1.1-1.77-1.1-2.93M378.61,242.71c0-1.1.36-2.06,1.1-2.85.73-.79,1.59-1.19,2.59-1.19s1.86.39,2.6,1.19c.73.79,1.09,1.75,1.09,2.85s-.36,2.13-1.09,2.92c-.74.79-1.61,1.19-2.6,1.19s-1.86-.4-2.59-1.19c-.74-.79-1.1-1.77-1.1-2.92M378.61,283.99c0-1.11.36-2.06,1.1-2.85.73-.79,1.59-1.19,2.59-1.19s1.86.4,2.6,1.19c.73.79,1.09,1.74,1.09,2.85s-.36,2.13-1.09,2.93c-.74.79-1.61,1.19-2.6,1.19s-1.86-.4-2.59-1.19c-.74-.79-1.1-1.77-1.1-2.93"/>
  <polygon class="cls-1" points="193.64 301.7 194.73 301.7 194.73 306.69 202.38 306.69 202.38 301.7 203.48 301.7 203.48 313.49 202.38 313.49 202.38 307.81 194.73 307.81 194.73 313.49 193.64 313.49 193.64 301.7"/>
  <rect class="cls-1" x="205.92" y="301.7" width="1.1" height="11.79"/>
  <polygon class="cls-1" points="217.68 301.7 218.86 301.7 214.18 313.49 212.99 313.49 208.26 301.7 209.54 301.7 213.63 312.1 217.68 301.7"/>
  <path class="cls-1" d="M230.48,309c-.06.66-.22,1.28-.49,1.86s-.63,1.1-1.08,1.53-.99.78-1.61,1.02-1.3.36-2.05.36c-.85,0-1.62-.14-2.32-.43-.7-.29-1.29-.7-1.79-1.24-.5-.55-.87-1.2-1.14-1.96-.26-.77-.39-1.62-.39-2.56,0-.72.11-1.43.31-2.15.21-.72.54-1.38,1-2.01.45-.61,1.04-1.11,1.77-1.48.73-.37,1.58-.56,2.56-.56.6,0,1.19.08,1.77.24.57.16,1.1.41,1.58.75s.88.79,1.2,1.33c.32.56.51,1.21.59,1.95h-1.09c-.08-.54-.25-1.01-.49-1.42s-.55-.74-.92-.99-.77-.44-1.22-.57c-.45-.12-.93-.18-1.42-.18-1.36,0-2.44.43-3.24,1.29-.8.86-1.2,2.12-1.2,3.78,0,.69.08,1.33.25,1.93s.43,1.14.79,1.62c.36.47.82.84,1.39,1.12.57.27,1.24.4,2.02.4,1.22,0,2.16-.31,2.83-.95s1.11-1.54,1.3-2.71h1.09v.03h0Z"/>
  <path class="cls-1" d="M232.44,301.7h5.14c1.52,0,2.68.52,3.49,1.54.8,1.03,1.2,2.48,1.2,4.35,0,.84-.09,1.62-.29,2.33-.19.72-.48,1.34-.87,1.87-.38.54-.86.95-1.43,1.25-.57.29-1.22.44-1.93.44h-5.3v-11.79h-.01ZM233.53,312.37h4c.51,0,.97-.08,1.39-.25s.79-.43,1.12-.81c.33-.37.58-.87.76-1.49.18-.61.27-1.36.27-2.23,0-1.58-.28-2.77-.86-3.57-.58-.8-1.47-1.2-2.68-1.2h-4v9.54h0Z"/>
  <rect class="cls-1" x="248.94" y="301.7" width="1.1" height="11.79"/>
  <rect class="cls-1" x="252.33" y="301.61" width="1.09" height="11.88"/>
  <rect class="cls-1" x="255.42" y="301.61" width="1.1" height="11.88"/>
  <path class="cls-1" d="M265.1,311.8h-.02c-.18.5-.56.96-1.14,1.36-.58.39-1.27.59-2.06.59-.62,0-1.15-.09-1.58-.25-.43-.18-.78-.42-1.03-.73s-.43-.68-.55-1.1c-.11-.42-.17-.9-.17-1.44v-5.32h1.1v5.53c0,.81.2,1.4.61,1.76.4.36.97.54,1.72.54,1.05,0,1.83-.28,2.35-.84s.78-1.33.78-2.33v-4.66h1.1v8.59h-1.1v-1.7h-.01Z"/>
  <path class="cls-1" d="M273.99,307.45c-.14-.67-.41-1.14-.81-1.4-.4-.26-1.01-.39-1.85-.39-.3,0-.59.02-.85.07s-.49.12-.71.23c-.21.11-.37.26-.49.45-.12.19-.18.43-.18.72,0,.23.04.43.12.57s.22.26.43.36c.2.09.48.18.85.25.36.07.85.16,1.47.25,1.24.19,2.11.45,2.6.78s.73.9.73,1.7c0,.86-.3,1.53-.93,2.01-.62.48-1.53.72-2.72.72-1.26,0-2.22-.24-2.89-.73-.67-.49-1.01-1.22-1.01-2.22h1.01c.1.72.36,1.22.78,1.5.42.29,1.12.43,2.11.43.83,0,1.46-.13,1.9-.36.44-.24.66-.67.66-1.28,0-.23-.04-.43-.12-.58s-.24-.29-.45-.4c-.22-.11-.52-.21-.9-.3-.38-.08-.86-.15-1.47-.22-1.19-.13-2.03-.38-2.52-.73-.48-.36-.72-.92-.72-1.68s.28-1.39.85-1.85,1.39-.69,2.47-.69c1.22,0,2.11.23,2.69.7s.9,1.17.97,2.11h-1.01v-.02h-.01Z"/>
  <path class="cls-1" d="M277.6,302.2h1.1v2.71h2.18v.93h-2.18v5.68c0,.38.08.66.23.83.15.17.44.26.87.26s.8-.03,1.08-.1v1.02c-.41.07-.81.1-1.2.1-.81,0-1.36-.17-1.65-.51-.28-.34-.43-.88-.43-1.62v-5.66h-1.67v-.93h1.67v-2.71h0Z"/>
  <path class="cls-1" d="M282.45,304.9h1.1v1.97h.03c.12-.3.25-.57.4-.82s.34-.49.57-.7c.23-.21.5-.39.84-.51.33-.13.72-.19,1.15-.19.22,0,.43.02.65.07v1.25c-.34-.07-.67-.1-1.01-.1-.32,0-.63.06-.93.17-.31.11-.59.3-.85.55-.26.25-.46.59-.62,1.01-.15.43-.23.93-.23,1.51v4.37h-1.1v-8.59h0Z"/>
  <path class="cls-1" d="M288.24,307.55c.09-.96.41-1.68.96-2.17.55-.49,1.46-.73,2.72-.73s2.15.21,2.7.62c.55.42.82,1.06.82,1.92v4.49c0,.35.05.61.14.75s.25.22.47.22c.13,0,.32-.01.57-.03v.82s-.02,0-.04.02c-.36.08-.65.11-.87.11-.26,0-.47-.04-.63-.13-.17-.08-.29-.2-.36-.35-.08-.14-.13-.3-.16-.47-.02-.18-.03-.36-.03-.57h-.03c-.13.21-.26.4-.41.57-.14.17-.35.34-.62.52-.28.18-.62.33-1.05.44-.43.12-.93.18-1.52.18-.36,0-.71-.05-1.06-.14-.35-.09-.67-.24-.96-.44-.29-.21-.53-.47-.71-.8-.18-.34-.27-.73-.27-1.19,0-.55.11-1,.34-1.36.23-.35.53-.62.9-.8s.76-.31,1.18-.38.89-.12,1.42-.15c.65-.04,1.14-.09,1.48-.13.34-.05.6-.11.78-.19.18-.07.29-.17.36-.29.06-.12.09-.29.09-.52,0-.62-.2-1.05-.59-1.3s-1.05-.38-1.95-.38-1.53.15-1.95.43c-.42.29-.65.78-.69,1.45h-1.01l-.02-.02h0ZM294.44,308.87c-.22.15-.52.27-.91.34s-1.15.16-2.27.27l-.25.04c-.66.07-1.16.22-1.5.47s-.51.62-.51,1.11c0,.63.21,1.07.62,1.34.41.27.94.4,1.6.4.37,0,.75-.06,1.14-.17.38-.12.73-.28,1.05-.51.31-.22.56-.5.75-.84s.28-.72.28-1.13v-1.32h0Z"/>
  <path class="cls-1" d="M298.47,302.2h1.1v2.71h2.18v.93h-2.18v5.68c0,.38.07.66.23.83.15.17.44.26.87.26s.81-.03,1.08-.1v1.02c-.41.07-.81.1-1.2.1-.81,0-1.36-.17-1.65-.51s-.43-.88-.43-1.62v-5.66h-1.67v-.93h1.67v-2.71h0Z"/>
  <path class="cls-1" d="M303.28,301.61h1.1v1.81h-1.1v-1.81ZM303.28,304.9h1.1v8.59h-1.1v-8.59Z"/>
  <path class="cls-1" d="M306.42,307.46c.18-.55.46-1.03.82-1.46s.82-.75,1.37-1c.55-.24,1.18-.36,1.9-.36s1.36.12,1.91.36c.56.24,1.01.57,1.38,1,.36.43.64.92.82,1.46.18.55.27,1.13.27,1.73s-.09,1.18-.27,1.73c-.18.56-.45,1.05-.82,1.47-.36.42-.82.75-1.38,1-.55.24-1.19.36-1.91.36s-1.36-.12-1.9-.36c-.55-.24-1.01-.58-1.37-1s-.64-.91-.82-1.47c-.18-.55-.28-1.13-.28-1.73s.09-1.18.28-1.73M308.12,311.76c.58.65,1.38.98,2.4.98s1.82-.33,2.4-.98c.58-.65.88-1.5.88-2.56s-.29-1.91-.88-2.56c-.58-.65-1.38-.97-2.4-.97s-1.81.32-2.4.97c-.58.65-.87,1.5-.87,2.56s.29,1.91.87,2.56"/>
  <path class="cls-1" d="M323.23,307.96c0-.81-.21-1.4-.61-1.75-.41-.36-.98-.54-1.72-.54-1.05,0-1.82.28-2.35.84-.51.55-.78,1.33-.78,2.33v4.65h-1.09v-8.59h1.09v1.69h.03c.18-.5.56-.96,1.14-1.36.57-.39,1.25-.59,2.05-.59.62,0,1.15.08,1.58.26.43.16.78.41,1.03.72.26.31.44.68.55,1.1.11.43.17.91.17,1.44v5.31h-1.09v-5.53.02Z"/>
  <path class="cls-1" d="M338,304.9h1.09v8.26c0,.76-.12,1.4-.37,1.92-.24.52-.57.93-1,1.22-.41.3-.87.5-1.37.64-.5.13-1.04.19-1.58.19-.82,0-1.5-.09-2.02-.28-.53-.18-.93-.43-1.2-.72-.27-.3-.44-.58-.54-.88-.09-.29-.15-.59-.18-.91h1.01c.06.31.13.56.2.75s.21.37.4.55c.2.17.48.31.87.41.39.1.89.15,1.5.15,1.02,0,1.81-.27,2.36-.79.55-.53.83-1.3.83-2.33v-1.54h-.03c-.11.23-.26.47-.45.7s-.42.44-.7.63c-.28.18-.6.34-.98.45-.38.12-.81.17-1.29.17-.52,0-1.03-.08-1.5-.24-.48-.16-.92-.42-1.3-.77-.4-.35-.7-.82-.93-1.39-.23-.57-.35-1.27-.35-2.08,0-.58.08-1.13.25-1.66.17-.52.43-.99.78-1.41.35-.41.79-.73,1.32-.96.54-.23,1.15-.34,1.85-.34.77,0,1.45.16,2.04.49.59.32,1.01.8,1.25,1.44h.03v-1.67h.01ZM337.18,306.62c-.57-.64-1.39-.96-2.44-.96-.97,0-1.74.3-2.31.89-.58.59-.86,1.41-.86,2.46,0,.6.08,1.14.25,1.58.16.44.39.8.68,1.07.29.28.64.48,1.03.61.4.13.83.19,1.31.19.92,0,1.69-.31,2.29-.93s.9-1.46.9-2.52c0-.95-.29-1.75-.86-2.39"/>
  <path class="cls-1" d="M341.13,304.9h1.1v1.97h.03c.12-.3.25-.57.4-.82s.33-.49.56-.7c.22-.21.5-.39.84-.51.33-.13.72-.19,1.15-.19.21,0,.43.02.65.07v1.25c-.34-.07-.67-.1-1.01-.1-.31,0-.62.06-.93.17-.3.11-.58.3-.85.55-.26.25-.46.59-.62,1.01-.15.43-.22.93-.22,1.51v4.37h-1.1v-8.59h0Z"/>
  <path class="cls-1" d="M346.99,307.46c.18-.55.46-1.03.82-1.46.37-.43.82-.75,1.37-1,.55-.24,1.18-.36,1.91-.36s1.36.12,1.91.36c.55.24,1.01.57,1.37,1,.37.43.64.92.82,1.46.18.55.27,1.13.27,1.73s-.09,1.18-.27,1.73c-.18.56-.45,1.05-.82,1.47-.36.42-.82.75-1.37,1-.55.24-1.19.36-1.91.36s-1.36-.12-1.91-.36c-.55-.24-1-.58-1.37-1-.36-.42-.64-.91-.82-1.47-.18-.55-.27-1.13-.27-1.73s.09-1.18.27-1.73M348.69,311.76c.58.65,1.38.98,2.4.98s1.82-.33,2.4-.98c.58-.65.87-1.5.87-2.56s-.29-1.91-.87-2.56-1.38-.97-2.4-.97-1.82.32-2.4.97-.87,1.5-.87,2.56.29,1.91.87,2.56"/>
  <path class="cls-1" d="M363.8,311.8h-.03c-.18.5-.56.96-1.14,1.36-.57.39-1.26.59-2.05.59-.62,0-1.15-.09-1.58-.25-.43-.18-.78-.42-1.03-.73s-.43-.68-.55-1.1-.18-.9-.18-1.44v-5.32h1.1v5.53c0,.81.21,1.4.61,1.76.4.36.98.54,1.72.54,1.05,0,1.84-.28,2.35-.84.52-.56.78-1.33.78-2.33v-4.66h1.1v8.59h-1.1v-1.7h0Z"/>
  <path class="cls-1" d="M366.96,304.9h1.09v1.72h.03c.1-.23.21-.45.36-.67.14-.21.33-.42.56-.62.24-.21.54-.37.91-.5s.81-.18,1.31-.18c.75,0,1.4.13,1.94.39.54.27.98.62,1.31,1.06s.57.93.72,1.46.23,1.08.23,1.64c0,.6-.09,1.18-.26,1.73-.17.56-.43,1.05-.78,1.47s-.79.75-1.31,1c-.54.24-1.15.36-1.84.36s-1.33-.18-1.9-.56c-.56-.37-.98-.85-1.24-1.42h-.03v5.05h-1.09v-11.92h-.01ZM368.19,310.51c.13.42.32.8.59,1.13.27.34.61.6,1.01.79.41.2.88.29,1.43.29.89,0,1.63-.33,2.22-.97.59-.65.88-1.5.88-2.57,0-.45-.06-.89-.18-1.3-.12-.42-.3-.79-.55-1.13-.24-.33-.57-.6-.97-.8-.4-.2-.86-.3-1.4-.3-.94,0-1.72.32-2.32.95-.6.64-.91,1.5-.91,2.58,0,.45.07.89.19,1.32"/>
</svg>