<?xml version="1.0" encoding="UTF-8"?>
<svg id="_레이어_1" data-name=" 레이어 1" xmlns="http://www.w3.org/2000/svg" viewBox="0 0 450 286.46">
  <defs>
    <style>
      .cls-1 {
        fill: #fff;
      }
    </style>
  </defs>
  <polygon class="cls-1" points="273.7 178.11 289.89 178.11 289.89 110.32 273.7 110.32 273.7 137.54 243.16 137.54 243.16 110.32 226.96 110.32 226.96 178.11 243.16 178.11 243.16 150.69 273.7 150.69 273.7 178.11"/>
  <polygon class="cls-1" points="47.82 178.11 64.01 178.11 64.01 110.32 47.82 110.32 47.82 137.54 16.2 137.54 16.2 110.32 0 110.32 0 178.11 16.2 178.11 16.2 150.69 47.82 150.69 47.82 178.11"/>
  <path class="cls-1" d="M178.33,151.18s7.74.19,14.52-.14,12.88-2.49,16.33-6.01c3.96-4.05,5.99-8.99,5.99-14.62s-2.02-10.14-6.06-14.13c-4.05-3.98-9.49-5.97-16.35-5.97h-31.31v67.79h16.89v-26.92h-.01ZM178.33,122.74h7.38c4.53,0,13.5.35,13.5,7.86,0,5.24-4.59,7.86-11.61,7.86h-9.27v-15.72Z"/>
  <polygon class="cls-1" points="450 110.18 434.75 110.25 434.91 151.69 398.56 110.39 384.97 110.45 384.97 178.24 400.22 178.17 400.05 134.74 437.64 178.03 450 177.97 450 110.18"/>
  <rect class="cls-1" x="307.76" y="137.46" width="60.22" height="13.5"/>
  <rect class="cls-1" x="307.76" y="110.32" width="60.22" height="13.5"/>
  <rect class="cls-1" x="307.76" y="164.61" width="60.22" height="13.5"/>
  <g>
    <rect class="cls-1" x="104.04" y="141.86" width="18.58" height="36.25"/>
    <rect class="cls-1" x="114.86" y="116.84" width="35.51" height="16.42" transform="translate(-47.5 97.05) rotate(-34.48)"/>
    <rect class="cls-1" x="85.84" y="107.28" width="16.41" height="35.51" transform="translate(-62.26 131.77) rotate(-55.52)"/>
  </g>
</svg>