<?xml version="1.0" encoding="UTF-8"?>
<svg id="_레이어_1" data-name=" 레이어 1" xmlns="http://www.w3.org/2000/svg" viewBox="0 0 450 324.42">
  <defs>
    <style>
      .cls-1 {
        fill: #fff;
      }
    </style>
  </defs>
  <path class="cls-1" d="M25.69,125.15v79.2H0v-79.2h25.69ZM0,125.15l79.35-5.71v22.26L0,150.26v-25.11ZM48.52,182.94l-15.41-20.84,46.24-30.83v27.4l-30.83,24.26h0Z"/>
  <path class="cls-1" d="M90.45,125.15v25.26l77.92-9.13v-21.84l-77.92,5.71ZM149.53,161.82l-27.11.43,34.25,45.24,19.84-14.56-26.97-31.11h0ZM116.14,125.15h-25.69v79.2h25.69v-79.2ZM135.26,179.38l33.11-23.98v-27.69l-45.95,34.54s12.84,17.13,12.84,17.13Z"/>
  <path class="cls-1" d="M224.07,182.02c-11.99,0-20.41-8.28-20.41-20.55,0-11.56,8.42-19.98,20.41-19.98s19.98,8.42,19.98,19.98c0,12.27-8.28,20.55-19.98,20.55ZM223.93,206.7c25.97,0,44.81-18.98,44.81-44.95s-18.84-44.81-44.81-44.81-44.95,18.84-44.95,44.81,18.84,44.95,44.95,44.95Z"/>
  <path class="cls-1" d="M405.33,182.02c-11.99,0-20.41-8.28-20.41-20.55,0-11.56,8.42-19.98,20.41-19.98s19.98,8.42,19.98,19.98c0,12.27-8.28,20.55-19.98,20.55ZM405.19,206.7c25.97,0,44.81-18.98,44.81-44.95s-18.84-44.81-44.81-44.81-44.95,18.84-44.95,44.81,18.84,44.95,44.95,44.95Z"/>
  <path class="cls-1" d="M354.93,146.34v-26.69l-79.63,5.14v26.4l79.63-4.85ZM328.81,125.36h-27.54v78.49h27.54v-78.49Z"/>
</svg>