<?xml version="1.0" encoding="UTF-8"?>
<svg id="_레이어_1" data-name=" 레이어 1" xmlns="http://www.w3.org/2000/svg" viewBox="0 0 450.01 283.79">
  <defs>
    <style>
      .cls-1 {
        fill: #fff;
      }
    </style>
  </defs>
  <path class="cls-1" d="M436.17,147.26v-28.05h13.83v-38.91h-27.85v-14.14h-14.06v-14.05h-14.18v14.06h-14.06v14.14h-121.49c9.44,2.03,16.52,10.42,16.52,20.46,0,11.56-9.37,20.93-20.93,20.93s-20.93-9.37-20.93-20.93c0-10.05,7.08-18.43,16.52-20.46H42.29v-14.14h-14.06v-14.06h-14.18v14.06H0v30.25c2.36-8.97,10.53-15.58,20.24-15.58,11.56,0,20.93,9.37,20.93,20.93s-9.37,20.93-20.93,20.93C10.53,122.7,2.36,116.09,0,107.12v82.28h55.38l-.06-27.64h14.18v14.06h14.06v13.59h46.49v42.27h28.24v-14.06h-14.18v-14.18h14.18v-14.03h54.98v42.27h28.23v-14.06h-14.18v-14.18h14.18v-14.03h61.6v-27.68h-14.18v-14.06h-14.06v-14.18h14.06v-14.18h-14.06v-14.06h14.06v-14.06h14.18v70.53h14.18v14.06h14.06v13.62h118.67v-27.89h-13.83v-.06h-42.26v-14.18h14.06v-14.06h14.18v14.06h14.02,0ZM69.37,147.66h-14.06v14.06h-14.18v-42.29h14.18v14.06h14.06v14.18h0ZM87.53,94.67h28.24v28.24h-14.18v-14.06h-14.06v-14.18ZM87.53,133.11h42.29v14.18h-42.29s0-14.18,0-14.18ZM129.78,175.89v-14.18h28.24v27.65h-14.18v-13.47h-14.06ZM156.5,108.85v-14.18h56.44v28.24h-14.18v-14.06h-14.02v14.06h-14.18v-14.06h-14.06ZM213.04,175.89v-14.18h-42.29v-14.18h14.06v-14.06h14.18v14.06h14.06v14.18h28.24v27.65h-14.18v-13.47h-14.07,0ZM331.2,94.67h28.24v28.24h-14.18v-14.06h-14.06v-14.18ZM373.49,147.66h-14.06v14.06h-14.18v-14.06h-14.06v-14.18h42.29v14.18h0ZM401.13,122.42c-11.56,0-20.93-9.37-20.93-20.93s9.37-20.93,20.93-20.93,20.93,9.37,20.93,20.93-9.37,20.93-20.93,20.93Z"/>
  <path class="cls-1" d="M28.52,101.49c0-4.42-3.58-8.01-8.01-8.01s-8.01,3.58-8.01,8.01,3.58,8.01,8.01,8.01,8.01-3.58,8.01-8.01Z"/>
  <path class="cls-1" d="M246.17,100.5c0,4.42,3.58,8.01,8.01,8.01s8.01-3.58,8.01-8.01-3.58-8.01-8.01-8.01-8.01,3.58-8.01,8.01h0Z"/>
  <path class="cls-1" d="M401.13,93.48c-4.42,0-8.01,3.58-8.01,8.01s3.58,8.01,8.01,8.01,8.01-3.58,8.01-8.01-3.58-8.01-8.01-8.01Z"/>
</svg>