<?xml version="1.0" encoding="UTF-8"?>
<svg id="_레이어_1" data-name=" 레이어 1" xmlns="http://www.w3.org/2000/svg" viewBox="0 0 449.99 282.06">
  <defs>
    <style>
      .cls-1 {
        fill: #fff;
      }
    </style>
  </defs>
  <polygon class="cls-1" points="0 67.3 0 211.75 57.77 211.75 57.77 146.19 68.89 146.19 68.89 211.75 126.66 211.75 126.66 67.3 68.89 67.3 68.89 137.3 57.77 137.3 57.77 67.3 0 67.3 0 67.3"/>
  <polygon class="cls-1" points="136.66 67.3 136.66 211.75 195.55 211.75 195.55 67.3 136.66 67.3 136.66 67.3"/>
  <polygon class="cls-1" points="205.11 67.3 205.11 211.75 260.69 211.75 260.69 67.3 205.11 67.3 205.11 67.3"/>
  <path class="cls-1" d="M271.52,67.3v104.45h27.77c20.97,0,35.7-18.4,35.7-50.34s-16.67-54.1-35.7-54.1h-27.77"/>
  <path class="cls-1" d="M393.77,62.11s-49.41-.16-49.41,54.74c0,34.03,26.21,43.27,41.5,53.31,0,0,26.64,12.65,28.38,28.38,1.74,15.72-29.33,19.32-48.48,5.32-9.74-8.56-14.84-14.49-14.84-14.49-7.86-3.93-4.8,4.8-4.8,4.8,0,0,14.41,26.63,49.77,25.76,35.36-.88,55.27-31.96,54.05-59.42-1.22-27.47-18.68-40.13-49.25-60.21-23.5-15.46-24.35-16.75-24.88-21.84,3.38-11.16,17.66-10.64,17.66-10.64,0,0,26.88-3.33,40.84,28.54,5.18,4.18,6.17-2.25,6.17-2.25.01,0-6.7-31.29-46.71-32h0Z"/>
</svg>