<?xml version="1.0" encoding="UTF-8"?>
<svg id="_레이어_1" data-name=" 레이어 1" xmlns="http://www.w3.org/2000/svg" viewBox="0 0 588.03 287.57">
  <defs>
    <style>
      .cls-1 {
        fill: #fff;
      }
    </style>
  </defs>
  <path class="cls-1" d="M218.47,0h-59.15l-90.31,176.64h56.48l15.99-32.77h92.98l15.72,32.24h58.88L218.47,0ZM162.93,102.71l25.44-49.95,25.44,49.95h-50.89,0Z"/>
  <path class="cls-1" d="M518.83,85.88C513.5-7.9,407.02.62,407.02.62l-92.45.35v175.49h96.98s112.61,3.2,107.28-90.59h0ZM419.71,132.77h-53.28V43.25l49.38,1.07c50.44.35,50.09,39.43,50.09,39.43,5.68,46.89-46.18,49.02-46.18,49.02h-.01Z"/>
  <path class="cls-1" d="M89.55,219.94v66.34h14.73v-31.57s-1.16-21.38,24.75-21.05c0,0,1.11-.13,8.24,1.34v-14.19s-19.63-6.13-32.89,8.86v-9.72h-14.83Z"/>
  <path class="cls-1" d="M183.39,219.36s-28.33-4.8-41.92,16.16c0,0-9.06,12.88-2.93,29.31,0,0,2.22,11.28,18.92,19.36,0,0,15.27,7.02,33.66.8,0,0,15.19-4.26,20.61-19.72l-12.27-6.14s-2.43,12.22-17.39,15.02c0,0-11.81,2.93-22.07-3.51,0,0-7.77-4.57-9.02-12.92h61.28v-6.13s1.87-26.02-28.86-32.24h-.01ZM151.78,246s6.35-15.41,23.89-14.56c19.27.93,21.85,14.56,21.85,14.56,0,0-45.74,0-45.74,0Z"/>
  <path class="cls-1" d="M220.61,220.07v66.03h14.74v-34.1s-.62-18.61,20.69-19.67c0,0,19.85-2.06,18.78,20.85v33.1h14.92v-37.43s1.53-21.85-19.58-28.51c0,0-12.99-4.2-25.78,1.73,0,0-3.4,1-8.93,5.99v-8.06l-14.85.07h.01Z"/>
  <path class="cls-1" d="M370.27,274.75c-3.4.27-3.4-2.66-3.4-2.66v-27.97c.4-7.59-2.93-12.86-2.93-12.86-6.75-10.83-19.54-11.63-19.54-11.63-17.14-3.46-29.84,3.46-29.84,3.46-12.88,5.68-15.1,15.76-15.1,15.76l12.48,5.33c2.04-6.26,7.63-9.01,7.63-9.01,9.1-5.15,19.18-3.42,19.18-3.42,14.88,1.42,13.77,11.24,13.77,11.24l-29.31,3.24c-10.48,1.2-16.12,4.93-16.12,4.93-13.19,7.64-9.19,20.47-9.19,20.47,4.22,15.5,23.98,15.81,23.98,15.81,21.44,1.42,32.37-9.55,32.37-9.55,1.51,4.49,4.93,6.26,4.93,6.26,6.62,4.57,18.25,1.78,18.25,1.78v-12.12c-5.37,1.33-7.17.95-7.17.95h.01ZM349.89,266.83c-5.66,6.46-16.59,7.93-16.59,7.93-15.32,2-19.31-2.93-19.31-2.93-3.46-3.6-1.73-7.26-1.73-7.26,1.06-5.46,13.19-6.46,13.19-6.46l27.04-3,.09,4.17c-.09,4.75-2.69,7.55-2.69,7.55Z"/>
  <polygon class="cls-1" points="382.77 196.62 397.51 196.62 397.51 286.23 382.68 286.23 382.77 196.62"/>
  <g>
    <polygon class="cls-1" points="409.95 196.62 409.95 212.61 425.67 212.61 425.67 196.53 409.95 196.62"/>
    <rect class="cls-1" x="410.39" y="220.07" width="14.65" height="66.25"/>
  </g>
  <path class="cls-1" d="M438.01,220.07v66.03h14.74v-34.1s-.62-18.61,20.69-19.67c0,0,19.85-2.06,18.78,20.85v33.1h14.92v-37.43s1.53-21.85-19.58-28.51c0,0-12.99-4.2-25.78,1.73,0,0-3.4,1-8.93,5.99v-8.06l-14.85.07h0Z"/>
</svg>