<?xml version="1.0" encoding="UTF-8"?>
<svg id="_레이어_1" data-name="레이어 1" xmlns="http://www.w3.org/2000/svg" viewBox="0 0 34.08 35.34">
  <polygon points="25.17 24.59 32.79 24.58 32.79 19.78 20.1 19.8 20.12 34.74 32.81 34.73 32.8 29.87 25.18 29.88 25.17 24.59"/>
  <rect x="3.43" y="0" width="8.34" height="3.04" transform="translate(0 0) rotate(-.07)"/>
  <path d="M26.59,15.02c4.14,0,7.49-3.32,7.49-7.39,0-4.07-3.37-7.38-7.51-7.37-4.13,0-7.49,3.32-7.49,7.39,0,4.07,3.37,7.38,7.51,7.37M23.58,7.64c0-1.63,1.34-2.95,3-2.96,1.65,0,3,1.32,3,2.95,0,1.63-1.34,2.95-3,2.96-1.65,0-3-1.32-3-2.95"/>
  <path d="M7.75,12.09c-1.19,0-2.16-.95-2.16-2.12s.97-2.12,2.15-2.12c1.19,0,2.16.95,2.16,2.12s-.97,2.12-2.15,2.12M14.65,3.41l-14.09.02v3.97s1.07,0,1.07,0c-.35.79-.54,1.67-.54,2.58,0,3.61,2.99,6.55,6.66,6.54,3.67,0,6.65-2.94,6.65-6.56,0-.92-.2-1.79-.54-2.58h.79s0-3.97,0-3.97Z"/>
  <polygon points="0 33.53 4.66 35.34 7.81 28.54 10.97 35.34 15.62 33.51 7.76 19.19 0 33.53"/>
</svg>