<?xml version="1.0" encoding="UTF-8"?>
<svg id="_레이어_1" data-name="레이어 1" xmlns="http://www.w3.org/2000/svg" viewBox="0 0 48.43 46.25">
  <defs>
    <style>
      .cls-1 {
        fill: #231f20;
      }

      .cls-2 {
        isolation: isolate;
      }

      .cls-3 {
        fill: #fff;
      }
    </style>
  </defs>
  <g class="cls-2">
    <rect class="cls-3" width="48.43" height="46.25"/>
  </g>
  <rect class="cls-1" x="11.86" y="7.77" width="7.67" height="2.59" transform="translate(0 .02) rotate(-.06)"/>
  <path class="cls-1" d="M33.15,20.57c3.8,0,6.89-2.83,6.89-6.3,0-3.47-3.1-6.29-6.9-6.28-3.8,0-6.89,2.83-6.88,6.3,0,3.47,3.1,6.29,6.9,6.28M30.39,14.28c0-1.39,1.23-2.52,2.75-2.52,1.52,0,2.76,1.13,2.76,2.51,0,1.39-1.23,2.52-2.76,2.52-1.52,0-2.76-1.13-2.76-2.51"/>
  <path class="cls-1" d="M15.83,18.07c-1.09,0-1.98-.81-1.99-1.81,0-1,.89-1.81,1.98-1.81,1.09,0,1.98.81,1.98,1.81,0,1-.89,1.81-1.98,1.81M22.17,10.67h-12.95s0,3.4,0,3.4h.98c-.32.67-.5,1.42-.49,2.2,0,3.08,2.75,5.58,6.12,5.58,3.37,0,6.11-2.51,6.11-5.59,0-.78-.18-1.53-.5-2.2h.73s0-3.38,0-3.38Z"/>
  <polygon class="cls-1" points="23.07 36.33 15.84 24.12 8.71 36.35 12.99 37.89 15.88 32.09 18.79 37.88 23.07 36.33"/>
  <polygon class="cls-1" points="31.85 28.72 38.86 28.71 38.85 24.62 27.19 24.64 27.21 37.37 38.87 37.36 38.86 33.22 31.85 33.23 31.85 28.72"/>
</svg>